<svg xmlns="http://www.w3.org/2000/svg" xmlns:xlink="http://www.w3.org/1999/xlink" width="500" zoomAndPan="magnify" viewBox="0 0 375 374.999991" height="500" preserveAspectRatio="xMidYMid meet" version="1.0"><path fill="#fff4f5" d="M 137.917969 91.992188 C 137.917969 117.855469 158.875 138.820312 184.738281 138.820312 C 210.597656 138.820312 231.574219 117.855469 231.574219 91.992188 C 231.574219 66.136719 210.597656 45.164062 184.738281 45.164062 C 158.875 45.164062 137.917969 66.136719 137.917969 91.992188 Z M 185.363281 96.875 C 200.894531 94.578125 214.566406 100.003906 215.890625 108.992188 C 217.226562 117.984375 203.300781 110.855469 187.773438 113.152344 C 172.238281 115.453125 160.984375 126.304688 159.652344 117.316406 C 158.324219 108.328125 169.835938 99.175781 185.363281 96.875 Z M 185.363281 96.875 " fill-opacity="1" fill-rule="nonzero"/><path fill="#fff4f5" d="M 103.242188 256.949219 C 93.894531 259.136719 87.109375 267.082031 86.410156 276.640625 L 82.347656 331.386719 C 81.675781 340.328125 86.492188 348.417969 93.945312 352.371094 C 96.53125 353.742188 99.449219 354.613281 102.5625 354.847656 C 114.625 355.742188 125.136719 346.691406 126.03125 334.632812 L 128.90625 295.914062 L 166.238281 287.136719 C 167.074219 286.941406 167.828125 286.605469 168.617188 286.316406 L 133.644531 249.804688 Z M 103.242188 256.949219 " fill-opacity="1" fill-rule="nonzero"/><path fill="#fff4f5" d="M 226.699219 308.800781 L 211.121094 344.355469 C 206.253906 355.433594 211.304688 368.347656 222.390625 373.210938 C 225.25 374.460938 228.238281 375.058594 231.171875 375.058594 C 239.609375 375.058594 247.640625 370.160156 251.246094 361.9375 L 273.289062 311.675781 C 277.128906 302.886719 274.855469 292.695312 267.640625 286.375 L 239.132812 261.472656 L 201.101562 286.417969 Z M 226.699219 308.800781 " fill-opacity="1" fill-rule="nonzero"/><path fill="#fff4f5" d="M 87.683594 187.597656 C 90.589844 191.964844 95.449219 194.464844 100.515625 194.464844 C 101.910156 194.464844 103.328125 194.277344 104.71875 193.878906 L 139.746094 183.953125 L 139.746094 232.078125 L 229.722656 243.769531 L 229.722656 184.261719 L 258.84375 193.707031 C 260.398438 194.210938 262.003906 194.460938 263.601562 194.460938 C 266.183594 194.460938 268.75 193.816406 271.054688 192.542969 L 313.914062 168.886719 C 321.371094 164.769531 324.082031 155.390625 319.964844 147.929688 C 315.847656 140.472656 306.46875 137.765625 299.007812 141.878906 L 262.003906 162.304688 L 222.835938 149.59375 C 220.691406 148.894531 218.503906 148.726562 216.398438 148.960938 C 216.25 148.957031 216.113281 148.914062 215.960938 148.914062 L 153.523438 148.914062 C 152.695312 148.914062 151.894531 149.015625 151.101562 149.160156 C 149.902344 149.207031 148.699219 149.351562 147.496094 149.691406 L 107.113281 161.136719 L 83.292969 125.398438 C 78.574219 118.3125 68.992188 116.390625 61.902344 121.121094 C 54.816406 125.84375 52.902344 135.417969 57.625 142.507812 Z M 87.683594 187.597656 " fill-opacity="1" fill-rule="nonzero"/><path fill="#fff4f5" d="M 153.914062 43.175781 C 155.667969 43.445312 157.296875 42.238281 157.558594 40.488281 C 157.820312 38.738281 156.625 37.101562 154.871094 36.839844 C 147.355469 35.703125 141.085938 37.015625 136.238281 40.753906 C 128.757812 46.519531 127.667969 55.933594 127.628906 56.328125 C 127.4375 58.082031 128.707031 59.652344 130.460938 59.851562 C 130.582031 59.863281 130.699219 59.871094 130.816406 59.871094 C 132.421875 59.871094 133.808594 58.660156 134 57.027344 C 134.003906 56.953125 134.882812 49.855469 140.195312 45.792969 C 143.601562 43.191406 148.21875 42.3125 153.914062 43.175781 Z M 153.914062 43.175781 " fill-opacity="1" fill-rule="nonzero"/><path fill="#fff4f5" d="M 116.707031 52.644531 C 116.882812 52.671875 117.0625 52.691406 117.234375 52.691406 C 118.769531 52.691406 120.132812 51.574219 120.390625 50.011719 C 120.410156 49.894531 122.378906 38.671875 131.402344 32.394531 C 137.3125 28.28125 145.03125 27.097656 154.371094 28.878906 C 156.101562 29.203125 157.785156 28.070312 158.121094 26.332031 C 158.453125 24.59375 157.316406 22.917969 155.574219 22.582031 C 144.457031 20.460938 135.0625 22.003906 127.675781 27.175781 C 116.429688 35.050781 114.160156 48.410156 114.070312 48.980469 C 113.78125 50.71875 114.964844 52.359375 116.707031 52.644531 Z M 116.707031 52.644531 " fill-opacity="1" fill-rule="nonzero"/><path fill="#fff4f5" d="M 286.574219 286.355469 C 285.195312 285.253906 283.1875 285.484375 282.082031 286.859375 C 282.007812 286.953125 281.9375 287.050781 281.875 287.152344 C 281.011719 288.503906 281.289062 290.324219 282.566406 291.363281 C 282.625 291.40625 288.140625 295.953125 288.714844 302.621094 C 289.082031 306.890625 287.347656 311.257812 283.5625 315.597656 C 282.394531 316.933594 282.542969 318.957031 283.871094 320.121094 C 285.207031 321.285156 287.230469 321.148438 288.394531 319.8125 C 293.386719 314.082031 295.640625 308.085938 295.089844 301.992188 C 294.246094 292.574219 286.886719 286.605469 286.574219 286.355469 Z M 286.574219 286.355469 " fill-opacity="1" fill-rule="nonzero"/><path fill="#fff4f5" d="M 295.519531 328.183594 C 296.804688 329.394531 298.832031 329.339844 300.046875 328.046875 C 307.808594 319.808594 311.550781 311.054688 311.148438 302.042969 C 310.546875 288.332031 300.488281 279.242188 300.058594 278.855469 C 298.738281 277.683594 296.722656 277.804688 295.546875 279.121094 C 295.425781 279.253906 295.320312 279.394531 295.226562 279.539062 C 294.398438 280.839844 294.609375 282.585938 295.792969 283.644531 C 295.875 283.71875 304.292969 291.40625 304.746094 302.386719 C 305.046875 309.578125 301.898438 316.726562 295.378906 323.648438 C 294.183594 324.945312 294.230469 326.96875 295.519531 328.183594 Z M 295.519531 328.183594 " fill-opacity="1" fill-rule="nonzero"/><path fill="#fff4f5" d="M 89.21875 249.367188 C 90.984375 249.164062 92.234375 247.566406 92.023438 245.8125 C 91.816406 244.054688 90.226562 242.796875 88.460938 243.003906 C 80.914062 243.898438 75.21875 246.824219 71.53125 251.710938 C 65.84375 259.257812 67.289062 268.621094 67.355469 269.011719 C 67.636719 270.753906 69.277344 271.929688 71.015625 271.65625 C 71.136719 271.640625 71.25 271.613281 71.363281 271.582031 C 72.910156 271.160156 73.929688 269.621094 73.683594 267.996094 C 73.667969 267.925781 72.632812 260.847656 76.683594 255.523438 C 79.28125 252.117188 83.5 250.042969 89.21875 249.367188 Z M 89.21875 249.367188 " fill-opacity="1" fill-rule="nonzero"/><path fill="#fff4f5" d="M 55.847656 268.351562 C 56.023438 268.335938 56.195312 268.300781 56.363281 268.253906 C 57.847656 267.84375 58.863281 266.414062 58.699219 264.835938 C 58.6875 264.722656 57.613281 253.375 64.652344 244.929688 C 69.261719 239.402344 76.390625 236.214844 85.871094 235.464844 C 87.628906 235.316406 88.953125 233.78125 88.808594 232.015625 C 88.667969 230.253906 87.125 228.933594 85.359375 229.074219 C 74.074219 229.976562 65.429688 233.949219 59.675781 240.894531 C 50.914062 251.464844 52.261719 264.949219 52.324219 265.523438 C 52.519531 267.273438 54.089844 268.542969 55.847656 268.351562 Z M 55.847656 268.351562 " fill-opacity="1" fill-rule="nonzero"/><path fill="#fff4f5" d="M 310.585938 41.902344 C 306.945312 20.785156 267.019531 30.351562 257.035156 52.960938 C 291.101562 47.972656 314.007812 61.777344 310.585938 41.902344 Z M 310.585938 41.902344 " fill-opacity="1" fill-rule="nonzero"/><path fill="#fff4f5" d="M 252.257812 9.367188 C 238.136719 -0.0546875 221.863281 28.105469 229.414062 46.175781 C 245.125 23.875 265.550781 18.238281 252.257812 9.367188 Z M 252.257812 9.367188 " fill-opacity="1" fill-rule="nonzero"/><path fill="#fff4f5" d="M 253.542969 88.828125 C 277.375 89.800781 291.199219 102.136719 291.414062 88.167969 C 291.648438 73.320312 263.246094 74.714844 253.542969 88.828125 Z M 253.542969 88.828125 " fill-opacity="1" fill-rule="nonzero"/></svg>