<svg xmlns="http://www.w3.org/2000/svg" xmlns:xlink="http://www.w3.org/1999/xlink" width="500" zoomAndPan="magnify" viewBox="0 0 375 374.999991" height="500" preserveAspectRatio="xMidYMid meet" version="1.0"><path fill="#fff4f5" d="M 214.921875 336.007812 C 213.539062 338.082031 211.820312 339.921875 209.816406 341.441406 L 220.027344 341.441406 C 218.023438 339.921875 216.300781 338.082031 214.921875 336.007812 Z M 214.921875 336.007812 " fill-opacity="1" fill-rule="nonzero"/><path fill="#fff4f5" d="M 174.640625 375.011719 L 179.984375 341.441406 L 183.058594 341.441406 C 178.707031 338.164062 175.527344 333.316406 174.519531 327.542969 L 173.511719 321.804688 L 165.28125 373.523438 Z M 174.640625 375.011719 " fill-opacity="1" fill-rule="nonzero"/><path fill="#fff4f5" d="M 246.785156 341.441406 L 249.128906 341.441406 L 254.472656 375.011719 L 263.832031 373.523438 L 255.945312 323.984375 L 255.320312 327.542969 C 254.3125 333.316406 251.132812 338.164062 246.785156 341.441406 Z M 246.785156 341.441406 " fill-opacity="1" fill-rule="nonzero"/><path fill="#fff4f5" d="M 171.382812 233.0625 C 173.894531 231.367188 176.777344 230.152344 179.945312 229.597656 C 192.023438 227.484375 203.578125 235.589844 205.691406 247.667969 L 205.925781 249.011719 C 207.328125 243.921875 209.71875 239.433594 212.703125 235.441406 C 206.449219 227.949219 198.0625 222.28125 191.097656 217.578125 C 186.847656 214.707031 180.558594 210.457031 178.902344 208.121094 C 179.628906 195.96875 180.839844 186.867188 182.171875 180.054688 L 185.566406 180.621094 C 184.320312 186.96875 183.160156 195.511719 182.425781 206.925781 C 184.625 209.046875 190.167969 212.792969 193.015625 214.714844 C 200.042969 219.464844 208.453125 225.144531 214.921875 232.675781 C 221.390625 225.144531 229.800781 219.464844 236.828125 214.714844 C 239.675781 212.792969 245.21875 209.046875 247.417969 206.925781 C 246.683594 195.511719 245.523438 186.96875 244.273438 180.621094 L 247.667969 180.054688 C 249.003906 186.867188 250.210938 195.96875 250.941406 208.121094 C 249.285156 210.457031 242.992188 214.707031 238.746094 217.578125 C 226.164062 226.074219 208.933594 237.710938 208.042969 257.550781 C 207.746094 264.15625 212.859375 269.75 219.464844 270.046875 C 219.644531 270.054688 219.828125 270.058594 220.007812 270.058594 C 220.085938 270.058594 220.15625 270.050781 220.230469 270.046875 L 224.148438 247.671875 C 226.265625 235.589844 237.816406 227.484375 249.894531 229.601562 C 253.0625 230.15625 255.949219 231.371094 258.457031 233.0625 C 267.671875 226.445312 275.542969 218.980469 274.894531 207.671875 C 274.199219 195.511719 272.988281 185.035156 271.273438 176.117188 C 267.949219 158.847656 262.699219 147.519531 255.386719 141.867188 C 251.105469 138.558594 247.066406 137.765625 244.265625 137.730469 C 244.117188 137.722656 243.972656 137.707031 243.828125 137.707031 L 238.464844 137.707031 C 237.152344 156.988281 221.058594 172.277344 201.449219 172.277344 C 186.273438 172.277344 173.203125 163.117188 167.460938 150.039062 C 163.667969 156.292969 160.710938 164.960938 158.566406 176.117188 C 156.847656 185.035156 155.636719 195.511719 154.941406 207.671875 C 154.296875 218.976562 162.167969 226.441406 171.382812 233.0625 Z M 171.382812 233.0625 " fill-opacity="1" fill-rule="nonzero"/><path fill="#fff4f5" d="M 210.304688 270.046875 C 210.027344 269.820312 209.75 269.589844 209.488281 269.34375 L 209.609375 270.046875 C 209.683594 270.046875 209.757812 270.058594 209.832031 270.058594 C 209.988281 270.058594 210.148438 270.050781 210.304688 270.046875 Z M 210.304688 270.046875 " fill-opacity="1" fill-rule="nonzero"/><path fill="#fff4f5" d="M 201.453125 168.832031 C 220.050781 168.832031 235.121094 153.761719 235.121094 135.164062 C 235.121094 116.570312 220.050781 101.496094 201.453125 101.496094 C 182.859375 101.496094 167.785156 116.570312 167.785156 135.164062 C 167.785156 153.757812 182.859375 168.832031 201.453125 168.832031 Z M 215.828125 154.25 C 197.5 143.324219 181.425781 148.953125 181.269531 149.007812 L 179.738281 144.789062 C 180.472656 144.523438 197.996094 138.390625 218.128906 150.398438 Z M 215.828125 154.25 " fill-opacity="1" fill-rule="nonzero"/><path fill="#fff4f5" d="M 199.617188 341.929688 C 205.550781 340.890625 210.308594 337.125 212.867188 332.152344 C 211.3125 328.390625 210.75 324.167969 211.503906 319.871094 L 213.019531 311.203125 L 202.007812 248.3125 C 200.246094 238.246094 190.65625 231.519531 180.589844 233.28125 C 170.527344 235.042969 163.796875 244.628906 165.558594 254.695312 L 178.203125 326.898438 C 179.96875 336.964844 189.554688 343.691406 199.617188 341.929688 Z M 199.617188 341.929688 " fill-opacity="1" fill-rule="nonzero"/><path fill="#fff4f5" d="M 215.191406 320.515625 C 213.425781 330.582031 220.160156 340.167969 230.222656 341.929688 C 240.285156 343.691406 249.875 336.964844 251.640625 326.898438 L 264.285156 254.699219 C 266.046875 244.628906 259.3125 235.046875 249.253906 233.28125 C 239.1875 231.519531 229.597656 238.246094 227.835938 248.3125 Z M 215.191406 320.515625 " fill-opacity="1" fill-rule="nonzero"/><path fill="#fff4f5" d="M 158.136719 88.765625 C 158.292969 89.71875 158.644531 90.761719 159.25 91.902344 C 162.957031 98.917969 172.269531 100.335938 177.132812 93.875 C 177.441406 93.460938 177.261719 92.863281 176.804688 92.648438 C 173.730469 91.226562 173.589844 91.902344 169.921875 91.429688 C 168.101562 91.195312 165.382812 93.734375 168.296875 94.109375 C 173.207031 94.738281 170.726562 96.003906 167.816406 94.75 C 166.15625 94.035156 164.589844 92.421875 163.683594 90.875 C 163.09375 89.871094 162.75 88.976562 162.589844 88.179688 C 168.09375 87.121094 173.410156 84.863281 176.855469 81.242188 C 177.734375 80.324219 177.007812 79.507812 175.90625 79.457031 C 170.375 79.199219 159.578125 80.472656 158.183594 86.351562 C 152.714844 86.808594 147.398438 85.6875 144.828125 81.996094 C 143.4375 79.996094 142.863281 78.140625 142.898438 76.433594 C 145.402344 77.15625 148.042969 77.515625 149.632812 77.730469 C 155.058594 78.457031 192.46875 77.121094 188.9375 66.554688 C 188.453125 65.101562 186.929688 64.082031 185.191406 63.328125 C 186.234375 61.914062 186.738281 60.375 186.046875 58.90625 C 187.957031 57.554688 189.464844 55.816406 190.382812 53.636719 C 195.46875 51.003906 199.472656 47.007812 201.113281 40.976562 C 201.269531 40.410156 201.363281 39.886719 201.429688 39.386719 C 203.714844 38.167969 205.769531 36.644531 207.421875 34.695312 C 213.5 27.523438 209.527344 17.175781 202.070312 12.867188 C 193.9375 8.171875 183.410156 8.050781 173.929688 9.246094 C 165.046875 0.574219 151.097656 0.0546875 139.234375 4.695312 C 123.992188 10.660156 110 23.507812 103.699219 38.710938 C 99.511719 48.804688 105.730469 52.710938 113.710938 54.355469 C 118.308594 61.617188 129.363281 65.28125 136.902344 67.171875 C 137.09375 67.421875 137.300781 67.660156 137.519531 67.890625 C 137.410156 68.0625 137.28125 68.230469 137.179688 68.410156 C 135.445312 71.488281 136.761719 73.542969 139.152344 74.929688 C 137.617188 81.476562 142.835938 87.351562 150.019531 88.5 C 152.492188 88.894531 155.277344 88.984375 158.136719 88.765625 Z M 171.097656 82.164062 C 168.894531 83.632812 165.996094 84.835938 162.875 85.59375 C 164.03125 83.28125 167.636719 82.378906 171.097656 82.164062 Z M 161.839844 75.316406 C 158.972656 75.550781 148.769531 75.308594 143.78125 73.117188 C 144.042969 72.609375 144.363281 72.121094 144.726562 71.648438 C 147.789062 72.476562 151.011719 72.824219 153.410156 72.996094 C 162.679688 73.679688 172.316406 72.605469 180.347656 67.558594 C 181.082031 67.101562 181.90625 66.519531 182.710938 65.863281 C 183.902344 66.527344 184.730469 67.3125 184.785156 68.242188 C 185.085938 73.207031 164.992188 75.058594 161.839844 75.316406 Z M 170.402344 12.273438 C 175.609375 18.058594 178.0625 26.0625 176.628906 33.121094 C 171.886719 31.804688 166.507812 31.242188 161.222656 31.289062 C 160.917969 31.226562 160.609375 31.160156 160.296875 31.105469 C 150.925781 29.519531 140.5625 30.378906 131.140625 32.667969 C 131.757812 31.113281 132.6875 29.617188 133.878906 28.261719 C 142.3125 18.6875 157.398438 14.035156 170.402344 12.273438 Z M 186.585938 52.621094 C 185.984375 52.882812 185.367188 53.121094 184.742188 53.339844 C 185.003906 51.1875 184.683594 48.960938 183.550781 46.769531 C 182.996094 45.699219 182.304688 44.730469 181.515625 43.839844 C 182.933594 43.769531 184.382812 43.667969 185.84375 43.523438 C 187.28125 46.003906 187.683594 49.011719 186.585938 52.621094 Z M 143.960938 66.054688 C 145.1875 65.074219 146.5625 64.199219 148.039062 63.414062 C 148.867188 63.492188 149.691406 63.582031 150.519531 63.644531 C 148.753906 64.382812 147.082031 65.273438 145.570312 66.328125 C 145.035156 66.246094 144.496094 66.148438 143.960938 66.054688 Z M 158.292969 64.019531 C 160.621094 64.066406 162.949219 64.074219 165.269531 63.984375 C 167.695312 63.890625 170.617188 63.695312 173.609375 63.238281 C 173.789062 63.269531 173.96875 63.300781 174.167969 63.335938 C 172.074219 64.652344 169.628906 65.554688 167.101562 66.074219 C 162.175781 67.089844 156.511719 67.367188 150.746094 66.921875 C 153.226562 65.605469 155.933594 64.632812 158.292969 64.019531 Z M 173.25 66.863281 C 174.875 66.207031 176.472656 65.265625 177.949219 64.128906 C 178.589844 64.292969 179.230469 64.476562 179.851562 64.675781 C 177.949219 66.15625 175.371094 67.292969 174.132812 67.828125 C 167.417969 70.71875 155.175781 72.398438 146.96875 69.375 C 147.058594 69.304688 147.15625 69.234375 147.25 69.160156 C 156.027344 70.308594 165.300781 70.066406 173.25 66.863281 Z M 177.863281 60.023438 C 177.046875 60.265625 176.203125 60.46875 175.339844 60.640625 C 172.132812 60.109375 168.9375 59.992188 165.578125 60.277344 C 163.355469 60.464844 160.917969 60.785156 158.445312 61.289062 C 158.371094 61.285156 158.28125 61.28125 158.210938 61.277344 C 156.683594 61.214844 155.15625 61.125 153.632812 61.015625 C 157.066406 59.835938 160.703125 59.03125 164.125 58.535156 C 167.757812 58.519531 171.777344 58.347656 175.796875 57.820312 C 176.921875 57.882812 178.027344 58.023438 179 58.277344 C 178.667969 58.898438 178.285156 59.476562 177.863281 60.023438 Z M 178.558594 54.863281 C 174.125 54.195312 168.835938 54.890625 164.246094 55.855469 C 159.324219 55.859375 154.386719 55.523438 149.496094 54.878906 C 154.125 54.042969 158.53125 52.585938 162.320312 50.183594 C 163.574219 49.851562 164.78125 49.496094 165.894531 49.117188 C 169.324219 47.949219 172.257812 46.1875 174.652344 44.003906 C 174.675781 44.003906 174.695312 44.003906 174.714844 44.003906 C 174.96875 44.003906 175.234375 44 175.488281 44 C 178.46875 46.242188 180.675781 49.277344 180.378906 53.34375 C 180.34375 53.757812 180.292969 54.160156 180.226562 54.554688 C 179.671875 54.667969 179.117188 54.769531 178.558594 54.863281 Z M 130.304688 36.851562 C 133.089844 36.488281 135.964844 36.230469 138.882812 36.101562 C 138.859375 36.117188 138.828125 36.132812 138.804688 36.148438 C 138.210938 36.53125 137.507812 37.558594 138.472656 38.015625 C 143.171875 40.242188 148.414062 41.671875 153.804688 42.574219 C 153.753906 42.601562 153.699219 42.625 153.648438 42.652344 C 150.9375 44.09375 147.355469 46.265625 144.078125 48.914062 C 140.011719 48.289062 136.238281 46.855469 133.503906 44.160156 C 131.269531 41.953125 130.304688 39.414062 130.304688 36.851562 Z M 168.996094 43.9375 C 169.269531 43.945312 169.546875 43.953125 169.820312 43.957031 C 169.25 44.386719 168.648438 44.789062 168.003906 45.171875 C 168.320312 44.785156 168.652344 44.421875 168.949219 44.011719 C 168.96875 43.984375 168.980469 43.960938 168.996094 43.9375 Z M 145.101562 36.027344 C 151.300781 36.164062 157.511719 36.9375 163.28125 38.550781 C 161.855469 39.050781 160.441406 39.585938 159.046875 40.15625 C 153.863281 39.484375 148.519531 38.515625 143.695312 36.5625 C 144.136719 36.375 144.605469 36.195312 145.101562 36.027344 Z M 166.664062 40.046875 C 166.644531 40.285156 166.628906 40.523438 166.582031 40.777344 C 166.566406 40.851562 166.546875 40.921875 166.53125 40.996094 C 165.808594 40.925781 165.121094 40.859375 164.476562 40.789062 C 165.203125 40.535156 165.933594 40.289062 166.664062 40.046875 Z M 170.503906 41.140625 C 170.628906 41.199219 170.761719 41.25 170.886719 41.308594 C 170.917969 41.320312 170.953125 41.339844 170.984375 41.351562 C 170.804688 41.339844 170.625 41.328125 170.449219 41.316406 C 170.472656 41.257812 170.480469 41.203125 170.503906 41.140625 Z M 172.769531 38.164062 C 173.542969 37.933594 174.355469 37.683594 175.199219 37.425781 C 174.964844 37.917969 174.699219 38.394531 174.414062 38.867188 C 173.875 38.621094 173.328125 38.386719 172.769531 38.164062 Z M 171.96875 35.785156 C 171.394531 35.957031 170.8125 36.132812 170.230469 36.308594 C 169.914062 35.746094 169.496094 35.230469 168.992188 34.757812 C 170.292969 34.972656 171.570312 35.230469 172.808594 35.539062 C 172.5 35.632812 172.210938 35.714844 171.96875 35.785156 Z M 164.828125 35.835938 C 161.933594 35.214844 159.105469 34.796875 156.65625 34.476562 C 155.949219 34.382812 155.222656 34.316406 154.507812 34.234375 C 156.613281 34.054688 158.816406 33.988281 161.050781 34.039062 C 162.566406 34.472656 163.859375 35.054688 164.828125 35.835938 Z M 144.816406 33.546875 C 143.957031 33.523438 143.101562 33.5 142.238281 33.496094 C 143.484375 33.367188 144.820312 33.25 146.203125 33.160156 C 145.730469 33.285156 145.265625 33.410156 144.816406 33.546875 Z M 155.894531 44.441406 C 156.707031 44.007812 157.546875 43.605469 158.394531 43.21875 C 160.757812 43.488281 163.128906 43.675781 165.476562 43.796875 C 164.628906 45.316406 163.40625 46.59375 161.929688 47.652344 C 161.660156 47.726562 161.414062 47.816406 161.136719 47.882812 C 157.492188 48.761719 152.976562 49.414062 148.496094 49.304688 C 151.285156 47.128906 154.109375 45.390625 155.894531 44.441406 Z M 149.972656 52.066406 C 148.105469 52.398438 146.257812 52.628906 144.535156 52.789062 C 144.796875 52.527344 145.058594 52.265625 145.332031 52.011719 C 146.867188 52.109375 148.417969 52.128906 149.972656 52.066406 Z M 179.074219 41.617188 C 178.621094 41.269531 178.148438 40.941406 177.660156 40.628906 C 178.296875 39.757812 178.878906 38.851562 179.371094 37.898438 C 181.3125 38.875 182.976562 40.054688 184.273438 41.4375 C 182.542969 41.554688 180.800781 41.609375 179.074219 41.617188 Z M 182.605469 35.398438 C 186.390625 34.570312 190.238281 34.175781 193.507812 35.054688 C 195.933594 35.703125 196.933594 37.140625 197.089844 38.882812 C 194.730469 39.832031 192.050781 40.480469 189.222656 40.910156 C 187.671875 38.636719 185.382812 36.816406 182.605469 35.398438 Z M 125.53125 37.589844 C 125.65625 37.566406 125.785156 37.546875 125.90625 37.527344 C 125.828125 40.382812 126.84375 43.265625 129.496094 45.925781 C 132.535156 48.972656 136.65625 50.6875 141.164062 51.507812 C 140.632812 52.027344 140.125 52.554688 139.644531 53.101562 C 139.589844 53.101562 139.523438 53.105469 139.46875 53.109375 C 139.453125 53.109375 139.441406 53.109375 139.425781 53.109375 C 139.128906 53.042969 138.828125 52.988281 138.53125 52.921875 C 131.007812 51.21875 122.683594 48.96875 116.476562 44.160156 C 116.417969 44.117188 116.367188 44.078125 116.3125 44.039062 C 116.636719 42.945312 117.195312 41.882812 118.058594 40.882812 C 118.828125 39.992188 119.796875 39.242188 120.890625 38.589844 C 122.433594 38.179688 124.003906 37.867188 125.53125 37.589844 Z M 126.527344 52.871094 C 125.761719 52.820312 124.996094 52.773438 124.230469 52.707031 C 122.355469 52.542969 120.035156 52.402344 117.691406 52.097656 C 117.027344 50.976562 116.527344 49.777344 116.242188 48.550781 C 119.46875 50.398438 123.054688 51.757812 126.527344 52.871094 Z M 154.996094 58.238281 C 152.867188 58.859375 150.496094 59.609375 148.160156 60.539062 C 145.445312 60.253906 142.738281 59.90625 140.042969 59.496094 C 140.332031 58.527344 140.808594 57.554688 141.417969 56.597656 C 145.910156 57.40625 150.453125 57.941406 154.996094 58.238281 Z M 143.226562 62.882812 C 142.273438 63.433594 141.378906 64.027344 140.558594 64.667969 C 140.125 63.9375 139.867188 63.183594 139.765625 62.414062 C 140.917969 62.585938 142.070312 62.738281 143.226562 62.882812 Z M 181.933594 62.207031 C 181.417969 62.0625 180.933594 61.933594 180.492188 61.816406 C 180.574219 61.726562 180.664062 61.640625 180.742188 61.546875 C 181.214844 61.382812 181.671875 61.195312 182.125 61.007812 C 182.160156 61.417969 182.09375 61.816406 181.933594 62.207031 Z M 183.960938 56.761719 C 183.921875 56.738281 183.882812 56.714844 183.847656 56.691406 C 183.921875 56.5 184.011719 56.3125 184.082031 56.117188 C 184.328125 56.046875 184.578125 55.972656 184.824219 55.898438 C 184.5625 56.207031 184.261719 56.480469 183.960938 56.761719 Z M 192.105469 49.066406 C 191.855469 49.308594 191.585938 49.527344 191.320312 49.75 C 191.578125 47.175781 191.210938 44.90625 190.339844 42.925781 C 192.5625 42.550781 194.757812 42.035156 196.84375 41.34375 C 196.074219 44.238281 193.890625 47.347656 192.105469 49.066406 Z M 176.226562 11.652344 C 187.21875 10.820312 208.769531 13.121094 205.878906 29.386719 C 205.328125 32.464844 203.671875 34.800781 201.304688 36.570312 C 199.695312 30.761719 189.324219 31.714844 181.105469 33.4375 C 182.542969 28.046875 181.960938 21.976562 178.964844 16.109375 C 178.125 14.464844 177.144531 13.003906 176.089844 11.664062 C 176.136719 11.660156 176.183594 11.65625 176.226562 11.652344 Z M 108.855469 49.289062 C 100.746094 43.347656 113.832031 27.554688 118.28125 22.734375 C 126.363281 13.972656 137.601562 5.941406 149.714844 4.480469 C 157.160156 3.585938 163.523438 6.011719 168.238281 10.125 C 168.085938 10.152344 167.929688 10.179688 167.78125 10.207031 C 155.976562 12.371094 143.4375 16.453125 133.953125 24.058594 C 130.691406 26.671875 127.835938 30.164062 126.578125 33.902344 C 126.503906 33.921875 126.429688 33.941406 126.359375 33.960938 C 124.492188 34.53125 122.511719 35.234375 120.628906 36.113281 C 120.410156 36.171875 120.1875 36.214844 119.96875 36.277344 C 116.210938 37.332031 112.394531 38.753906 109.484375 41.445312 C 109.109375 41.792969 108.890625 42.332031 109.242188 42.773438 C 110 43.734375 110.871094 44.585938 111.789062 45.390625 C 111.519531 46.726562 111.5 48.191406 111.832031 49.820312 C 111.90625 50.195312 112.03125 50.550781 112.140625 50.914062 C 110.914062 50.496094 109.789062 49.972656 108.855469 49.289062 Z M 120.128906 55.25 C 122.753906 55.484375 125.332031 55.59375 127.589844 55.699219 C 130.699219 55.847656 134.070312 55.960938 137.515625 55.917969 C 136.914062 56.867188 136.421875 57.84375 136.054688 58.835938 C 133.863281 58.453125 131.679688 58.035156 129.511719 57.578125 C 128.207031 57.304688 125.429688 58.945312 126.171875 59.769531 C 124.351562 58.695312 122.648438 57.511719 121.121094 56.191406 C 120.78125 55.898438 120.449219 55.578125 120.128906 55.25 Z M 126.667969 60.042969 C 126.746094 60.070312 126.8125 60.097656 126.90625 60.113281 C 129.714844 60.707031 132.550781 61.242188 135.402344 61.726562 C 135.386719 61.925781 135.34375 62.125 135.339844 62.324219 C 135.328125 62.882812 135.367188 63.40625 135.449219 63.90625 C 132.332031 62.871094 129.367188 61.585938 126.667969 60.042969 Z M 140.996094 70.289062 C 141.09375 70.335938 141.195312 70.378906 141.292969 70.425781 C 141.238281 70.5 141.175781 70.566406 141.125 70.640625 C 141.101562 70.671875 141.089844 70.703125 141.066406 70.730469 C 141.023438 70.589844 141.003906 70.441406 140.996094 70.289062 Z M 140.996094 70.289062 " fill-opacity="1" fill-rule="nonzero"/></svg>