<svg xmlns="http://www.w3.org/2000/svg" xmlns:xlink="http://www.w3.org/1999/xlink" width="500" zoomAndPan="magnify" viewBox="0 0 375 374.999991" height="500" preserveAspectRatio="xMidYMid meet" version="1.0"><path fill="#fff4f5" d="M 141.199219 320.589844 L 140.042969 314.003906 L 130.574219 373.347656 L 141.335938 375.058594 L 147.480469 336.535156 L 151.015625 336.535156 C 146.015625 332.777344 142.359375 327.214844 141.199219 320.589844 Z M 141.199219 320.589844 " fill-opacity="1" fill-rule="nonzero"/><path fill="#fff4f5" d="M 187.648438 330.304688 C 186.0625 332.683594 184.085938 334.792969 181.78125 336.535156 L 193.519531 336.535156 C 191.214844 334.792969 189.238281 332.683594 187.648438 330.304688 Z M 187.648438 330.304688 " fill-opacity="1" fill-rule="nonzero"/><path fill="#fff4f5" d="M 224.285156 336.535156 L 226.980469 336.535156 L 233.125 375.058594 L 243.886719 373.347656 L 234.820312 316.503906 L 234.101562 320.589844 C 232.941406 327.214844 229.285156 332.777344 224.285156 336.535156 Z M 224.285156 336.535156 " fill-opacity="1" fill-rule="nonzero"/><path fill="#fff4f5" d="M 182.339844 254.617188 C 182.019531 254.355469 181.707031 254.089844 181.402344 253.808594 L 181.542969 254.617188 C 181.628906 254.617188 181.710938 254.628906 181.796875 254.628906 C 181.976562 254.628906 182.160156 254.625 182.339844 254.617188 Z M 182.339844 254.617188 " fill-opacity="1" fill-rule="nonzero"/><path fill="#fff4f5" d="M 137.59375 212.175781 C 140.476562 210.234375 143.792969 208.839844 147.4375 208.203125 C 161.324219 205.777344 174.609375 215.078125 177.039062 228.9375 L 177.308594 230.476562 C 178.917969 224.636719 181.667969 219.488281 185.097656 214.90625 C 177.910156 206.3125 168.269531 199.804688 160.257812 194.40625 C 155.375 191.113281 148.140625 186.238281 146.238281 183.558594 C 147.074219 169.617188 148.464844 159.167969 149.996094 151.351562 L 153.898438 152.003906 C 152.464844 159.289062 151.128906 169.089844 150.285156 182.1875 C 152.816406 184.621094 159.1875 188.921875 162.460938 191.125 C 170.542969 196.574219 180.210938 203.09375 187.648438 211.734375 C 195.089844 203.089844 204.757812 196.574219 212.835938 191.125 C 216.109375 188.921875 222.484375 184.621094 225.011719 182.1875 C 224.167969 169.089844 222.835938 159.289062 221.398438 152.003906 L 225.300781 151.351562 C 226.835938 159.167969 228.222656 169.617188 229.0625 183.558594 C 227.160156 186.238281 219.921875 191.113281 215.039062 194.40625 C 200.574219 204.160156 180.765625 217.511719 179.738281 240.273438 C 179.398438 247.855469 185.277344 254.273438 192.871094 254.613281 C 193.082031 254.625 193.289062 254.628906 193.5 254.628906 C 193.585938 254.628906 193.667969 254.617188 193.75 254.617188 L 198.257812 228.9375 C 200.691406 215.078125 213.972656 205.777344 227.859375 208.203125 C 231.503906 208.839844 234.820312 210.238281 237.703125 212.175781 C 248.296875 204.582031 257.351562 196.019531 256.605469 183.042969 C 255.804688 169.089844 254.410156 157.070312 252.4375 146.835938 C 248.617188 127.019531 242.578125 114.023438 234.175781 107.539062 C 232.84375 106.511719 231.53125 105.695312 230.265625 105.050781 C 230.292969 105.695312 230.3125 106.347656 230.3125 107.003906 C 230.3125 130.484375 211.171875 149.585938 187.644531 149.585938 C 164.117188 149.585938 144.976562 130.484375 144.976562 107.003906 C 144.976562 106.347656 144.996094 105.699219 145.027344 105.050781 C 143.757812 105.695312 142.449219 106.511719 141.117188 107.539062 C 132.71875 114.023438 126.679688 127.019531 122.859375 146.835938 C 120.886719 157.070312 119.492188 169.089844 118.691406 183.042969 C 117.949219 196.019531 127 204.585938 137.59375 212.175781 Z M 137.59375 212.175781 " fill-opacity="1" fill-rule="nonzero"/><path fill="#fff4f5" d="M 226.359375 107.003906 C 226.359375 108.265625 226.296875 109.53125 226.175781 110.789062 C 226.050781 112.046875 225.863281 113.296875 225.617188 114.539062 C 225.371094 115.78125 225.0625 117.007812 224.695312 118.214844 C 224.324219 119.425781 223.898438 120.617188 223.414062 121.785156 C 222.929688 122.957031 222.386719 124.097656 221.789062 125.214844 C 221.191406 126.328125 220.539062 127.414062 219.835938 128.464844 C 219.132812 129.515625 218.378906 130.53125 217.574219 131.511719 C 216.769531 132.488281 215.917969 133.425781 215.023438 134.320312 C 214.125 135.214844 213.1875 136.0625 212.207031 136.867188 C 211.226562 137.667969 210.210938 138.421875 209.15625 139.125 C 208.101562 139.828125 207.015625 140.476562 205.898438 141.074219 C 204.78125 141.671875 203.632812 142.210938 202.464844 142.695312 C 201.292969 143.179688 200.101562 143.605469 198.886719 143.972656 C 197.671875 144.339844 196.445312 144.644531 195.203125 144.894531 C 193.957031 145.140625 192.707031 145.324219 191.445312 145.449219 C 190.183594 145.574219 188.917969 145.636719 187.648438 145.636719 C 186.382812 145.636719 185.117188 145.574219 183.855469 145.449219 C 182.59375 145.324219 181.339844 145.140625 180.097656 144.894531 C 178.855469 144.644531 177.625 144.339844 176.410156 143.972656 C 175.199219 143.605469 174.007812 143.179688 172.835938 142.695312 C 171.664062 142.210938 170.519531 141.671875 169.402344 141.074219 C 168.28125 140.476562 167.195312 139.828125 166.140625 139.125 C 165.089844 138.421875 164.070312 137.667969 163.089844 136.867188 C 162.109375 136.0625 161.171875 135.214844 160.277344 134.320312 C 159.378906 133.425781 158.53125 132.488281 157.726562 131.511719 C 156.921875 130.53125 156.167969 129.515625 155.460938 128.464844 C 154.757812 127.414062 154.105469 126.328125 153.507812 125.214844 C 152.910156 124.097656 152.371094 122.957031 151.882812 121.785156 C 151.398438 120.617188 150.972656 119.425781 150.605469 118.214844 C 150.238281 117.007812 149.929688 115.78125 149.683594 114.539062 C 149.433594 113.296875 149.25 112.046875 149.125 110.789062 C 149 109.53125 148.9375 108.265625 148.9375 107.003906 C 148.9375 105.738281 149 104.472656 149.125 103.214844 C 149.25 101.957031 149.433594 100.707031 149.683594 99.464844 C 149.929688 98.222656 150.238281 97 150.605469 95.789062 C 150.972656 94.578125 151.398438 93.386719 151.882812 92.21875 C 152.371094 91.046875 152.910156 89.90625 153.507812 88.789062 C 154.105469 87.675781 154.757812 86.589844 155.460938 85.539062 C 156.167969 84.488281 156.921875 83.472656 157.726562 82.492188 C 158.53125 81.515625 159.378906 80.578125 160.277344 79.683594 C 161.171875 78.789062 162.109375 77.941406 163.089844 77.136719 C 164.070312 76.335938 165.089844 75.582031 166.140625 74.878906 C 167.195312 74.175781 168.28125 73.527344 169.402344 72.929688 C 170.519531 72.335938 171.664062 71.792969 172.835938 71.308594 C 174.007812 70.824219 175.199219 70.398438 176.410156 70.03125 C 177.625 69.664062 178.855469 69.359375 180.097656 69.109375 C 181.339844 68.863281 182.59375 68.679688 183.855469 68.554688 C 185.117188 68.429688 186.382812 68.367188 187.648438 68.367188 C 188.917969 68.367188 190.183594 68.429688 191.445312 68.554688 C 192.707031 68.679688 193.957031 68.863281 195.203125 69.109375 C 196.445312 69.359375 197.671875 69.664062 198.886719 70.03125 C 200.101562 70.398438 201.292969 70.824219 202.464844 71.308594 C 203.632812 71.792969 204.78125 72.335938 205.898438 72.929688 C 207.015625 73.527344 208.101562 74.175781 209.15625 74.878906 C 210.210938 75.582031 211.226562 76.335938 212.207031 77.136719 C 213.1875 77.941406 214.125 78.789062 215.023438 79.683594 C 215.917969 80.578125 216.769531 81.515625 217.574219 82.492188 C 218.378906 83.472656 219.132812 84.488281 219.835938 85.539062 C 220.539062 86.589844 221.191406 87.675781 221.789062 88.789062 C 222.386719 89.90625 222.929688 91.046875 223.414062 92.21875 C 223.898438 93.386719 224.324219 94.578125 224.695312 95.789062 C 225.0625 97 225.371094 98.222656 225.617188 99.464844 C 225.863281 100.707031 226.050781 101.957031 226.175781 103.214844 C 226.296875 104.472656 226.359375 105.738281 226.359375 107.003906 Z M 226.359375 107.003906 " fill-opacity="1" fill-rule="nonzero"/><path fill="#fff4f5" d="M 130.898438 237.003906 L 145.433594 319.851562 C 147.460938 331.402344 158.488281 339.121094 170.058594 337.097656 C 176.878906 335.90625 182.347656 331.582031 185.289062 325.878906 C 183.503906 321.5625 182.859375 316.714844 183.722656 311.785156 L 185.46875 301.839844 L 172.804688 229.675781 C 170.777344 218.125 159.75 210.40625 148.179688 212.429688 C 136.609375 214.453125 128.871094 225.453125 130.898438 237.003906 Z M 130.898438 237.003906 " fill-opacity="1" fill-rule="nonzero"/><path fill="#fff4f5" d="M 187.957031 312.527344 C 185.933594 324.078125 193.675781 335.074219 205.246094 337.097656 C 216.8125 339.121094 227.839844 331.402344 229.867188 319.851562 L 244.40625 237.003906 C 246.433594 225.453125 238.691406 214.453125 227.121094 212.429688 C 215.550781 210.410156 204.527344 218.125 202.496094 229.679688 Z M 187.957031 312.527344 " fill-opacity="1" fill-rule="nonzero"/><path fill="#fff4f5" d="M 164.765625 50.4375 C 163.246094 52.320312 165.523438 55.335938 167.035156 53.457031 C 171.257812 48.214844 173.101562 40.628906 171.707031 33.1875 C 170.320312 25.78125 165.027344 22.214844 167.890625 13.765625 C 169 10.480469 171.164062 7.394531 173.359375 5.289062 C 175.027344 3.695312 173.425781 -0.015625 171.742188 1.601562 C 167.542969 5.625 164.371094 11.359375 163.6875 18.261719 C 162.949219 25.699219 168.453125 30.472656 169.070312 37.457031 C 169.488281 42.160156 167.285156 47.304688 164.765625 50.4375 Z M 164.765625 50.4375 " fill-opacity="1" fill-rule="nonzero"/><path fill="#fff4f5" d="M 183.578125 50.4375 C 182.058594 52.320312 184.332031 55.335938 185.84375 53.457031 C 190.066406 48.214844 191.914062 40.628906 190.519531 33.1875 C 189.132812 25.78125 183.839844 22.214844 186.699219 13.765625 C 187.8125 10.480469 189.972656 7.394531 192.171875 5.289062 C 193.835938 3.695312 192.234375 -0.015625 190.550781 1.601562 C 186.355469 5.625 183.183594 11.359375 182.496094 18.261719 C 181.761719 25.699219 187.261719 30.472656 187.882812 37.457031 C 188.296875 42.160156 186.09375 47.304688 183.578125 50.4375 Z M 183.578125 50.4375 " fill-opacity="1" fill-rule="nonzero"/><path fill="#fff4f5" d="M 202.382812 50.4375 C 200.867188 52.320312 203.140625 55.335938 204.652344 53.457031 C 208.875 48.214844 210.71875 40.628906 209.328125 33.1875 C 207.941406 25.78125 202.644531 22.214844 205.507812 13.765625 C 206.621094 10.480469 208.78125 7.394531 210.976562 5.289062 C 212.644531 3.695312 211.042969 -0.015625 209.359375 1.601562 C 205.164062 5.625 201.992188 11.359375 201.304688 18.261719 C 200.566406 25.699219 206.066406 30.472656 206.6875 37.457031 C 207.105469 42.160156 204.902344 47.304688 202.382812 50.4375 Z M 202.382812 50.4375 " fill-opacity="1" fill-rule="nonzero"/></svg>