<svg xmlns="http://www.w3.org/2000/svg" xmlns:xlink="http://www.w3.org/1999/xlink" width="500" zoomAndPan="magnify" viewBox="0 0 375 374.999991" height="500" preserveAspectRatio="xMidYMid meet" version="1.0"><defs><clipPath id="da3888ff41"><path d="M 137 7.03125 L 238 7.03125 L 238 108 L 137 108 Z M 137 7.03125 " clip-rule="nonzero"/></clipPath><clipPath id="f3c0fe4c05"><path d="M 92 360 L 124 360 L 124 367.78125 L 92 367.78125 Z M 92 360 " clip-rule="nonzero"/></clipPath><clipPath id="c0d4cefa64"><path d="M 3 115 L 372 115 L 372 367.78125 L 3 367.78125 Z M 3 115 " clip-rule="nonzero"/></clipPath></defs><path fill="#fff4f5" d="M 155.296875 102.617188 C 147.636719 97.140625 141.425781 89.765625 137.367188 81.175781 C 130.097656 89.351562 125.207031 102.066406 125.777344 121.910156 C 132.730469 118.808594 142.398438 115.339844 154.652344 112.90625 C 154.777344 109.300781 154.953125 105.835938 155.296875 102.617188 Z M 155.296875 102.617188 " fill-opacity="1" fill-rule="nonzero"/><g clip-path="url(#da3888ff41)"><path fill="#fff4f5" d="M 237.402344 57.628906 C 237.402344 59.265625 237.324219 60.898438 237.164062 62.527344 C 237.003906 64.15625 236.761719 65.773438 236.441406 67.375 C 236.125 68.980469 235.726562 70.566406 235.25 72.132812 C 234.777344 73.699219 234.226562 75.238281 233.597656 76.75 C 232.972656 78.261719 232.273438 79.738281 231.5 81.179688 C 230.730469 82.625 229.886719 84.023438 228.980469 85.386719 C 228.070312 86.746094 227.09375 88.058594 226.058594 89.324219 C 225.019531 90.589844 223.921875 91.800781 222.761719 92.957031 C 221.605469 94.113281 220.394531 95.210938 219.128906 96.25 C 217.863281 97.285156 216.550781 98.261719 215.1875 99.167969 C 213.828125 100.078125 212.425781 100.917969 210.980469 101.691406 C 209.539062 102.460938 208.058594 103.160156 206.546875 103.785156 C 205.035156 104.410156 203.496094 104.960938 201.929688 105.4375 C 200.363281 105.914062 198.777344 106.308594 197.171875 106.628906 C 195.566406 106.949219 193.945312 107.1875 192.316406 107.347656 C 190.6875 107.507812 189.054688 107.589844 187.417969 107.589844 C 185.78125 107.589844 184.148438 107.507812 182.519531 107.347656 C 180.890625 107.1875 179.273438 106.949219 177.667969 106.628906 C 176.0625 106.308594 174.476562 105.914062 172.910156 105.4375 C 171.34375 104.960938 169.804688 104.410156 168.289062 103.785156 C 166.777344 103.160156 165.300781 102.460938 163.855469 101.691406 C 162.414062 100.917969 161.011719 100.078125 159.648438 99.167969 C 158.289062 98.261719 156.972656 97.285156 155.707031 96.25 C 154.441406 95.210938 153.230469 94.113281 152.074219 92.957031 C 150.917969 91.800781 149.820312 90.589844 148.78125 89.324219 C 147.742188 88.058594 146.765625 86.746094 145.859375 85.386719 C 144.949219 84.023438 144.109375 82.625 143.335938 81.179688 C 142.566406 79.738281 141.867188 78.261719 141.238281 76.75 C 140.613281 75.238281 140.0625 73.699219 139.585938 72.132812 C 139.109375 70.566406 138.714844 68.980469 138.394531 67.375 C 138.074219 65.773438 137.835938 64.15625 137.675781 62.527344 C 137.515625 60.898438 137.433594 59.265625 137.433594 57.628906 C 137.433594 55.992188 137.515625 54.363281 137.675781 52.734375 C 137.835938 51.105469 138.074219 49.488281 138.394531 47.882812 C 138.714844 46.277344 139.109375 44.695312 139.585938 43.128906 C 140.0625 41.5625 140.613281 40.023438 141.238281 38.511719 C 141.867188 37 142.566406 35.523438 143.335938 34.078125 C 144.109375 32.636719 144.949219 31.234375 145.859375 29.875 C 146.765625 28.515625 147.742188 27.203125 148.78125 25.9375 C 149.820312 24.671875 150.917969 23.460938 152.074219 22.304688 C 153.230469 21.148438 154.441406 20.050781 155.707031 19.011719 C 156.972656 17.972656 158.289062 17 159.648438 16.089844 C 161.011719 15.183594 162.414062 14.34375 163.855469 13.570312 C 165.300781 12.800781 166.777344 12.101562 168.289062 11.472656 C 169.804688 10.847656 171.34375 10.296875 172.910156 9.824219 C 174.476562 9.347656 176.0625 8.949219 177.667969 8.632812 C 179.273438 8.3125 180.890625 8.074219 182.519531 7.914062 C 184.148438 7.75 185.78125 7.671875 187.417969 7.671875 C 189.054688 7.671875 190.6875 7.75 192.316406 7.914062 C 193.945312 8.074219 195.566406 8.3125 197.171875 8.632812 C 198.777344 8.949219 200.363281 9.347656 201.929688 9.824219 C 203.496094 10.296875 205.035156 10.847656 206.546875 11.472656 C 208.058594 12.101562 209.539062 12.800781 210.980469 13.570312 C 212.425781 14.34375 213.828125 15.183594 215.1875 16.089844 C 216.550781 17 217.863281 17.972656 219.128906 19.011719 C 220.394531 20.050781 221.605469 21.148438 222.761719 22.304688 C 223.921875 23.460938 225.019531 24.671875 226.058594 25.9375 C 227.09375 27.203125 228.070312 28.515625 228.980469 29.875 C 229.886719 31.234375 230.730469 32.636719 231.5 34.078125 C 232.273438 35.523438 232.972656 37 233.597656 38.511719 C 234.226562 40.023438 234.777344 41.5625 235.25 43.128906 C 235.726562 44.695312 236.125 46.277344 236.441406 47.882812 C 236.761719 49.488281 237.003906 51.105469 237.164062 52.734375 C 237.324219 54.363281 237.402344 55.992188 237.402344 57.628906 Z M 237.402344 57.628906 " fill-opacity="1" fill-rule="nonzero"/></g><g clip-path="url(#f3c0fe4c05)"><path fill="#fff4f5" d="M 114.808594 364.289062 C 117.265625 362.960938 120.0625 361.773438 123.109375 360.695312 C 112.308594 361.683594 101.964844 362.859375 92.4375 364.109375 C 95.898438 366.039062 99.800781 367.082031 103.777344 367.082031 C 107.507812 367.082031 111.292969 366.183594 114.808594 364.289062 Z M 114.808594 364.289062 " fill-opacity="1" fill-rule="nonzero"/></g><g clip-path="url(#c0d4cefa64)"><path fill="#fff4f5" d="M 66.605469 362.59375 C 122.351562 352.96875 224.15625 344.917969 260.03125 364.289062 C 263.542969 366.1875 267.328125 367.085938 271.058594 367.085938 C 279.324219 367.085938 287.328125 362.667969 291.535156 354.886719 C 297.632812 343.597656 293.421875 329.496094 282.125 323.398438 C 242.878906 302.210938 169.648438 304.191406 117.398438 309.148438 L 115.921875 303.914062 C 135.589844 302.023438 158.292969 300.542969 181.128906 300.542969 C 227.523438 300.542969 262.355469 306.652344 284.664062 318.695312 C 298.539062 326.1875 303.730469 343.558594 296.238281 357.425781 C 295.675781 358.460938 295.050781 359.445312 294.378906 360.394531 C 299.230469 361.109375 303.882812 361.847656 308.230469 362.59375 C 319.453125 364.523438 330.421875 358.058594 334.152344 347.308594 C 337.882812 336.554688 333.269531 324.679688 323.257812 319.261719 L 253.574219 281.550781 L 247.734375 278.390625 C 247.613281 277.769531 247.484375 277.175781 247.339844 276.648438 C 244.414062 254.082031 238.355469 244.464844 236.011719 220.378906 C 234.8125 208.042969 238.675781 190.722656 243.554688 174.777344 C 244.457031 177.695312 245.394531 180.855469 246.355469 184.253906 C 249.8125 196.449219 253.5625 211.65625 256.785156 229.269531 C 258.109375 236.519531 264.433594 241.660156 271.632812 241.660156 C 272.238281 241.660156 272.847656 241.625 273.460938 241.550781 L 344.488281 232.988281 C 344.65625 233.007812 344.824219 233.035156 344.996094 233.035156 C 345.207031 233.035156 345.417969 233.019531 345.632812 232.992188 C 355.941406 231.578125 363.34375 227.339844 367.628906 220.390625 C 374.9375 208.546875 369.917969 193.484375 369.699219 192.851562 C 368.871094 190.425781 366.238281 189.128906 363.8125 189.957031 C 361.386719 190.777344 360.082031 193.414062 360.898438 195.839844 C 360.925781 195.933594 363.277344 203.15625 361.78125 210.171875 C 359.648438 202.796875 352.847656 197.382812 344.792969 197.382812 C 339.136719 197.382812 334.101562 200.0625 330.859375 204.207031 L 283.773438 209.882812 C 274.730469 166.875 263.675781 140.621094 263.164062 139.417969 C 263.007812 139.046875 262.824219 138.699219 262.644531 138.351562 C 261.679688 136.5 260.382812 134.921875 258.847656 133.664062 C 258.925781 133.484375 258.980469 133.359375 258.980469 133.359375 C 258.980469 133.359375 233.863281 115.121094 187.414062 115.121094 C 140.96875 115.121094 115.851562 133.359375 115.851562 133.359375 C 115.851562 133.359375 115.910156 133.484375 115.988281 133.664062 C 114.453125 134.925781 113.152344 136.503906 112.191406 138.355469 C 112.007812 138.703125 111.828125 139.050781 111.671875 139.417969 C 111.386719 140.09375 107.796875 148.617188 103.105469 163.527344 C 101.9375 167.246094 100.699219 171.371094 99.425781 175.867188 C 96.683594 185.542969 93.78125 196.949219 91.0625 209.882812 L 43.976562 204.207031 C 40.734375 200.0625 35.703125 197.382812 30.042969 197.382812 C 21.988281 197.382812 15.1875 202.796875 13.054688 210.171875 C 11.566406 203.199219 13.882812 196.019531 13.9375 195.84375 C 14.761719 193.417969 13.464844 190.78125 11.039062 189.953125 C 8.605469 189.121094 5.96875 190.417969 5.136719 192.851562 C 4.917969 193.484375 -0.101562 208.546875 7.207031 220.390625 C 11.492188 227.339844 18.894531 231.578125 29.203125 232.992188 C 29.417969 233.019531 29.628906 233.035156 29.839844 233.035156 C 30.011719 233.035156 30.179688 233.007812 30.347656 232.988281 L 101.378906 241.550781 C 101.988281 241.625 102.597656 241.660156 103.203125 241.660156 C 110.40625 241.660156 116.726562 236.519531 118.054688 229.269531 C 121.273438 211.664062 125.019531 196.460938 128.476562 184.265625 C 129.4375 180.867188 130.378906 177.703125 131.277344 174.785156 C 136.15625 190.730469 140.019531 208.042969 138.816406 220.378906 C 136.480469 244.464844 130.414062 254.082031 127.496094 276.652344 C 127.351562 277.179688 127.222656 277.769531 127.101562 278.390625 L 121.257812 281.554688 L 52.0625 319 C 52.054688 319.003906 52.042969 319.011719 52.035156 319.015625 L 51.578125 319.261719 C 51.417969 319.347656 51.273438 319.453125 51.117188 319.542969 C 50.65625 319.808594 50.195312 320.078125 49.753906 320.371094 C 49.503906 320.539062 49.265625 320.71875 49.023438 320.890625 C 48.664062 321.152344 48.304688 321.414062 47.960938 321.695312 C 47.667969 321.9375 47.390625 322.1875 47.109375 322.4375 C 46.84375 322.679688 46.574219 322.917969 46.320312 323.171875 C 46.011719 323.472656 45.722656 323.789062 45.4375 324.105469 C 45.226562 324.335938 45.015625 324.566406 44.816406 324.804688 C 44.53125 325.144531 44.265625 325.496094 44 325.851562 C 43.816406 326.097656 43.636719 326.34375 43.460938 326.597656 C 43.222656 326.949219 43 327.308594 42.777344 327.667969 C 42.605469 327.957031 42.433594 328.246094 42.269531 328.539062 C 42.085938 328.878906 41.914062 329.21875 41.75 329.566406 C 41.582031 329.90625 41.421875 330.25 41.273438 330.597656 C 41.136719 330.910156 41.015625 331.226562 40.898438 331.546875 C 40.75 331.9375 40.609375 332.332031 40.480469 332.734375 C 40.386719 333.03125 40.308594 333.328125 40.226562 333.628906 C 40.109375 334.054688 40.003906 334.480469 39.910156 334.910156 C 39.847656 335.21875 39.792969 335.527344 39.742188 335.835938 C 39.671875 336.257812 39.605469 336.675781 39.554688 337.101562 C 39.515625 337.457031 39.492188 337.816406 39.46875 338.175781 C 39.445312 338.550781 39.417969 338.925781 39.414062 339.308594 C 39.40625 339.746094 39.421875 340.183594 39.4375 340.625 C 39.453125 340.929688 39.457031 341.234375 39.480469 341.539062 C 39.523438 342.058594 39.59375 342.578125 39.671875 343.09375 C 39.699219 343.28125 39.707031 343.464844 39.738281 343.648438 C 39.746094 343.707031 39.765625 343.761719 39.777344 343.820312 C 42.039062 356.367188 53.988281 364.757812 66.605469 362.59375 Z M 344.792969 206.679688 C 349.421875 206.679688 353.1875 210.441406 353.1875 215.070312 C 353.1875 219.695312 349.421875 223.460938 344.792969 223.460938 C 340.164062 223.460938 336.398438 219.695312 336.398438 215.070312 C 336.398438 210.441406 340.164062 206.679688 344.792969 206.679688 Z M 30.042969 206.679688 C 34.671875 206.679688 38.4375 210.441406 38.4375 215.070312 C 38.4375 219.695312 34.671875 223.460938 30.042969 223.460938 C 25.414062 223.460938 21.648438 219.695312 21.648438 215.070312 C 21.648438 210.441406 25.414062 206.679688 30.042969 206.679688 Z M 30.042969 206.679688 " fill-opacity="1" fill-rule="nonzero"/></g></svg>