<svg xmlns="http://www.w3.org/2000/svg" xmlns:xlink="http://www.w3.org/1999/xlink" width="500" zoomAndPan="magnify" viewBox="0 0 375 374.999991" height="500" preserveAspectRatio="xMidYMid meet" version="1.0"><defs><clipPath id="e1874c5d2f"><path d="M 274 142 L 284.484375 142 L 284.484375 171 L 274 171 Z M 274 142 " clip-rule="nonzero"/></clipPath></defs><path fill="#fff4f5" d="M 156.859375 268.671875 L 200.023438 220.882812 L 185.1875 255.007812 C 182.695312 260.746094 182.765625 267.277344 185.390625 272.957031 L 226.546875 362.117188 C 230.246094 370.132812 238.164062 374.847656 246.433594 374.847656 C 249.507812 374.847656 252.632812 374.199219 255.605469 372.820312 C 266.582031 367.738281 271.367188 354.710938 266.292969 343.71875 L 229.257812 263.488281 L 262.589844 186.808594 C 265.128906 180.960938 264.90625 174.617188 262.519531 169.210938 L 256.972656 148.183594 C 256.894531 148.214844 256.820312 148.253906 256.746094 148.285156 L 172.089844 181.027344 C 170.738281 181.546875 169.34375 181.886719 167.921875 182.070312 L 169.757812 189.019531 L 118.964844 245.25 C 115.472656 249.117188 113.46875 254.109375 113.316406 259.324219 L 110.691406 350.53125 C 110.339844 362.632812 119.855469 372.730469 131.945312 373.078125 C 132.15625 373.085938 132.371094 373.089844 132.585938 373.089844 C 144.382812 373.089844 154.117188 363.683594 154.457031 351.792969 Z M 156.859375 268.671875 " fill-opacity="1" fill-rule="nonzero"/><path fill="#fff4f5" d="M 227.34375 120.921875 L 215.550781 87.859375 L 219.335938 86.476562 L 232.457031 123.269531 L 160.546875 151.082031 C 153.328125 153.875 149.734375 162 152.523438 169.226562 C 154.671875 174.796875 159.972656 178.207031 165.597656 178.207031 C 167.277344 178.207031 168.984375 177.902344 170.640625 177.261719 L 255.296875 144.523438 C 262.386719 141.78125 266 133.882812 263.445312 126.714844 L 245.671875 76.878906 L 239.183594 58.695312 C 237.046875 52.699219 231.253906 49.074219 225.222656 49.40625 C 225.183594 49.390625 225.148438 49.371094 225.113281 49.355469 L 224.664062 49.457031 C 223.53125 49.566406 222.394531 49.796875 221.277344 50.199219 C 221.230469 50.214844 221.183594 50.238281 221.136719 50.257812 L 206.773438 53.511719 C 205.21875 58.96875 202.582031 64.121094 198.941406 68.695312 C 191.707031 77.78125 181.371094 83.496094 169.84375 84.796875 C 168.214844 84.980469 166.566406 85.074219 164.933594 85.074219 C 157.386719 85.074219 150.273438 83.101562 144.054688 79.671875 L 139.730469 112.15625 L 135.652344 112.257812 L 140.363281 76.867188 C 141.386719 69.183594 135.996094 62.128906 128.328125 61.101562 C 120.640625 60.078125 113.609375 65.472656 112.585938 73.15625 L 107.285156 112.996094 L 103.832031 138.929688 C 103.824219 138.996094 103.824219 139.0625 103.816406 139.132812 C 103.785156 139.414062 103.761719 139.695312 103.746094 139.980469 C 103.734375 140.175781 103.722656 140.371094 103.71875 140.566406 C 103.714844 140.800781 103.726562 141.039062 103.734375 141.273438 C 103.742188 141.511719 103.746094 141.75 103.769531 141.984375 C 103.785156 142.171875 103.8125 142.363281 103.835938 142.550781 C 103.871094 142.820312 103.90625 143.089844 103.953125 143.355469 C 103.984375 143.519531 104.027344 143.679688 104.0625 143.84375 C 104.125 144.121094 104.183594 144.398438 104.265625 144.667969 C 104.3125 144.84375 104.375 145.011719 104.433594 145.183594 C 104.515625 145.433594 104.59375 145.683594 104.691406 145.929688 C 104.773438 146.136719 104.867188 146.335938 104.960938 146.539062 C 105.046875 146.738281 105.132812 146.9375 105.234375 147.132812 C 105.351562 147.371094 105.488281 147.605469 105.625 147.835938 C 105.710938 147.988281 105.792969 148.140625 105.886719 148.289062 C 106.042969 148.535156 106.210938 148.769531 106.378906 149.003906 C 106.472656 149.136719 106.5625 149.269531 106.664062 149.394531 C 106.832031 149.613281 107.015625 149.820312 107.199219 150.027344 C 107.320312 150.167969 107.4375 150.308594 107.566406 150.441406 C 107.730469 150.617188 107.90625 150.78125 108.082031 150.945312 C 108.25 151.105469 108.417969 151.265625 108.59375 151.417969 C 108.742188 151.546875 108.902344 151.667969 109.058594 151.792969 C 109.277344 151.964844 109.496094 152.136719 109.726562 152.292969 C 109.78125 152.335938 109.832031 152.378906 109.890625 152.417969 C 109.949219 152.457031 110.011719 152.480469 110.066406 152.519531 C 110.582031 152.855469 111.117188 153.167969 111.679688 153.4375 C 111.710938 153.453125 111.738281 153.472656 111.769531 153.484375 C 112.316406 153.742188 112.886719 153.953125 113.46875 154.140625 C 113.644531 154.195312 113.816406 154.242188 113.988281 154.289062 C 114.4375 154.414062 114.894531 154.515625 115.359375 154.59375 C 115.507812 154.621094 115.652344 154.65625 115.800781 154.679688 C 115.824219 154.679688 115.847656 154.6875 115.871094 154.691406 C 116.347656 154.753906 116.820312 154.9375 117.292969 154.953125 C 117.429688 154.957031 117.570312 155.152344 117.710938 155.152344 C 117.71875 155.152344 117.722656 155.152344 117.730469 155.152344 C 117.734375 155.152344 117.734375 155.152344 117.738281 155.152344 C 118.257812 155.152344 118.765625 154.949219 119.269531 154.890625 C 119.382812 154.878906 119.5 154.777344 119.613281 154.761719 C 120.027344 154.703125 120.433594 154.589844 120.839844 154.496094 C 120.957031 154.46875 121.070312 154.421875 121.1875 154.394531 C 121.675781 154.269531 122.15625 154.113281 122.625 153.9375 C 122.636719 153.9375 122.648438 153.925781 122.660156 153.921875 C 123.132812 153.746094 123.585938 153.53125 124.035156 153.304688 C 124.179688 153.234375 124.324219 153.148438 124.46875 153.070312 C 124.773438 152.902344 125.070312 152.722656 125.359375 152.53125 C 125.511719 152.433594 125.664062 152.339844 125.808594 152.234375 C 126.203125 151.957031 126.582031 151.664062 126.945312 151.34375 C 127.042969 151.261719 127.132812 151.167969 127.226562 151.078125 C 127.519531 150.804688 127.808594 150.519531 128.078125 150.21875 C 128.179688 150.105469 128.28125 149.992188 128.378906 149.878906 C 128.742188 149.453125 129.085938 149.011719 129.394531 148.546875 L 150.722656 116.867188 L 158.792969 147.453125 C 158.894531 147.410156 158.992188 147.359375 159.09375 147.316406 Z M 227.34375 120.921875 " fill-opacity="1" fill-rule="nonzero"/><path fill="#fff4f5" d="M 128.75 57.09375 C 128.789062 57.101562 128.828125 57.097656 128.863281 57.101562 C 138.011719 58.324219 144.644531 66.253906 144.507812 75.277344 C 151.707031 79.675781 160.363281 81.804688 169.398438 80.789062 C 191.023438 78.347656 206.582031 58.8125 204.148438 37.15625 C 201.707031 15.496094 182.203125 -0.0820312 160.574219 2.355469 C 138.945312 4.796875 123.390625 24.328125 125.824219 45.988281 C 126.265625 49.917969 127.277344 53.640625 128.75 57.09375 Z M 183.929688 27.378906 C 186.726562 27.378906 188.988281 29.648438 188.988281 32.445312 C 188.988281 35.246094 186.726562 37.515625 183.929688 37.515625 C 181.136719 37.515625 178.871094 35.246094 178.871094 32.445312 C 178.871094 29.648438 181.132812 27.378906 183.929688 27.378906 Z M 161.464844 26.320312 C 164.84375 26.320312 167.582031 29.0625 167.582031 32.445312 C 167.582031 35.832031 164.84375 38.574219 161.464844 38.574219 C 158.085938 38.574219 155.347656 35.832031 155.347656 32.445312 C 155.347656 29.0625 158.085938 26.320312 161.464844 26.320312 Z M 170.890625 47.527344 C 181.457031 46.132812 190.675781 49.964844 191.480469 56.089844 C 192.292969 62.21875 182.917969 57.222656 172.351562 58.621094 C 161.785156 60.015625 154.03125 67.277344 153.222656 61.152344 C 152.414062 55.027344 160.324219 48.929688 170.890625 47.527344 Z M 170.890625 47.527344 " fill-opacity="1" fill-rule="nonzero"/><path fill="#fff4f5" d="M 107.300781 241.148438 C 103.773438 243.347656 101.636719 246.125 100.949219 249.402344 C 99.890625 254.464844 102.78125 258.765625 102.90625 258.945312 C 103.246094 259.4375 103.792969 259.707031 104.351562 259.707031 C 104.695312 259.707031 105.039062 259.609375 105.339844 259.402344 C 106.140625 258.851562 106.34375 257.761719 105.792969 256.960938 C 105.773438 256.929688 103.636719 253.675781 104.378906 250.121094 C 104.859375 247.816406 106.464844 245.796875 109.152344 244.125 C 109.972656 243.613281 110.222656 242.53125 109.710938 241.707031 C 109.199219 240.886719 108.117188 240.636719 107.300781 241.148438 Z M 107.300781 241.148438 " fill-opacity="1" fill-rule="nonzero"/><path fill="#fff4f5" d="M 104.261719 238.015625 C 105.101562 237.535156 105.394531 236.464844 104.914062 235.621094 C 104.4375 234.78125 103.367188 234.484375 102.527344 234.96875 C 97.148438 238.042969 93.800781 242.023438 92.566406 246.800781 C 90.695312 254.074219 94.496094 260.441406 94.660156 260.710938 C 94.988281 261.253906 95.566406 261.550781 96.15625 261.550781 C 96.464844 261.550781 96.78125 261.46875 97.066406 261.296875 C 97.894531 260.792969 98.15625 259.714844 97.652344 258.886719 C 97.617188 258.832031 94.453125 253.53125 95.960938 247.679688 C 96.945312 243.851562 99.738281 240.601562 104.261719 238.015625 Z M 104.261719 238.015625 " fill-opacity="1" fill-rule="nonzero"/><path fill="#fff4f5" d="M 229.515625 42.855469 C 229.773438 43.785156 230.738281 44.332031 231.667969 44.074219 C 231.703125 44.066406 235.480469 43.0625 238.625 44.929688 C 240.636719 46.128906 242.023438 48.292969 242.746094 51.363281 C 242.9375 52.167969 243.65625 52.714844 244.449219 52.714844 C 244.582031 52.714844 244.71875 52.699219 244.851562 52.667969 C 245.792969 52.445312 246.378906 51.5 246.15625 50.554688 C 245.203125 46.507812 243.257812 43.589844 240.375 41.894531 C 235.925781 39.269531 230.929688 40.636719 230.71875 40.699219 C 229.792969 40.960938 229.253906 41.925781 229.515625 42.855469 Z M 229.515625 42.855469 " fill-opacity="1" fill-rule="nonzero"/><path fill="#fff4f5" d="M 251.808594 50.09375 C 251.917969 50.09375 252.03125 50.082031 252.148438 50.058594 C 253.097656 49.875 253.714844 48.953125 253.53125 48.003906 C 252.34375 41.917969 249.648438 37.464844 245.519531 34.769531 C 239.234375 30.664062 231.996094 32.238281 231.691406 32.308594 C 230.746094 32.519531 230.15625 33.457031 230.371094 34.398438 C 230.578125 35.34375 231.515625 35.9375 232.457031 35.730469 C 232.515625 35.714844 238.613281 34.425781 243.636719 37.726562 C 246.925781 39.890625 249.097656 43.574219 250.09375 48.675781 C 250.253906 49.511719 250.988281 50.09375 251.808594 50.09375 Z M 251.808594 50.09375 " fill-opacity="1" fill-rule="nonzero"/><path fill="#fff4f5" d="M 272.078125 155.761719 C 272.1875 158.105469 271.152344 160.457031 268.996094 162.753906 C 268.332031 163.460938 268.367188 164.570312 269.070312 165.234375 C 269.410156 165.554688 269.839844 165.710938 270.269531 165.710938 C 270.738281 165.710938 271.203125 165.523438 271.546875 165.15625 C 274.394531 162.125 275.746094 158.894531 275.574219 155.550781 C 275.300781 150.386719 271.40625 146.96875 271.238281 146.828125 C 270.507812 146.199219 269.410156 146.277344 268.777344 147.007812 C 268.144531 147.738281 268.222656 148.847656 268.949219 149.480469 C 268.976562 149.507812 271.898438 152.109375 272.078125 155.761719 Z M 272.078125 155.761719 " fill-opacity="1" fill-rule="nonzero"/><g clip-path="url(#e1874c5d2f)"><path fill="#fff4f5" d="M 275.265625 169.886719 C 275.605469 170.234375 276.058594 170.410156 276.511719 170.410156 C 276.957031 170.410156 277.402344 170.242188 277.742188 169.902344 C 282.152344 165.554688 284.375 160.84375 284.34375 155.910156 C 284.292969 148.398438 278.988281 143.222656 278.761719 143.003906 C 278.066406 142.332031 276.957031 142.355469 276.285156 143.054688 C 275.613281 143.753906 275.640625 144.863281 276.335938 145.535156 C 276.378906 145.578125 280.796875 149.890625 280.835938 155.933594 C 280.863281 159.886719 278.996094 163.746094 275.285156 167.40625 C 274.597656 168.085938 274.589844 169.195312 275.265625 169.886719 Z M 275.265625 169.886719 " fill-opacity="1" fill-rule="nonzero"/></g><path fill="#fff4f5" d="M 100.683594 63.625 C 99.46875 68.652344 102.222656 73.039062 102.339844 73.226562 C 102.671875 73.746094 103.234375 74.03125 103.8125 74.03125 C 104.132812 74.03125 104.457031 73.941406 104.75 73.757812 C 105.566406 73.242188 105.808594 72.160156 105.292969 71.339844 C 105.273438 71.308594 103.21875 67.980469 104.097656 64.421875 C 104.65625 62.148438 106.320312 60.191406 109.046875 58.609375 C 109.882812 58.125 110.167969 57.050781 109.683594 56.210938 C 109.195312 55.371094 108.125 55.089844 107.289062 55.574219 C 103.695312 57.660156 101.472656 60.371094 100.683594 63.625 Z M 100.683594 63.625 " fill-opacity="1" fill-rule="nonzero"/><path fill="#fff4f5" d="M 95.566406 75.621094 C 95.859375 75.621094 96.15625 75.546875 96.429688 75.390625 C 97.269531 74.914062 97.566406 73.84375 97.085938 73 C 97.058594 72.945312 94.058594 67.550781 95.75 61.746094 C 96.855469 57.953125 99.746094 54.789062 104.351562 52.347656 C 105.203125 51.894531 105.53125 50.832031 105.078125 49.976562 C 104.625 49.121094 103.566406 48.792969 102.710938 49.25 C 97.238281 52.152344 93.765625 56.027344 92.386719 60.761719 C 90.285156 67.972656 93.886719 74.457031 94.039062 74.730469 C 94.363281 75.296875 94.957031 75.621094 95.566406 75.621094 Z M 95.566406 75.621094 " fill-opacity="1" fill-rule="nonzero"/></svg>