<svg xmlns="http://www.w3.org/2000/svg" xmlns:xlink="http://www.w3.org/1999/xlink" width="500" zoomAndPan="magnify" viewBox="0 0 375 374.999991" height="500" preserveAspectRatio="xMidYMid meet" version="1.0"><defs><clipPath id="db13ba8249"><path d="M 0.230469 75.039062 L 183 75.039062 L 183 366.140625 L 0.230469 366.140625 Z M 0.230469 75.039062 " clip-rule="nonzero"/></clipPath><clipPath id="59aadae3c2"><path d="M 183 9.140625 L 198 9.140625 L 198 27 L 183 27 Z M 183 9.140625 " clip-rule="nonzero"/></clipPath><clipPath id="2c2313c97f"><path d="M 359 114.335938 L 373.683594 114.335938 L 373.683594 131.464844 L 359 131.464844 Z M 359 114.335938 " clip-rule="nonzero"/></clipPath></defs><g clip-path="url(#db13ba8249)"><path fill="#fff4f5" d="M 128.492188 80.054688 C 125.320312 82.84375 119.0625 97.25 116.863281 102.082031 C 113.101562 109.980469 108.054688 121.835938 104.097656 128.730469 C 88.28125 156.519531 61.839844 136.929688 44.738281 125.359375 C 39.96875 122.113281 23.585938 110.308594 19.839844 109.296875 C 7.078125 105.890625 -3.140625 118.007812 1.277344 129.472656 C 3.789062 136 17.1875 143.449219 24.324219 148.636719 L 61.191406 174.269531 C 63.675781 175.984375 63.921875 180.023438 64.722656 182.941406 C 68.976562 198.433594 75 218.417969 78.265625 232.921875 C 83.199219 254.59375 99.242188 318.441406 102.054688 343.84375 C 104.167969 374.953125 136.449219 372.9375 133.546875 341.363281 C 130.917969 312.746094 116.550781 262.035156 113.476562 247.894531 L 119.570312 246.515625 C 124.792969 261.75 141.429688 320.734375 155.679688 343.734375 C 168.34375 364.148438 187.339844 348.722656 182.09375 331.613281 C 171.300781 303.320312 161.167969 274.117188 151.582031 245.027344 C 148.566406 235.988281 145.625 226.871094 142.730469 217.804688 L 140.078125 209.753906 C 136.722656 195.316406 130.570312 174.226562 126.335938 158.894531 C 124.839844 153.566406 137.25 130.765625 140.796875 123.273438 C 145.476562 113.351562 154.605469 102.722656 156.1875 93.351562 C 158.535156 79.367188 139.980469 69.917969 128.492188 80.054688 " fill-opacity="1" fill-rule="evenodd"/></g><path fill="#fff4f5" d="M 98.359375 94.460938 C 95.117188 82.417969 82.597656 75.269531 70.445312 78.488281 C 58.285156 81.707031 51.074219 94.089844 54.34375 106.144531 C 57.585938 118.191406 70.085938 125.335938 82.257812 122.125 C 94.425781 118.886719 101.632812 106.523438 98.359375 94.460938 " fill-opacity="1" fill-rule="evenodd"/><path fill="#fff4f5" d="M 243.101562 24.164062 C 246.277344 26.988281 252.542969 41.363281 254.722656 46.203125 C 258.515625 54.082031 263.578125 65.953125 267.5 72.832031 C 283.34375 100.648438 309.78125 81.058594 326.832031 69.488281 C 331.648438 66.261719 348.003906 54.472656 351.78125 53.445312 C 364.546875 50.011719 374.753906 62.140625 370.335938 73.578125 C 367.8125 80.105469 354.398438 87.59375 347.28125 92.761719 L 310.433594 118.402344 C 307.949219 120.117188 307.71875 124.171875 306.882812 127.074219 C 302.648438 142.582031 296.625 162.550781 293.332031 177.019531 C 288.4375 198.714844 272.40625 262.570312 269.542969 287.96875 C 267.457031 319.066406 235.1875 317.066406 238.074219 285.511719 C 240.714844 256.894531 255.085938 206.167969 258.117188 192.023438 L 252.085938 190.667969 C 246.820312 205.863281 230.183594 264.875 215.933594 287.84375 C 203.289062 308.277344 184.292969 292.890625 189.503906 275.742188 C 203.695312 238.601562 216.699219 199.980469 228.886719 161.972656 L 231.566406 153.917969 C 234.921875 139.480469 241.074219 118.414062 245.308594 103.078125 C 246.753906 97.75 234.351562 74.941406 230.863281 67.402344 C 226.167969 57.484375 217.019531 46.859375 215.433594 37.488281 C 213.070312 23.46875 231.644531 14.066406 243.101562 24.164062 " fill-opacity="1" fill-rule="evenodd"/><path fill="#fff4f5" d="M 273.230469 38.585938 C 276.472656 26.53125 288.992188 19.375 301.140625 22.628906 C 313.34375 25.839844 320.53125 38.25 317.292969 50.285156 C 314.019531 62.308594 301.507812 69.46875 289.339844 66.21875 C 277.199219 63 269.953125 50.617188 273.230469 38.585938 " fill-opacity="1" fill-rule="evenodd"/><path fill="#fff4f5" d="M 155.242188 41.554688 C 156.25 40.316406 156.058594 38.492188 154.820312 37.484375 C 153.582031 36.476562 151.761719 36.664062 150.753906 37.902344 L 142.050781 48.640625 C 141.042969 49.878906 141.234375 51.703125 142.46875 52.710938 C 143.707031 53.71875 145.527344 53.527344 146.535156 52.289062 L 155.242188 41.554688 " fill-opacity="1" fill-rule="nonzero"/><path fill="#fff4f5" d="M 89.128906 36.605469 C 88.117188 35.363281 86.300781 35.175781 85.0625 36.183594 C 83.824219 37.191406 83.636719 39.011719 84.640625 40.253906 L 93.367188 51.003906 C 94.371094 52.246094 96.195312 52.429688 97.433594 51.421875 C 98.671875 50.414062 98.859375 48.59375 97.851562 47.351562 L 89.128906 36.605469 " fill-opacity="1" fill-rule="nonzero"/><path fill="#fff4f5" d="M 193.234375 60.015625 C 192.226562 58.78125 190.40625 58.589844 189.167969 59.597656 C 187.929688 60.605469 187.742188 62.429688 188.75 63.667969 L 197.46875 74.414062 C 198.476562 75.648438 200.300781 75.839844 201.535156 74.832031 C 202.777344 73.824219 202.964844 72 201.957031 70.761719 L 193.234375 60.015625 " fill-opacity="1" fill-rule="nonzero"/><path fill="#fff4f5" d="M 30.035156 49.625 C 29.027344 48.386719 27.207031 48.199219 25.96875 49.207031 C 24.726562 50.214844 24.539062 52.035156 25.546875 53.277344 L 34.25 64.007812 C 35.261719 65.246094 37.082031 65.433594 38.320312 64.425781 C 39.554688 63.417969 39.746094 61.597656 38.738281 60.359375 L 30.035156 49.625 " fill-opacity="1" fill-rule="nonzero"/><g clip-path="url(#59aadae3c2)"><path fill="#fff4f5" d="M 197.027344 14.246094 C 198.023438 13 197.828125 11.175781 196.582031 10.175781 C 195.339844 9.175781 193.515625 9.375 192.515625 10.617188 L 183.855469 21.34375 C 182.851562 22.589844 183.050781 24.414062 184.292969 25.414062 C 185.542969 26.417969 187.363281 26.214844 188.359375 24.972656 L 197.027344 14.246094 " fill-opacity="1" fill-rule="nonzero"/></g><path fill="#fff4f5" d="M 347.421875 27.90625 C 348.425781 26.664062 348.238281 24.847656 347 23.835938 C 345.761719 22.828125 343.941406 23.015625 342.933594 24.257812 L 334.230469 35.003906 C 333.222656 36.246094 333.410156 38.066406 334.644531 39.074219 C 335.886719 40.082031 337.707031 39.894531 338.710938 38.660156 L 347.421875 27.90625 " fill-opacity="1" fill-rule="nonzero"/><g clip-path="url(#2c2313c97f)"><path fill="#fff4f5" d="M 373.039062 119.613281 C 374.046875 118.378906 373.855469 116.554688 372.617188 115.542969 C 371.378906 114.535156 369.558594 114.726562 368.550781 115.964844 L 359.839844 126.683594 C 358.832031 127.917969 359.019531 129.742188 360.257812 130.75 C 361.496094 131.757812 363.316406 131.570312 364.324219 130.332031 L 373.039062 119.613281 " fill-opacity="1" fill-rule="nonzero"/></g><path fill="#fff4f5" d="M 210.820312 146.9375 C 211.828125 145.699219 211.640625 143.875 210.402344 142.867188 C 209.164062 141.859375 207.34375 142.050781 206.335938 143.289062 L 197.617188 153.988281 C 196.609375 155.226562 196.796875 157.050781 198.035156 158.058594 C 199.269531 159.066406 201.097656 158.875 202.101562 157.640625 L 210.820312 146.9375 " fill-opacity="1" fill-rule="nonzero"/><path fill="#fff4f5" d="M 180.859375 112.871094 C 179.855469 111.632812 178.035156 111.445312 176.792969 112.453125 C 175.558594 113.460938 175.371094 115.285156 176.378906 116.523438 L 185.066406 127.222656 C 186.074219 128.460938 187.894531 128.648438 189.132812 127.640625 C 190.371094 126.632812 190.558594 124.808594 189.550781 123.570312 L 180.859375 112.871094 " fill-opacity="1" fill-rule="nonzero"/></svg>