<svg xmlns="http://www.w3.org/2000/svg" xmlns:xlink="http://www.w3.org/1999/xlink" width="500" zoomAndPan="magnify" viewBox="0 0 375 374.999991" height="500" preserveAspectRatio="xMidYMid meet" version="1.0"><path fill="#fff4f5" d="M 326.253906 117.261719 C 320.566406 112.460938 312.058594 113.179688 307.257812 118.871094 L 263.726562 170.460938 C 262.261719 172.191406 261.261719 174.261719 260.816406 176.484375 L 249.910156 230.554688 C 247.898438 229.929688 245.863281 229.527344 243.832031 229.335938 L 218.136719 174.484375 C 216.820312 171.667969 216.640625 168.449219 217.640625 165.507812 L 238.238281 104.945312 C 240.632812 97.898438 236.863281 90.246094 229.8125 87.847656 C 222.761719 85.445312 215.105469 89.226562 212.710938 96.269531 L 188.804688 166.558594 C 187.683594 169.851562 187.882812 173.457031 189.359375 176.609375 L 215.3125 232.007812 C 217.226562 236.089844 216.957031 240.808594 214.792969 244.765625 C 214.238281 245.773438 213.738281 246.828125 213.296875 247.921875 C 213.222656 248.113281 204.460938 267.917969 182.464844 281.667969 C 176.773438 285.230469 160.15625 287.554688 148.765625 287.34375 C 148.582031 287.339844 148.394531 287.335938 148.210938 287.335938 C 147.242188 287.335938 146.28125 287.382812 145.335938 287.476562 C 142.628906 287.738281 140.300781 285.609375 140.3125 282.890625 C 140.378906 268.234375 141.308594 252.414062 142.5625 240.09375 C 142.996094 235.820312 141.363281 231.589844 138.167969 228.714844 L 97.839844 192.4375 C 92.3125 187.460938 83.789062 187.90625 78.804688 193.441406 C 73.820312 198.972656 74.269531 207.492188 79.808594 212.46875 L 115.097656 244.222656 C 113.375 264.363281 110.425781 313.199219 120.085938 333.550781 C 134.695312 364.328125 197.925781 373.382812 210.453125 374.890625 C 210.984375 374.953125 211.519531 374.984375 212.058594 374.984375 C 213.769531 374.984375 215.472656 374.660156 217.074219 374.019531 L 267.425781 353.832031 C 274.335938 351.0625 277.691406 343.21875 274.921875 336.308594 C 272.148438 329.398438 264.292969 326.046875 257.390625 328.816406 L 212.300781 346.894531 C 210.980469 347.421875 209.546875 347.585938 208.136719 347.371094 C 201.578125 346.371094 194.324219 344.925781 187.121094 343.117188 C 196.480469 340.914062 206.074219 337.558594 214.234375 332.453125 C 252.585938 308.476562 267.28125 274.226562 268.832031 270.398438 C 269.074219 269.800781 269.289062 269.199219 269.488281 268.597656 C 272.035156 262.164062 283.285156 202.671875 285.980469 188.308594 C 286.363281 186.265625 287.269531 184.363281 288.609375 182.773438 L 327.867188 136.25 C 332.667969 130.5625 331.945312 122.058594 326.253906 117.261719 Z M 326.253906 117.261719 " fill-opacity="1" fill-rule="nonzero"/><path fill="#fff4f5" d="M 56.429688 317.867188 L 55.628906 318.589844 C 43.359375 329.683594 42.410156 348.621094 53.511719 360.886719 C 59.425781 367.421875 67.5625 370.742188 75.734375 370.742188 C 82.902344 370.742188 90.089844 368.1875 95.824219 363.003906 L 96.621094 362.28125 C 108.890625 351.183594 109.839844 332.246094 98.738281 319.984375 C 87.640625 307.71875 68.691406 306.773438 56.429688 317.867188 Z M 56.429688 317.867188 " fill-opacity="1" fill-rule="nonzero"/><path fill="#fff4f5" d="M 132.265625 67.390625 C 130.609375 67.390625 129.269531 66.046875 129.269531 64.394531 L 129.269531 3.003906 C 129.269531 1.351562 130.609375 0.0078125 132.265625 0.0078125 C 133.921875 0.0078125 135.257812 1.351562 135.257812 3.003906 L 135.257812 64.394531 C 135.257812 66.046875 133.921875 67.390625 132.265625 67.390625 Z M 132.265625 67.390625 " fill-opacity="1" fill-rule="nonzero"/><path fill="#fff4f5" d="M 132.265625 107.683594 C 130.609375 107.683594 129.269531 106.339844 129.269531 104.6875 L 129.269531 86.632812 C 129.269531 84.980469 130.609375 83.636719 132.265625 83.636719 C 133.921875 83.636719 135.257812 84.980469 135.257812 86.632812 L 135.257812 104.6875 C 135.257812 106.339844 133.921875 107.683594 132.265625 107.683594 Z M 132.265625 107.683594 " fill-opacity="1" fill-rule="nonzero"/><path fill="#fff4f5" d="M 103.058594 86.824219 C 101.402344 86.824219 100.0625 85.484375 100.0625 83.832031 L 100.0625 15.304688 C 100.0625 13.652344 101.402344 12.3125 103.058594 12.3125 C 104.714844 12.3125 106.050781 13.652344 106.050781 15.304688 L 106.050781 83.832031 C 106.050781 85.484375 104.714844 86.824219 103.058594 86.824219 Z M 103.058594 86.824219 " fill-opacity="1" fill-rule="nonzero"/><path fill="#fff4f5" d="M 160.140625 98.65625 C 158.484375 98.65625 157.144531 97.3125 157.144531 95.660156 L 157.144531 19.445312 C 157.144531 17.792969 158.484375 16.453125 160.140625 16.453125 C 161.796875 16.453125 163.132812 17.792969 163.132812 19.445312 L 163.132812 95.660156 C 163.132812 97.3125 161.796875 98.65625 160.140625 98.65625 Z M 160.140625 98.65625 " fill-opacity="1" fill-rule="nonzero"/></svg>