<svg xmlns="http://www.w3.org/2000/svg" xmlns:xlink="http://www.w3.org/1999/xlink" width="500" zoomAndPan="magnify" viewBox="0 0 375 374.999991" height="500" preserveAspectRatio="xMidYMid meet" version="1.0"><defs><clipPath id="a66d0ad129"><path d="M 202 80 L 337.21875 80 L 337.21875 152 L 202 152 Z M 202 80 " clip-rule="nonzero"/></clipPath></defs><path fill="#fff4f5" d="M 76.902344 218.59375 C 77.035156 218.597656 77.171875 218.621094 77.308594 218.621094 C 78.75 218.621094 80.207031 218.355469 81.628906 217.832031 L 81.628906 354.527344 C 81.628906 365.300781 90.355469 374.027344 101.109375 374.027344 C 111.871094 374.027344 120.597656 365.300781 120.597656 354.527344 L 120.597656 211.796875 L 127.898438 210.695312 L 127.898438 354.527344 C 127.898438 365.300781 136.625 374.027344 147.382812 374.027344 C 158.140625 374.027344 166.867188 365.300781 166.867188 354.527344 L 166.867188 208.851562 C 166.871094 208.851562 166.878906 208.855469 166.882812 208.855469 C 168.53125 208.855469 170.125 208.519531 171.597656 207.921875 C 175.539062 206.320312 178.582031 202.761719 179.3125 198.25 L 190.847656 126.910156 C 191.480469 122.984375 190.230469 118.988281 187.464844 116.125 L 153.730469 81.1875 L 147.675781 74.917969 C 143.691406 70.792969 137.582031 69.980469 132.753906 72.523438 C 131.601562 75.121094 130.167969 77.621094 128.4375 79.964844 C 122.238281 88.371094 113.140625 93.859375 102.820312 95.414062 C 100.875 95.707031 98.902344 95.855469 96.949219 95.855469 C 86.050781 95.855469 75.984375 91.207031 68.804688 83.707031 C 66.132812 84.917969 63.863281 87.050781 62.542969 89.929688 L 62.386719 90.269531 L 39.429688 140.40625 C 37.933594 143.675781 37.902344 147.433594 39.34375 150.726562 L 65.753906 211.0625 C 67.769531 215.667969 72.199219 218.4375 76.902344 218.59375 Z M 163.15625 140.195312 L 160.683594 155.507812 L 155.1875 119.011719 L 160.851562 124.878906 L 164.949219 129.121094 Z M 67.359375 139.984375 L 70.957031 132.125 L 77.371094 174.71875 L 70.082031 158.066406 L 64.707031 145.78125 Z M 67.359375 139.984375 " fill-opacity="1" fill-rule="nonzero"/><path fill="#fff4f5" d="M 102.277344 91.828125 C 121.644531 88.90625 134.972656 70.828125 132.054688 51.445312 C 129.136719 32.0625 111.078125 18.71875 91.710938 21.640625 C 72.347656 24.5625 59.015625 42.644531 61.933594 62.023438 C 64.851562 81.40625 82.917969 94.75 102.277344 91.828125 Z M 122.800781 68.355469 C 122.800781 68.355469 109.371094 66.960938 97.230469 79.652344 L 92.433594 75.574219 C 107.210938 61.449219 122.800781 68.355469 122.800781 68.355469 Z M 117.953125 46.839844 C 119.617188 50.144531 118.289062 54.175781 114.984375 55.84375 C 111.679688 57.507812 107.652344 56.179688 105.988281 52.871094 C 104.324219 49.5625 116.289062 43.53125 117.953125 46.839844 Z M 98.722656 55.609375 C 98.722656 59.632812 95.460938 62.894531 91.441406 62.894531 C 87.421875 62.894531 84.164062 59.632812 84.164062 55.609375 C 84.164062 51.585938 98.722656 51.585938 98.722656 55.609375 Z M 98.722656 55.609375 " fill-opacity="1" fill-rule="nonzero"/><path fill="#fff4f5" d="M 227.273438 155.292969 L 227.042969 155.292969 C 227.03125 155.292969 227.019531 155.292969 227.007812 155.292969 L 227.007812 162.457031 C 230.550781 158.855469 234.265625 155.769531 237.835938 152.898438 C 235.144531 154.085938 231.824219 155.15625 227.273438 155.292969 Z M 227.273438 155.292969 " fill-opacity="1" fill-rule="nonzero"/><path fill="#fff4f5" d="M 312.183594 155.300781 L 312.039062 155.300781 C 307.644531 155.246094 304.421875 154.136719 301.738281 153.027344 C 305.1875 155.542969 308.761719 158.578125 312.246094 162.324219 L 312.246094 155.296875 C 312.222656 155.296875 312.203125 155.300781 312.183594 155.300781 Z M 312.183594 155.300781 " fill-opacity="1" fill-rule="nonzero"/><path fill="#fff4f5" d="M 227.886719 244.320312 C 226.402344 246.09375 224.371094 247.269531 222.136719 247.703125 L 213.5625 352.914062 C 212.6875 363.652344 220.675781 373.0625 231.398438 373.9375 C 242.121094 374.808594 251.527344 366.824219 252.402344 356.085938 L 261.113281 249.183594 C 247.425781 248.417969 237.183594 244.886719 230.285156 241.453125 Z M 227.886719 244.320312 " fill-opacity="1" fill-rule="nonzero"/><path fill="#fff4f5" d="M 307.035156 245.328125 L 304.28125 242.03125 C 298.664062 244.726562 290.1875 247.542969 278.101562 248.746094 L 286.847656 356.085938 C 287.722656 366.824219 297.128906 374.808594 307.851562 373.933594 C 318.574219 373.058594 326.5625 363.652344 325.6875 352.914062 L 317.183594 248.5625 C 316.378906 248.765625 315.558594 248.90625 314.714844 248.90625 C 311.738281 248.910156 308.9375 247.605469 307.035156 245.328125 Z M 307.035156 245.328125 " fill-opacity="1" fill-rule="nonzero"/><path fill="#fff4f5" d="M 234.167969 35.683594 C 234.167969 55.285156 250.042969 71.171875 269.625 71.171875 C 289.210938 71.171875 305.082031 55.285156 305.082031 35.683594 C 305.082031 16.085938 289.210938 0.195312 269.625 0.195312 C 250.042969 0.195312 234.167969 16.085938 234.167969 35.683594 Z M 291.742188 48.546875 C 287.15625 55.980469 278.972656 60.957031 269.625 60.957031 C 260.277344 60.957031 252.09375 55.980469 247.507812 48.546875 Z M 291.742188 48.546875 " fill-opacity="1" fill-rule="nonzero"/><path fill="#fff4f5" d="M 293.851562 111.601562 C 294.4375 110.574219 294.824219 109.546875 294.890625 108.511719 C 295.335938 101.230469 260.464844 92.042969 266.847656 103.46875 C 273.226562 114.898438 241.492188 97.082031 236.457031 103.132812 C 234.292969 105.730469 238.199219 109.503906 243.675781 113.683594 C 253.765625 109.328125 263.765625 107.164062 274.03125 107.164062 C 278.042969 107.164062 282.03125 107.464844 286.007812 108.0625 C 289.003906 108.519531 291.675781 109.789062 293.851562 111.601562 Z M 293.851562 111.601562 " fill-opacity="1" fill-rule="nonzero"/><path fill="#fff4f5" d="M 279.609375 143.472656 C 277.464844 141.714844 275.90625 140.457031 274.847656 139.367188 C 274.617188 139.363281 274.386719 139.339844 274.15625 139.339844 C 267.476562 139.375 262.074219 140.789062 257.152344 142.859375 C 254.320312 144.695312 250.96875 146.722656 247.707031 149.523438 C 238.300781 157.589844 226.4375 164.984375 219.050781 179.328125 C 212.621094 191.800781 218.21875 221.042969 219.789062 228.453125 L 215.320312 233.796875 C 213.070312 236.492188 213.429688 240.539062 216.121094 242.792969 C 218.8125 245.046875 222.859375 244.6875 225.109375 241.992188 L 229.382812 236.882812 C 237.355469 241.339844 250.652344 246.285156 269.871094 245.660156 C 287.585938 245.078125 298.640625 241.144531 305.199219 237.480469 L 309.816406 243.003906 C 312.070312 245.695312 316.113281 246.058594 318.804688 243.804688 C 321.496094 241.550781 321.855469 237.5 319.605469 234.808594 L 314.550781 228.757812 C 318.085938 221.109375 329.042969 194.253906 318.007812 175.964844 C 305.019531 154.449219 286.996094 149.523438 279.609375 143.472656 Z M 271.1875 216.046875 L 271.1875 221.074219 L 266.183594 221.074219 L 266.183594 216.046875 C 260.796875 215.585938 255.882812 213.402344 252.007812 209.765625 L 258.527344 205.464844 C 262.589844 208.972656 265.140625 210.09375 269.109375 210.09375 C 273.171875 210.09375 275.722656 208.042969 275.722656 204.804688 C 275.722656 203.015625 274.777344 201.296875 273.171875 199.976562 C 271.566406 198.71875 270.621094 198.1875 265.046875 195.410156 C 255.785156 190.777344 252.855469 187.605469 252.855469 182.246094 C 252.855469 176.164062 258.054688 171.664062 266.179688 170.804688 L 266.179688 166.703125 L 271.1875 166.703125 L 271.1875 170.804688 C 276.101562 171.203125 280.257812 172.789062 283.941406 175.699219 L 277.425781 180.199219 C 274.871094 177.753906 272.324219 176.757812 268.917969 176.757812 C 264.667969 176.757812 262.023438 178.675781 262.023438 181.785156 C 262.023438 183.507812 262.871094 185.09375 264.476562 186.285156 C 265.894531 187.34375 266.558594 187.671875 271.941406 190.253906 C 282.054688 195.214844 285.171875 198.585938 285.171875 204.472656 C 285.175781 211.019531 280.070312 215.253906 271.1875 216.046875 Z M 271.1875 216.046875 " fill-opacity="1" fill-rule="nonzero"/><g clip-path="url(#a66d0ad129)"><path fill="#fff4f5" d="M 219.246094 149.96875 C 221.78125 151.265625 224.621094 151.828125 227.042969 151.828125 C 227.085938 151.828125 227.128906 151.828125 227.175781 151.824219 C 233.394531 151.644531 236.898438 149.515625 240.273438 147.855469 C 250.03125 142.535156 259.21875 135.9375 274.15625 135.871094 C 276.519531 135.871094 279.03125 136.046875 281.742188 136.453125 C 288.625 137.488281 295.046875 132.742188 296.082031 125.847656 C 297.117188 118.953125 292.375 112.535156 285.488281 111.496094 C 281.550781 110.902344 277.773438 110.632812 274.160156 110.632812 C 258.816406 110.605469 246.746094 115.601562 238.332031 120.0625 C 234.328125 122.175781 231.050781 124.164062 228.773438 125.390625 C 228.714844 125.289062 228.65625 125.175781 228.597656 125.0625 C 228.214844 124.300781 227.882812 123.332031 227.644531 122.246094 L 230.824219 120.25 C 232.511719 119.289062 234.519531 118.148438 236.714844 116.992188 C 237.800781 116.417969 238.878906 115.902344 239.960938 115.378906 C 235.414062 111.765625 232.683594 108.804688 232.277344 105.554688 C 232.054688 103.8125 232.539062 102.171875 233.671875 100.8125 C 235.105469 99.089844 237.371094 98.214844 240.402344 98.214844 C 244.632812 98.214844 250.1875 99.847656 255.558594 101.429688 C 258.15625 102.191406 260.816406 102.972656 262.863281 103.410156 C 262.039062 100.972656 262.566406 99.167969 263.246094 98.003906 C 264.628906 95.644531 267.457031 94.449219 271.65625 94.449219 C 279.179688 94.449219 291.574219 98.335938 296.28125 103.34375 C 298.265625 105.453125 298.585938 107.441406 298.507812 108.734375 C 298.390625 110.628906 297.679688 112.402344 296.585938 114.09375 C 300.433594 115.816406 303.8125 117.640625 306.925781 119.398438 C 307.445312 119.695312 307.945312 119.980469 308.429688 120.257812 L 311.609375 122.25 C 311.371094 123.335938 311.035156 124.300781 310.648438 125.0625 C 310.59375 125.175781 310.535156 125.285156 310.480469 125.390625 C 309.09375 124.636719 307.285156 123.601562 305.226562 122.421875 C 303.355469 121.367188 301.242188 120.203125 298.894531 119.03125 C 299.640625 121.328125 299.898438 123.820312 299.515625 126.363281 C 298.371094 133.976562 291.855469 139.75 284.226562 140.039062 C 288.359375 141.835938 292.117188 143.988281 295.816406 146.101562 C 297.949219 147.3125 300.074219 148.515625 302.554688 149.609375 C 305.035156 150.660156 307.964844 151.78125 312.078125 151.832031 C 312.113281 151.832031 312.148438 151.832031 312.183594 151.832031 C 314.621094 151.832031 317.460938 151.265625 320.003906 149.972656 C 326.21875 146.832031 330.578125 141.691406 333.257812 136.234375 C 335.953125 130.734375 337.175781 124.773438 337.1875 118.753906 C 337.164062 109.886719 334.503906 100.59375 328.097656 92.9375 C 322.15625 85.71875 312.5 80.726562 301.457031 80.246094 C 301 80.195312 300.539062 80.164062 300.066406 80.164062 L 239.1875 80.164062 C 238.71875 80.164062 238.253906 80.195312 237.800781 80.246094 C 226.757812 80.730469 217.101562 85.722656 211.160156 92.9375 C 204.75 100.589844 202.089844 109.890625 202.066406 118.753906 C 202.078125 124.652344 203.261719 130.496094 205.847656 135.910156 C 205.898438 136.019531 205.941406 136.128906 205.996094 136.234375 C 208.667969 141.695312 213.035156 146.839844 219.246094 149.96875 Z M 219.246094 149.96875 " fill-opacity="1" fill-rule="nonzero"/></g></svg>