<svg xmlns="http://www.w3.org/2000/svg" xmlns:xlink="http://www.w3.org/1999/xlink" width="500" zoomAndPan="magnify" viewBox="0 0 375 374.999991" height="500" preserveAspectRatio="xMidYMid meet" version="1.0"><defs><clipPath id="dd6785cf85"><path d="M 0 150 L 103 150 L 103 318.1875 L 0 318.1875 Z M 0 150 " clip-rule="nonzero"/></clipPath><clipPath id="cab6959c5c"><path d="M 52 57.1875 L 68 57.1875 L 68 98 L 52 98 Z M 52 57.1875 " clip-rule="nonzero"/></clipPath></defs><path fill="#fff4f5" d="M 213.609375 155.230469 C 212.648438 151.433594 208.796875 149.144531 205.007812 150.105469 L 157.859375 162.113281 C 150.992188 159.558594 140.910156 161.328125 133.855469 171.382812 C 123.121094 186.878906 118.65625 197.691406 115.402344 217.226562 C 114.5625 226.617188 118.042969 231.644531 122.726562 234.605469 C 123.582031 235.402344 124.566406 236.078125 125.6875 236.585938 C 126.253906 236.839844 132.402344 239.90625 137.898438 245.023438 C 140.742188 247.644531 143.386719 250.765625 145.214844 254.140625 C 147.046875 257.542969 148.125 261.09375 148.136719 265.257812 C 148.132812 268.6875 147.394531 272.652344 145.21875 277.480469 C 143.042969 282.296875 139.378906 287.949219 133.574219 294.332031 C 129.460938 298.855469 129.789062 305.859375 134.304688 309.972656 C 136.421875 311.90625 139.085938 312.859375 141.742188 312.859375 C 144.746094 312.859375 147.742188 311.640625 149.921875 309.242188 C 156.964844 301.492188 162.027344 293.980469 165.359375 286.617188 C 168.695312 279.269531 170.257812 272.03125 170.25 265.257812 C 170.253906 262.167969 169.929688 259.207031 169.351562 256.382812 C 169.199219 256.390625 169.046875 256.410156 168.894531 256.410156 C 165.59375 256.410156 162.59375 254.597656 161.058594 251.675781 C 156.253906 242.535156 152.664062 234.003906 149.984375 226.214844 C 148.660156 225.121094 147.367188 224.121094 146.128906 223.21875 C 146.519531 221.574219 146.976562 219.929688 147.484375 218.289062 C 143.273438 203.574219 142.402344 192.144531 142.40625 185.203125 C 142.40625 179.804688 142.921875 176.710938 142.984375 176.375 C 143.714844 172.125 147.375 169.03125 151.6875 169.03125 C 152.191406 169.03125 152.703125 169.078125 153.207031 169.164062 C 158.007812 170 161.238281 174.589844 160.410156 179.398438 L 160.40625 179.414062 L 160.390625 179.535156 C 160.363281 179.738281 160.324219 180.082031 160.28125 180.5625 C 160.195312 181.492188 160.09375 183.046875 160.097656 185.203125 C 160.097656 186.519531 160.140625 188.035156 160.238281 189.726562 C 160.929688 188.402344 161.597656 187.117188 162.226562 185.898438 C 164.34375 182.527344 165.492188 178.53125 165.5625 174.773438 L 208.492188 163.84375 C 212.285156 162.878906 214.574219 159.019531 213.609375 155.230469 Z M 213.609375 155.230469 " fill-opacity="1" fill-rule="nonzero"/><path fill="#fff4f5" d="M 39.511719 149.5625 C 50.484375 148.917969 58.855469 139.488281 58.214844 128.503906 C 57.570312 117.515625 48.15625 109.128906 37.1875 109.773438 C 26.214844 110.414062 17.839844 119.84375 18.484375 130.832031 C 19.125 141.820312 28.539062 150.203125 39.511719 149.5625 Z M 41.511719 138.226562 C 47.511719 136.707031 51.496094 132 52.371094 135.476562 C 53.25 138.953125 49.101562 143.003906 43.101562 144.523438 C 37.101562 146.042969 31.527344 144.457031 30.652344 140.976562 C 29.773438 137.5 35.511719 139.746094 41.511719 138.226562 Z M 41.511719 138.226562 " fill-opacity="1" fill-rule="nonzero"/><g clip-path="url(#dd6785cf85)"><path fill="#fff4f5" d="M 22.148438 309.875 C 42.625 284.285156 50.4375 254.640625 52.800781 229.011719 C 54.613281 229.269531 56.4375 229.507812 58.234375 229.722656 C 58.371094 233.910156 58.449219 238.179688 58.449219 242.476562 C 58.492188 264.503906 56.273438 287.371094 50.335938 303.257812 C 48.214844 308.992188 51.136719 315.359375 56.863281 317.484375 C 58.128906 317.953125 59.425781 318.175781 60.699219 318.175781 C 65.195312 318.175781 69.417969 315.414062 71.070312 310.945312 C 78.523438 290.609375 80.515625 265.925781 80.558594 242.476562 C 80.558594 234.101562 80.28125 225.894531 79.847656 218.152344 C 81 217.882812 82.105469 217.320312 83.039062 216.453125 C 89.78125 210.164062 94.617188 204.289062 97.871094 198.601562 C 101.117188 192.929688 102.769531 187.347656 102.769531 182.015625 C 102.796875 175.957031 100.550781 170.519531 97.28125 166.375 C 92.351562 160.117188 85.492188 156.28125 78.824219 153.730469 C 72.097656 151.214844 65.574219 150.027344 60.335938 150 C 59.144531 150.003906 58.011719 150.066406 56.867188 150.234375 C 50.179688 150.394531 41.144531 151.875 33.242188 154.527344 C 30.328125 155.246094 27.40625 156.480469 24.339844 158.117188 C 18.886719 161.070312 13.152344 165.332031 8.464844 170.777344 C 3.835938 176.199219 0.0429688 183.027344 0 191.097656 C -0.0429688 197.296875 2.523438 203.757812 7.558594 209.191406 C 12.59375 214.675781 19.90625 219.429688 30.089844 223.707031 C 30.402344 223.835938 30.722656 223.9375 31.039062 224.019531 C 29.261719 247.433594 22.527344 274.152344 4.914062 295.996094 C 1.089844 300.761719 1.84375 307.730469 6.605469 311.5625 C 8.648438 313.207031 11.09375 314.007812 13.527344 314.007812 C 16.761719 314.007812 19.964844 312.59375 22.148438 309.875 Z M 86.128906 175.09375 C 87.78125 177.265625 88.589844 179.320312 88.617188 182.015625 C 88.617188 184.394531 87.898438 187.507812 85.589844 191.566406 C 84.039062 194.292969 81.738281 197.414062 78.582031 200.859375 C 76.988281 183.09375 74.9375 170.113281 74.472656 167.234375 C 75.953125 167.816406 77.402344 168.476562 78.75 169.222656 C 81.867188 170.902344 84.476562 172.960938 86.128906 175.09375 Z M 17.996094 199.621094 C 14.941406 196.203125 14.195312 193.636719 14.148438 191.097656 C 14.148438 188.902344 14.878906 186.460938 16.410156 183.871094 C 18.664062 179.992188 22.710938 176.039062 26.910156 173.144531 C 27.253906 172.898438 27.597656 172.667969 27.945312 172.4375 C 29.054688 177.832031 31.460938 191.546875 31.558594 208.847656 C 24.917969 205.675781 20.570312 202.457031 17.996094 199.621094 Z M 17.996094 199.621094 " fill-opacity="1" fill-rule="nonzero"/></g><path fill="#fff4f5" d="M 92.863281 73.015625 L 89.5 70.808594 L 60.027344 99.441406 L 61.554688 100.542969 Z M 92.863281 73.015625 " fill-opacity="1" fill-rule="nonzero"/><g clip-path="url(#cab6959c5c)"><path fill="#fff4f5" d="M 63.253906 57.222656 L 52.824219 96.996094 L 54.699219 97.144531 L 67.273438 57.367188 Z M 63.253906 57.222656 " fill-opacity="1" fill-rule="nonzero"/></g><path fill="#fff4f5" d="M 107.492188 98.332031 L 105.484375 94.839844 L 66.273438 107.046875 L 67.140625 108.714844 Z M 107.492188 98.332031 " fill-opacity="1" fill-rule="nonzero"/><path fill="#fff4f5" d="M 144.542969 155.113281 C 154.132812 160.488281 166.253906 157.054688 171.617188 147.453125 C 176.980469 137.851562 173.554688 125.710938 163.964844 120.339844 C 154.375 114.96875 142.253906 118.398438 136.890625 128 C 131.527344 137.601562 134.953125 149.742188 144.542969 155.113281 Z M 156.785156 145.128906 C 164.449219 146.496094 168.722656 145.609375 168.722656 145.609375 C 155.753906 161.847656 144.964844 143.023438 156.785156 145.128906 Z M 156.785156 145.128906 " fill-opacity="1" fill-rule="nonzero"/><path fill="#fff4f5" d="M 158.523438 180.402344 C 158.570312 179.886719 158.613281 179.515625 158.640625 179.296875 C 158.652344 179.203125 158.664062 179.136719 158.667969 179.097656 C 159.332031 175.242188 156.753906 171.578125 152.902344 170.910156 C 149.054688 170.242188 145.390625 172.828125 144.726562 176.683594 C 144.664062 177.042969 144.175781 180.015625 144.175781 185.203125 C 144.167969 197.089844 146.746094 220.648438 162.625 250.851562 C 163.890625 253.261719 166.351562 254.636719 168.894531 254.636719 C 170.003906 254.636719 171.132812 254.375 172.179688 253.824219 C 175.640625 252 176.96875 247.714844 175.148438 244.253906 C 160.40625 216.171875 158.335938 195.078125 158.328125 185.203125 C 158.328125 183.054688 158.429688 181.4375 158.523438 180.402344 Z M 158.523438 180.402344 " fill-opacity="1" fill-rule="nonzero"/><path fill="#fff4f5" d="M 180.441406 119.957031 L 181.695312 121.355469 L 218.171875 101.199219 L 215.355469 98.320312 Z M 180.441406 119.957031 " fill-opacity="1" fill-rule="nonzero"/><path fill="#fff4f5" d="M 173.929688 116.019531 L 175.726562 116.566406 L 196.527344 80.417969 L 192.632812 79.410156 Z M 173.929688 116.019531 " fill-opacity="1" fill-rule="nonzero"/><path fill="#fff4f5" d="M 184.914062 128.726562 L 185.398438 130.542969 L 227.035156 129.070312 L 225.820312 125.226562 Z M 184.914062 128.726562 " fill-opacity="1" fill-rule="nonzero"/><path fill="#fff4f5" d="M 342.269531 143.691406 C 341.363281 143.117188 340.476562 142.625 339.617188 142.183594 C 336.722656 152.777344 327.027344 160.589844 315.542969 160.589844 C 304.058594 160.589844 294.363281 152.773438 291.472656 142.175781 C 286.097656 144.941406 279.769531 150.101562 274.75 159 C 268.382812 170.199219 263.898438 186.90625 263.890625 212.296875 C 263.890625 216.738281 264.027344 221.453125 264.324219 226.453125 C 264.574219 230.746094 268.128906 234.058594 272.371094 234.058594 C 272.53125 234.058594 272.6875 234.054688 272.851562 234.046875 C 277.300781 233.785156 280.695312 229.960938 280.433594 225.507812 C 280.15625 220.796875 280.027344 216.402344 280.027344 212.292969 C 280.027344 209.914062 280.078125 207.640625 280.15625 205.453125 C 279.304688 202.542969 278.839844 199.484375 278.839844 196.320312 C 278.839844 192.609375 279.476562 189.039062 280.636719 185.6875 C 280.332031 187.59375 280.167969 189.542969 280.167969 191.535156 C 280.167969 211.480469 296.007812 227.648438 315.546875 227.648438 C 335.082031 227.648438 350.921875 211.480469 350.921875 191.535156 C 350.921875 189.550781 350.757812 187.605469 350.457031 185.707031 C 351.617188 189.046875 352.246094 192.617188 352.246094 196.320312 C 352.246094 199.488281 351.78125 202.546875 350.925781 205.460938 C 351.007812 207.648438 351.058594 209.914062 351.058594 212.296875 C 351.058594 216.402344 350.933594 220.800781 350.660156 225.507812 C 350.398438 229.964844 353.792969 233.785156 358.242188 234.046875 C 358.402344 234.054688 358.5625 234.058594 358.71875 234.058594 C 362.960938 234.058594 366.515625 230.746094 366.769531 226.449219 C 367.058594 221.449219 367.199219 216.738281 367.199219 212.296875 C 367.191406 195.355469 365.195312 182.316406 361.980469 172.15625 C 357.214844 156.933594 349.40625 148.152344 342.269531 143.691406 Z M 342.269531 143.691406 " fill-opacity="1" fill-rule="nonzero"/><path fill="#fff4f5" d="M 315.542969 230.71875 C 300.289062 230.71875 287.207031 221.992188 281.667969 209.578125 L 286.695312 302.046875 C 286.695312 309.480469 292.714844 315.5 300.128906 315.5 C 307.550781 315.5 313.566406 309.480469 313.566406 302.046875 L 313.566406 242.621094 L 317.523438 242.621094 L 317.523438 302.046875 C 317.523438 309.480469 323.542969 315.5 330.960938 315.5 C 338.375 315.5 344.394531 309.480469 344.394531 302.046875 L 349.421875 209.570312 C 343.886719 221.988281 330.804688 230.71875 315.542969 230.71875 Z M 315.542969 230.71875 " fill-opacity="1" fill-rule="nonzero"/><path fill="#fff4f5" d="M 338.738281 135.597656 C 338.738281 136.359375 338.699219 137.117188 338.625 137.875 C 338.550781 138.632812 338.441406 139.382812 338.292969 140.128906 C 338.144531 140.875 337.960938 141.613281 337.738281 142.339844 C 337.519531 143.066406 337.261719 143.78125 336.972656 144.484375 C 336.679688 145.1875 336.355469 145.875 336 146.546875 C 335.640625 147.214844 335.25 147.867188 334.828125 148.5 C 334.40625 149.132812 333.953125 149.742188 333.472656 150.332031 C 332.992188 150.917969 332.480469 151.484375 331.945312 152.019531 C 331.40625 152.558594 330.84375 153.070312 330.257812 153.550781 C 329.671875 154.035156 329.0625 154.484375 328.429688 154.910156 C 327.796875 155.332031 327.148438 155.722656 326.476562 156.082031 C 325.808594 156.4375 325.121094 156.765625 324.421875 157.054688 C 323.71875 157.347656 323.003906 157.601562 322.277344 157.824219 C 321.550781 158.042969 320.8125 158.226562 320.070312 158.375 C 319.324219 158.523438 318.574219 158.636719 317.816406 158.710938 C 317.0625 158.785156 316.304688 158.824219 315.542969 158.824219 C 314.785156 158.824219 314.027344 158.785156 313.273438 158.710938 C 312.515625 158.636719 311.765625 158.523438 311.019531 158.375 C 310.273438 158.226562 309.539062 158.042969 308.8125 157.824219 C 308.085938 157.601562 307.371094 157.347656 306.667969 157.054688 C 305.96875 156.765625 305.28125 156.4375 304.613281 156.082031 C 303.941406 155.722656 303.292969 155.332031 302.660156 154.910156 C 302.027344 154.484375 301.417969 154.035156 300.832031 153.550781 C 300.246094 153.070312 299.683594 152.558594 299.144531 152.019531 C 298.609375 151.484375 298.097656 150.917969 297.617188 150.332031 C 297.136719 149.742188 296.683594 149.132812 296.261719 148.5 C 295.839844 147.867188 295.449219 147.214844 295.089844 146.546875 C 294.734375 145.875 294.410156 145.1875 294.117188 144.484375 C 293.828125 143.78125 293.570312 143.066406 293.351562 142.339844 C 293.128906 141.613281 292.945312 140.875 292.796875 140.128906 C 292.648438 139.382812 292.539062 138.632812 292.464844 137.875 C 292.390625 137.117188 292.351562 136.359375 292.351562 135.597656 C 292.351562 134.835938 292.390625 134.078125 292.464844 133.320312 C 292.539062 132.5625 292.648438 131.8125 292.796875 131.066406 C 292.945312 130.320312 293.128906 129.582031 293.351562 128.855469 C 293.570312 128.128906 293.828125 127.410156 294.117188 126.710938 C 294.410156 126.007812 294.734375 125.320312 295.089844 124.648438 C 295.449219 123.976562 295.839844 123.328125 296.261719 122.695312 C 296.683594 122.0625 297.136719 121.449219 297.617188 120.863281 C 298.097656 120.273438 298.609375 119.710938 299.144531 119.175781 C 299.683594 118.636719 300.246094 118.125 300.832031 117.644531 C 301.417969 117.160156 302.027344 116.707031 302.660156 116.285156 C 303.292969 115.863281 303.941406 115.472656 304.613281 115.113281 C 305.28125 114.753906 305.96875 114.429688 306.667969 114.140625 C 307.371094 113.847656 308.085938 113.59375 308.8125 113.371094 C 309.539062 113.152344 310.273438 112.964844 311.019531 112.816406 C 311.765625 112.667969 312.515625 112.558594 313.273438 112.484375 C 314.027344 112.410156 314.785156 112.371094 315.542969 112.371094 C 316.304688 112.371094 317.0625 112.410156 317.816406 112.484375 C 318.574219 112.558594 319.324219 112.667969 320.070312 112.816406 C 320.8125 112.964844 321.550781 113.152344 322.277344 113.371094 C 323.003906 113.59375 323.71875 113.847656 324.421875 114.140625 C 325.121094 114.429688 325.808594 114.753906 326.476562 115.113281 C 327.148438 115.472656 327.796875 115.863281 328.429688 116.285156 C 329.0625 116.707031 329.671875 117.160156 330.257812 117.644531 C 330.84375 118.125 331.40625 118.636719 331.945312 119.175781 C 332.480469 119.710938 332.992188 120.273438 333.472656 120.863281 C 333.953125 121.449219 334.40625 122.0625 334.828125 122.695312 C 335.25 123.328125 335.640625 123.976562 336 124.648438 C 336.355469 125.320312 336.679688 126.007812 336.972656 126.710938 C 337.261719 127.410156 337.519531 128.128906 337.738281 128.855469 C 337.960938 129.582031 338.144531 130.320312 338.292969 131.066406 C 338.441406 131.8125 338.550781 132.5625 338.625 133.320312 C 338.699219 134.078125 338.738281 134.835938 338.738281 135.597656 Z M 338.738281 135.597656 " fill-opacity="1" fill-rule="nonzero"/><path fill="#fff4f5" d="M 358.363281 141.855469 C 358.363281 141.855469 360.644531 149.109375 363.601562 152.355469 C 366.558594 155.605469 369.027344 157.09375 370.777344 155.496094 C 372.527344 153.898438 372.898438 149.816406 369.945312 146.566406 C 366.988281 143.320312 358.363281 141.855469 358.363281 141.855469 Z M 358.363281 141.855469 " fill-opacity="1" fill-rule="nonzero"/><path fill="#fff4f5" d="M 351.066406 116.410156 C 355.359375 115.488281 357.886719 114.105469 357.386719 111.785156 C 356.894531 109.464844 353.558594 107.089844 349.265625 108.007812 C 344.976562 108.929688 339.367188 115.65625 339.367188 115.65625 C 339.367188 115.65625 346.777344 117.335938 351.066406 116.410156 Z M 351.066406 116.410156 " fill-opacity="1" fill-rule="nonzero"/><path fill="#fff4f5" d="M 368.117188 125.132812 C 363.324219 123.714844 354.046875 127.394531 354.046875 127.394531 C 354.046875 127.394531 360.554688 133.109375 365.351562 134.527344 C 370.148438 135.941406 373.433594 135.9375 374.199219 133.339844 C 374.960938 130.746094 372.914062 126.550781 368.117188 125.132812 Z M 368.117188 125.132812 " fill-opacity="1" fill-rule="nonzero"/></svg>