<svg xmlns="http://www.w3.org/2000/svg" xmlns:xlink="http://www.w3.org/1999/xlink" width="500" zoomAndPan="magnify" viewBox="0 0 375 374.999991" height="500" preserveAspectRatio="xMidYMid meet" version="1.0"><defs><clipPath id="820ee96779"><path d="M 6.09375 350 L 19 350 L 19 363 L 6.09375 363 Z M 6.09375 350 " clip-rule="nonzero"/></clipPath></defs><path fill="#fff4f5" d="M 190.59375 30.738281 C 156.632812 30.738281 129.101562 58.261719 129.101562 92.214844 C 129.101562 126.164062 156.632812 153.6875 190.59375 153.6875 C 224.554688 153.6875 252.085938 126.164062 252.085938 92.214844 C 252.085938 58.261719 224.554688 30.738281 190.59375 30.738281 Z M 156.773438 79.917969 L 150.625 79.917969 C 150.625 71.441406 157.523438 64.550781 165.996094 64.550781 C 174.472656 64.550781 181.371094 71.441406 181.371094 79.917969 L 175.222656 79.917969 C 175.222656 74.835938 171.082031 70.695312 165.996094 70.695312 C 160.910156 70.695312 156.773438 74.835938 156.773438 79.917969 Z M 190.59375 129.097656 C 177.011719 129.097656 165.996094 118.089844 165.996094 104.507812 L 215.191406 104.507812 C 215.191406 118.089844 204.175781 129.097656 190.59375 129.097656 Z M 224.414062 79.917969 C 224.414062 74.835938 220.277344 70.695312 215.191406 70.695312 C 210.105469 70.695312 205.964844 74.835938 205.964844 79.917969 L 199.816406 79.917969 C 199.816406 71.441406 206.714844 64.550781 215.191406 64.550781 C 223.664062 64.550781 230.5625 71.441406 230.5625 79.917969 Z M 224.414062 79.917969 " fill-opacity="1" fill-rule="nonzero"/><path fill="#fff4f5" d="M 212.117188 199.796875 C 212.117188 200.5 212.082031 201.203125 212.011719 201.902344 C 211.941406 202.605469 211.839844 203.300781 211.703125 203.992188 C 211.566406 204.683594 211.394531 205.367188 211.1875 206.039062 C 210.984375 206.714844 210.746094 207.378906 210.476562 208.027344 C 210.207031 208.679688 209.90625 209.316406 209.574219 209.9375 C 209.242188 210.558594 208.878906 211.164062 208.488281 211.75 C 208.097656 212.335938 207.675781 212.898438 207.230469 213.445312 C 206.785156 213.988281 206.308594 214.511719 205.8125 215.007812 C 205.3125 215.507812 204.792969 215.980469 204.246094 216.425781 C 203.703125 216.875 203.136719 217.292969 202.550781 217.683594 C 201.964844 218.078125 201.359375 218.4375 200.738281 218.769531 C 200.117188 219.101562 199.480469 219.402344 198.828125 219.671875 C 198.179688 219.941406 197.515625 220.179688 196.839844 220.386719 C 196.167969 220.589844 195.484375 220.761719 194.792969 220.898438 C 194.101562 221.035156 193.40625 221.140625 192.703125 221.207031 C 192 221.277344 191.296875 221.3125 190.59375 221.3125 C 189.890625 221.3125 189.1875 221.277344 188.484375 221.207031 C 187.78125 221.140625 187.085938 221.035156 186.394531 220.898438 C 185.703125 220.761719 185.019531 220.589844 184.347656 220.386719 C 183.671875 220.179688 183.007812 219.941406 182.359375 219.671875 C 181.707031 219.402344 181.070312 219.101562 180.449219 218.769531 C 179.828125 218.4375 179.222656 218.078125 178.636719 217.683594 C 178.050781 217.292969 177.484375 216.875 176.941406 216.425781 C 176.394531 215.980469 175.875 215.507812 175.375 215.007812 C 174.878906 214.511719 174.402344 213.988281 173.957031 213.445312 C 173.511719 212.898438 173.089844 212.335938 172.699219 211.75 C 172.308594 211.164062 171.945312 210.558594 171.613281 209.9375 C 171.28125 209.316406 170.980469 208.679688 170.710938 208.027344 C 170.441406 207.378906 170.203125 206.714844 170 206.039062 C 169.792969 205.367188 169.621094 204.683594 169.484375 203.992188 C 169.347656 203.300781 169.246094 202.605469 169.175781 201.902344 C 169.105469 201.203125 169.070312 200.5 169.070312 199.796875 C 169.070312 199.089844 169.105469 198.386719 169.175781 197.6875 C 169.246094 196.984375 169.347656 196.289062 169.484375 195.597656 C 169.621094 194.90625 169.792969 194.222656 170 193.550781 C 170.203125 192.875 170.441406 192.210938 170.710938 191.5625 C 170.980469 190.910156 171.28125 190.273438 171.613281 189.652344 C 171.945312 189.03125 172.308594 188.425781 172.699219 187.839844 C 173.089844 187.253906 173.511719 186.691406 173.957031 186.144531 C 174.402344 185.601562 174.878906 185.078125 175.375 184.582031 C 175.875 184.082031 176.394531 183.609375 176.941406 183.164062 C 177.484375 182.714844 178.050781 182.296875 178.636719 181.90625 C 179.222656 181.511719 179.828125 181.152344 180.449219 180.820312 C 181.070312 180.488281 181.707031 180.1875 182.359375 179.917969 C 183.007812 179.648438 183.671875 179.410156 184.347656 179.207031 C 185.019531 179 185.703125 178.828125 186.394531 178.691406 C 187.085938 178.554688 187.78125 178.453125 188.484375 178.382812 C 189.1875 178.3125 189.890625 178.277344 190.59375 178.277344 C 191.296875 178.277344 192 178.3125 192.703125 178.382812 C 193.40625 178.453125 194.101562 178.554688 194.792969 178.691406 C 195.484375 178.828125 196.167969 179 196.839844 179.207031 C 197.515625 179.410156 198.179688 179.648438 198.828125 179.917969 C 199.480469 180.1875 200.117188 180.488281 200.738281 180.820312 C 201.359375 181.152344 201.964844 181.511719 202.550781 181.90625 C 203.136719 182.296875 203.703125 182.714844 204.246094 183.164062 C 204.792969 183.609375 205.3125 184.082031 205.8125 184.582031 C 206.308594 185.078125 206.785156 185.601562 207.230469 186.144531 C 207.675781 186.691406 208.097656 187.253906 208.488281 187.839844 C 208.878906 188.425781 209.242188 189.03125 209.574219 189.652344 C 209.90625 190.273438 210.207031 190.910156 210.476562 191.5625 C 210.746094 192.210938 210.984375 192.875 211.1875 193.550781 C 211.394531 194.222656 211.566406 194.90625 211.703125 195.597656 C 211.839844 196.289062 211.941406 196.984375 212.011719 197.6875 C 212.082031 198.386719 212.117188 199.089844 212.117188 199.796875 Z M 212.117188 199.796875 " fill-opacity="1" fill-rule="nonzero"/><path fill="#fff4f5" d="M 233.636719 172.132812 C 233.636719 187.046875 229.117188 201.585938 220.710938 213.84375 C 219.550781 215.539062 211.640625 220.015625 211.640625 220.015625 C 209.933594 220.867188 208.042969 221.3125 206.140625 221.3125 L 175.046875 221.3125 C 173.144531 221.3125 171.253906 220.867188 169.550781 220.015625 C 169.550781 220.015625 161.644531 215.539062 160.480469 213.84375 C 152.070312 201.585938 147.550781 187.046875 147.550781 172.132812 L 147.550781 159.835938 L 129.101562 159.835938 L 129.101562 183.75 C 129.101562 196.285156 132.300781 208.617188 138.386719 219.578125 L 159.847656 252.050781 L 159.847656 288.933594 L 141.402344 375 L 165.996094 375 L 190.59375 301.230469 L 215.191406 375 L 239.785156 375 L 221.339844 288.933594 L 221.339844 252.050781 L 242.800781 219.578125 C 248.886719 208.617188 252.085938 196.289062 252.085938 183.75 L 252.085938 159.835938 L 233.636719 159.835938 Z M 233.636719 172.132812 " fill-opacity="1" fill-rule="nonzero"/><path fill="#fff4f5" d="M 109.726562 136.609375 C 111.828125 140.441406 114.234375 144.152344 116.871094 147.644531 L 126.691406 140.25 C 124.40625 137.21875 122.328125 134.003906 120.5 130.691406 Z M 109.726562 136.609375 " fill-opacity="1" fill-rule="nonzero"/><path fill="#fff4f5" d="M 254.644531 140.039062 L 264.488281 147.410156 C 267.105469 143.914062 269.5 140.1875 271.601562 136.347656 L 260.804688 130.449219 C 258.984375 133.789062 256.910156 137.015625 254.644531 140.039062 Z M 254.644531 140.039062 " fill-opacity="1" fill-rule="nonzero"/><path fill="#fff4f5" d="M 115.742188 120.324219 C 114.40625 116.777344 113.324219 113.101562 112.519531 109.40625 L 100.503906 112.027344 C 101.4375 116.304688 102.691406 120.554688 104.230469 124.652344 Z M 115.742188 120.324219 " fill-opacity="1" fill-rule="nonzero"/><path fill="#fff4f5" d="M 280.765625 111.75 L 268.742188 109.144531 C 267.941406 112.851562 266.859375 116.527344 265.539062 120.085938 L 277.0625 124.371094 C 278.59375 120.265625 279.835938 116.023438 280.765625 111.75 Z M 280.765625 111.75 " fill-opacity="1" fill-rule="nonzero"/><path fill="#fff4f5" d="M 110.648438 92.121094 C 110.648438 90.300781 110.710938 88.5 110.828125 86.703125 L 98.558594 85.886719 C 98.425781 87.945312 98.351562 90.023438 98.351562 92.121094 C 98.351562 94.351562 98.429688 96.597656 98.601562 98.894531 L 99.335938 98.859375 L 110.863281 97.96875 C 110.71875 96.007812 110.648438 94.058594 110.648438 92.121094 Z M 110.648438 92.121094 " fill-opacity="1" fill-rule="nonzero"/><path fill="#fff4f5" d="M 104.738281 98.570312 L 99.335938 98.859375 L 98.601562 98.914062 Z M 104.738281 98.570312 " fill-opacity="1" fill-rule="nonzero"/><path fill="#fff4f5" d="M 282.835938 92.304688 C 282.835938 90.074219 282.757812 87.828125 282.597656 85.695312 L 282.558594 85.179688 L 270.324219 86.464844 C 270.464844 88.421875 270.539062 90.375 270.539062 92.304688 C 270.539062 94.175781 270.476562 96.023438 270.347656 97.867188 L 282.613281 98.722656 C 282.761719 96.601562 282.835938 94.457031 282.835938 92.304688 Z M 282.835938 92.304688 " fill-opacity="1" fill-rule="nonzero"/><path fill="#fff4f5" d="M 115.59375 64.492188 L 104.058594 60.222656 C 102.539062 64.335938 101.300781 68.582031 100.378906 72.859375 L 112.40625 75.441406 C 113.207031 71.734375 114.277344 68.046875 115.59375 64.492188 Z M 115.59375 64.492188 " fill-opacity="1" fill-rule="nonzero"/><path fill="#fff4f5" d="M 276.894531 59.605469 L 265.390625 63.953125 C 266.730469 67.492188 267.820312 71.171875 268.636719 74.863281 L 280.648438 72.222656 C 279.699219 67.953125 278.441406 63.707031 276.894531 59.605469 Z M 276.894531 59.605469 " fill-opacity="1" fill-rule="nonzero"/><path fill="#fff4f5" d="M 126.453125 44.503906 L 116.589844 37.15625 C 113.976562 40.660156 111.589844 44.390625 109.5 48.238281 L 120.308594 54.109375 C 122.125 50.773438 124.191406 47.539062 126.453125 44.503906 Z M 126.453125 44.503906 " fill-opacity="1" fill-rule="nonzero"/><path fill="#fff4f5" d="M 271.378906 47.660156 C 269.273438 43.84375 266.859375 40.132812 264.210938 36.640625 L 254.402344 44.058594 C 256.695312 47.085938 258.78125 50.300781 260.609375 53.605469 Z M 271.378906 47.660156 " fill-opacity="1" fill-rule="nonzero"/><path fill="#fff4f5" d="M 142.484375 28.378906 L 135.085938 18.554688 C 131.613281 21.171875 128.277344 24.078125 125.171875 27.195312 L 133.898438 35.863281 C 136.585938 33.164062 139.480469 30.640625 142.484375 28.378906 Z M 142.484375 28.378906 " fill-opacity="1" fill-rule="nonzero"/><path fill="#fff4f5" d="M 255.554688 26.742188 C 252.449219 23.667969 249.089844 20.785156 245.585938 18.179688 L 238.25 28.046875 C 241.292969 30.308594 244.207031 32.804688 246.902344 35.476562 Z M 255.554688 26.742188 " fill-opacity="1" fill-rule="nonzero"/><path fill="#fff4f5" d="M 152.046875 22.167969 C 155.382812 20.324219 158.863281 18.726562 162.386719 17.410156 L 158.066406 5.894531 C 153.988281 7.421875 149.964844 9.277344 146.109375 11.402344 Z M 152.046875 22.167969 " fill-opacity="1" fill-rule="nonzero"/><path fill="#fff4f5" d="M 228.644531 21.910156 L 234.492188 11.089844 C 230.613281 8.992188 226.578125 7.167969 222.507812 5.667969 L 218.257812 17.214844 C 221.78125 18.511719 225.28125 20.097656 228.644531 21.910156 Z M 228.644531 21.910156 " fill-opacity="1" fill-rule="nonzero"/><path fill="#fff4f5" d="M 173.308594 14.171875 C 177.023438 13.359375 180.816406 12.804688 184.59375 12.523438 L 183.6875 0.265625 C 179.335938 0.585938 174.949219 1.222656 170.675781 2.164062 Z M 173.308594 14.171875 " fill-opacity="1" fill-rule="nonzero"/><path fill="#fff4f5" d="M 207.308594 14.039062 L 209.851562 2.011719 C 205.566406 1.105469 201.183594 0.496094 196.828125 0.203125 L 196.003906 12.472656 C 199.785156 12.726562 203.585938 13.253906 207.308594 14.039062 Z M 207.308594 14.039062 " fill-opacity="1" fill-rule="nonzero"/><path fill="#fff4f5" d="M 350.46875 338.113281 L 362.769531 338.113281 L 362.769531 350.410156 L 350.46875 350.410156 Z M 350.46875 338.113281 " fill-opacity="1" fill-rule="nonzero"/><path fill="#fff4f5" d="M 350.46875 362.703125 L 362.769531 362.703125 L 362.769531 375 L 350.46875 375 Z M 350.46875 362.703125 " fill-opacity="1" fill-rule="nonzero"/><path fill="#fff4f5" d="M 362.769531 350.410156 L 375.066406 350.410156 L 375.066406 362.703125 L 362.769531 362.703125 Z M 362.769531 350.410156 " fill-opacity="1" fill-rule="nonzero"/><path fill="#fff4f5" d="M 338.171875 350.410156 L 350.46875 350.410156 L 350.46875 362.703125 L 338.171875 362.703125 Z M 338.171875 350.410156 " fill-opacity="1" fill-rule="nonzero"/><path fill="#fff4f5" d="M 18.417969 338.113281 L 30.71875 338.113281 L 30.71875 350.410156 L 18.417969 350.410156 Z M 18.417969 338.113281 " fill-opacity="1" fill-rule="nonzero"/><path fill="#fff4f5" d="M 18.417969 362.703125 L 30.71875 362.703125 L 30.71875 375 L 18.417969 375 Z M 18.417969 362.703125 " fill-opacity="1" fill-rule="nonzero"/><path fill="#fff4f5" d="M 30.71875 350.410156 L 43.015625 350.410156 L 43.015625 362.703125 L 30.71875 362.703125 Z M 30.71875 350.410156 " fill-opacity="1" fill-rule="nonzero"/><g clip-path="url(#820ee96779)"><path fill="#fff4f5" d="M 6.121094 350.410156 L 18.417969 350.410156 L 18.417969 362.703125 L 6.121094 362.703125 Z M 6.121094 350.410156 " fill-opacity="1" fill-rule="nonzero"/></g><path fill="#fff4f5" d="M 79.910156 325.820312 L 92.207031 325.820312 L 92.207031 338.113281 L 79.910156 338.113281 Z M 79.910156 325.820312 " fill-opacity="1" fill-rule="nonzero"/><path fill="#fff4f5" d="M 79.910156 350.410156 L 92.207031 350.410156 L 92.207031 362.703125 L 79.910156 362.703125 Z M 79.910156 350.410156 " fill-opacity="1" fill-rule="nonzero"/><path fill="#fff4f5" d="M 92.207031 338.113281 L 104.507812 338.113281 L 104.507812 350.410156 L 92.207031 350.410156 Z M 92.207031 338.113281 " fill-opacity="1" fill-rule="nonzero"/><path fill="#fff4f5" d="M 67.613281 338.113281 L 79.910156 338.113281 L 79.910156 350.410156 L 67.613281 350.410156 Z M 67.613281 338.113281 " fill-opacity="1" fill-rule="nonzero"/><path fill="#fff4f5" d="M 288.980469 325.820312 L 301.277344 325.820312 L 301.277344 338.113281 L 288.980469 338.113281 Z M 288.980469 325.820312 " fill-opacity="1" fill-rule="nonzero"/><path fill="#fff4f5" d="M 288.980469 350.410156 L 301.277344 350.410156 L 301.277344 362.703125 L 288.980469 362.703125 Z M 288.980469 350.410156 " fill-opacity="1" fill-rule="nonzero"/><path fill="#fff4f5" d="M 301.277344 338.113281 L 313.574219 338.113281 L 313.574219 350.410156 L 301.277344 350.410156 Z M 301.277344 338.113281 " fill-opacity="1" fill-rule="nonzero"/><path fill="#fff4f5" d="M 276.679688 338.113281 L 288.980469 338.113281 L 288.980469 350.410156 L 276.679688 350.410156 Z M 276.679688 338.113281 " fill-opacity="1" fill-rule="nonzero"/></svg>