<svg xmlns="http://www.w3.org/2000/svg" xmlns:xlink="http://www.w3.org/1999/xlink" width="500" zoomAndPan="magnify" viewBox="0 0 375 374.999991" height="500" preserveAspectRatio="xMidYMid meet" version="1.0"><defs><clipPath id="4ac55ae6d2"><path d="M 67.265625 98 L 170 98 L 170 124 L 67.265625 124 Z M 67.265625 98 " clip-rule="nonzero"/></clipPath></defs><path fill="#fff4f5" d="M 144.71875 369.867188 L 142.511719 372.085938 L 144.460938 375.019531 L 148.226562 372.691406 L 148.019531 369.578125 Z M 144.71875 369.867188 " fill-opacity="1" fill-rule="nonzero"/><path fill="#fff4f5" d="M 159.703125 368.800781 L 159.617188 373.304688 L 165.277344 373.59375 L 167.328125 370.171875 L 163.640625 368.074219 Z M 159.703125 368.800781 " fill-opacity="1" fill-rule="nonzero"/><path fill="#fff4f5" d="M 187.585938 56.761719 L 104.167969 0 L 97.367188 9.074219 L 186.859375 59.886719 Z M 187.585938 56.761719 " fill-opacity="1" fill-rule="nonzero"/><g clip-path="url(#4ac55ae6d2)"><path fill="#fff4f5" d="M 68.648438 123.8125 L 169.078125 101.226562 L 167.511719 98.429688 L 67.566406 112.53125 Z M 68.648438 123.8125 " fill-opacity="1" fill-rule="nonzero"/></g><path fill="#fff4f5" d="M 302.175781 76.25 C 303.480469 56.644531 278.195312 45.820312 269.886719 42.261719 C 264.824219 40.09375 258.957031 42.4375 256.785156 47.496094 C 254.617188 52.554688 256.964844 58.410156 262.027344 60.578125 C 282.074219 69.160156 282.273438 74.875 282.269531 74.929688 C 281.917969 80.210938 264.695312 89.890625 251.605469 93.539062 C 250.984375 93.714844 250.398438 93.945312 249.839844 94.222656 C 247.621094 94.480469 245.535156 95.007812 243.890625 95.738281 C 248.054688 109.707031 241.769531 125.125 228.300781 131.941406 C 226.484375 132.859375 224.578125 133.601562 222.632812 134.144531 C 214.683594 136.359375 206.4375 135.214844 199.570312 131.453125 C 197.359375 133.304688 195.035156 135.59375 192.679688 138.472656 C 180.378906 153.496094 171.917969 178.035156 167.535156 211.40625 C 166.820312 216.863281 170.667969 221.867188 176.128906 222.582031 C 176.570312 222.640625 177.007812 222.667969 177.441406 222.667969 C 182.371094 222.667969 186.660156 219.011719 187.316406 213.996094 C 192.640625 173.457031 203.0625 156.121094 210.144531 148.820312 C 227.558594 158.285156 239.417969 167.046875 246.199219 190.179688 L 213.761719 204.976562 C 209.433594 206.953125 206.246094 210.789062 205.105469 215.402344 L 187.652344 285.980469 C 185.585938 294.324219 190.6875 302.765625 199.042969 304.824219 C 200.300781 305.136719 201.554688 305.285156 202.792969 305.285156 C 209.792969 305.285156 216.160156 300.539062 217.914062 293.445312 L 233.5625 230.171875 L 265.445312 215.628906 C 264.046875 219.886719 262.730469 224.59375 261.597656 229.757812 C 260.003906 237.007812 258.769531 245.132812 258.191406 254.121094 C 256.816406 275.390625 259.179688 301.347656 268.902344 331.214844 C 271.5625 339.394531 280.355469 343.867188 288.546875 341.210938 C 294.800781 339.179688 298.890625 333.574219 299.285156 327.394531 C 299.410156 325.488281 299.179688 323.523438 298.550781 321.59375 C 290.015625 295.328125 288.191406 273.519531 289.296875 256.109375 C 289.796875 248.34375 290.886719 241.460938 292.261719 235.449219 C 293.929688 228.164062 296.011719 222.171875 297.972656 217.515625 C 299.757812 213.273438 301.441406 210.140625 302.601562 208.175781 C 303.183594 207.195312 303.632812 206.503906 303.898438 206.109375 C 304.023438 205.917969 304.113281 205.792969 304.144531 205.75 L 304.152344 205.738281 C 306.765625 202.214844 307.660156 197.945312 306.992188 193.925781 C 306.964844 192.75 306.789062 191.535156 306.433594 190.320312 C 297.867188 161.03125 288.449219 132.035156 270.84375 107.660156 C 283.761719 102.007812 301.152344 91.601562 302.175781 76.25 Z M 302.175781 76.25 " fill-opacity="1" fill-rule="nonzero"/><path fill="#fff4f5" d="M 239.398438 91.847656 C 239.816406 92.667969 240.1875 93.503906 240.523438 94.359375 C 240.855469 95.214844 241.144531 96.085938 241.390625 96.96875 C 241.640625 97.851562 241.84375 98.746094 242.003906 99.648438 C 242.160156 100.554688 242.277344 101.460938 242.347656 102.378906 C 242.417969 103.292969 242.441406 104.207031 242.421875 105.125 C 242.402344 106.042969 242.335938 106.957031 242.226562 107.867188 C 242.117188 108.777344 241.960938 109.683594 241.761719 110.578125 C 241.5625 111.472656 241.320312 112.359375 241.035156 113.230469 C 240.75 114.101562 240.421875 114.957031 240.050781 115.796875 C 239.679688 116.636719 239.269531 117.457031 238.820312 118.257812 C 238.371094 119.054688 237.878906 119.832031 237.351562 120.582031 C 236.828125 121.335938 236.265625 122.058594 235.664062 122.753906 C 235.066406 123.453125 234.4375 124.117188 233.773438 124.75 C 233.109375 125.386719 232.414062 125.988281 231.691406 126.554688 C 230.96875 127.121094 230.222656 127.648438 229.445312 128.140625 C 228.671875 128.636719 227.875 129.089844 227.054688 129.503906 C 226.234375 129.917969 225.398438 130.292969 224.542969 130.625 C 223.683594 130.957031 222.816406 131.246094 221.929688 131.492188 C 221.046875 131.742188 220.152344 131.945312 219.246094 132.101562 C 218.339844 132.261719 217.429688 132.378906 216.515625 132.445312 C 215.597656 132.515625 214.679688 132.542969 213.761719 132.523438 C 212.84375 132.5 211.929688 132.4375 211.015625 132.328125 C 210.105469 132.21875 209.199219 132.0625 208.304688 131.863281 C 207.40625 131.664062 206.523438 131.421875 205.648438 131.136719 C 204.777344 130.851562 203.917969 130.523438 203.078125 130.15625 C 202.238281 129.785156 201.417969 129.375 200.617188 128.925781 C 199.816406 128.476562 199.039062 127.988281 198.285156 127.460938 C 197.535156 126.933594 196.808594 126.371094 196.113281 125.773438 C 195.414062 125.175781 194.75 124.546875 194.113281 123.882812 C 193.480469 123.222656 192.878906 122.53125 192.308594 121.808594 C 191.742188 121.085938 191.214844 120.335938 190.71875 119.5625 C 190.226562 118.789062 189.773438 117.992188 189.355469 117.175781 C 188.941406 116.355469 188.566406 115.519531 188.234375 114.664062 C 187.902344 113.808594 187.613281 112.941406 187.363281 112.054688 C 187.117188 111.171875 186.914062 110.277344 186.753906 109.375 C 186.59375 108.472656 186.480469 107.5625 186.410156 106.648438 C 186.339844 105.734375 186.316406 104.816406 186.335938 103.898438 C 186.355469 102.980469 186.421875 102.066406 186.53125 101.15625 C 186.640625 100.246094 186.792969 99.34375 186.992188 98.445312 C 187.191406 97.550781 187.433594 96.667969 187.722656 95.792969 C 188.007812 94.921875 188.335938 94.066406 188.703125 93.226562 C 189.074219 92.386719 189.484375 91.566406 189.9375 90.769531 C 190.386719 89.96875 190.875 89.191406 191.402344 88.441406 C 191.929688 87.691406 192.492188 86.964844 193.089844 86.269531 C 193.6875 85.574219 194.320312 84.90625 194.984375 84.273438 C 195.648438 83.636719 196.339844 83.039062 197.0625 82.472656 C 197.785156 81.90625 198.535156 81.375 199.308594 80.882812 C 200.085938 80.390625 200.882812 79.9375 201.699219 79.519531 C 202.519531 79.105469 203.359375 78.734375 204.214844 78.398438 C 205.070312 78.066406 205.941406 77.777344 206.824219 77.53125 C 207.710938 77.285156 208.605469 77.082031 209.511719 76.921875 C 210.414062 76.761719 211.324219 76.648438 212.242188 76.578125 C 213.15625 76.507812 214.074219 76.484375 214.992188 76.503906 C 215.910156 76.523438 216.828125 76.585938 217.738281 76.699219 C 218.652344 76.808594 219.554688 76.960938 220.453125 77.160156 C 221.347656 77.359375 222.234375 77.601562 223.105469 77.886719 C 223.980469 78.171875 224.835938 78.5 225.675781 78.871094 C 226.519531 79.238281 227.339844 79.648438 228.140625 80.097656 C 228.941406 80.550781 229.714844 81.039062 230.46875 81.5625 C 231.222656 82.089844 231.945312 82.652344 232.644531 83.25 C 233.339844 83.847656 234.007812 84.476562 234.640625 85.140625 C 235.277344 85.804688 235.878906 86.496094 236.445312 87.21875 C 237.011719 87.9375 237.542969 88.6875 238.035156 89.460938 C 238.53125 90.234375 238.984375 91.03125 239.398438 91.847656 Z M 239.398438 91.847656 " fill-opacity="1" fill-rule="nonzero"/><path fill="#fff4f5" d="M 200.816406 39.703125 L 201.382812 41.851562 C 207.785156 40.171875 211.761719 37.214844 213.195312 33.066406 C 215.5625 26.230469 210.058594 18.863281 209.824219 18.554688 L 208.050781 19.894531 C 208.097656 19.960938 213.074219 26.613281 211.09375 32.339844 C 209.914062 35.742188 206.457031 38.222656 200.816406 39.703125 Z M 200.816406 39.703125 " fill-opacity="1" fill-rule="nonzero"/><path fill="#fff4f5" d="M 222.75 28.8125 C 217.363281 25.808594 216.644531 17.269531 216.636719 17.183594 L 214.417969 17.351562 C 214.449219 17.75 215.226562 27.15625 221.65625 30.75 C 223.261719 31.644531 225.054688 32.09375 227.035156 32.09375 C 229.84375 32.09375 233.019531 31.191406 236.53125 29.382812 L 235.511719 27.410156 C 230.234375 30.121094 225.941406 30.589844 222.75 28.8125 Z M 222.75 28.8125 " fill-opacity="1" fill-rule="nonzero"/><path fill="#fff4f5" d="M 237.742188 36.285156 L 237.359375 34.097656 C 230.691406 35.269531 226.511719 37.894531 224.929688 41.902344 C 222.226562 48.761719 228.300781 56.921875 228.558594 57.265625 L 230.335938 55.925781 C 230.28125 55.851562 224.753906 48.410156 227.003906 42.710938 C 228.285156 39.476562 231.898438 37.3125 237.742188 36.285156 Z M 237.742188 36.285156 " fill-opacity="1" fill-rule="nonzero"/><path fill="#fff4f5" d="M 202.0625 46.617188 L 203.199219 48.527344 C 208.484375 45.390625 212.738281 44.644531 215.851562 46.316406 C 221.238281 49.210938 221.742188 58.507812 221.746094 58.601562 L 223.972656 58.5 C 223.953125 58.066406 223.410156 47.859375 216.910156 44.363281 C 213.066406 42.292969 208.070312 43.050781 202.0625 46.617188 Z M 202.0625 46.617188 " fill-opacity="1" fill-rule="nonzero"/><path fill="#fff4f5" d="M 167.40625 328.277344 C 166.871094 327.851562 166.777344 327.0625 167.207031 326.527344 L 176.992188 314.234375 C 177.417969 313.699219 178.207031 313.609375 178.742188 314.035156 L 188.609375 321.871094 L 187.246094 326.972656 L 188.183594 331.332031 L 190.207031 328.375 L 193.949219 329.464844 L 195.148438 327.066406 L 202.03125 332.53125 C 202.570312 332.957031 202.660156 333.746094 202.230469 334.28125 L 192.449219 346.574219 C 192.019531 347.109375 191.230469 347.199219 190.695312 346.773438 L 188.839844 345.300781 L 186.152344 346.960938 L 190.566406 350.464844 C 192.175781 351.742188 194.539062 351.472656 195.820312 349.867188 L 206.203125 336.824219 C 207.484375 335.214844 207.214844 332.855469 205.601562 331.574219 L 178.871094 310.347656 C 177.261719 309.066406 174.894531 309.335938 173.617188 310.945312 L 163.234375 323.984375 C 161.953125 325.59375 162.222656 327.957031 163.832031 329.234375 L 181.949219 343.621094 L 184.058594 341.503906 Z M 167.40625 328.277344 " fill-opacity="1" fill-rule="nonzero"/><path fill="#fff4f5" d="M 208.183594 318.773438 L 210.675781 325.414062 L 218.574219 324.171875 L 217.328125 314.207031 Z M 208.183594 318.773438 " fill-opacity="1" fill-rule="nonzero"/><path fill="#fff4f5" d="M 148.589844 338.648438 L 144.539062 344.460938 L 147.03125 351.101562 L 154.929688 349.855469 L 153.683594 339.894531 Z M 148.589844 338.648438 " fill-opacity="1" fill-rule="nonzero"/><path fill="#fff4f5" d="M 224.992188 350.609375 L 226.988281 345.769531 L 221.839844 340.894531 L 214.894531 342.363281 L 214.941406 350.347656 Z M 224.992188 350.609375 " fill-opacity="1" fill-rule="nonzero"/><path fill="#fff4f5" d="M 172.515625 305.261719 L 166.78125 300.652344 L 163.175781 304.273438 L 166.359375 309.0625 Z M 172.515625 305.261719 " fill-opacity="1" fill-rule="nonzero"/><path fill="#fff4f5" d="M 120.9375 343.503906 L 124.121094 348.292969 L 130.277344 344.492188 L 124.542969 339.882812 Z M 120.9375 343.503906 " fill-opacity="1" fill-rule="nonzero"/><path fill="#fff4f5" d="M 189.59375 306.902344 L 188.058594 310.195312 L 192.144531 312.253906 L 192.738281 307.644531 Z M 189.59375 306.902344 " fill-opacity="1" fill-rule="nonzero"/><path fill="#fff4f5" d="M 135.03125 339.488281 L 139.117188 341.542969 L 139.707031 336.9375 L 136.5625 336.191406 Z M 135.03125 339.488281 " fill-opacity="1" fill-rule="nonzero"/><path fill="#fff4f5" d="M 175.148438 324.605469 L 177.09375 327.539062 L 180.863281 325.210938 L 177.355469 322.386719 Z M 175.148438 324.605469 " fill-opacity="1" fill-rule="nonzero"/><path fill="#fff4f5" d="M 166.960938 264.539062 L 167.570312 274.179688 C 167.636719 275.210938 168.5 275.988281 169.558594 275.925781 C 170.589844 275.859375 171.371094 274.972656 171.304688 273.945312 L 170.402344 259.726562 C 170.351562 258.964844 169.851562 258.3125 169.128906 258.074219 C 168.40625 257.828125 167.613281 258.046875 167.117188 258.625 L 159.257812 267.75 L 147.515625 251.136719 C 147.054688 250.484375 146.226562 250.199219 145.460938 250.421875 C 144.695312 250.648438 144.152344 251.332031 144.121094 252.132812 L 143.421875 267.992188 L 127.535156 259.910156 C 126.832031 259.558594 125.984375 259.675781 125.410156 260.210938 C 124.832031 260.746094 124.65625 261.585938 124.964844 262.308594 L 131.5 277.628906 L 112.898438 278.515625 C 112.089844 278.550781 111.398438 279.105469 111.183594 279.886719 C 110.96875 280.664062 111.28125 281.492188 111.957031 281.9375 L 127.777344 292.394531 L 115.761719 300.019531 C 115.101562 300.4375 114.773438 301.21875 114.933594 301.980469 C 115.09375 302.738281 115.707031 303.324219 116.476562 303.441406 L 128.460938 305.292969 L 118.84375 318.382812 C 118.363281 319.035156 118.359375 319.925781 118.835938 320.582031 C 119.195312 321.078125 119.761719 321.355469 120.351562 321.355469 C 120.546875 321.355469 120.742188 321.324219 120.933594 321.261719 L 137.441406 315.871094 C 138.421875 315.550781 138.960938 314.496094 138.636719 313.515625 C 138.316406 312.53125 137.257812 311.992188 136.277344 312.320312 L 125.300781 315.902344 L 133.296875 305.019531 C 133.683594 304.496094 133.765625 303.804688 133.515625 303.203125 C 133.265625 302.597656 132.71875 302.167969 132.074219 302.070312 L 121.964844 300.507812 L 132.214844 294 C 132.75 293.660156 133.078125 293.074219 133.082031 292.441406 C 133.089844 291.808594 132.773438 291.214844 132.242188 290.867188 L 118.789062 281.976562 L 134.359375 281.234375 C 134.96875 281.203125 135.527344 280.878906 135.855469 280.359375 C 136.179688 279.839844 136.230469 279.199219 135.988281 278.632812 L 130.417969 265.574219 L 144.3125 272.636719 C 144.878906 272.921875 145.550781 272.90625 146.101562 272.585938 C 146.652344 272.265625 147.003906 271.6875 147.03125 271.054688 L 147.613281 257.757812 L 157.582031 271.863281 C 157.914062 272.332031 158.445312 272.625 159.019531 272.652344 C 159.617188 272.671875 160.152344 272.441406 160.527344 272.003906 Z M 166.960938 264.539062 " fill-opacity="1" fill-rule="nonzero"/></svg>