<svg xmlns="http://www.w3.org/2000/svg" xmlns:xlink="http://www.w3.org/1999/xlink" width="500" zoomAndPan="magnify" viewBox="0 0 375 374.999991" height="500" preserveAspectRatio="xMidYMid meet" version="1.0"><defs><clipPath id="3c3dc82058"><path d="M 120.46875 94 L 239 94 L 239 183 L 120.46875 183 Z M 120.46875 94 " clip-rule="nonzero"/></clipPath></defs><path fill="#fff4f5" d="M 178.726562 94.398438 C 179.011719 94.40625 179.273438 94.480469 179.558594 94.480469 C 179.847656 94.480469 180.109375 94.40625 180.394531 94.398438 C 183.015625 92.175781 186.289062 90.6875 189.988281 90.6875 C 191.175781 90.6875 192.226562 91.105469 193.335938 91.363281 C 204.558594 86.15625 212.382812 74.875 212.382812 61.703125 C 212.382812 43.597656 197.691406 28.921875 179.558594 28.921875 C 161.433594 28.921875 146.734375 43.597656 146.734375 61.703125 C 146.734375 74.875 154.5625 86.15625 165.785156 91.363281 C 166.894531 91.105469 167.945312 90.6875 169.128906 90.6875 C 172.828125 90.6875 176.105469 92.175781 178.726562 94.398438 Z M 191.445312 50.84375 C 193.753906 50.84375 195.621094 52.707031 195.621094 55.011719 C 195.621094 57.316406 193.753906 59.183594 191.445312 59.183594 C 189.140625 59.183594 187.269531 57.316406 187.269531 55.011719 C 187.269531 52.707031 189.140625 50.84375 191.445312 50.84375 Z M 167.671875 50.84375 C 169.980469 50.84375 171.851562 52.707031 171.851562 55.011719 C 171.851562 57.316406 169.980469 59.183594 167.671875 59.183594 C 165.367188 59.183594 163.5 57.316406 163.5 55.011719 C 163.5 52.707031 165.367188 50.84375 167.671875 50.84375 Z M 161.730469 67.683594 L 197.394531 67.683594 C 193.699219 73.660156 187.097656 77.667969 179.558594 77.667969 C 172.023438 77.667969 165.421875 73.660156 161.730469 67.683594 Z M 161.730469 67.683594 " fill-opacity="1" fill-rule="nonzero"/><path fill="#fff4f5" d="M 127.65625 354.710938 C 126.847656 364.628906 134.242188 373.320312 144.167969 374.128906 C 154.097656 374.9375 162.804688 367.558594 163.613281 357.640625 L 174.453125 224.941406 L 184.667969 224.941406 L 195.503906 357.640625 C 196.3125 367.558594 205.023438 374.9375 214.949219 374.128906 C 224.878906 373.320312 232.273438 364.628906 231.460938 354.710938 L 219.015625 202.332031 L 219.015625 183.59375 C 217.101562 182.433594 215.40625 180.898438 214.144531 178.949219 L 179.558594 125.410156 L 144.976562 178.949219 C 143.71875 180.898438 142.019531 182.433594 140.101562 183.59375 L 140.101562 202.332031 Z M 127.65625 354.710938 " fill-opacity="1" fill-rule="nonzero"/><path fill="#fff4f5" d="M 252.433594 22.128906 C 250.503906 10.964844 229.367188 16.023438 224.078125 27.980469 C 242.117188 25.339844 254.246094 32.636719 252.433594 22.128906 Z M 252.433594 22.128906 " fill-opacity="1" fill-rule="nonzero"/><path fill="#fff4f5" d="M 221.550781 4.925781 C 214.074219 -0.0546875 205.457031 14.835938 209.453125 24.390625 C 217.773438 12.597656 228.585938 9.617188 221.550781 4.925781 Z M 221.550781 4.925781 " fill-opacity="1" fill-rule="nonzero"/><path fill="#fff4f5" d="M 242.285156 46.59375 C 242.40625 38.742188 227.367188 39.476562 222.230469 46.941406 C 234.847656 47.457031 242.171875 53.980469 242.285156 46.59375 Z M 242.285156 46.59375 " fill-opacity="1" fill-rule="nonzero"/><g clip-path="url(#3c3dc82058)"><path fill="#fff4f5" d="M 132.335938 182.46875 C 136.167969 182.46875 139.921875 180.585938 142.15625 177.132812 L 178.9375 120.195312 C 179.210938 119.773438 179.34375 119.289062 179.558594 118.839844 C 179.773438 119.289062 179.910156 119.773438 180.183594 120.195312 L 216.964844 177.132812 C 219.195312 180.585938 222.949219 182.46875 226.78125 182.46875 C 228.902344 182.46875 231.035156 181.875 232.960938 180.667969 C 233.003906 180.640625 233.054688 180.636719 233.097656 180.609375 C 233.371094 180.433594 233.511719 180.148438 233.769531 179.957031 C 234.402344 179.46875 234.921875 178.929688 235.4375 178.332031 C 235.929688 177.765625 236.394531 177.21875 236.761719 176.578125 C 237.132812 175.941406 237.371094 175.28125 237.617188 174.585938 C 237.867188 173.867188 238.089844 173.175781 238.195312 172.421875 C 238.300781 171.710938 238.273438 171.011719 238.238281 170.277344 C 238.207031 169.480469 238.132812 168.722656 237.929688 167.9375 C 237.851562 167.632812 237.914062 167.324219 237.808594 167.019531 L 218.390625 110.695312 C 218.371094 110.644531 218.332031 110.613281 218.316406 110.566406 C 216.898438 106.285156 213.082031 103.195312 208.390625 102.914062 C 208.300781 102.90625 208.21875 102.867188 208.128906 102.859375 C 207.992188 102.855469 207.878906 102.785156 207.742188 102.785156 L 204.425781 102.785156 C 204.628906 103.757812 205.015625 104.664062 205.015625 105.695312 L 205.015625 109.457031 L 223 137.292969 L 220.066406 138.933594 L 201.660156 110.441406 L 201.660156 105.695312 C 201.660156 99.257812 196.433594 94.039062 189.988281 94.039062 C 185.363281 94.039062 181.449219 96.78125 179.558594 100.675781 C 177.671875 96.78125 173.753906 94.039062 169.128906 94.039062 C 162.683594 94.039062 157.457031 99.257812 157.457031 105.695312 L 157.457031 110.441406 L 139.050781 138.933594 L 136.121094 137.292969 L 154.101562 109.457031 L 154.101562 105.695312 C 154.101562 104.664062 154.496094 103.757812 154.695312 102.785156 L 151.378906 102.785156 C 151.242188 102.785156 151.128906 102.855469 150.996094 102.859375 C 150.878906 102.867188 150.773438 102.917969 150.65625 102.929688 C 146 103.238281 142.214844 106.304688 140.808594 110.5625 C 140.789062 110.613281 140.746094 110.644531 140.726562 110.695312 L 121.308594 167.019531 C 121.203125 167.328125 121.265625 167.636719 121.1875 167.945312 C 120.984375 168.722656 120.914062 169.476562 120.878906 170.265625 C 120.84375 171.007812 120.816406 171.710938 120.921875 172.429688 C 121.027344 173.179688 121.253906 173.863281 121.5 174.578125 C 121.742188 175.277344 121.988281 175.941406 122.359375 176.582031 C 122.726562 177.21875 123.1875 177.761719 123.679688 178.328125 C 124.195312 178.925781 124.71875 179.472656 125.355469 179.957031 C 125.605469 180.152344 125.75 180.433594 126.023438 180.609375 C 126.0625 180.636719 126.113281 180.644531 126.160156 180.671875 C 128.085938 181.875 130.21875 182.46875 132.335938 182.46875 Z M 132.335938 182.46875 " fill-opacity="1" fill-rule="nonzero"/></g></svg>