<svg xmlns="http://www.w3.org/2000/svg" xmlns:xlink="http://www.w3.org/1999/xlink" width="500" zoomAndPan="magnify" viewBox="0 0 375 374.999991" height="500" preserveAspectRatio="xMidYMid meet" version="1.0"><path fill="#fff4f5" d="M 254.28125 90.84375 C 257.902344 93.089844 261.722656 94.648438 265.804688 94.890625 C 289.625 96.3125 293.152344 74.640625 288.164062 79.691406 C 283.171875 84.742188 273.855469 87.695312 256.492188 68.054688 C 243.585938 53.453125 232.085938 51.320312 222.773438 53.613281 C 237.550781 60.507812 247.09375 75.597656 254.28125 90.84375 Z M 254.28125 90.84375 " fill-opacity="1" fill-rule="nonzero"/><path fill="#fff4f5" d="M 178.78125 303.933594 L 178.78125 357.179688 C 178.78125 366.585938 186.40625 374.214844 195.820312 374.214844 C 205.230469 374.214844 212.859375 366.585938 212.859375 357.179688 L 212.859375 302.539062 C 197.609375 304.464844 186.273438 304.4375 178.78125 303.933594 Z M 178.78125 303.933594 " fill-opacity="1" fill-rule="nonzero"/><path fill="#fff4f5" d="M 220.308594 301.488281 L 220.308594 357.179688 C 220.308594 366.585938 227.941406 374.214844 237.355469 374.214844 C 246.761719 374.214844 254.394531 366.585938 254.394531 357.179688 L 254.394531 293.988281 C 247.902344 295.871094 240.515625 297.710938 232.144531 299.378906 C 227.992188 300.207031 224.054688 300.902344 220.308594 301.488281 Z M 220.308594 301.488281 " fill-opacity="1" fill-rule="nonzero"/><path fill="#fff4f5" d="M 231.15625 294.433594 C 272.972656 286.097656 289.785156 273.496094 289.785156 273.496094 C 287.363281 261.371094 283.152344 246.988281 278.046875 231.921875 C 270.183594 208.699219 260.207031 183.859375 251.429688 163.175781 C 255.683594 166.417969 260.574219 165.757812 263.386719 164.453125 C 273.191406 159.898438 270.25 149.046875 267.882812 140.324219 C 266.652344 135.792969 263.878906 126.488281 259.140625 115.082031 C 259.136719 115.078125 259.136719 115.078125 259.136719 115.074219 C 258.464844 113.464844 257.792969 111.828125 257.117188 110.171875 C 256.070312 107.625 254.988281 104.980469 253.847656 102.292969 C 243.816406 78.617188 229.464844 51.421875 199.417969 55.105469 C 193.101562 55.882812 188.617188 61.628906 189.394531 67.941406 C 190.175781 74.253906 195.953125 78.734375 202.238281 77.957031 C 216.355469 76.230469 224.664062 92.109375 234.300781 115.28125 L 230.023438 118.125 C 228.027344 113.300781 226.085938 108.785156 224.152344 104.679688 C 217.578125 115.640625 206.582031 123.902344 193.082031 126.59375 C 181.035156 128.996094 169.125 126.527344 159.394531 120.566406 C 159.457031 122.746094 159.585938 125.019531 159.792969 127.386719 L 154.761719 127.753906 C 153.800781 116.515625 153.402344 94.519531 164.285156 89.65625 C 170.09375 87.0625 172.695312 80.25 170.101562 74.445312 C 167.503906 68.644531 160.6875 66.039062 154.882812 68.632812 C 142.367188 74.226562 128.375 89.347656 131.792969 129.429688 C 131.871094 130.332031 131.945312 131.226562 132.039062 132.152344 C 132.039062 132.15625 132.042969 132.15625 132.042969 132.160156 C 134.140625 152.71875 139.703125 170.753906 139.9375 171.511719 C 141.445312 176.359375 145.933594 179.605469 150.929688 179.605469 C 151.28125 179.605469 151.632812 179.589844 151.988281 179.558594 C 157.050781 179.09375 161.125 175.363281 162.164062 170.472656 C 161.835938 193.367188 161.929688 222.691406 163.546875 249.785156 C 164.605469 267.476562 166.3125 284.21875 168.976562 297.582031 C 168.976562 297.582031 189.339844 302.773438 231.15625 294.433594 Z M 231.15625 294.433594 " fill-opacity="1" fill-rule="nonzero"/><path fill="#fff4f5" d="M 152.824219 64.03125 C 154.96875 63.070312 157.238281 62.585938 159.578125 62.585938 C 166.105469 62.585938 172.046875 66.433594 174.707031 72.386719 C 176.511719 76.425781 176.636719 80.925781 175.058594 85.054688 C 173.480469 89.1875 170.386719 92.457031 166.34375 94.261719 C 162.234375 96.097656 159.792969 103.597656 159.40625 114.5 C 168.519531 121.070312 180.207031 124.015625 192.097656 121.648438 C 205.335938 119.007812 215.828125 110.378906 221.40625 99.160156 C 216.15625 89.222656 210.78125 82.875 204.300781 82.875 C 203.828125 82.875 203.34375 82.902344 202.847656 82.964844 C 202.171875 83.046875 201.492188 83.089844 200.816406 83.089844 C 192.472656 83.089844 185.410156 76.84375 184.386719 68.558594 C 183.269531 59.496094 189.734375 51.214844 198.800781 50.097656 C 200.832031 49.847656 202.851562 49.722656 204.808594 49.722656 C 207.691406 49.722656 210.421875 49.992188 213.023438 50.480469 C 203.46875 41.257812 189.710938 36.699219 175.699219 39.492188 C 159.460938 42.730469 147.347656 54.960938 143.402344 69.957031 C 146.472656 67.351562 149.691406 65.429688 152.824219 64.03125 Z M 185.671875 91.015625 C 197.867188 87.265625 209.511719 89.945312 211.683594 97 C 213.859375 104.058594 201.800781 100.039062 189.609375 103.789062 C 177.414062 107.539062 169.707031 117.636719 167.53125 110.582031 C 165.359375 103.527344 173.484375 94.769531 185.671875 91.015625 Z M 185.671875 91.015625 " fill-opacity="1" fill-rule="nonzero"/><path fill="#fff4f5" d="M 127.121094 38.910156 C 119.167969 20.910156 87.378906 13.296875 84.480469 30.105469 C 81.75 45.921875 99.992188 34.933594 127.121094 38.910156 Z M 127.121094 38.910156 " fill-opacity="1" fill-rule="nonzero"/><path fill="#fff4f5" d="M 127.300781 8.074219 C 116.714844 15.132812 132.980469 19.617188 145.488281 37.371094 C 151.503906 22.984375 138.542969 0.570312 127.300781 8.074219 Z M 127.300781 8.074219 " fill-opacity="1" fill-rule="nonzero"/><path fill="#fff4f5" d="M 99.878906 60.972656 C 100.054688 72.089844 111.0625 62.269531 130.042969 61.496094 C 122.316406 50.261719 99.695312 49.15625 99.878906 60.972656 Z M 99.878906 60.972656 " fill-opacity="1" fill-rule="nonzero"/><path fill="#fff4f5" d="M 207.582031 27.089844 C 201.359375 25.324219 195.738281 28.558594 195.503906 28.695312 C 194.460938 29.304688 194.113281 30.640625 194.722656 31.6875 C 194.761719 31.757812 194.808594 31.824219 194.855469 31.890625 C 195.507812 32.773438 196.742188 33.042969 197.714844 32.484375 C 197.757812 32.457031 202.019531 30.050781 206.421875 31.320312 C 209.238281 32.128906 211.605469 34.308594 213.445312 37.792969 C 214.015625 38.863281 215.34375 39.273438 216.414062 38.707031 C 217.484375 38.140625 217.890625 36.8125 217.324219 35.742188 C 214.890625 31.140625 211.613281 28.230469 207.582031 27.089844 Z M 207.582031 27.089844 " fill-opacity="1" fill-rule="nonzero"/><path fill="#fff4f5" d="M 224.429688 33.246094 C 225.519531 32.722656 225.980469 31.414062 225.453125 30.320312 C 222.089844 23.335938 217.417969 18.800781 211.5625 16.847656 C 202.652344 13.867188 194.375 18.058594 194.023438 18.238281 C 192.949219 18.792969 192.53125 20.113281 193.082031 21.1875 C 193.140625 21.296875 193.203125 21.398438 193.273438 21.492188 C 193.898438 22.339844 195.066406 22.632812 196.035156 22.136719 C 196.105469 22.101562 203.082031 18.613281 210.214844 21.019531 C 214.882812 22.59375 218.683594 26.359375 221.5 32.222656 C 222.03125 33.3125 223.335938 33.773438 224.429688 33.246094 Z M 224.429688 33.246094 " fill-opacity="1" fill-rule="nonzero"/></svg>