<svg xmlns="http://www.w3.org/2000/svg" xmlns:xlink="http://www.w3.org/1999/xlink" width="500" zoomAndPan="magnify" viewBox="0 0 375 374.999991" height="500" preserveAspectRatio="xMidYMid meet" version="1.0"><defs><clipPath id="59c31ccb62"><path d="M 295 103 L 308.8125 103 L 308.8125 128 L 295 128 Z M 295 103 " clip-rule="nonzero"/></clipPath><clipPath id="e0539b885e"><path d="M 66.5625 78 L 80 78 L 80 104 L 66.5625 104 Z M 66.5625 78 " clip-rule="nonzero"/></clipPath></defs><g clip-path="url(#59c31ccb62)"><path fill="#fff4f5" d="M 303.824219 123.148438 C 305.417969 121.601562 306.648438 119.804688 307.515625 117.761719 C 308.375 115.714844 308.804688 113.582031 308.8125 111.359375 C 308.8125 108.632812 308.195312 106.054688 306.957031 103.621094 C 304.347656 104.421875 302.058594 105.773438 300.09375 107.667969 C 298.5 109.214844 297.265625 111.011719 296.390625 113.050781 C 295.519531 115.089844 295.082031 117.21875 295.074219 119.4375 C 295.070312 122.171875 295.695312 124.753906 296.949219 127.183594 C 299.566406 126.390625 301.859375 125.046875 303.824219 123.148438 Z M 303.824219 123.148438 " fill-opacity="1" fill-rule="nonzero"/></g><path fill="#fff4f5" d="M 257.367188 32.285156 C 258.871094 30.648438 259.996094 28.789062 260.742188 26.699219 C 261.488281 24.609375 261.804688 22.453125 261.691406 20.238281 C 261.539062 17.515625 260.773438 14.976562 259.394531 12.621094 C 256.835938 13.5625 254.628906 15.039062 252.78125 17.042969 C 251.273438 18.675781 250.144531 20.539062 249.386719 22.625 C 248.621094 24.710938 248.292969 26.863281 248.402344 29.082031 C 248.558594 31.808594 249.332031 34.351562 250.726562 36.707031 C 253.300781 35.769531 255.511719 34.296875 257.367188 32.285156 Z M 257.367188 32.285156 " fill-opacity="1" fill-rule="nonzero"/><g clip-path="url(#e0539b885e)"><path fill="#fff4f5" d="M 69.335938 98.019531 C 70.757812 100.351562 72.636719 102.226562 74.972656 103.644531 C 76.796875 101.609375 78.046875 99.269531 78.730469 96.625 C 79.285156 94.472656 79.394531 92.300781 79.0625 90.105469 C 78.726562 87.910156 77.984375 85.867188 76.832031 83.96875 C 75.410156 81.640625 73.535156 79.761719 71.207031 78.335938 C 69.398438 80.378906 68.152344 82.71875 67.46875 85.359375 C 66.917969 87.507812 66.800781 89.679688 67.117188 91.878906 C 67.441406 94.074219 68.179688 96.121094 69.335938 98.019531 Z M 69.335938 98.019531 " fill-opacity="1" fill-rule="nonzero"/></g><path fill="#fff4f5" d="M 146.714844 374.484375 L 217.1875 374.484375 L 230.476562 336.136719 C 229.960938 335.160156 229.503906 334.160156 229.097656 333.136719 C 228.695312 332.113281 228.347656 331.066406 228.058594 330.003906 C 227.769531 328.941406 227.539062 327.867188 227.371094 326.777344 C 227.199219 325.691406 227.089844 324.597656 227.039062 323.496094 C 226.988281 322.394531 227 321.296875 227.070312 320.199219 C 227.140625 319.097656 227.273438 318.007812 227.464844 316.921875 C 227.65625 315.835938 227.90625 314.765625 228.214844 313.710938 C 228.523438 312.652344 228.890625 311.613281 229.316406 310.597656 C 229.738281 309.582031 230.214844 308.589844 230.75 307.625 C 231.28125 306.660156 231.867188 305.730469 232.5 304.828125 C 233.136719 303.929688 233.820312 303.066406 234.550781 302.242188 C 235.28125 301.417969 236.054688 300.632812 236.871094 299.894531 C 237.6875 299.152344 238.542969 298.460938 239.4375 297.8125 C 240.332031 297.167969 241.257812 296.570312 242.214844 296.027344 C 243.175781 295.484375 244.160156 294.992188 245.171875 294.558594 C 246.1875 294.121094 247.21875 293.742188 248.273438 293.417969 C 248.191406 292.292969 248.054688 291.171875 247.867188 290.058594 C 247.679688 288.945312 247.441406 287.84375 247.148438 286.75 C 246.859375 285.660156 246.515625 284.585938 246.125 283.527344 C 245.730469 282.46875 245.292969 281.429688 244.800781 280.410156 C 244.3125 279.390625 243.777344 278.398438 243.195312 277.433594 C 242.613281 276.464844 241.984375 275.523438 241.3125 274.617188 C 240.644531 273.707031 239.933594 272.832031 239.179688 271.988281 C 238.425781 271.144531 237.636719 270.339844 236.808594 269.570312 C 235.980469 268.800781 235.117188 268.070312 234.222656 267.382812 C 233.324219 266.695312 232.398438 266.050781 231.441406 265.449219 C 230.484375 264.847656 229.5 264.289062 228.492188 263.78125 C 227.484375 263.269531 226.453125 262.808594 225.398438 262.394531 C 224.347656 261.980469 223.277344 261.617188 222.191406 261.304688 C 221.105469 260.992188 220.007812 260.730469 218.894531 260.519531 C 217.785156 260.308594 216.664062 260.148438 215.539062 260.042969 C 214.414062 259.9375 213.285156 259.882812 212.152344 259.882812 L 151.742188 259.882812 C 150.613281 259.882812 149.484375 259.9375 148.359375 260.042969 C 147.230469 260.148438 146.113281 260.308594 145.003906 260.519531 C 143.890625 260.730469 142.792969 260.992188 141.707031 261.304688 C 140.621094 261.621094 139.550781 261.984375 138.5 262.398438 C 137.445312 262.8125 136.417969 263.273438 135.40625 263.78125 C 134.398438 264.292969 133.414062 264.847656 132.457031 265.449219 C 131.5 266.050781 130.574219 266.699219 129.679688 267.386719 C 128.78125 268.074219 127.921875 268.804688 127.09375 269.570312 C 126.265625 270.339844 125.472656 271.148438 124.722656 271.988281 C 123.96875 272.832031 123.257812 273.707031 122.585938 274.617188 C 121.917969 275.527344 121.289062 276.464844 120.707031 277.433594 C 120.125 278.402344 119.589844 279.394531 119.101562 280.410156 C 118.609375 281.429688 118.171875 282.46875 117.777344 283.527344 C 117.386719 284.585938 117.042969 285.660156 116.753906 286.753906 C 116.460938 287.84375 116.222656 288.945312 116.035156 290.058594 C 115.847656 291.171875 115.710938 292.292969 115.628906 293.417969 C 116.683594 293.742188 117.714844 294.121094 118.730469 294.558594 C 119.742188 294.992188 120.726562 295.484375 121.6875 296.027344 C 122.644531 296.574219 123.570312 297.167969 124.464844 297.8125 C 125.355469 298.460938 126.210938 299.152344 127.027344 299.894531 C 127.84375 300.632812 128.617188 301.414062 129.347656 302.242188 C 130.078125 303.066406 130.761719 303.929688 131.398438 304.828125 C 132.035156 305.726562 132.617188 306.660156 133.152344 307.625 C 133.683594 308.589844 134.160156 309.578125 134.585938 310.597656 C 135.007812 311.613281 135.375 312.648438 135.683594 313.707031 C 135.996094 314.761719 136.246094 315.835938 136.4375 316.917969 C 136.628906 318.003906 136.757812 319.09375 136.828125 320.195312 C 136.902344 321.292969 136.910156 322.390625 136.863281 323.492188 C 136.8125 324.59375 136.703125 325.6875 136.53125 326.773438 C 136.359375 327.863281 136.132812 328.9375 135.84375 330 C 135.554688 331.0625 135.207031 332.105469 134.804688 333.132812 C 134.398438 334.15625 133.941406 335.15625 133.425781 336.128906 Z M 146.714844 374.484375 " fill-opacity="1" fill-rule="nonzero"/><path fill="#fff4f5" d="M 101.246094 339.375 L 108.023438 374.484375 L 133.925781 374.484375 L 120.03125 334.351562 C 120.472656 333.871094 120.882812 333.375 121.269531 332.851562 C 121.652344 332.332031 122.011719 331.789062 122.335938 331.230469 C 122.664062 330.671875 122.960938 330.09375 123.226562 329.503906 C 123.492188 328.914062 123.722656 328.308594 123.925781 327.691406 C 124.125 327.078125 124.289062 326.453125 124.421875 325.816406 C 124.558594 325.183594 124.65625 324.542969 124.71875 323.898438 C 124.785156 323.253906 124.8125 322.609375 124.808594 321.960938 C 124.800781 321.3125 124.761719 320.664062 124.6875 320.023438 C 124.613281 319.378906 124.503906 318.742188 124.359375 318.109375 C 124.214844 317.476562 124.039062 316.855469 123.828125 316.242188 C 123.617188 315.628906 123.375 315.027344 123.101562 314.441406 C 122.824219 313.855469 122.519531 313.285156 122.183594 312.730469 C 121.847656 312.175781 121.480469 311.640625 121.089844 311.128906 C 120.695312 310.613281 120.273438 310.121094 119.828125 309.648438 C 119.378906 309.179688 118.910156 308.734375 118.414062 308.316406 C 117.921875 307.898438 117.40625 307.503906 116.867188 307.140625 C 116.332031 306.777344 115.777344 306.441406 115.203125 306.136719 C 114.628906 305.832031 114.042969 305.558594 113.441406 305.320312 C 112.839844 305.078125 112.226562 304.867188 111.601562 304.691406 C 110.976562 304.515625 110.34375 304.375 109.703125 304.265625 C 109.066406 304.160156 108.421875 304.085938 107.773438 304.046875 C 107.125 304.007812 106.476562 304.003906 105.828125 304.035156 C 105.179688 304.066406 104.535156 304.128906 103.894531 304.230469 C 103.253906 304.328125 102.621094 304.464844 101.992188 304.632812 C 101.367188 304.800781 100.75 305 100.144531 305.234375 C 99.539062 305.46875 98.949219 305.734375 98.371094 306.03125 C 97.796875 306.328125 97.238281 306.65625 96.695312 307.011719 C 96.152344 307.367188 95.632812 307.753906 95.132812 308.167969 C 94.632812 308.578125 94.15625 309.019531 93.703125 309.480469 C 93.25 309.945312 92.824219 310.433594 92.421875 310.941406 C 92.023438 311.453125 91.652344 311.984375 91.308594 312.53125 C 90.964844 313.082031 90.652344 313.648438 90.367188 314.230469 C 90.085938 314.816406 89.835938 315.414062 89.617188 316.023438 C 89.398438 316.632812 89.214844 317.253906 89.0625 317.882812 C 88.910156 318.511719 88.792969 319.148438 88.710938 319.792969 C 88.628906 320.433594 88.578125 321.078125 88.566406 321.726562 C 88.550781 322.375 88.574219 323.023438 88.628906 323.667969 C 88.683594 324.3125 88.773438 324.953125 88.898438 325.589844 C 89.023438 326.226562 89.183594 326.851562 89.375 327.472656 C 89.566406 328.089844 89.792969 328.695312 90.050781 329.292969 C 90.308594 329.886719 90.597656 330.464844 90.914062 331.027344 C 91.234375 331.59375 91.585938 332.136719 91.964844 332.664062 C 92.34375 333.191406 92.746094 333.695312 93.179688 334.179688 C 93.613281 334.660156 94.070312 335.117188 94.550781 335.550781 C 95.035156 335.988281 95.539062 336.394531 96.066406 336.773438 C 96.589844 337.152344 97.136719 337.503906 97.699219 337.824219 C 98.261719 338.144531 98.839844 338.4375 99.4375 338.695312 C 100.03125 338.953125 100.636719 339.179688 101.257812 339.375 Z M 101.246094 339.375 " fill-opacity="1" fill-rule="nonzero"/><path fill="#fff4f5" d="M 239.707031 317.46875 C 239.316406 318.9375 239.109375 320.429688 239.097656 321.949219 C 239.082031 323.472656 239.257812 324.96875 239.621094 326.445312 C 239.984375 327.921875 240.527344 329.328125 241.246094 330.667969 C 241.96875 332.007812 242.84375 333.238281 243.875 334.355469 L 229.96875 374.484375 L 255.875 374.484375 L 262.652344 339.375 C 263.027344 339.257812 263.394531 339.128906 263.761719 338.988281 C 264.125 338.84375 264.484375 338.691406 264.839844 338.527344 C 265.195312 338.363281 265.546875 338.1875 265.890625 338 C 266.234375 337.8125 266.570312 337.613281 266.902344 337.40625 C 267.234375 337.195312 267.558594 336.976562 267.875 336.746094 C 268.191406 336.515625 268.5 336.277344 268.800781 336.027344 C 269.101562 335.777344 269.394531 335.515625 269.679688 335.246094 C 269.960938 334.980469 270.238281 334.699219 270.503906 334.414062 C 270.769531 334.128906 271.027344 333.832031 271.273438 333.527344 C 271.519531 333.226562 271.757812 332.914062 271.984375 332.59375 C 272.210938 332.277344 272.429688 331.949219 272.632812 331.617188 C 272.839844 331.285156 273.035156 330.945312 273.21875 330.601562 C 273.402344 330.253906 273.574219 329.90625 273.734375 329.546875 C 273.894531 329.191406 274.042969 328.832031 274.183594 328.464844 C 274.320312 328.097656 274.445312 327.726562 274.558594 327.351562 C 274.671875 326.980469 274.773438 326.601562 274.863281 326.21875 C 274.949219 325.839844 275.027344 325.457031 275.089844 325.070312 C 275.15625 324.683594 275.207031 324.296875 275.246094 323.910156 C 275.285156 323.519531 275.3125 323.128906 275.324219 322.738281 C 275.335938 322.347656 275.339844 321.957031 275.328125 321.566406 C 275.316406 321.175781 275.289062 320.785156 275.253906 320.394531 C 275.214844 320.007812 275.167969 319.617188 275.105469 319.234375 C 275.042969 318.847656 274.964844 318.460938 274.878906 318.082031 C 274.792969 317.699219 274.691406 317.324219 274.582031 316.949219 C 274.46875 316.574219 274.34375 316.203125 274.210938 315.835938 C 274.074219 315.46875 273.925781 315.105469 273.765625 314.75 C 273.605469 314.390625 273.4375 314.039062 273.253906 313.695312 C 273.070312 313.347656 272.878906 313.007812 272.675781 312.675781 C 272.46875 312.339844 272.253906 312.015625 272.027344 311.695312 C 271.804688 311.375 271.566406 311.0625 271.320312 310.757812 C 271.078125 310.453125 270.820312 310.15625 270.554688 309.871094 C 270.292969 309.582031 270.015625 309.304688 269.734375 309.03125 C 269.449219 308.761719 269.160156 308.5 268.859375 308.25 C 268.558594 308 268.25 307.757812 267.933594 307.527344 C 267.621094 307.292969 267.296875 307.074219 266.964844 306.863281 C 266.636719 306.652344 266.300781 306.453125 265.957031 306.265625 C 265.613281 306.074219 265.265625 305.898438 264.910156 305.730469 C 264.554688 305.566406 264.195312 305.410156 263.832031 305.269531 C 263.46875 305.125 263.097656 304.996094 262.726562 304.875 C 262.351562 304.757812 261.976562 304.652344 261.59375 304.554688 C 261.214844 304.460938 260.832031 304.378906 260.449219 304.308594 C 260.0625 304.238281 259.675781 304.183594 259.285156 304.136719 C 258.898438 304.09375 258.507812 304.058594 258.117188 304.039062 C 257.722656 304.019531 257.332031 304.015625 256.941406 304.019531 C 256.550781 304.027344 256.160156 304.042969 255.769531 304.074219 C 255.378906 304.105469 254.988281 304.152344 254.601562 304.207031 C 254.214844 304.261719 253.828125 304.332031 253.445312 304.414062 C 253.0625 304.496094 252.683594 304.589844 252.304688 304.695312 C 251.929688 304.800781 251.554688 304.917969 251.183594 305.046875 C 250.816406 305.179688 250.453125 305.320312 250.089844 305.472656 C 249.730469 305.628906 249.375 305.792969 249.027344 305.96875 C 248.675781 306.144531 248.332031 306.332031 247.996094 306.53125 C 247.660156 306.730469 247.328125 306.941406 247.003906 307.160156 C 246.679688 307.382812 246.367188 307.613281 246.058594 307.851562 C 245.746094 308.09375 245.449219 308.34375 245.15625 308.601562 C 244.863281 308.863281 244.578125 309.132812 244.304688 309.410156 C 244.027344 309.691406 243.761719 309.976562 243.507812 310.273438 C 243.25 310.566406 243.003906 310.871094 242.769531 311.183594 C 242.53125 311.496094 242.304688 311.8125 242.089844 312.140625 C 241.875 312.464844 241.667969 312.800781 241.472656 313.140625 C 241.28125 313.480469 241.097656 313.824219 240.925781 314.175781 C 240.753906 314.527344 240.59375 314.882812 240.445312 315.246094 C 240.296875 315.605469 240.160156 315.972656 240.035156 316.34375 C 239.910156 316.714844 239.796875 317.089844 239.695312 317.46875 Z M 239.707031 317.46875 " fill-opacity="1" fill-rule="nonzero"/><path fill="#fff4f5" d="M 121.535156 211.628906 C 121.535156 209.695312 121.628906 207.765625 121.8125 205.839844 C 122 203.914062 122.277344 202.003906 122.644531 200.105469 C 123.015625 198.207031 123.476562 196.332031 124.027344 194.476562 C 124.574219 192.621094 125.214844 190.800781 125.941406 189.007812 C 126.667969 187.214844 127.476562 185.460938 128.371094 183.746094 C 129.265625 182.03125 130.242188 180.363281 131.296875 178.742188 C 132.355469 177.121094 133.484375 175.554688 134.691406 174.042969 C 135.898438 172.527344 137.175781 171.078125 138.523438 169.6875 C 139.871094 168.296875 141.28125 166.976562 142.753906 165.722656 C 144.226562 164.46875 145.757812 163.289062 147.347656 162.179688 C 148.933594 161.074219 150.574219 160.046875 152.261719 159.09375 C 153.945312 158.144531 155.675781 157.277344 157.445312 156.496094 C 159.21875 155.710938 161.019531 155.015625 162.859375 154.40625 C 164.695312 153.792969 166.558594 153.273438 168.445312 152.84375 C 170.335938 152.410156 172.238281 152.070312 174.160156 151.824219 C 176.082031 151.574219 178.007812 151.417969 179.945312 151.355469 C 181.878906 151.292969 183.816406 151.324219 185.746094 151.445312 C 187.679688 151.570312 189.601562 151.785156 191.515625 152.089844 C 193.425781 152.398438 195.320312 152.796875 197.191406 153.285156 C 199.066406 153.777344 200.914062 154.355469 202.730469 155.019531 C 204.546875 155.6875 206.332031 156.441406 208.074219 157.277344 C 209.820312 158.117188 211.523438 159.035156 213.179688 160.039062 C 214.835938 161.039062 216.441406 162.117188 217.992188 163.273438 C 219.546875 164.429688 221.039062 165.65625 222.472656 166.957031 C 223.910156 168.253906 225.277344 169.621094 226.582031 171.050781 C 227.882812 172.480469 229.113281 173.96875 230.273438 175.519531 C 231.433594 177.066406 232.515625 178.667969 233.519531 180.320312 C 234.527344 181.976562 235.449219 183.671875 236.289062 185.414062 C 237.132812 187.15625 237.886719 188.933594 238.558594 190.746094 C 239.226562 192.5625 239.808594 194.40625 240.300781 196.273438 C 240.792969 198.144531 241.195312 200.035156 241.507812 201.941406 C 241.816406 203.851562 242.035156 205.769531 242.160156 207.699219 C 260.3125 189.042969 271.683594 159.175781 255.796875 111.578125 C 253.246094 116.28125 250.078125 120.523438 246.292969 124.308594 C 242.503906 128.09375 238.257812 131.265625 233.550781 133.816406 C 233.550781 133.816406 240.964844 30.128906 181.640625 0.515625 C 181.640625 0.515625 181.640625 59.746094 151.976562 81.945312 C 151.976562 81.945312 137.140625 59.726562 129.730469 59.726562 C 85.628906 147.792969 97.996094 192.203125 121.6875 214.613281 C 121.640625 213.628906 121.535156 212.640625 121.535156 211.628906 Z M 121.535156 211.628906 " fill-opacity="1" fill-rule="nonzero"/><path fill="#fff4f5" d="M 230.277344 211.628906 C 230.277344 210.046875 230.199219 208.46875 230.042969 206.898438 C 229.890625 205.324219 229.65625 203.761719 229.347656 202.214844 C 229.039062 200.664062 228.65625 199.132812 228.195312 197.621094 C 227.738281 196.105469 227.203125 194.621094 226.597656 193.160156 C 225.992188 191.699219 225.316406 190.273438 224.570312 188.878906 C 223.824219 187.488281 223.011719 186.132812 222.132812 184.820312 C 221.253906 183.503906 220.3125 182.238281 219.308594 181.015625 C 218.304688 179.792969 217.242188 178.625 216.121094 177.507812 C 215.003906 176.386719 213.832031 175.328125 212.609375 174.324219 C 211.382812 173.324219 210.113281 172.382812 208.796875 171.503906 C 207.484375 170.628906 206.125 169.816406 204.730469 169.070312 C 203.335938 168.324219 201.90625 167.652344 200.441406 167.046875 C 198.980469 166.441406 197.492188 165.910156 195.976562 165.449219 C 194.464844 164.992188 192.929688 164.609375 191.378906 164.300781 C 189.824219 163.992188 188.261719 163.761719 186.683594 163.605469 C 185.109375 163.449219 183.53125 163.371094 181.949219 163.371094 C 180.367188 163.371094 178.785156 163.449219 177.210938 163.605469 C 175.636719 163.761719 174.074219 163.992188 172.519531 164.300781 C 170.96875 164.609375 169.433594 164.992188 167.917969 165.449219 C 166.40625 165.910156 164.914062 166.441406 163.453125 167.046875 C 161.992188 167.652344 160.5625 168.324219 159.167969 169.070312 C 157.769531 169.816406 156.414062 170.628906 155.097656 171.503906 C 153.78125 172.382812 152.511719 173.324219 151.289062 174.324219 C 150.066406 175.328125 148.894531 176.386719 147.773438 177.507812 C 146.65625 178.625 145.59375 179.792969 144.589844 181.015625 C 143.585938 182.238281 142.644531 183.503906 141.765625 184.820312 C 140.886719 186.132812 140.070312 187.488281 139.324219 188.878906 C 138.578125 190.273438 137.902344 191.699219 137.296875 193.160156 C 136.691406 194.621094 136.160156 196.105469 135.699219 197.621094 C 135.242188 199.132812 134.855469 200.664062 134.546875 202.214844 C 134.238281 203.761719 134.007812 205.324219 133.851562 206.898438 C 133.695312 208.46875 133.621094 210.046875 133.621094 211.628906 C 133.621094 213.207031 133.695312 214.785156 133.851562 216.355469 C 134.007812 217.929688 134.238281 219.492188 134.546875 221.042969 C 134.855469 222.589844 135.242188 224.121094 135.699219 225.632812 C 136.160156 227.148438 136.691406 228.632812 137.296875 230.09375 C 137.902344 231.554688 138.578125 232.980469 139.324219 234.375 C 140.070312 235.769531 140.886719 237.121094 141.765625 238.4375 C 142.644531 239.75 143.585938 241.019531 144.589844 242.238281 C 145.59375 243.460938 146.65625 244.628906 147.773438 245.75 C 148.894531 246.867188 150.066406 247.925781 151.289062 248.929688 C 152.511719 249.929688 153.78125 250.871094 155.097656 251.75 C 156.414062 252.628906 157.769531 253.4375 159.167969 254.183594 C 160.5625 254.929688 161.992188 255.605469 163.453125 256.207031 C 164.914062 256.8125 166.40625 257.34375 167.917969 257.804688 C 169.433594 258.261719 170.96875 258.644531 172.519531 258.953125 C 174.074219 259.261719 175.636719 259.496094 177.210938 259.648438 C 178.785156 259.804688 180.367188 259.882812 181.949219 259.882812 C 183.53125 259.882812 185.109375 259.804688 186.683594 259.648438 C 188.261719 259.496094 189.824219 259.261719 191.378906 258.953125 C 192.929688 258.644531 194.464844 258.261719 195.976562 257.804688 C 197.492188 257.34375 198.980469 256.8125 200.441406 256.207031 C 201.90625 255.605469 203.335938 254.929688 204.730469 254.183594 C 206.125 253.4375 207.484375 252.628906 208.796875 251.75 C 210.113281 250.871094 211.382812 249.929688 212.609375 248.929688 C 213.832031 247.925781 215.003906 246.867188 216.121094 245.75 C 217.242188 244.628906 218.304688 243.460938 219.308594 242.238281 C 220.3125 241.019531 221.253906 239.75 222.132812 238.4375 C 223.011719 237.121094 223.824219 235.769531 224.570312 234.375 C 225.316406 232.980469 225.992188 231.554688 226.597656 230.09375 C 227.203125 228.632812 227.738281 227.148438 228.195312 225.632812 C 228.65625 224.121094 229.039062 222.589844 229.347656 221.042969 C 229.65625 219.492188 229.890625 217.929688 230.042969 216.355469 C 230.199219 214.785156 230.277344 213.207031 230.277344 211.628906 Z M 163.824219 235.753906 C 163.824219 235.160156 163.855469 234.570312 163.914062 233.980469 C 163.96875 233.390625 164.058594 232.804688 164.171875 232.222656 C 164.289062 231.644531 164.433594 231.070312 164.605469 230.5 C 164.777344 229.933594 164.976562 229.378906 165.203125 228.828125 C 165.433594 228.28125 165.683594 227.746094 165.964844 227.222656 C 166.246094 226.703125 166.550781 226.195312 166.878906 225.699219 C 167.210938 225.207031 167.5625 224.734375 167.9375 224.273438 C 168.316406 223.816406 168.714844 223.378906 169.132812 222.957031 C 169.554688 222.539062 169.992188 222.140625 170.449219 221.765625 C 170.910156 221.390625 171.386719 221.039062 171.878906 220.707031 C 172.375 220.378906 172.882812 220.074219 173.40625 219.796875 C 173.929688 219.515625 174.464844 219.261719 175.011719 219.035156 C 175.5625 218.808594 176.121094 218.609375 176.6875 218.4375 C 177.253906 218.265625 177.832031 218.121094 178.414062 218.007812 C 178.996094 217.890625 179.582031 217.804688 180.171875 217.746094 C 180.761719 217.6875 181.355469 217.660156 181.949219 217.660156 C 182.542969 217.660156 183.132812 217.6875 183.726562 217.746094 C 184.316406 217.804688 184.902344 217.890625 185.484375 218.007812 C 186.066406 218.121094 186.640625 218.265625 187.210938 218.4375 C 187.777344 218.609375 188.335938 218.808594 188.882812 219.035156 C 189.433594 219.261719 189.96875 219.515625 190.492188 219.796875 C 191.015625 220.074219 191.523438 220.378906 192.015625 220.707031 C 192.511719 221.039062 192.988281 221.390625 193.445312 221.765625 C 193.90625 222.140625 194.34375 222.539062 194.761719 222.957031 C 195.183594 223.378906 195.582031 223.816406 195.957031 224.273438 C 196.335938 224.734375 196.6875 225.207031 197.015625 225.699219 C 197.347656 226.195312 197.652344 226.703125 197.933594 227.222656 C 198.210938 227.746094 198.464844 228.28125 198.691406 228.828125 C 198.917969 229.378906 199.117188 229.933594 199.292969 230.5 C 199.464844 231.070312 199.609375 231.644531 199.722656 232.222656 C 199.839844 232.804688 199.925781 233.390625 199.984375 233.980469 C 200.042969 234.570312 200.070312 235.160156 200.070312 235.753906 Z M 163.824219 235.753906 " fill-opacity="1" fill-rule="nonzero"/></svg>