<svg xmlns="http://www.w3.org/2000/svg" xmlns:xlink="http://www.w3.org/1999/xlink" width="500" zoomAndPan="magnify" viewBox="0 0 375 374.999991" height="500" preserveAspectRatio="xMidYMid meet" version="1.0"><defs><clipPath id="1fdd9b8207"><path d="M 117 112 L 288.75 112 L 288.75 206 L 117 206 Z M 117 112 " clip-rule="nonzero"/></clipPath></defs><path fill="#fff4f5" d="M 135.820312 202.738281 C 132.824219 202.738281 130.878906 202.6875 130.464844 202.679688 C 124.457031 202.503906 119.277344 198.800781 117.195312 193.242188 C 117.167969 193.171875 117.105469 192.996094 117.019531 192.742188 L 112.804688 208.703125 C 110.882812 213.054688 110.699219 218.160156 112.75 222.867188 L 139.625 284.605469 L 109.761719 349.199219 C 105.671875 358.046875 109.527344 368.539062 118.378906 372.628906 C 120.777344 373.738281 123.292969 374.261719 125.773438 374.261719 C 132.441406 374.261719 138.824219 370.464844 141.808594 364.011719 L 174.992188 292.230469 C 177.105469 287.65625 177.167969 282.394531 175.15625 277.777344 L 163.195312 250.300781 L 198 288.777344 L 199.929688 355.703125 C 200.207031 365.273438 208.050781 372.84375 217.5625 372.84375 C 217.738281 372.84375 217.910156 372.84375 218.082031 372.839844 C 227.828125 372.558594 235.5 364.429688 235.21875 354.683594 L 233.101562 281.253906 C 232.980469 277.054688 231.363281 273.035156 228.546875 269.921875 L 187.597656 224.648438 L 195.871094 193.328125 C 185.246094 198.941406 171.625 200.46875 164.640625 201.25 C 153.054688 202.542969 141.609375 202.738281 135.820312 202.738281 Z M 135.820312 202.738281 " fill-opacity="1" fill-rule="nonzero"/><g clip-path="url(#1fdd9b8207)"><path fill="#fff4f5" d="M 276.953125 156.628906 C 276.890625 156.628906 276.820312 156.628906 276.753906 156.628906 C 270.605469 156.738281 265.691406 161.738281 265.652344 167.855469 C 263.816406 171.761719 250.253906 177.492188 235.683594 180.902344 C 230.320312 169.460938 220.136719 149.429688 208.859375 136.03125 C 196.792969 143.121094 181.648438 144.257812 168.351562 138.140625 C 165.714844 136.925781 163.175781 135.433594 160.808594 133.707031 C 153.480469 128.359375 148.117188 121.039062 145.234375 112.636719 C 144.585938 112.457031 143.933594 112.335938 143.28125 112.277344 L 142.96875 112.207031 C 142.929688 112.21875 142.898438 112.238281 142.863281 112.253906 C 138.675781 112.035156 134.53125 114.148438 132.367188 118.066406 C 127.695312 126.535156 124.398438 134.507812 122.09375 141.871094 C 112.820312 171.496094 119.855469 191.089844 120.238281 192.101562 C 121.847656 196.398438 125.898438 199.296875 130.488281 199.429688 C 130.714844 199.433594 132.679688 199.488281 135.820312 199.488281 C 142.105469 199.488281 153.09375 199.273438 164.28125 198.023438 C 175.703125 196.746094 206.050781 193.355469 207.382812 172.535156 C 207.78125 166.308594 203.058594 160.9375 196.832031 160.539062 C 191.03125 160.15625 186.039062 164.1875 185.007812 169.722656 C 180.332031 173.59375 160.640625 176.648438 140.082031 176.910156 C 139.484375 170.394531 139.777344 159.757812 144.453125 146.179688 L 147.667969 146.800781 C 143.660156 158.285156 142.933594 167.507812 143.132812 173.601562 C 161.824219 173.105469 177.492188 170.355469 182.140625 167.75 C 183.917969 161.597656 189.570312 157.265625 196.074219 157.265625 C 196.394531 157.265625 196.71875 157.277344 197.046875 157.296875 C 205.042969 157.808594 211.136719 164.738281 210.625 172.742188 C 210.484375 174.933594 210.074219 176.953125 209.441406 178.8125 C 213.097656 185.8125 216.332031 192.675781 218.675781 198.167969 C 220.476562 202.375 224.601562 205.03125 229.0625 205.03125 C 229.660156 205.03125 230.261719 204.984375 230.867188 204.886719 C 244.441406 202.695312 288.691406 193.546875 288.246094 167.730469 C 288.140625 161.558594 283.101562 156.628906 276.953125 156.628906 Z M 276.953125 156.628906 " fill-opacity="1" fill-rule="nonzero"/></g><path fill="#fff4f5" d="M 116.367188 56.332031 L 114.871094 59.546875 L 120.972656 62.34375 C 120.21875 64.300781 118.945312 66.085938 117.15625 67.453125 C 112.007812 71.390625 104.644531 70.40625 100.707031 65.257812 C 98.585938 62.480469 97.90625 59.066406 98.527344 55.886719 C 100.082031 56.335938 101.703125 56.535156 103.324219 56.453125 C 100.433594 55.949219 97.710938 54.414062 95.789062 51.898438 C 91.734375 46.59375 92.75 39.007812 98.050781 34.953125 C 103.355469 30.898438 110.941406 31.910156 114.996094 37.21875 C 115.941406 38.453125 116.597656 39.816406 117.003906 41.226562 C 116.855469 38.417969 115.890625 35.621094 114.050781 33.21875 C 113.964844 33.101562 113.863281 33 113.773438 32.886719 C 118.878906 29.46875 125.824219 30.554688 129.609375 35.503906 C 133.3125 40.351562 132.65625 47.160156 128.269531 51.226562 L 123.417969 46.730469 L 121.023438 49.347656 L 130.640625 57.378906 L 142.421875 67.214844 L 143.777344 65.589844 L 130.136719 52.953125 C 130.265625 52.863281 130.398438 52.78125 130.523438 52.6875 C 136.71875 47.953125 137.902344 39.089844 133.167969 32.898438 C 128.433594 26.703125 119.574219 25.519531 113.378906 30.253906 C 112.96875 30.566406 112.585938 30.898438 112.222656 31.246094 C 107.148438 26.675781 99.390625 26.210938 93.769531 30.507812 C 87.417969 35.359375 86.207031 44.441406 91.0625 50.792969 C 92.414062 52.5625 94.101562 53.917969 95.964844 54.871094 C 94.484375 59.359375 95.171875 64.476562 98.257812 68.515625 C 103.230469 75.023438 112.535156 76.261719 119.039062 71.292969 C 121.601562 69.332031 123.335938 66.695312 124.203125 63.824219 L 140.101562 71.105469 L 141.085938 69.226562 L 127.15625 61.960938 Z M 116.367188 56.332031 " fill-opacity="1" fill-rule="nonzero"/><path fill="#fff4f5" d="M 194.613281 28.761719 C 188.578125 26.074219 185.167969 22.671875 184.472656 18.644531 C 183.304688 11.878906 190.082031 5.34375 190.148438 5.277344 L 188.410156 3.449219 C 188.089844 3.753906 180.59375 10.996094 181.988281 19.074219 C 182.835938 23.980469 186.738281 28.015625 193.589844 31.066406 Z M 194.613281 28.761719 " fill-opacity="1" fill-rule="nonzero"/><path fill="#fff4f5" d="M 172.957031 14.941406 C 180.800781 12.09375 183.390625 1.707031 183.496094 1.269531 L 181.046875 0.675781 C 181.023438 0.769531 178.65625 10.195312 172.089844 12.574219 C 168.199219 13.980469 163.484375 12.671875 158.082031 8.671875 L 156.582031 10.699219 C 160.179688 13.359375 163.5625 14.953125 166.703125 15.464844 C 168.914062 15.824219 171 15.652344 172.957031 14.941406 Z M 172.957031 14.941406 " fill-opacity="1" fill-rule="nonzero"/><path fill="#fff4f5" d="M 158.65625 41.53125 L 160.394531 43.351562 C 160.75 43.015625 169.027344 34.992188 167.257812 26.824219 C 166.222656 22.050781 162.03125 18.347656 154.796875 15.820312 L 153.964844 18.203125 C 160.3125 20.417969 163.953125 23.496094 164.792969 27.351562 C 166.269531 34.136719 158.730469 41.457031 158.65625 41.53125 Z M 158.65625 41.53125 " fill-opacity="1" fill-rule="nonzero"/><path fill="#fff4f5" d="M 176.601562 33.421875 C 180.386719 32.117188 185.003906 33.726562 190.339844 38.203125 L 191.960938 36.273438 C 185.898438 31.1875 180.449219 29.425781 175.773438 31.042969 C 167.871094 33.769531 165.402344 45.09375 165.300781 45.574219 L 167.765625 46.09375 C 167.789062 45.988281 170.050781 35.679688 176.601562 33.421875 Z M 176.601562 33.421875 " fill-opacity="1" fill-rule="nonzero"/><path fill="#fff4f5" d="M 206.710938 44.042969 L 210.949219 44.046875 L 210.964844 30.96875 L 221.890625 46.261719 L 228.730469 32.824219 L 232.921875 49.324219 L 249.816406 35.96875 L 244.300781 55.917969 L 263.371094 54.289062 L 248.519531 69.054688 L 265.714844 75.554688 L 244.402344 82.082031 L 251.574219 93.964844 L 240.96875 91.210938 L 239.90625 95.3125 L 260.574219 100.679688 L 250.832031 84.539062 L 278.808594 75.972656 L 256.175781 67.417969 L 274.625 49.074219 L 250.007812 51.175781 L 257.351562 24.609375 L 235.417969 41.949219 L 230.066406 20.863281 L 221.28125 38.121094 L 206.746094 17.777344 Z M 206.710938 44.042969 " fill-opacity="1" fill-rule="nonzero"/><path fill="#fff4f5" d="M 163.304688 130.285156 C 180.953125 143.164062 205.703125 139.296875 218.582031 121.648438 C 231.460938 104 227.59375 79.25 209.945312 66.371094 C 192.296875 53.492188 167.546875 57.359375 154.667969 75.007812 C 141.789062 92.660156 145.65625 117.40625 163.304688 130.285156 Z M 213.113281 78.90625 L 215.820312 82.601562 L 198.777344 86.351562 L 198.335938 85.109375 Z M 208.894531 89.683594 C 209.046875 91.523438 207.679688 93.140625 205.839844 93.292969 C 204 93.445312 202.382812 92.078125 202.230469 90.238281 C 202.078125 88.394531 203.445312 86.78125 205.285156 86.628906 C 207.128906 86.476562 208.742188 87.84375 208.894531 89.683594 Z M 180.253906 76.785156 L 194.109375 84.835938 L 193.515625 86.011719 L 177.09375 80.101562 Z M 189.589844 89.421875 C 189.199219 91.226562 187.421875 92.375 185.617188 91.988281 C 183.8125 91.601562 182.664062 89.820312 183.050781 88.015625 C 183.4375 86.210938 185.214844 85.0625 187.023438 85.449219 C 188.828125 85.835938 189.976562 87.617188 189.589844 89.421875 Z M 175.875 102.941406 C 176.621094 98.632812 194.640625 98.617188 194.640625 98.617188 C 194.640625 98.617188 212.636719 99.46875 213.183594 103.804688 C 213.730469 108.140625 213.238281 120.089844 211.292969 120.046875 C 209.351562 120 209.40625 117.550781 208.109375 117.523438 C 206.8125 117.492188 200.859375 116.347656 194.234375 116.191406 C 187.605469 116.039062 181.605469 116.910156 180.308594 116.878906 C 179.011719 116.851562 178.953125 119.300781 177.011719 119.253906 C 175.066406 119.207031 175.125 107.246094 175.875 102.941406 Z M 175.875 102.941406 " fill-opacity="1" fill-rule="nonzero"/></svg>