<svg xmlns="http://www.w3.org/2000/svg" xmlns:xlink="http://www.w3.org/1999/xlink" width="500" zoomAndPan="magnify" viewBox="0 0 375 374.999991" height="500" preserveAspectRatio="xMidYMid meet" version="1.0"><defs><clipPath id="d0d952e825"><path d="M 84.375 37 L 155 37 L 155 112 L 84.375 112 Z M 84.375 37 " clip-rule="nonzero"/></clipPath><clipPath id="90b4614f0a"><path d="M 220 37 L 290.625 37 L 290.625 112 L 220 112 Z M 220 37 " clip-rule="nonzero"/></clipPath></defs><path fill="#fff4f5" d="M 159.308594 303.476562 C 159.898438 303.238281 160.183594 302.5625 159.941406 301.96875 C 159.699219 301.378906 159.023438 301.09375 158.433594 301.335938 C 155.894531 302.371094 154.195312 303.941406 153.382812 305.996094 C 152.132812 309.167969 153.535156 312.28125 153.597656 312.414062 C 153.792969 312.835938 154.210938 313.085938 154.644531 313.085938 C 154.808594 313.085938 154.96875 313.050781 155.125 312.980469 C 155.707031 312.71875 155.960938 312.03125 155.699219 311.453125 C 155.691406 311.425781 154.648438 309.066406 155.542969 306.824219 C 156.117188 305.390625 157.382812 304.261719 159.308594 303.476562 Z M 159.308594 303.476562 " fill-opacity="1" fill-rule="nonzero"/><path fill="#fff4f5" d="M 156.011719 296.792969 C 152.171875 298.1875 149.550781 300.402344 148.21875 303.371094 C 146.191406 307.890625 147.957031 312.453125 148.03125 312.644531 C 148.210938 313.097656 148.648438 313.375 149.105469 313.375 C 149.25 313.375 149.394531 313.347656 149.535156 313.289062 C 150.128906 313.054688 150.417969 312.382812 150.183594 311.789062 C 150.167969 311.75 148.695312 307.953125 150.328125 304.320312 C 151.394531 301.941406 153.574219 300.140625 156.804688 298.964844 C 157.402344 298.746094 157.710938 298.082031 157.496094 297.480469 C 157.277344 296.882812 156.609375 296.570312 156.011719 296.792969 Z M 156.011719 296.792969 " fill-opacity="1" fill-rule="nonzero"/><path fill="#fff4f5" d="M 218.527344 312.980469 C 218.683594 313.054688 218.847656 313.085938 219.011719 313.085938 C 219.445312 313.085938 219.867188 312.835938 220.0625 312.414062 C 220.121094 312.285156 221.523438 309.167969 220.273438 305.996094 C 219.464844 303.941406 217.765625 302.375 215.226562 301.335938 C 214.632812 301.097656 213.960938 301.378906 213.71875 301.972656 C 213.476562 302.5625 213.761719 303.238281 214.351562 303.480469 C 216.277344 304.265625 217.542969 305.390625 218.113281 306.824219 C 219.007812 309.054688 217.980469 311.40625 217.960938 311.453125 C 217.695312 312.03125 217.949219 312.714844 218.527344 312.980469 Z M 218.527344 312.980469 " fill-opacity="1" fill-rule="nonzero"/><path fill="#fff4f5" d="M 224.125 313.289062 C 224.261719 313.347656 224.40625 313.371094 224.550781 313.371094 C 225.011719 313.371094 225.445312 313.097656 225.625 312.644531 C 225.703125 312.453125 227.46875 307.890625 225.441406 303.371094 C 224.109375 300.402344 221.488281 298.1875 217.644531 296.792969 C 217.046875 296.570312 216.382812 296.882812 216.164062 297.480469 C 215.945312 298.082031 216.253906 298.746094 216.855469 298.964844 C 220.078125 300.136719 222.25 301.933594 223.320312 304.300781 C 224.949219 307.898438 223.5 311.71875 223.476562 311.792969 C 223.242188 312.382812 223.53125 313.054688 224.125 313.289062 Z M 224.125 313.289062 " fill-opacity="1" fill-rule="nonzero"/><path fill="#fff4f5" d="M 241.25 171.023438 C 241.441406 171.140625 241.648438 171.195312 241.855469 171.195312 C 242.246094 171.195312 242.625 171.003906 242.84375 170.648438 C 244.285156 168.3125 244.734375 166.046875 244.179688 163.910156 C 243.324219 160.609375 240.355469 158.917969 240.230469 158.847656 C 239.671875 158.535156 238.96875 158.734375 238.65625 159.292969 C 238.34375 159.851562 238.542969 160.554688 239.101562 160.867188 C 239.121094 160.878906 241.339844 162.175781 241.941406 164.492188 C 242.332031 165.996094 241.972656 167.65625 240.875 169.433594 C 240.539062 169.976562 240.707031 170.6875 241.25 171.023438 Z M 241.25 171.023438 " fill-opacity="1" fill-rule="nonzero"/><path fill="#fff4f5" d="M 245.871094 173.210938 C 246.066406 173.34375 246.292969 173.410156 246.511719 173.410156 C 246.886719 173.410156 247.25 173.230469 247.472656 172.898438 C 249.753906 169.507812 250.570312 166.171875 249.902344 162.988281 C 248.878906 158.140625 244.765625 155.496094 244.589844 155.386719 C 244.050781 155.046875 243.335938 155.207031 242.996094 155.746094 C 242.652344 156.285156 242.816406 157 243.355469 157.339844 C 243.390625 157.363281 246.816406 159.566406 247.636719 163.464844 C 248.175781 166.015625 247.472656 168.753906 245.554688 171.605469 C 245.199219 172.136719 245.339844 172.855469 245.871094 173.210938 Z M 245.871094 173.210938 " fill-opacity="1" fill-rule="nonzero"/><path fill="#fff4f5" d="M 137.785156 137.820312 C 138.304688 137.445312 138.421875 136.722656 138.050781 136.203125 C 137.675781 135.6875 136.953125 135.566406 136.433594 135.941406 C 134.207031 137.542969 132.921875 139.464844 132.617188 141.652344 C 132.140625 145.027344 134.234375 147.730469 134.324219 147.84375 C 134.550781 148.132812 134.890625 148.28125 135.230469 148.28125 C 135.480469 148.28125 135.730469 148.199219 135.945312 148.035156 C 136.445312 147.644531 136.535156 146.917969 136.144531 146.414062 C 136.128906 146.394531 134.5625 144.34375 134.910156 141.953125 C 135.128906 140.425781 136.097656 139.035156 137.785156 137.820312 Z M 137.785156 137.820312 " fill-opacity="1" fill-rule="nonzero"/><path fill="#fff4f5" d="M 126.976562 140.3125 C 126.0625 145.179688 128.847656 149.199219 128.96875 149.367188 C 129.195312 149.6875 129.550781 149.859375 129.914062 149.859375 C 130.140625 149.859375 130.375 149.789062 130.574219 149.648438 C 131.097656 149.28125 131.222656 148.558594 130.859375 148.039062 C 130.835938 148.003906 128.511719 144.613281 129.253906 140.714844 C 129.742188 138.164062 131.4375 135.910156 134.292969 134.015625 C 134.828125 133.664062 134.972656 132.945312 134.621094 132.414062 C 134.265625 131.882812 133.550781 131.734375 133.015625 132.089844 C 129.613281 134.347656 127.578125 137.113281 126.976562 140.3125 Z M 126.976562 140.3125 " fill-opacity="1" fill-rule="nonzero"/><path fill="#fff4f5" d="M 175.679688 128.589844 C 169.425781 134.160156 165.464844 144.691406 163.082031 155.824219 C 166.996094 165.246094 176.28125 171.871094 187.117188 171.871094 C 197.953125 171.871094 207.242188 165.246094 211.152344 155.824219 C 208.769531 144.691406 204.808594 134.160156 198.558594 128.589844 C 196.324219 126.601562 194.957031 123.902344 194.648438 120.945312 C 192.261719 120.226562 189.738281 119.835938 187.117188 119.835938 C 184.5 119.835938 181.972656 120.226562 179.589844 120.945312 C 179.277344 123.902344 177.910156 126.601562 175.679688 128.589844 Z M 202.300781 155.90625 C 202.886719 160.328125 196.109375 156.726562 188.476562 157.738281 C 180.839844 158.75 175.238281 163.992188 174.648438 159.574219 C 174.066406 155.152344 179.777344 150.75 187.414062 149.734375 C 195.050781 148.722656 201.714844 151.488281 202.300781 155.90625 Z M 202.300781 155.90625 " fill-opacity="1" fill-rule="nonzero"/><path fill="#fff4f5" d="M 212.628906 112.789062 C 208.816406 109.390625 202.96875 109.730469 199.570312 113.546875 C 196.171875 117.359375 196.511719 123.207031 200.324219 126.605469 C 210.183594 135.386719 214.53125 155.003906 216.125 171.015625 L 213.585938 171.945312 C 213.25 168.390625 212.769531 164.671875 212.132812 160.949219 C 211.953125 160.890625 211.765625 160.847656 211.578125 160.804688 C 206.535156 169.03125 197.457031 174.53125 187.117188 174.53125 C 176.777344 174.53125 167.703125 169.03125 162.65625 160.804688 C 162.46875 160.847656 162.285156 160.890625 162.101562 160.949219 C 161.46875 164.671875 160.984375 168.394531 160.648438 171.945312 L 158.109375 171.015625 C 159.703125 155.003906 164.050781 135.386719 173.910156 126.605469 C 177.726562 123.207031 178.066406 117.359375 174.664062 113.546875 C 171.269531 109.730469 165.421875 109.390625 161.605469 112.792969 C 148.667969 124.316406 142.527344 145.605469 140.128906 164.429688 C 137.917969 181.75 138.871094 196.984375 140.605469 200.578125 C 142.222656 203.925781 145.488281 205.957031 149.042969 205.957031 C 149.578125 205.957031 150.109375 205.910156 150.65625 205.816406 C 151.875 205.605469 153.507812 204.957031 155.820312 203.039062 L 155.820312 248.324219 C 155.820312 249.675781 155.835938 251.0625 156.152344 252.453125 L 158.101562 260.980469 L 167.234375 301.066406 L 142.632812 354.90625 C 139.382812 362.023438 142.515625 370.425781 149.632812 373.675781 C 151.539062 374.550781 153.539062 374.960938 155.507812 374.960938 C 160.882812 374.960938 166.023438 371.886719 168.402344 366.679688 L 185.644531 328.945312 L 176.796875 309.582031 C 175.269531 306.246094 174.878906 302.433594 175.695312 298.851562 L 185.742188 254.75 L 185.351562 253.03125 L 186.191406 252.789062 L 186.304688 252.289062 L 187.105469 252.519531 L 187.910156 252.289062 L 188.023438 252.789062 L 188.863281 253.03125 L 178.289062 299.445312 C 177.597656 302.476562 177.921875 305.648438 179.214844 308.476562 L 205.8125 366.679688 C 208.191406 371.890625 213.332031 374.964844 218.703125 374.964844 C 220.671875 374.964844 222.675781 374.550781 224.582031 373.679688 C 231.699219 370.425781 234.828125 362.023438 231.578125 354.910156 L 206.976562 301.066406 L 216.109375 260.984375 L 218.050781 252.453125 C 218.335938 251.210938 218.367188 249.972656 218.320312 248.757812 C 218.320312 248.691406 218.265625 248.628906 218.265625 248.5625 L 218.265625 203.039062 C 220.578125 204.960938 222.289062 205.605469 223.507812 205.816406 C 224.050781 205.910156 224.625 205.957031 225.160156 205.957031 C 228.714844 205.957031 232 203.929688 233.617188 200.578125 C 235.351562 196.984375 236.3125 181.75 234.101562 164.429688 C 231.699219 145.605469 225.570312 124.3125 212.628906 112.789062 Z M 212.628906 112.789062 " fill-opacity="1" fill-rule="nonzero"/><path fill="#fff4f5" d="M 193.957031 105.214844 C 193.957031 105.707031 193.863281 106.183594 193.671875 106.636719 C 193.484375 107.09375 193.214844 107.496094 192.867188 107.84375 C 192.515625 108.195312 192.113281 108.464844 191.660156 108.652344 C 191.203125 108.839844 190.726562 108.933594 190.234375 108.933594 C 189.742188 108.933594 189.265625 108.839844 188.8125 108.652344 C 188.355469 108.464844 187.953125 108.195312 187.601562 107.84375 C 187.253906 107.496094 186.984375 107.09375 186.796875 106.636719 C 186.609375 106.183594 186.511719 105.707031 186.511719 105.214844 C 186.511719 104.71875 186.609375 104.246094 186.796875 103.789062 C 186.984375 103.335938 187.253906 102.929688 187.605469 102.582031 C 187.953125 102.234375 188.355469 101.964844 188.8125 101.777344 C 189.265625 101.585938 189.742188 101.492188 190.234375 101.492188 C 190.726562 101.492188 191.203125 101.585938 191.660156 101.777344 C 192.113281 101.964844 192.515625 102.234375 192.867188 102.582031 C 193.214844 102.929688 193.484375 103.335938 193.671875 103.789062 C 193.863281 104.246094 193.957031 104.71875 193.957031 105.214844 Z M 193.957031 105.214844 " fill-opacity="1" fill-rule="nonzero"/><path fill="#fff4f5" d="M 188.335938 114.316406 C 188.335938 114.632812 188.277344 114.933594 188.15625 115.222656 C 188.035156 115.515625 187.863281 115.769531 187.644531 115.992188 C 187.421875 116.214844 187.164062 116.386719 186.875 116.507812 C 186.582031 116.625 186.28125 116.6875 185.964844 116.6875 C 185.652344 116.6875 185.351562 116.625 185.058594 116.507812 C 184.769531 116.386719 184.511719 116.214844 184.289062 115.992188 C 184.066406 115.769531 183.898438 115.515625 183.777344 115.222656 C 183.65625 114.933594 183.597656 114.632812 183.597656 114.316406 C 183.597656 114.003906 183.65625 113.699219 183.777344 113.410156 C 183.898438 113.117188 184.066406 112.863281 184.289062 112.640625 C 184.511719 112.417969 184.769531 112.246094 185.058594 112.125 C 185.351562 112.007812 185.652344 111.945312 185.964844 111.945312 C 186.28125 111.945312 186.582031 112.007812 186.875 112.125 C 187.164062 112.246094 187.421875 112.417969 187.644531 112.640625 C 187.863281 112.863281 188.035156 113.117188 188.15625 113.410156 C 188.277344 113.699219 188.335938 114.003906 188.335938 114.316406 Z M 188.335938 114.316406 " fill-opacity="1" fill-rule="nonzero"/><path fill="#fff4f5" d="M 139.175781 116.632812 C 139.175781 117.125 139.078125 117.601562 138.890625 118.058594 C 138.703125 118.511719 138.433594 118.914062 138.085938 119.265625 C 137.734375 119.613281 137.332031 119.882812 136.878906 120.070312 C 136.421875 120.257812 135.945312 120.355469 135.453125 120.355469 C 134.960938 120.355469 134.484375 120.257812 134.027344 120.070312 C 133.574219 119.882812 133.171875 119.613281 132.820312 119.265625 C 132.472656 118.914062 132.203125 118.511719 132.015625 118.058594 C 131.828125 117.601562 131.730469 117.125 131.730469 116.632812 C 131.730469 116.140625 131.828125 115.664062 132.015625 115.207031 C 132.203125 114.753906 132.472656 114.351562 132.820312 114 C 133.171875 113.652344 133.574219 113.382812 134.027344 113.195312 C 134.484375 113.007812 134.960938 112.910156 135.453125 112.910156 C 135.945312 112.910156 136.421875 113.007812 136.878906 113.195312 C 137.332031 113.382812 137.734375 113.652344 138.085938 114 C 138.433594 114.351562 138.703125 114.753906 138.890625 115.207031 C 139.078125 115.664062 139.175781 116.140625 139.175781 116.632812 Z M 139.175781 116.632812 " fill-opacity="1" fill-rule="nonzero"/><path fill="#fff4f5" d="M 146.832031 120.757812 C 146.832031 121.074219 146.773438 121.375 146.652344 121.664062 C 146.53125 121.957031 146.363281 122.210938 146.140625 122.433594 C 145.917969 122.65625 145.660156 122.828125 145.371094 122.949219 C 145.082031 123.070312 144.777344 123.128906 144.464844 123.128906 C 144.148438 123.128906 143.847656 123.070312 143.554688 122.949219 C 143.265625 122.828125 143.007812 122.65625 142.789062 122.433594 C 142.566406 122.210938 142.394531 121.957031 142.273438 121.664062 C 142.152344 121.375 142.09375 121.074219 142.09375 120.757812 C 142.09375 120.445312 142.152344 120.140625 142.273438 119.851562 C 142.394531 119.5625 142.566406 119.304688 142.789062 119.082031 C 143.007812 118.859375 143.265625 118.6875 143.554688 118.570312 C 143.847656 118.449219 144.148438 118.386719 144.464844 118.386719 C 144.777344 118.386719 145.082031 118.449219 145.371094 118.570312 C 145.660156 118.6875 145.917969 118.859375 146.140625 119.082031 C 146.363281 119.304688 146.53125 119.5625 146.652344 119.851562 C 146.773438 120.140625 146.832031 120.445312 146.832031 120.757812 Z M 146.832031 120.757812 " fill-opacity="1" fill-rule="nonzero"/><g clip-path="url(#d0d952e825)"><path fill="#fff4f5" d="M 132.023438 106.730469 C 142.285156 103.199219 150.421875 95.117188 154.023438 84.886719 C 152.699219 83.800781 151.4375 82.644531 150.230469 81.429688 C 146.925781 94.816406 134.839844 104.746094 120.429688 104.746094 C 103.472656 104.746094 89.726562 91 89.726562 74.042969 C 89.726562 57.085938 103.472656 43.339844 120.429688 43.339844 C 126.035156 43.339844 131.285156 44.847656 135.804688 47.46875 C 135.796875 47.101562 135.777344 46.738281 135.777344 46.371094 C 135.777344 44.574219 135.878906 42.804688 136.066406 41.058594 C 131.34375 38.746094 126.039062 37.445312 120.429688 37.445312 C 100.761719 37.449219 84.816406 53.390625 84.816406 73.058594 C 84.816406 92.730469 100.761719 108.671875 120.429688 108.671875 C 121.316406 108.671875 122.195312 108.628906 123.0625 108.566406 C 123.464844 109.628906 124.246094 110.496094 125.242188 111.023438 C 125.890625 111.371094 126.621094 111.585938 127.410156 111.585938 C 128.878906 111.585938 130.167969 110.894531 131.023438 109.835938 C 131.667969 109.035156 132.070312 108.03125 132.070312 106.925781 C 132.070312 106.855469 132.039062 106.796875 132.023438 106.730469 Z M 132.023438 106.730469 " fill-opacity="1" fill-rule="nonzero"/></g><path fill="#fff4f5" d="M 109.550781 59.597656 L 107.246094 61.902344 L 118.96875 73.621094 L 107.246094 85.34375 L 109.550781 87.648438 L 121.273438 75.925781 L 132.992188 87.648438 L 135.296875 85.34375 L 123.574219 73.621094 L 135.296875 61.902344 L 132.992188 59.597656 L 121.273438 71.320312 Z M 109.550781 59.597656 " fill-opacity="1" fill-rule="nonzero"/><path fill="#fff4f5" d="M 243.261719 116.632812 C 243.261719 117.125 243.167969 117.601562 242.980469 118.058594 C 242.789062 118.511719 242.519531 118.914062 242.171875 119.265625 C 241.824219 119.613281 241.421875 119.882812 240.964844 120.070312 C 240.507812 120.257812 240.035156 120.355469 239.539062 120.355469 C 239.046875 120.355469 238.574219 120.257812 238.117188 120.070312 C 237.660156 119.882812 237.257812 119.613281 236.910156 119.265625 C 236.5625 118.914062 236.292969 118.511719 236.101562 118.058594 C 235.914062 117.601562 235.820312 117.125 235.820312 116.632812 C 235.820312 116.140625 235.914062 115.664062 236.101562 115.207031 C 236.292969 114.753906 236.5625 114.351562 236.910156 114 C 237.257812 113.652344 237.660156 113.382812 238.117188 113.195312 C 238.574219 113.007812 239.046875 112.910156 239.539062 112.910156 C 240.035156 112.910156 240.507812 113.007812 240.964844 113.195312 C 241.421875 113.382812 241.824219 113.652344 242.171875 114 C 242.519531 114.351562 242.789062 114.753906 242.980469 115.207031 C 243.167969 115.664062 243.261719 116.140625 243.261719 116.632812 Z M 243.261719 116.632812 " fill-opacity="1" fill-rule="nonzero"/><path fill="#fff4f5" d="M 232.902344 120.757812 C 232.902344 121.074219 232.839844 121.375 232.722656 121.664062 C 232.601562 121.957031 232.429688 122.210938 232.207031 122.433594 C 231.984375 122.65625 231.726562 122.828125 231.4375 122.949219 C 231.148438 123.070312 230.84375 123.128906 230.53125 123.128906 C 230.214844 123.128906 229.914062 123.070312 229.625 122.949219 C 229.332031 122.828125 229.078125 122.65625 228.855469 122.433594 C 228.632812 122.210938 228.460938 121.957031 228.339844 121.664062 C 228.21875 121.375 228.160156 121.074219 228.160156 120.757812 C 228.160156 120.445312 228.21875 120.140625 228.339844 119.851562 C 228.460938 119.5625 228.632812 119.304688 228.855469 119.082031 C 229.078125 118.859375 229.332031 118.6875 229.625 118.570312 C 229.914062 118.449219 230.214844 118.386719 230.53125 118.386719 C 230.84375 118.386719 231.148438 118.449219 231.4375 118.570312 C 231.726562 118.6875 231.984375 118.859375 232.207031 119.082031 C 232.429688 119.304688 232.601562 119.5625 232.722656 119.851562 C 232.839844 120.140625 232.902344 120.445312 232.902344 120.757812 Z M 232.902344 120.757812 " fill-opacity="1" fill-rule="nonzero"/><g clip-path="url(#90b4614f0a)"><path fill="#fff4f5" d="M 251.929688 108.566406 C 252.800781 108.628906 253.675781 108.671875 254.5625 108.671875 C 274.230469 108.671875 290.175781 92.726562 290.175781 73.058594 C 290.175781 53.390625 274.230469 37.445312 254.5625 37.445312 C 247.480469 37.445312 240.886719 39.523438 235.339844 43.089844 C 235.410156 44.175781 235.460938 45.265625 235.460938 46.371094 C 235.460938 47.640625 235.394531 48.894531 235.300781 50.140625 C 240.570312 45.886719 247.265625 43.339844 254.5625 43.339844 C 271.523438 43.339844 285.269531 57.085938 285.269531 74.042969 C 285.269531 91 271.523438 104.746094 254.5625 104.746094 C 238.941406 104.746094 226.054688 93.078125 224.121094 77.984375 C 222.886719 79.484375 221.554688 80.90625 220.15625 82.253906 C 223.210938 93.71875 231.84375 102.902344 242.96875 106.730469 C 242.957031 106.796875 242.925781 106.855469 242.925781 106.925781 C 242.925781 108.03125 243.328125 109.035156 243.972656 109.835938 C 244.828125 110.894531 246.117188 111.585938 247.582031 111.585938 C 248.371094 111.585938 249.101562 111.371094 249.753906 111.023438 C 250.75 110.496094 251.527344 109.628906 251.929688 108.566406 Z M 251.929688 108.566406 " fill-opacity="1" fill-rule="nonzero"/></g><path fill="#fff4f5" d="M 242 87.648438 L 253.722656 75.925781 L 265.445312 87.648438 L 267.746094 85.34375 L 256.023438 73.621094 L 267.746094 61.902344 L 265.445312 59.597656 L 253.722656 71.320312 L 242 59.597656 L 239.699219 61.902344 L 251.421875 73.621094 L 239.699219 85.34375 Z M 242 87.648438 " fill-opacity="1" fill-rule="nonzero"/><path fill="#fff4f5" d="M 231.988281 46.371094 C 231.988281 20.761719 211.226562 0 185.617188 0 C 160.007812 0 139.246094 20.761719 139.246094 46.371094 C 139.246094 69.800781 156.625 89.15625 179.191406 92.289062 C 179.21875 93.683594 179.730469 94.945312 180.546875 95.957031 C 181.660156 97.328125 183.339844 98.226562 185.242188 98.226562 C 187.121094 98.226562 188.777344 97.355469 189.890625 96.015625 C 190.71875 95.023438 191.234375 93.769531 191.285156 92.386719 C 214.222656 89.585938 231.988281 70.058594 231.988281 46.371094 Z M 145.640625 47.648438 C 145.640625 25.570312 163.539062 7.671875 185.617188 7.671875 C 207.699219 7.671875 225.597656 25.570312 225.597656 47.648438 C 225.597656 69.730469 207.699219 87.628906 185.617188 87.628906 C 163.539062 87.628906 145.640625 69.730469 145.640625 47.648438 Z M 145.640625 47.648438 " fill-opacity="1" fill-rule="nonzero"/><path fill="#fff4f5" d="M 201.519531 65.171875 L 204.519531 62.175781 L 189.253906 46.910156 L 204.519531 31.648438 L 201.519531 28.652344 L 186.253906 43.914062 L 170.992188 28.652344 L 167.996094 31.648438 L 183.257812 46.910156 L 167.996094 62.175781 L 170.992188 65.171875 L 186.253906 49.910156 Z M 201.519531 65.171875 " fill-opacity="1" fill-rule="nonzero"/></svg>