<svg xmlns="http://www.w3.org/2000/svg" xmlns:xlink="http://www.w3.org/1999/xlink" width="500" zoomAndPan="magnify" viewBox="0 0 375 374.999991" height="500" preserveAspectRatio="xMidYMid meet" version="1.0"><defs><clipPath id="98c2f99bf1"><path d="M 121 56 L 254.4375 56 L 254.4375 218 L 121 218 Z M 121 56 " clip-rule="nonzero"/></clipPath></defs><path fill="#fff4f5" d="M 176.644531 215.050781 C 163.050781 199.007812 151.988281 184.292969 143.195312 170.5625 L 143.195312 353.867188 C 143.195312 365.527344 152.671875 374.972656 164.355469 374.972656 C 176.042969 374.972656 185.523438 365.527344 185.523438 353.867188 L 185.523438 220.558594 C 182.09375 219.691406 178.976562 217.800781 176.644531 215.050781 Z M 176.644531 215.050781 " fill-opacity="1" fill-rule="nonzero"/><path fill="#fff4f5" d="M 200.769531 217.0625 C 198.652344 218.851562 196.132812 220.074219 193.457031 220.671875 L 193.457031 353.867188 C 193.457031 365.527344 202.933594 374.972656 214.617188 374.972656 C 226.304688 374.972656 235.785156 365.527344 235.785156 353.867188 L 235.785156 158.128906 C 227.683594 169.894531 217.332031 182.230469 204.496094 195.449219 C 208.597656 202.472656 207.199219 211.640625 200.769531 217.0625 Z M 200.769531 217.0625 " fill-opacity="1" fill-rule="nonzero"/><g clip-path="url(#98c2f99bf1)"><path fill="#fff4f5" d="M 179.261719 212.84375 C 181.96875 216.039062 185.832031 217.683594 189.722656 217.6875 C 192.847656 217.6875 195.988281 216.625 198.558594 214.453125 C 204.332031 209.585938 205.054688 200.972656 200.175781 195.214844 C 179.359375 170.671875 166.265625 150.960938 158.558594 135.59375 C 150.828125 120.21875 148.558594 109.316406 148.574219 102.230469 L 152 102.230469 C 151.980469 107.992188 153.640625 118.191406 161.617188 134.066406 C 166.808594 144.414062 174.027344 155.871094 183.164062 168.296875 C 197.457031 153.222656 208.109375 139.378906 214.867188 127.082031 C 221.804688 114.46875 223.257812 105.972656 223.257812 101.058594 L 226.585938 98.96875 C 226.636719 99.632812 226.671875 100.324219 226.679688 101.058594 C 226.683594 107.140625 224.785156 116.15625 217.871094 128.722656 C 211.640625 140.0625 201.308594 154.171875 185.234375 171.078125 C 190.40625 177.980469 196.148438 185.167969 202.464844 192.628906 C 221.191406 173.292969 233.753906 156.605469 241.878906 141.867188 C 250.40625 126.378906 254.0625 112.867188 254.066406 101.058594 C 254.109375 94.523438 252.917969 88.671875 251.039062 83.59375 C 248.550781 76.859375 244.84375 71.484375 241.148438 67.703125 C 238.328125 64.765625 235.574219 62.605469 233.269531 61.0625 C 225.792969 72.578125 212.804688 80.222656 198.050781 80.222656 C 181.488281 80.222656 167.140625 70.597656 160.332031 56.667969 L 156.425781 56.667969 C 154.246094 56.667969 152.191406 57.199219 150.378906 58.132812 C 147.207031 59.28125 142.273438 61.539062 137.0625 65.875 C 133.082031 69.21875 129.003906 73.894531 126.011719 80.039062 C 123 86.171875 121.175781 93.695312 121.191406 102.21875 C 121.191406 102.21875 121.191406 102.222656 121.191406 102.222656 C 121.210938 114.964844 125.046875 129.828125 134.074219 147.820312 C 143.125 165.832031 157.453125 187.113281 179.261719 212.84375 Z M 179.261719 212.84375 " fill-opacity="1" fill-rule="nonzero"/></g><path fill="#fff4f5" d="M 236.5625 38.40625 C 236.5625 39.664062 236.5 40.917969 236.378906 42.167969 C 236.253906 43.421875 236.070312 44.664062 235.824219 45.898438 C 235.578125 47.128906 235.269531 48.347656 234.90625 49.554688 C 234.539062 50.757812 234.113281 51.9375 233.632812 53.101562 C 233.148438 54.261719 232.609375 55.398438 232.015625 56.507812 C 231.421875 57.617188 230.773438 58.695312 230.070312 59.742188 C 229.371094 60.785156 228.621094 61.796875 227.820312 62.769531 C 227.019531 63.742188 226.175781 64.671875 225.28125 65.5625 C 224.390625 66.449219 223.457031 67.292969 222.480469 68.09375 C 221.507812 68.890625 220.496094 69.636719 219.445312 70.335938 C 218.398438 71.035156 217.316406 71.679688 216.203125 72.273438 C 215.09375 72.867188 213.953125 73.40625 212.789062 73.886719 C 211.621094 74.367188 210.4375 74.789062 209.230469 75.15625 C 208.023438 75.519531 206.800781 75.824219 205.5625 76.070312 C 204.328125 76.316406 203.082031 76.5 201.824219 76.625 C 200.570312 76.746094 199.3125 76.808594 198.050781 76.808594 C 196.789062 76.808594 195.53125 76.746094 194.273438 76.625 C 193.019531 76.5 191.773438 76.316406 190.535156 76.070312 C 189.300781 75.824219 188.078125 75.519531 186.871094 75.15625 C 185.664062 74.789062 184.476562 74.367188 183.3125 73.886719 C 182.144531 73.40625 181.007812 72.867188 179.894531 72.273438 C 178.78125 71.679688 177.703125 71.035156 176.652344 70.335938 C 175.605469 69.636719 174.59375 68.890625 173.617188 68.09375 C 172.644531 67.292969 171.710938 66.449219 170.816406 65.5625 C 169.925781 64.671875 169.078125 63.742188 168.277344 62.769531 C 167.480469 61.796875 166.730469 60.785156 166.027344 59.742188 C 165.328125 58.695312 164.679688 57.617188 164.085938 56.507812 C 163.488281 55.398438 162.953125 54.261719 162.46875 53.101562 C 161.984375 51.9375 161.5625 50.757812 161.195312 49.554688 C 160.828125 48.347656 160.523438 47.128906 160.277344 45.898438 C 160.03125 44.664062 159.847656 43.421875 159.722656 42.167969 C 159.597656 40.917969 159.539062 39.664062 159.539062 38.40625 C 159.539062 37.148438 159.597656 35.890625 159.722656 34.640625 C 159.847656 33.386719 160.03125 32.144531 160.277344 30.914062 C 160.523438 29.679688 160.828125 28.460938 161.195312 27.257812 C 161.5625 26.050781 161.984375 24.871094 162.46875 23.707031 C 162.953125 22.546875 163.488281 21.410156 164.085938 20.300781 C 164.679688 19.191406 165.328125 18.113281 166.027344 17.066406 C 166.730469 16.023438 167.480469 15.011719 168.277344 14.039062 C 169.078125 13.070312 169.925781 12.136719 170.816406 11.25 C 171.710938 10.359375 172.644531 9.515625 173.617188 8.71875 C 174.59375 7.917969 175.605469 7.171875 176.652344 6.472656 C 177.703125 5.773438 178.78125 5.128906 179.894531 4.535156 C 181.007812 3.941406 182.144531 3.40625 183.3125 2.921875 C 184.476562 2.441406 185.664062 2.019531 186.871094 1.652344 C 188.078125 1.289062 189.300781 0.984375 190.535156 0.738281 C 191.773438 0.492188 193.019531 0.308594 194.273438 0.183594 C 195.53125 0.0625 196.789062 0 198.050781 0 C 199.3125 0 200.570312 0.0625 201.824219 0.183594 C 203.082031 0.308594 204.328125 0.492188 205.5625 0.738281 C 206.800781 0.984375 208.023438 1.289062 209.230469 1.652344 C 210.4375 2.019531 211.621094 2.441406 212.789062 2.921875 C 213.953125 3.40625 215.09375 3.941406 216.203125 4.535156 C 217.316406 5.128906 218.398438 5.773438 219.445312 6.472656 C 220.496094 7.171875 221.507812 7.917969 222.480469 8.71875 C 223.457031 9.515625 224.390625 10.359375 225.28125 11.25 C 226.175781 12.136719 227.019531 13.070312 227.820312 14.039062 C 228.621094 15.011719 229.371094 16.023438 230.070312 17.066406 C 230.773438 18.113281 231.421875 19.191406 232.015625 20.300781 C 232.609375 21.410156 233.148438 22.546875 233.632812 23.707031 C 234.113281 24.871094 234.539062 26.050781 234.90625 27.257812 C 235.269531 28.460938 235.578125 29.679688 235.824219 30.914062 C 236.070312 32.144531 236.253906 33.386719 236.378906 34.640625 C 236.5 35.890625 236.5625 37.148438 236.5625 38.40625 Z M 236.5625 38.40625 " fill-opacity="1" fill-rule="nonzero"/></svg>