<svg xmlns="http://www.w3.org/2000/svg" xmlns:xlink="http://www.w3.org/1999/xlink" width="500" zoomAndPan="magnify" viewBox="0 0 375 374.999991" height="500" preserveAspectRatio="xMidYMid meet" version="1.0"><path fill="#fff4f5" d="M 110.28125 63.066406 C 107.96875 58.105469 102.109375 55.929688 97.109375 58.25 C 92.144531 60.554688 89.976562 66.453125 92.289062 71.421875 L 119.03125 129.015625 C 120.160156 131.429688 122.203125 133.296875 124.722656 134.183594 L 174.351562 151.757812 C 174.332031 152.835938 174.117188 153.878906 174.332031 154.976562 C 174.453125 155.605469 185.59375 213.863281 175.242188 269.769531 L 119.203125 256.988281 C 110.8125 255.054688 102.53125 260.3125 100.644531 268.652344 C 98.742188 276.996094 103.960938 285.304688 112.300781 287.207031 L 183.535156 303.445312 C 184.695312 303.714844 185.859375 303.839844 186.996094 303.839844 C 193.898438 303.835938 200.15625 299.203125 201.972656 292.253906 C 207.59375 270.757812 209.910156 248.578125 210.488281 228.246094 C 213.285156 228.335938 216.132812 228.375 218.964844 228.378906 C 220.425781 266.671875 215.886719 312.050781 194.949219 352.132812 C 190.992188 359.714844 193.933594 369.082031 201.511719 373.039062 C 203.8125 374.238281 206.257812 374.808594 208.679688 374.808594 C 214.257812 374.808594 219.660156 371.773438 222.429688 366.476562 C 272.03125 271.515625 241.859375 156.207031 235.949219 135.964844 L 271.460938 105.933594 C 273.289062 104.390625 274.5 102.230469 274.863281 99.863281 L 284.136719 39.265625 C 284.960938 33.847656 281.242188 28.789062 275.832031 27.960938 C 270.421875 27.222656 265.359375 30.851562 264.523438 36.265625 L 255.820312 93.1875 L 221.488281 122.214844 C 221.429688 122.121094 221.382812 122.027344 221.320312 121.929688 C 217.347656 128.710938 210.796875 133.984375 202.609375 136.128906 C 200.050781 136.800781 197.421875 137.140625 194.800781 137.140625 C 188.652344 137.140625 182.898438 135.226562 178.015625 132.023438 L 135.265625 116.878906 Z M 110.28125 63.066406 " fill-opacity="1" fill-rule="nonzero"/><path fill="#fff4f5" d="M 201.886719 133.371094 C 216.785156 129.464844 225.703125 114.222656 221.800781 99.320312 C 217.894531 84.417969 202.648438 75.503906 187.746094 79.40625 C 172.84375 83.3125 163.929688 98.554688 167.835938 113.457031 C 171.738281 128.363281 186.984375 137.273438 201.886719 133.371094 Z M 214.136719 108.855469 C 213.035156 114.730469 209.03125 119.929688 203.054688 122.234375 C 197.082031 124.535156 190.625 123.375 185.863281 119.761719 Z M 214.136719 108.855469 " fill-opacity="1" fill-rule="nonzero"/><path fill="#fff4f5" d="M 199.34375 70.097656 L 195.808594 1.324219 L 189.15625 0.1875 L 196.214844 69.703125 Z M 199.34375 70.097656 " fill-opacity="1" fill-rule="nonzero"/><path fill="#fff4f5" d="M 238.433594 10.222656 L 208.511719 73.371094 L 210.980469 75.324219 L 243.535156 14.640625 Z M 238.433594 10.222656 " fill-opacity="1" fill-rule="nonzero"/><path fill="#fff4f5" d="M 182.996094 72.292969 L 148.765625 12.539062 L 142.316406 14.527344 L 180.03125 73.351562 Z M 182.996094 72.292969 " fill-opacity="1" fill-rule="nonzero"/></svg>