<svg xmlns="http://www.w3.org/2000/svg" xmlns:xlink="http://www.w3.org/1999/xlink" width="500" zoomAndPan="magnify" viewBox="0 0 375 374.999991" height="500" preserveAspectRatio="xMidYMid meet" version="1.0"><defs><clipPath id="3f149a34cc"><path d="M 92.34375 8 L 282 8 L 282 375 L 92.34375 375 Z M 92.34375 8 " clip-rule="nonzero"/></clipPath></defs><g clip-path="url(#3f149a34cc)"><path fill="#fff4f5" d="M 252.351562 224.527344 C 249.15625 220.9375 247.546875 216.324219 247.832031 211.527344 C 251.097656 155.734375 247.992188 123.007812 243.929688 104.101562 L 247.898438 103.445312 C 252.078125 123.011719 255.097656 156.15625 251.84375 211.765625 C 251.390625 219.464844 257.273438 226.074219 264.984375 226.523438 C 265.261719 226.539062 265.539062 226.546875 265.816406 226.546875 C 273.164062 226.546875 279.324219 220.820312 279.761719 213.394531 C 282.910156 159.589844 280.433594 123.316406 275.390625 98.894531 C 268.90625 67.503906 258.183594 55.710938 249.710938 51.503906 C 244.441406 69.480469 227.792969 82.652344 208.117188 82.652344 C 188.46875 82.652344 171.84375 69.523438 166.546875 51.585938 L 144.292969 67.46875 L 141.925781 64.222656 L 184.796875 33.628906 C 191.082031 29.144531 192.535156 20.421875 188.046875 14.144531 C 183.554688 7.867188 174.828125 6.410156 168.542969 10.898438 L 125.445312 41.648438 L 98.195312 61.09375 C 98.183594 61.101562 98.175781 61.109375 98.164062 61.117188 C 97.863281 61.335938 97.578125 61.566406 97.296875 61.804688 C 97.21875 61.871094 97.132812 61.933594 97.058594 62 C 96.898438 62.140625 96.757812 62.292969 96.605469 62.441406 C 95.507812 63.5 94.609375 64.707031 93.933594 66.011719 C 93.886719 66.101562 93.832031 66.183594 93.789062 66.277344 C 93.667969 66.515625 93.570312 66.761719 93.464844 67.007812 C 93.390625 67.183594 93.308594 67.355469 93.238281 67.539062 C 93.175781 67.707031 93.125 67.882812 93.070312 68.054688 C 92.984375 68.316406 92.890625 68.574219 92.820312 68.84375 C 92.792969 68.9375 92.777344 69.039062 92.753906 69.136719 C 92.546875 69.984375 92.414062 70.859375 92.367188 71.75 C 92.347656 72.125 92.335938 72.5 92.347656 72.875 C 92.347656 72.929688 92.359375 72.984375 92.359375 73.035156 C 92.378906 73.453125 92.410156 73.871094 92.460938 74.285156 C 92.464844 74.292969 92.464844 74.300781 92.464844 74.3125 C 92.476562 74.417969 92.503906 74.523438 92.523438 74.628906 C 92.574219 74.953125 92.625 75.273438 92.695312 75.59375 C 92.730469 75.746094 92.777344 75.886719 92.816406 76.03125 C 92.902344 76.359375 92.992188 76.683594 93.105469 77.003906 C 93.230469 77.375 93.367188 77.738281 93.523438 78.089844 C 93.558594 78.175781 93.605469 78.253906 93.644531 78.335938 C 93.796875 78.667969 93.957031 78.992188 94.136719 79.304688 C 94.1875 79.402344 94.253906 79.496094 94.308594 79.589844 C 94.484375 79.886719 94.667969 80.175781 94.863281 80.457031 C 94.890625 80.496094 94.914062 80.539062 94.945312 80.582031 C 94.984375 80.640625 95.035156 80.6875 95.074219 80.742188 C 95.328125 81.085938 95.597656 81.417969 95.882812 81.734375 C 95.964844 81.828125 96.046875 81.925781 96.132812 82.019531 C 96.46875 82.375 96.820312 82.71875 97.195312 83.039062 C 97.304688 83.132812 97.421875 83.21875 97.53125 83.308594 C 97.804688 83.53125 98.085938 83.742188 98.375 83.941406 C 98.53125 84.050781 98.6875 84.152344 98.847656 84.253906 C 99.140625 84.441406 99.441406 84.609375 99.746094 84.773438 C 99.871094 84.84375 99.996094 84.917969 100.125 84.980469 C 100.5625 85.195312 101.015625 85.390625 101.472656 85.5625 C 101.554688 85.589844 101.636719 85.613281 101.71875 85.640625 C 102.117188 85.777344 102.519531 85.898438 102.929688 86.003906 C 103.050781 86.03125 103.171875 86.058594 103.292969 86.085938 C 103.683594 86.171875 104.082031 86.242188 104.484375 86.296875 C 104.589844 86.308594 104.699219 86.328125 104.808594 86.339844 C 105.300781 86.394531 105.800781 86.429688 106.304688 86.429688 C 106.3125 86.429688 106.316406 86.429688 106.320312 86.429688 C 106.328125 86.429688 106.332031 86.429688 106.335938 86.429688 C 106.398438 86.429688 106.460938 86.414062 106.523438 86.414062 C 107.070312 86.40625 107.617188 86.378906 108.175781 86.304688 L 108.433594 86.269531 C 108.441406 86.269531 108.445312 86.269531 108.449219 86.269531 L 160.847656 79.28125 L 160.847656 353.316406 C 160.847656 365.238281 170.527344 374.898438 182.457031 374.898438 C 194.390625 374.898438 204.066406 365.238281 204.066406 353.316406 L 204.066406 195.703125 L 212.167969 195.703125 L 212.167969 353.316406 C 212.167969 365.238281 221.84375 374.898438 233.773438 374.898438 C 245.707031 374.898438 255.382812 365.238281 255.382812 353.316406 L 255.382812 227.226562 C 254.289062 226.449219 253.265625 225.558594 252.351562 224.527344 Z M 252.351562 224.527344 " fill-opacity="1" fill-rule="nonzero"/></g><path fill="#fff4f5" d="M 191.316406 11.808594 C 197.085938 19.878906 195.210938 31.132812 187.132812 36.894531 L 170.015625 49.113281 C 174.359375 66.085938 189.769531 78.636719 208.117188 78.636719 C 229.835938 78.636719 247.4375 61.050781 247.4375 39.351562 C 247.4375 17.65625 229.835938 0.0703125 208.117188 0.0703125 C 199.894531 0.0703125 192.265625 2.589844 185.957031 6.902344 C 188.03125 8.152344 189.871094 9.792969 191.316406 11.808594 Z M 221.972656 64.210938 C 203.359375 49.988281 184.140625 54.164062 183.953125 54.207031 L 182.785156 49.101562 C 183.667969 48.898438 204.609375 44.355469 225.15625 60.050781 Z M 221.972656 64.210938 " fill-opacity="1" fill-rule="nonzero"/></svg>