<svg xmlns="http://www.w3.org/2000/svg" xmlns:xlink="http://www.w3.org/1999/xlink" width="500" zoomAndPan="magnify" viewBox="0 0 375 374.999991" height="500" preserveAspectRatio="xMidYMid meet" version="1.0"><defs><clipPath id="cda02b45ae"><path d="M 92.109375 37 L 282.609375 37 L 282.609375 374 L 92.109375 374 Z M 92.109375 37 " clip-rule="nonzero"/></clipPath></defs><path fill="#fff4f5" d="M 186.476562 46.382812 C 169.335938 46.382812 155.441406 60.300781 155.441406 77.46875 C 155.441406 94.636719 169.335938 108.550781 186.476562 108.550781 C 203.621094 108.550781 217.515625 94.636719 217.515625 77.46875 C 217.515625 60.300781 203.621094 46.382812 186.476562 46.382812 Z M 202.230469 90.699219 C 188.886719 80.5 172.828125 91.214844 172.152344 91.675781 L 169.820312 88.253906 C 170.007812 88.121094 189 75.375 204.742188 87.402344 Z M 202.230469 90.699219 " fill-opacity="1" fill-rule="nonzero"/><path fill="#fff4f5" d="M 105.761719 21.703125 C 105.476562 22.472656 105.210938 23.421875 105.0625 24.464844 C 104.933594 24.503906 104.804688 24.539062 104.675781 24.589844 C 102.847656 25.289062 101.394531 26.847656 100.6875 28.859375 C 99.980469 30.871094 100.140625 33 101.128906 34.691406 C 102.460938 36.980469 104.882812 38.21875 107.300781 39.21875 C 107.714844 39.390625 108.152344 39.5625 108.605469 39.734375 C 109.152344 42.703125 109.945312 45.714844 111.429688 48.464844 C 113.164062 51.683594 115.695312 54.097656 118.558594 55.378906 C 118.710938 55.832031 118.90625 56.273438 119.195312 56.691406 C 120.210938 58.132812 121.789062 58.851562 123.347656 59.414062 C 124.871094 59.964844 126.890625 60.597656 128.996094 60.617188 C 129.03125 60.617188 129.0625 60.617188 129.097656 60.617188 C 132.941406 60.617188 136.699219 58.496094 138.6875 55.195312 C 139.5 53.839844 140 52.371094 140.480469 50.953125 C 140.996094 49.421875 141.488281 47.96875 142.324219 46.804688 C 143.570312 47.066406 144.765625 47.425781 145.910156 47.886719 C 146.222656 48.015625 146.535156 48.148438 146.851562 48.285156 C 147.027344 48.359375 147.210938 48.4375 147.390625 48.511719 C 147.019531 49.339844 146.554688 50.097656 145.992188 50.753906 C 145.496094 51.332031 145.566406 52.203125 146.144531 52.699219 C 146.722656 53.195312 147.589844 53.132812 148.089844 52.550781 C 148.886719 51.617188 149.519531 50.539062 150.019531 49.378906 C 150.1875 49.414062 150.347656 49.457031 150.519531 49.480469 C 153.910156 49.964844 157.648438 48.105469 159.816406 44.839844 C 161.457031 42.363281 162.3125 39.1875 162.429688 35.132812 C 162.511719 32.402344 162.253906 30.074219 161.644531 28.019531 C 161.101562 26.195312 160.265625 24.515625 159.457031 22.894531 C 159.050781 22.078125 158.640625 21.261719 158.273438 20.429688 C 157.261719 18.136719 156.582031 15.738281 156.101562 13.90625 C 155.460938 11.472656 154.394531 7.402344 150.890625 6.269531 C 150.03125 5.996094 149.171875 5.960938 148.328125 6.023438 C 147.199219 4.816406 145.851562 3.773438 144.316406 2.992188 C 140.574219 1.089844 135.851562 0.632812 131.027344 1.710938 C 127.734375 2.441406 124.648438 3.804688 122.003906 5.203125 C 120.421875 4.59375 118.808594 4.347656 117.25 4.503906 C 113.671875 4.855469 110.691406 7.457031 110.164062 10.683594 C 109.988281 11.777344 110.082031 12.917969 110.441406 14.074219 C 110.011719 14.625 109.601562 15.179688 109.207031 15.722656 C 107.902344 17.523438 106.582031 19.492188 105.761719 21.703125 Z M 150.785156 39.203125 C 150.023438 35.597656 148.441406 32.324219 146.789062 29.167969 C 148.097656 28.710938 149.378906 28.183594 150.617188 27.578125 L 150.773438 27.5 C 151.222656 27.277344 151.671875 27.054688 152.113281 26.871094 L 152.953125 28.554688 C 154.171875 31.003906 155.210938 33.378906 154.554688 35.484375 C 154.105469 36.929688 152.859375 38.15625 150.785156 39.203125 Z M 149.558594 25.019531 L 149.398438 25.097656 C 148.136719 25.71875 146.820312 26.25 145.476562 26.699219 L 142.972656 21.988281 C 142.339844 20.796875 141.359375 18.980469 139.742188 17.886719 C 140.15625 17.929688 140.570312 17.980469 140.992188 18.019531 C 143.949219 18.300781 146.742188 18.570312 148.496094 20.363281 C 149.273438 21.15625 149.816406 22.253906 150.347656 23.316406 L 150.882812 24.394531 C 150.417969 24.59375 149.976562 24.8125 149.558594 25.019531 Z M 136.625 32.601562 C 136.75 35.1875 136.304688 37.054688 135.265625 38.308594 C 134.539062 39.179688 133.449219 39.839844 131.898438 40.332031 C 131.253906 38.039062 130.257812 35.839844 128.96875 33.835938 C 129.835938 32.96875 130.75 32.242188 131.820312 31.808594 C 133.128906 31.28125 134.632812 31.214844 136.222656 31.144531 C 136.3125 31.140625 136.402344 31.136719 136.496094 31.132812 C 136.550781 31.621094 136.601562 32.109375 136.625 32.601562 Z M 121.261719 53.417969 C 121.183594 53.398438 121.109375 53.367188 121.03125 53.34375 C 121.09375 52.460938 121.472656 51.550781 122.023438 50.898438 C 123.222656 49.46875 125.117188 48.683594 126.8125 48.101562 C 127.859375 47.742188 128.90625 47.449219 129.949219 47.199219 C 129.871094 48.363281 129.644531 49.351562 129.238281 50.160156 C 127.957031 52.746094 124.457031 54.175781 121.261719 53.417969 Z M 115.78125 35.988281 C 114.457031 33.183594 114.257812 31.195312 115.1875 30.078125 C 115.492188 29.714844 115.960938 29.402344 116.542969 29.183594 C 117.117188 28.964844 117.726562 28.855469 118.335938 28.855469 C 118.8125 28.855469 119.289062 28.921875 119.75 29.058594 C 120.695312 29.335938 121.667969 29.921875 122.8125 30.898438 C 123.765625 31.714844 124.628906 32.632812 125.414062 33.617188 C 125.316406 33.726562 125.21875 33.839844 125.121094 33.953125 C 123.890625 35.363281 122.726562 36.695312 121.289062 37.546875 C 120.125 38.238281 118.792969 38.613281 117.273438 38.6875 C 116.691406 37.851562 116.210938 36.894531 115.78125 35.988281 Z M 122.695312 39.925781 C 124.4375 38.890625 125.761719 37.410156 127.035156 35.957031 C 127.964844 37.523438 128.707031 39.207031 129.210938 40.957031 C 126.980469 41.339844 124.707031 41.460938 122.449219 41.304688 C 121.75 41.257812 120.980469 41.167969 120.265625 40.96875 C 121.09375 40.722656 121.910156 40.390625 122.695312 39.925781 Z M 137.636719 24.363281 C 137.023438 22.808594 136.265625 21.339844 135.429688 19.921875 C 136.171875 19.707031 136.871094 19.628906 137.519531 19.828125 C 138.824219 20.230469 139.726562 21.753906 140.539062 23.285156 L 142.769531 27.480469 C 141.460938 27.796875 140.132812 28.039062 138.800781 28.191406 C 138.511719 26.886719 138.128906 25.609375 137.636719 24.363281 Z M 129.261719 15.671875 C 129.953125 16.648438 130.65625 17.628906 131.332031 18.632812 C 128.589844 19.828125 125.542969 20.40625 122.566406 20.300781 C 120.867188 20.242188 119.511719 19.957031 118.429688 19.4375 C 117.597656 19.035156 116.796875 18.433594 115.953125 17.585938 C 116.1875 17.242188 116.429688 16.914062 116.6875 16.609375 C 118.355469 14.664062 120.882812 13.519531 123.433594 13.519531 C 123.691406 13.519531 123.949219 13.53125 124.207031 13.554688 C 125.6875 13.691406 127.128906 14.199219 128.617188 14.78125 C 128.832031 15.082031 129.050781 15.378906 129.261719 15.671875 Z M 114.441406 20.101562 C 114.460938 20.070312 114.480469 20.039062 114.496094 20.003906 C 115.394531 20.832031 116.289062 21.46875 117.230469 21.925781 C 118.664062 22.617188 120.378906 22.988281 122.472656 23.0625 C 125.84375 23.179688 129.332031 22.523438 132.457031 21.15625 L 132.84375 20.980469 C 133.703125 22.398438 134.46875 23.855469 135.070312 25.378906 C 135.457031 26.359375 135.761719 27.367188 136.007812 28.390625 C 134.28125 28.464844 132.503906 28.554688 130.785156 29.246094 C 129.433594 29.792969 128.320312 30.636719 127.320312 31.585938 C 126.492188 30.582031 125.589844 29.640625 124.605469 28.796875 C 123.691406 28.015625 122.277344 26.917969 120.527344 26.40625 C 118.90625 25.929688 117.140625 26 115.5625 26.597656 C 114.523438 26.996094 113.683594 27.570312 113.070312 28.308594 C 110.539062 31.351562 112.605469 35.730469 113.285156 37.167969 C 113.476562 37.574219 113.683594 37.988281 113.902344 38.402344 C 113.007812 38.230469 112.050781 37.972656 111.042969 37.648438 C 111.007812 37.40625 110.964844 37.164062 110.929688 36.925781 L 110.878906 36.589844 C 110.652344 35.089844 110.421875 33.542969 109.828125 32.039062 C 109.5625 31.382812 109.246094 30.769531 108.941406 30.179688 C 108.582031 29.488281 108.246094 28.835938 108.027344 28.167969 C 107.867188 27.683594 107.789062 27.15625 107.75 26.613281 C 108.066406 26.53125 108.386719 26.433594 108.714844 26.308594 C 111.597656 25.191406 113.042969 22.605469 114.441406 20.101562 Z M 133.183594 16.472656 C 133.9375 16.714844 134.671875 16.921875 135.390625 17.105469 C 134.886719 17.210938 134.394531 17.34375 133.910156 17.519531 C 133.671875 17.164062 133.425781 16.824219 133.183594 16.472656 Z M 103.511719 33.300781 C 102.941406 32.324219 102.859375 31.003906 103.289062 29.777344 C 103.636719 28.792969 104.277344 27.988281 105.058594 27.492188 C 105.132812 28 105.234375 28.511719 105.40625 29.03125 C 105.691406 29.910156 106.097656 30.695312 106.496094 31.453125 C 106.78125 32.007812 107.050781 32.53125 107.261719 33.058594 C 107.6875 34.136719 107.890625 35.3125 108.082031 36.550781 C 106.320312 35.808594 104.429688 34.875 103.511719 33.300781 Z M 113.855469 47.152344 C 112.78125 45.160156 112.105469 42.957031 111.613281 40.722656 C 113.011719 41.101562 114.480469 41.375 115.964844 41.445312 C 116.566406 42.085938 117.25 42.65625 118.074219 43.078125 C 119.453125 43.785156 120.964844 43.972656 122.261719 44.0625 C 124.78125 44.234375 127.304688 44.097656 129.789062 43.660156 C 129.820312 43.894531 129.828125 44.132812 129.855469 44.367188 C 128.546875 44.664062 127.230469 45.035156 125.917969 45.488281 C 123.863281 46.191406 121.542969 47.175781 119.910156 49.121094 C 119.203125 49.960938 118.679688 51.042969 118.425781 52.191406 C 116.628906 51.066406 115.035156 49.335938 113.855469 47.152344 Z M 137.867188 50.066406 C 137.414062 51.40625 136.984375 52.671875 136.324219 53.769531 C 134.824219 56.257812 131.996094 57.855469 129.097656 57.855469 C 129.074219 57.855469 129.046875 57.851562 129.023438 57.851562 C 127.34375 57.835938 125.683594 57.320312 124.28125 56.8125 C 123.914062 56.679688 123.554688 56.53125 123.207031 56.375 C 126.804688 56.3125 130.207031 54.417969 131.710938 51.390625 C 132.363281 50.074219 132.683594 48.503906 132.722656 46.652344 C 134.230469 46.421875 135.722656 46.285156 137.175781 46.285156 C 137.910156 46.285156 138.636719 46.3125 139.351562 46.371094 C 138.714844 47.558594 138.285156 48.824219 137.867188 50.066406 Z M 141.292969 43.816406 C 138.519531 43.410156 135.574219 43.441406 132.566406 43.875 C 132.535156 43.597656 132.527344 43.320312 132.484375 43.042969 C 134.160156 42.542969 136.046875 41.6875 137.386719 40.074219 C 138.886719 38.265625 139.539062 35.777344 139.382812 32.46875 C 139.355469 31.949219 139.300781 31.433594 139.242188 30.914062 C 140.878906 30.726562 142.507812 30.421875 144.105469 30 C 145.816406 33.238281 147.488281 36.585938 148.167969 40.144531 C 148.179688 40.191406 148.183594 40.238281 148.191406 40.289062 C 148.039062 40.34375 147.886719 40.398438 147.734375 40.453125 C 145.460938 41.273438 143.117188 42.117188 141.292969 43.816406 Z M 147.9375 45.746094 C 147.605469 45.601562 147.273438 45.460938 146.941406 45.324219 C 146.28125 45.058594 145.605469 44.820312 144.914062 44.613281 C 145.984375 44.03125 147.203125 43.582031 148.464844 43.128906 C 148.46875 44.074219 148.378906 44.988281 148.214844 45.863281 C 148.121094 45.820312 148.03125 45.785156 147.9375 45.746094 Z M 159.421875 33.171875 C 159.503906 33.160156 159.585938 33.136719 159.664062 33.105469 C 159.691406 33.726562 159.691406 34.375 159.671875 35.050781 C 159.570312 38.578125 158.867188 41.277344 157.515625 43.3125 C 156.195312 45.304688 153.648438 47.140625 150.914062 46.746094 C 150.898438 46.742188 150.886719 46.738281 150.875 46.738281 C 151.1875 45.269531 151.28125 43.699219 151.175781 42.074219 C 154.464844 40.605469 156.441406 38.710938 157.191406 36.308594 C 158.152344 33.222656 156.84375 30.179688 155.425781 27.324219 L 155.199219 26.871094 C 155.488281 27.113281 155.789062 27.453125 156.097656 27.898438 C 156.953125 29.136719 157.550781 30.578125 157.816406 32.0625 C 157.953125 32.8125 158.664062 33.3125 159.421875 33.171875 Z M 131.625 4.40625 C 135.832031 3.46875 139.894531 3.84375 143.070312 5.457031 C 143.703125 5.777344 144.28125 6.167969 144.832031 6.582031 C 142.132812 7.121094 139.441406 7.792969 136.8125 8.601562 C 136.082031 8.824219 135.675781 9.597656 135.898438 10.328125 C 136.121094 11.054688 136.878906 11.464844 137.621094 11.242188 C 140.710938 10.292969 143.890625 9.527344 147.066406 8.964844 C 147.109375 8.957031 147.148438 8.953125 147.191406 8.945312 C 148.363281 10.539062 149.085938 12.378906 149.15625 14.25 C 149.183594 15.011719 149.84375 15.640625 150.585938 15.578125 C 151.347656 15.546875 151.941406 14.90625 151.910156 14.144531 C 151.847656 12.417969 151.363281 10.71875 150.558594 9.144531 C 152.097656 10.019531 152.828125 12.304688 153.433594 14.609375 C 153.941406 16.539062 154.660156 19.074219 155.75 21.542969 C 156.136719 22.417969 156.5625 23.273438 156.988281 24.128906 C 157.191406 24.535156 157.390625 24.9375 157.585938 25.335938 C 157.085938 24.796875 156.445312 24.269531 155.625 23.953125 C 154.941406 23.6875 154.257812 23.609375 153.597656 23.652344 L 152.816406 22.085938 C 152.222656 20.890625 151.546875 19.535156 150.46875 18.429688 C 148.007812 15.914062 144.417969 15.570312 141.253906 15.269531 C 140.554688 15.203125 139.855469 15.136719 139.179688 15.046875 C 136.847656 14.742188 134.339844 14.058594 131.511719 12.957031 L 130.503906 12.554688 C 130.464844 12.539062 130.421875 12.523438 130.378906 12.507812 C 129.070312 10.722656 127.65625 8.96875 125.882812 7.507812 C 125.582031 7.257812 125.273438 7.023438 124.960938 6.800781 C 127.019531 5.816406 129.28125 4.929688 131.625 4.40625 Z M 122.113281 8.285156 C 122.949219 8.730469 123.640625 9.234375 124.128906 9.640625 C 124.632812 10.054688 125.109375 10.503906 125.5625 10.980469 C 125.199219 10.914062 124.835938 10.839844 124.460938 10.804688 C 120.773438 10.460938 117 12 114.597656 14.8125 C 114.4375 14.996094 114.296875 15.191406 114.148438 15.386719 C 113.964844 15.113281 113.78125 14.84375 113.625 14.554688 C 114.070312 14.039062 114.539062 13.542969 115.035156 13.078125 C 116.660156 11.550781 118.59375 10.335938 120.4375 9.246094 C 120.964844 8.9375 121.523438 8.613281 122.113281 8.285156 Z M 112.890625 11.128906 C 113.207031 9.179688 115.242188 7.476562 117.519531 7.253906 C 117.742188 7.230469 117.960938 7.222656 118.179688 7.222656 C 118.265625 7.222656 118.347656 7.222656 118.433594 7.226562 C 116.636719 8.304688 114.785156 9.523438 113.148438 11.0625 C 113.050781 11.152344 112.953125 11.246094 112.859375 11.339844 C 112.867188 11.269531 112.875 11.199219 112.890625 11.128906 Z M 111.441406 17.34375 C 111.558594 17.183594 111.675781 17.023438 111.792969 16.863281 C 112.015625 17.203125 112.265625 17.539062 112.527344 17.878906 C 112.363281 18.167969 112.199219 18.460938 112.035156 18.753906 C 110.902344 20.78125 109.820312 22.6875 108.089844 23.550781 C 108.171875 23.253906 108.238281 22.960938 108.347656 22.664062 C 109.011719 20.871094 110.066406 19.242188 111.441406 17.34375 Z M 111.441406 17.34375 " fill-opacity="1" fill-rule="nonzero"/><g clip-path="url(#cda02b45ae)"><path fill="#fff4f5" d="M 92.628906 155.347656 C 92.167969 158.664062 93.226562 162.011719 95.519531 164.453125 L 143.207031 215.25 C 144.960938 217.121094 147.214844 218.226562 149.566406 218.589844 L 150.03125 225.789062 L 158.578125 357.902344 C 159.191406 367.316406 167.304688 374.449219 176.703125 373.839844 C 180.4375 373.597656 183.804688 372.15625 186.480469 369.929688 C 189.152344 372.15625 192.519531 373.597656 196.253906 373.839844 C 205.652344 374.449219 213.765625 367.316406 214.375 357.902344 L 222.925781 225.785156 L 223.785156 212.476562 L 223.785156 136.351562 L 276.507812 108.566406 C 279.847656 106.804688 282.058594 103.457031 282.367188 99.6875 C 282.675781 95.921875 281.042969 92.257812 278.03125 89.976562 L 212.277344 40.089844 C 207.417969 36.40625 200.496094 37.359375 196.816406 42.226562 C 196.289062 42.925781 195.867188 43.667969 195.527344 44.433594 C 208.960938 48.128906 219.113281 59.828125 220.519531 74.074219 L 250.871094 97.097656 L 214.109375 116.472656 C 213.785156 116.441406 213.457031 116.421875 213.125 116.421875 L 159.832031 116.421875 C 158.945312 116.421875 158.085938 116.542969 157.265625 116.746094 C 153.21875 117.273438 142.105469 121.003906 97.90625 147.390625 C 95.035156 149.105469 93.09375 152.03125 92.628906 155.347656 Z M 149.167969 143.800781 L 149.167969 189.335938 L 121.070312 159.402344 C 131.3125 153.472656 141.566406 147.753906 149.167969 143.800781 Z M 149.167969 143.800781 " fill-opacity="1" fill-rule="nonzero"/></g></svg>