<svg xmlns="http://www.w3.org/2000/svg" xmlns:xlink="http://www.w3.org/1999/xlink" width="500" zoomAndPan="magnify" viewBox="0 0 375 374.999991" height="500" preserveAspectRatio="xMidYMid meet" version="1.0"><defs><clipPath id="fb04610ba3"><path d="M 0 0 L 375 0 L 375 374.25 L 0 374.25 Z M 0 0 " clip-rule="nonzero"/></clipPath></defs><g clip-path="url(#fb04610ba3)"><path fill="#5f021f" d="M 369.964844 245.269531 C 372.171875 241.867188 374.914062 237.636719 373.96875 232.261719 C 373.386719 228.957031 371.605469 226.207031 370.03125 223.78125 C 369.019531 222.21875 367.871094 220.449219 367.675781 219.332031 C 367.476562 218.214844 367.953125 216.15625 368.371094 214.339844 C 369.167969 210.878906 370.066406 206.957031 368.613281 202.945312 C 367.125 198.84375 363.714844 196.265625 360.976562 194.191406 C 359.535156 193.097656 357.898438 191.859375 357.382812 190.96875 C 356.835938 190.023438 356.578125 187.949219 356.347656 186.117188 C 355.925781 182.746094 355.402344 178.546875 352.636719 175.253906 C 349.855469 171.941406 345.789062 170.695312 342.519531 169.691406 C 340.773438 169.15625 338.789062 168.546875 337.980469 167.871094 C 337.164062 167.1875 336.21875 165.335938 335.382812 163.699219 C 333.828125 160.664062 331.894531 156.882812 328.164062 154.722656 C 324.441406 152.570312 320.207031 152.78125 316.804688 152.949219 C 314.96875 153.042969 312.882812 153.144531 311.875 152.773438 C 311.414062 152.605469 310.835938 152.203125 310.210938 151.695312 C 309.332031 111.429688 293.203125 73.703125 264.59375 45.203125 C 235.332031 16.054688 196.472656 0 155.179688 0 C 69.664062 0 0.0898438 69.605469 0.0898438 155.164062 C 0.0898438 240.722656 69.664062 310.332031 155.179688 310.332031 C 176.722656 310.332031 197.535156 305.996094 217.085938 297.457031 C 217.386719 297.59375 217.6875 297.71875 217.984375 297.839844 L 196.078125 344.914062 C 195.132812 346.953125 195.394531 349.351562 196.761719 351.136719 C 198.128906 352.917969 200.375 353.796875 202.585938 353.410156 L 227.949219 348.976562 L 240.886719 371.246094 C 241.96875 373.113281 243.957031 374.25 246.101562 374.25 C 246.191406 374.25 246.285156 374.25 246.375 374.246094 C 248.621094 374.140625 250.625 372.800781 251.570312 370.761719 L 273.109375 324.484375 C 274.628906 324.019531 276.074219 323.414062 277.441406 322.835938 C 279.152344 322.117188 281.085938 321.300781 282.171875 321.300781 C 283.179688 321.300781 285.058594 322.09375 286.714844 322.792969 C 289.488281 323.964844 292.855469 325.390625 296.542969 325.214844 L 312.117188 361.386719 C 313.003906 363.449219 314.96875 364.851562 317.207031 365.015625 C 317.359375 365.03125 317.507812 365.035156 317.65625 365.035156 C 319.734375 365.035156 321.675781 363.960938 322.78125 362.179688 L 336.359375 340.292969 L 361.582031 345.460938 C 363.785156 345.917969 366.054688 345.101562 367.472656 343.359375 C 368.890625 341.613281 369.222656 339.226562 368.332031 337.160156 L 350.445312 295.609375 C 351.226562 295.027344 351.96875 294.355469 352.628906 293.566406 C 355.398438 290.261719 355.921875 286.046875 356.34375 282.664062 C 356.570312 280.839844 356.828125 278.777344 357.363281 277.851562 C 357.890625 276.9375 359.546875 275.6875 361.007812 274.585938 C 363.734375 272.527344 367.128906 269.960938 368.609375 265.898438 C 370.082031 261.859375 369.140625 257.734375 368.382812 254.421875 C 367.972656 252.625 367.507812 250.585938 367.699219 249.503906 C 367.878906 248.480469 368.988281 246.773438 369.964844 245.269531 Z M 12.160156 155.164062 C 12.160156 76.261719 76.316406 12.074219 155.179688 12.074219 C 230.046875 12.074219 291.871094 70.199219 297.738281 143.710938 C 293.699219 143.136719 290.089844 144.652344 286.898438 146 C 285.191406 146.71875 283.253906 147.535156 282.167969 147.535156 C 281.15625 147.535156 279.28125 146.742188 277.625 146.039062 C 274.457031 144.703125 270.515625 143.03125 266.199219 143.792969 C 261.886719 144.554688 258.75 147.472656 256.234375 149.816406 C 254.914062 151.039062 253.421875 152.429688 252.472656 152.773438 C 251.453125 153.144531 249.355469 153.042969 247.507812 152.949219 C 243.929688 152.769531 239.871094 152.566406 236.171875 154.703125 C 232.414062 156.878906 230.476562 160.675781 228.917969 163.726562 C 228.089844 165.351562 227.152344 167.1875 226.351562 167.863281 C 225.527344 168.554688 223.535156 169.171875 221.777344 169.714844 C 220.445312 170.125 218.980469 170.582031 217.523438 171.199219 C 207.429688 160.726562 194.976562 153.0625 181.347656 148.742188 C 193.78125 140.320312 201.96875 126.078125 201.96875 109.957031 C 201.96875 84.144531 180.976562 63.144531 155.179688 63.144531 C 129.382812 63.144531 108.390625 84.144531 108.390625 109.957031 C 108.390625 126.074219 116.578125 140.316406 129.007812 148.742188 C 93.988281 159.867188 68.539062 192.703125 68.539062 231.378906 C 68.539062 234.710938 71.242188 237.414062 74.574219 237.414062 L 190.5625 237.414062 C 191.277344 240.347656 192.875 242.835938 194.308594 245.050781 C 195.320312 246.613281 196.46875 248.382812 196.664062 249.5 C 196.863281 250.621094 196.390625 252.679688 195.972656 254.492188 C 195.175781 257.953125 194.277344 261.875 195.730469 265.886719 C 197.214844 269.992188 200.625 272.570312 203.363281 274.640625 C 204.808594 275.734375 206.445312 276.972656 206.960938 277.863281 C 207.507812 278.8125 207.765625 280.886719 207.996094 282.71875 C 208.195312 284.296875 208.417969 286.058594 208.878906 287.820312 C 191.84375 294.742188 173.8125 298.261719 155.179688 298.261719 C 76.316406 298.257812 12.160156 234.066406 12.160156 155.164062 Z M 195.957031 214.410156 C 196.367188 216.210938 196.832031 218.25 196.644531 219.328125 C 196.460938 220.351562 195.355469 222.058594 194.378906 223.5625 C 194.007812 224.132812 193.625 224.726562 193.246094 225.339844 L 80.847656 225.339844 C 83.929688 187.011719 116.089844 156.765625 155.179688 156.765625 C 175.671875 156.765625 195.140625 165.167969 209.199219 179.945312 C 208.507812 182.078125 208.234375 184.257812 207.996094 186.171875 C 207.769531 187.996094 207.511719 190.058594 206.976562 190.980469 C 206.453125 191.890625 204.796875 193.140625 203.339844 194.242188 C 200.609375 196.304688 197.214844 198.867188 195.730469 202.933594 C 194.257812 206.972656 195.199219 211.097656 195.957031 214.410156 Z M 155.179688 144.695312 C 136.035156 144.695312 120.460938 129.109375 120.460938 109.957031 C 120.460938 90.800781 136.035156 75.21875 155.179688 75.21875 C 174.324219 75.21875 189.902344 90.800781 189.902344 109.957031 C 189.902344 129.109375 174.324219 144.695312 155.179688 144.695312 Z M 245.511719 355.183594 L 236.269531 339.273438 C 235.003906 337.085938 232.503906 335.925781 230.015625 336.359375 L 211.898438 339.527344 L 228.402344 304.058594 C 228.59375 304.417969 228.777344 304.78125 228.960938 305.132812 C 230.511719 308.171875 232.445312 311.949219 236.179688 314.109375 C 239.902344 316.261719 244.136719 316.054688 247.535156 315.882812 C 249.375 315.792969 251.457031 315.6875 252.46875 316.058594 C 253.449219 316.417969 254.957031 317.824219 256.289062 319.0625 C 257.558594 320.242188 258.980469 321.570312 260.628906 322.691406 Z M 334.660156 327.621094 C 332.183594 327.113281 329.65625 328.203125 328.324219 330.351562 L 318.625 345.988281 L 307.328125 319.742188 C 307.59375 319.496094 307.855469 319.253906 308.109375 319.019531 C 309.425781 317.792969 310.921875 316.402344 311.871094 316.058594 C 312.890625 315.6875 314.988281 315.792969 316.839844 315.886719 C 320.414062 316.0625 324.472656 316.265625 328.167969 314.128906 C 331.933594 311.953125 333.871094 308.15625 335.425781 305.101562 C 336.253906 303.480469 337.191406 301.644531 337.988281 300.972656 C 338.292969 300.71875 338.753906 300.472656 339.300781 300.238281 L 352.679688 331.316406 Z M 362.085938 234.359375 C 362.207031 235.050781 360.667969 237.421875 359.84375 238.695312 C 358.238281 241.167969 356.421875 243.96875 355.816406 247.40625 C 355.199219 250.894531 355.957031 254.199219 356.621094 257.113281 C 356.960938 258.59375 357.527344 261.070312 357.273438 261.761719 C 357.015625 262.472656 354.964844 264.023438 353.738281 264.949219 C 351.363281 266.746094 348.671875 268.777344 346.917969 271.8125 C 345.160156 274.851562 344.742188 278.207031 344.375 281.167969 C 344.183594 282.691406 343.867188 285.234375 343.382812 285.808594 C 342.90625 286.378906 340.460938 287.132812 339.003906 287.585938 C 336.152344 288.464844 332.917969 289.464844 330.226562 291.730469 C 327.554688 293.976562 326.027344 296.972656 324.679688 299.613281 C 323.976562 300.988281 322.808594 303.285156 322.136719 303.671875 C 321.476562 304.027344 318.949219 303.902344 317.4375 303.828125 C 314.449219 303.679688 311.0625 303.511719 307.757812 304.710938 C 304.503906 305.890625 302.054688 308.167969 299.894531 310.175781 C 298.683594 311.304688 296.851562 313.007812 296.046875 313.148438 C 295.242188 313.289062 292.941406 312.316406 291.414062 311.671875 C 288.703125 310.523438 285.628906 309.226562 282.171875 309.226562 C 282.167969 309.226562 282.164062 309.226562 282.160156 309.226562 C 278.640625 309.230469 275.515625 310.546875 272.757812 311.710938 C 271.363281 312.296875 269.027344 313.273438 268.292969 313.171875 C 267.527344 313.035156 265.640625 311.277344 264.515625 310.226562 C 262.34375 308.207031 259.882812 305.914062 256.609375 304.71875 C 254.425781 303.917969 252.210938 303.722656 250.101562 303.722656 C 249.011719 303.722656 247.953125 303.773438 246.941406 303.824219 C 245.417969 303.898438 242.863281 304.027344 242.21875 303.65625 C 241.566406 303.28125 240.398438 300.996094 239.703125 299.632812 C 238.34375 296.976562 236.804688 293.96875 234.113281 291.710938 C 231.429688 289.460938 228.203125 288.46875 225.359375 287.597656 C 223.890625 287.148438 221.433594 286.394531 220.945312 285.8125 C 220.472656 285.242188 220.15625 282.722656 219.96875 281.214844 C 219.597656 278.25 219.179688 274.886719 217.410156 271.824219 C 215.671875 268.816406 213 266.792969 210.640625 265.011719 C 209.40625 264.078125 207.34375 262.515625 207.074219 261.773438 C 206.839844 261.082031 207.398438 258.652344 207.734375 257.199219 C 208.40625 254.265625 209.171875 250.9375 208.550781 247.40625 C 207.929688 243.875 206.074219 241.011719 204.433594 238.484375 C 203.535156 237.09375 202.414062 235.367188 202.257812 234.472656 C 202.136719 233.78125 203.671875 231.410156 204.5 230.136719 C 206.101562 227.667969 207.917969 224.867188 208.527344 221.425781 C 209.140625 217.941406 208.386719 214.636719 207.722656 211.722656 C 207.382812 210.242188 206.820312 207.765625 207.066406 207.074219 C 207.328125 206.355469 209.382812 204.808594 210.609375 203.878906 C 212.984375 202.085938 215.675781 200.054688 217.425781 197.023438 C 219.183594 193.984375 219.601562 190.628906 219.96875 187.667969 C 220.160156 186.148438 220.476562 183.601562 220.957031 183.023438 C 221.4375 182.457031 223.878906 181.699219 225.339844 181.25 C 228.191406 180.367188 231.425781 179.367188 234.117188 177.101562 C 236.785156 174.855469 238.316406 171.863281 239.664062 169.21875 C 240.363281 167.84375 241.535156 165.546875 242.203125 165.160156 C 242.863281 164.804688 245.394531 164.929688 246.90625 165.003906 C 249.894531 165.15625 253.28125 165.324219 256.585938 164.125 C 259.839844 162.945312 262.289062 160.667969 264.449219 158.65625 C 265.660156 157.53125 267.492188 155.824219 268.296875 155.683594 C 269.101562 155.554688 271.402344 156.515625 272.925781 157.160156 C 275.640625 158.308594 278.710938 159.609375 282.164062 159.609375 C 282.171875 159.609375 282.175781 159.609375 282.183594 159.609375 C 285.699219 159.605469 288.824219 158.289062 291.582031 157.125 C 292.976562 156.539062 295.304688 155.554688 296.050781 155.664062 C 296.8125 155.796875 298.703125 157.554688 299.832031 158.605469 C 302 160.628906 304.460938 162.921875 307.734375 164.117188 C 311.039062 165.324219 314.417969 165.15625 317.402344 165.007812 C 318.925781 164.933594 321.476562 164.808594 322.125 165.179688 C 322.773438 165.554688 323.941406 167.839844 324.640625 169.203125 C 326 171.859375 327.539062 174.867188 330.230469 177.125 C 332.914062 179.375 336.136719 180.363281 338.980469 181.238281 C 340.449219 181.6875 342.90625 182.441406 343.398438 183.023438 C 343.871094 183.589844 344.183594 186.113281 344.375 187.617188 C 344.746094 190.585938 345.164062 193.945312 346.933594 197.007812 C 348.667969 200.015625 351.339844 202.039062 353.699219 203.824219 C 355.015625 204.816406 357 206.320312 357.269531 207.0625 C 357.503906 207.753906 356.945312 210.183594 356.609375 211.632812 C 355.933594 214.570312 355.167969 217.894531 355.792969 221.429688 C 356.414062 224.960938 358.269531 227.824219 359.90625 230.351562 C 360.808594 231.738281 361.925781 233.464844 362.085938 234.359375 Z M 282.171875 169.777344 C 246.546875 169.777344 217.566406 198.773438 217.566406 234.417969 C 217.566406 270.058594 246.546875 299.054688 282.171875 299.054688 C 317.796875 299.054688 346.777344 270.058594 346.777344 234.417969 C 346.777344 198.773438 317.796875 169.777344 282.171875 169.777344 Z M 282.171875 286.980469 C 253.199219 286.980469 229.632812 263.402344 229.632812 234.417969 C 229.632812 205.429688 253.199219 181.851562 282.171875 181.851562 C 311.140625 181.851562 334.710938 205.429688 334.710938 234.417969 C 334.710938 263.402344 311.140625 286.980469 282.171875 286.980469 Z M 296.277344 214.167969 L 287.753906 193.304688 C 286.828125 191.035156 284.621094 189.550781 282.171875 189.550781 C 279.722656 189.550781 277.511719 191.035156 276.585938 193.304688 L 268.066406 214.167969 L 245.597656 215.832031 C 243.152344 216.011719 241.0625 217.652344 240.304688 219.988281 C 239.546875 222.316406 240.273438 224.875 242.144531 226.460938 L 259.34375 241.015625 L 253.980469 262.910156 C 253.398438 265.289062 254.3125 267.789062 256.296875 269.226562 C 258.277344 270.667969 260.9375 270.769531 263.019531 269.476562 L 282.171875 257.609375 L 301.324219 269.476562 C 302.300781 270.082031 303.402344 270.382812 304.5 270.382812 C 305.75 270.382812 306.992188 269.996094 308.046875 269.226562 C 310.03125 267.789062 310.945312 265.289062 310.363281 262.910156 L 304.996094 241.015625 L 322.199219 226.460938 C 324.070312 224.875 324.796875 222.316406 324.039062 219.988281 C 323.28125 217.652344 321.191406 216.011719 318.746094 215.832031 Z M 294.351562 234.214844 C 292.601562 235.691406 291.84375 238.035156 292.386719 240.257812 L 295.125 251.4375 L 285.347656 245.378906 C 283.402344 244.171875 280.941406 244.171875 278.992188 245.378906 L 269.214844 251.4375 L 271.953125 240.257812 C 272.5 238.035156 271.738281 235.691406 269.992188 234.214844 L 261.210938 226.78125 L 272.679688 225.933594 C 274.960938 225.765625 276.953125 224.316406 277.820312 222.199219 L 282.167969 211.546875 L 286.519531 222.199219 C 287.386719 224.316406 289.378906 225.765625 291.660156 225.933594 L 303.128906 226.78125 Z M 294.351562 234.214844 " fill-opacity="1" fill-rule="nonzero"/></g></svg>