<svg xmlns="http://www.w3.org/2000/svg" xmlns:xlink="http://www.w3.org/1999/xlink" width="40" zoomAndPan="magnify" viewBox="0 0 30 30.000001" height="40" preserveAspectRatio="xMidYMid meet" version="1.0"><defs><g/><clipPath id="4942675ca4"><path d="M 0.484375 0 L 29.515625 0 L 29.515625 29.03125 L 0.484375 29.03125 Z M 0.484375 0 " clip-rule="nonzero"/></clipPath><clipPath id="146bab3b67"><path d="M 1 4 L 29.515625 4 L 29.515625 20 L 1 20 Z M 1 4 " clip-rule="nonzero"/></clipPath><clipPath id="7ba12f3e1e"><path d="M 1.910156 3.183594 L 29.441406 5.660156 L 28.074219 20.890625 L 0.542969 18.414062 Z M 1.910156 3.183594 " clip-rule="nonzero"/></clipPath><clipPath id="54d0e28868"><path d="M 1.910156 3.183594 L 29.441406 5.660156 L 28.074219 20.890625 L 0.542969 18.414062 Z M 1.910156 3.183594 " clip-rule="nonzero"/></clipPath><clipPath id="267e99f236"><path d="M 1.910156 3.1875 L 29.453125 5.664062 L 28.082031 20.902344 L 0.539062 18.421875 Z M 1.910156 3.1875 " clip-rule="nonzero"/></clipPath><clipPath id="b635662757"><path d="M 1.910156 3.1875 L 29.441406 5.664062 L 28.074219 20.890625 L 0.542969 18.414062 Z M 1.910156 3.1875 " clip-rule="nonzero"/></clipPath></defs><g clip-path="url(#4942675ca4)"><path fill="#ffffff" d="M 0.484375 0 L 29.515625 0 L 29.515625 36.289062 L 0.484375 36.289062 Z M 0.484375 0 " fill-opacity="1" fill-rule="nonzero"/><path fill="#ffffff" d="M 0.484375 0 L 29.515625 0 L 29.515625 29.03125 L 0.484375 29.03125 Z M 0.484375 0 " fill-opacity="1" fill-rule="nonzero"/><path fill="#5f021f" d="M 0.484375 0 L 29.515625 0 L 29.515625 29.03125 L 0.484375 29.03125 Z M 0.484375 0 " fill-opacity="1" fill-rule="nonzero"/></g><g clip-path="url(#146bab3b67)"><g clip-path="url(#7ba12f3e1e)"><g clip-path="url(#54d0e28868)"><g clip-path="url(#267e99f236)"><g clip-path="url(#b635662757)"><path fill="#fff4f5" d="M 20.230469 14.25 C 20.203125 14.261719 20.113281 14.3125 20.027344 14.355469 C 19.941406 14.398438 19.773438 14.515625 19.648438 14.609375 C 19.523438 14.703125 19.304688 14.859375 19.164062 14.953125 C 18.863281 15.15625 18.183594 15.765625 17.957031 16.035156 C 17.796875 16.222656 17.605469 16.378906 17.300781 16.570312 C 17.207031 16.628906 17.0625 16.722656 16.980469 16.78125 C 16.898438 16.835938 16.707031 16.949219 16.554688 17.035156 C 16.203125 17.226562 16.117188 17.296875 15.769531 17.683594 C 15.039062 18.488281 15.015625 18.507812 14.699219 18.707031 C 14.578125 18.78125 14.417969 18.890625 14.339844 18.953125 C 14.183594 19.066406 14.125 19.085938 14.179688 19.003906 C 14.238281 18.917969 14.222656 18.664062 14.15625 18.449219 C 14.082031 18.230469 14.085938 18.21875 14.234375 17.957031 C 14.308594 17.832031 14.355469 17.777344 14.402344 17.765625 C 14.453125 17.75 14.46875 17.730469 14.46875 17.675781 C 14.472656 17.632812 14.527344 17.515625 14.617188 17.378906 C 14.746094 17.175781 14.804688 17.113281 15.15625 16.816406 C 15.59375 16.453125 15.734375 16.296875 15.988281 15.882812 C 16.210938 15.515625 16.382812 15.273438 16.589844 15.007812 C 16.78125 14.765625 16.871094 14.714844 17.183594 14.652344 C 17.324219 14.625 17.464844 14.625 17.828125 14.648438 C 18.367188 14.679688 18.621094 14.652344 19.113281 14.5 C 19.40625 14.410156 20.207031 14.214844 20.253906 14.21875 C 20.269531 14.222656 20.257812 14.234375 20.230469 14.25 Z M 19.710938 14.84375 C 19.617188 14.945312 19.453125 15.109375 19.34375 15.210938 C 19.234375 15.3125 19.070312 15.480469 18.972656 15.582031 C 18.742188 15.835938 18.636719 15.925781 18.226562 16.242188 C 18.035156 16.394531 17.8125 16.5625 17.738281 16.621094 C 17.660156 16.679688 17.46875 16.863281 17.304688 17.027344 C 16.992188 17.347656 16.765625 17.539062 16.503906 17.710938 C 16.234375 17.890625 16.015625 18.078125 15.734375 18.367188 C 15.554688 18.554688 15.355469 18.726562 15.140625 18.882812 C 14.960938 19.015625 14.730469 19.1875 14.628906 19.265625 C 14.527344 19.347656 14.394531 19.429688 14.339844 19.453125 C 14.238281 19.492188 14.238281 19.492188 14.214844 19.441406 C 14.203125 19.414062 14.195312 19.359375 14.199219 19.320312 C 14.207031 19.242188 14.257812 19.203125 14.808594 18.847656 C 15.09375 18.660156 15.207031 18.558594 15.652344 18.066406 C 16.253906 17.410156 16.253906 17.410156 16.65625 17.171875 C 17.515625 16.667969 17.882812 16.40625 18.089844 16.140625 C 18.238281 15.945312 19 15.269531 19.25 15.105469 C 19.347656 15.042969 19.523438 14.917969 19.644531 14.828125 C 19.761719 14.734375 19.863281 14.664062 19.867188 14.664062 C 19.871094 14.664062 19.800781 14.746094 19.710938 14.84375 Z M 16.234375 15.171875 C 16.234375 15.171875 16.117188 15.363281 15.96875 15.597656 C 15.582031 16.210938 15.496094 16.3125 15.085938 16.648438 C 14.886719 16.8125 14.6875 16.992188 14.644531 17.046875 C 14.597656 17.105469 14.558594 17.140625 14.554688 17.125 C 14.546875 17.089844 14.621094 16.972656 14.753906 16.808594 C 14.8125 16.738281 14.929688 16.570312 15.011719 16.441406 C 15.183594 16.164062 15.515625 15.804688 15.941406 15.429688 C 16.097656 15.289062 16.230469 15.171875 16.234375 15.171875 Z M 14.132812 17.804688 L 13.988281 18.027344 L 13.945312 17.949219 C 13.890625 17.855469 13.890625 17.855469 13.96875 17.863281 C 14.058594 17.871094 14.144531 17.753906 14.160156 17.597656 C 14.183594 17.414062 14.164062 17.355469 14.003906 17.113281 C 13.921875 16.992188 13.84375 16.875 13.832031 16.851562 C 13.820312 16.832031 13.839844 16.84375 13.882812 16.875 C 13.96875 16.949219 14.015625 16.957031 14.0625 16.914062 C 14.105469 16.867188 14.046875 16.523438 13.964844 16.347656 C 13.898438 16.203125 13.402344 15.53125 13.242188 15.375 C 13.183594 15.316406 12.976562 15.171875 12.777344 15.050781 C 12.570312 14.921875 12.351562 14.765625 12.257812 14.675781 C 11.867188 14.308594 11.5 13.992188 11.34375 13.894531 C 11.191406 13.800781 11.175781 13.785156 11.164062 13.695312 C 11.152344 13.578125 10.9375 12.96875 10.839844 12.765625 C 10.800781 12.683594 10.714844 12.492188 10.65625 12.34375 C 10.539062 12.050781 10.453125 11.917969 10.386719 11.914062 C 10.328125 11.90625 10.363281 11.859375 10.625 11.585938 C 10.746094 11.460938 10.882812 11.300781 10.933594 11.230469 C 11.074219 11.019531 11.28125 10.578125 11.269531 10.503906 C 11.257812 10.449219 11.265625 10.445312 11.320312 10.464844 C 11.425781 10.5 11.578125 10.460938 11.664062 10.371094 C 11.738281 10.292969 11.738281 10.292969 11.769531 10.347656 C 11.808594 10.414062 11.976562 10.511719 12.070312 10.519531 C 12.117188 10.527344 12.136719 10.539062 12.132812 10.574219 C 12.128906 10.632812 12.191406 10.699219 12.277344 10.730469 C 12.320312 10.746094 12.367188 10.792969 12.402344 10.859375 C 12.429688 10.917969 12.503906 11.003906 12.5625 11.054688 C 12.730469 11.191406 12.785156 11.269531 12.878906 11.511719 C 13.050781 11.960938 13.195312 12.078125 13.769531 12.230469 C 14.199219 12.347656 14.367188 12.359375 14.46875 12.277344 C 14.507812 12.25 14.554688 12.199219 14.570312 12.167969 L 14.59375 12.113281 L 14.6875 12.1875 C 14.742188 12.230469 14.808594 12.261719 14.84375 12.257812 C 14.878906 12.257812 14.933594 12.285156 14.980469 12.335938 C 15.050781 12.40625 15.074219 12.414062 15.1875 12.410156 C 15.359375 12.40625 15.605469 12.308594 15.742188 12.1875 C 15.921875 12.035156 16.074219 11.773438 16.289062 11.257812 C 16.480469 10.792969 16.5 10.710938 16.429688 10.675781 C 16.40625 10.664062 16.417969 10.640625 16.480469 10.585938 C 16.667969 10.421875 16.785156 10.21875 16.851562 9.957031 L 16.875 9.859375 L 16.933594 9.976562 C 16.964844 10.039062 17.007812 10.105469 17.023438 10.125 C 17.097656 10.195312 17.179688 10.199219 17.308594 10.144531 C 17.457031 10.082031 17.457031 10.082031 17.449219 10.144531 C 17.445312 10.195312 17.535156 10.285156 17.703125 10.398438 C 17.769531 10.441406 17.820312 10.503906 17.847656 10.570312 C 17.867188 10.625 17.941406 10.738281 18.007812 10.824219 C 18.164062 11.03125 18.183594 11.144531 18.136719 11.609375 C 18.097656 12.066406 17.976562 12.511719 17.816406 12.835938 C 17.652344 13.152344 17.273438 13.839844 17.121094 14.089844 C 16.960938 14.355469 16.753906 14.582031 16.566406 14.703125 C 16.300781 14.875 15.496094 15.582031 15.21875 15.890625 C 15.074219 16.050781 14.910156 16.261719 14.855469 16.355469 C 14.800781 16.453125 14.691406 16.613281 14.613281 16.710938 C 14.425781 16.949219 14.347656 17.117188 14.304688 17.375 C 14.277344 17.5625 14.257812 17.605469 14.132812 17.804688 Z M 14.023438 18.777344 C 14.011719 18.75 14.007812 18.699219 14.011719 18.664062 C 14.015625 18.605469 14.019531 18.605469 14.035156 18.652344 C 14.042969 18.683594 14.046875 18.734375 14.042969 18.769531 C 14.039062 18.824219 14.039062 18.828125 14.023438 18.777344 Z M 13.820312 17.539062 C 13.742188 17.464844 13.578125 17.324219 13.457031 17.222656 C 13.058594 16.890625 12.882812 16.726562 12.601562 16.4375 C 12.296875 16.121094 12.265625 16.085938 11.953125 15.660156 C 11.835938 15.496094 11.71875 15.34375 11.695312 15.324219 C 11.621094 15.25 11.292969 14.800781 11.3125 14.804688 C 11.324219 14.804688 11.460938 14.964844 11.617188 15.160156 C 11.921875 15.546875 12.171875 15.769531 12.683594 16.109375 C 13.3125 16.527344 13.515625 16.707031 13.753906 17.050781 C 14 17.414062 14.042969 17.515625 13.984375 17.632812 C 13.96875 17.664062 13.9375 17.644531 13.820312 17.539062 Z M 12.3125 15.617188 C 12.308594 15.625 12.257812 15.589844 12.199219 15.539062 C 12.082031 15.445312 11.503906 14.777344 11.507812 14.742188 C 11.511719 14.683594 11.742188 14.910156 12.011719 15.238281 C 12.175781 15.441406 12.3125 15.609375 12.3125 15.617188 Z M 11.046875 14.15625 C 10.917969 13.992188 10.769531 13.804688 10.722656 13.738281 C 10.675781 13.671875 10.53125 13.484375 10.402344 13.324219 C 10.175781 13.035156 10.167969 13.023438 10.179688 12.910156 C 10.191406 12.777344 10.339844 12.238281 10.363281 12.242188 C 10.371094 12.242188 10.414062 12.304688 10.457031 12.378906 C 10.699219 12.808594 11.003906 13.582031 10.988281 13.734375 C 10.980469 13.863281 11 13.890625 11.21875 14.027344 C 11.417969 14.148438 11.632812 14.328125 12.09375 14.753906 C 12.335938 14.980469 12.472656 15.082031 12.726562 15.21875 C 13.035156 15.386719 13.148438 15.496094 13.484375 15.945312 C 13.761719 16.3125 13.886719 16.539062 13.859375 16.601562 C 13.855469 16.613281 13.769531 16.566406 13.671875 16.492188 C 13.574219 16.421875 13.34375 16.269531 13.160156 16.152344 L 12.824219 15.945312 L 12.3125 15.332031 C 12.027344 14.996094 11.761719 14.691406 11.714844 14.660156 C 11.667969 14.625 11.59375 14.558594 11.546875 14.503906 C 11.460938 14.414062 11.371094 14.382812 11.316406 14.425781 C 11.292969 14.445312 11.214844 14.363281 11.046875 14.15625 Z M 11.160156 14.589844 C 11.152344 14.585938 11.128906 14.5625 11.109375 14.53125 C 11.085938 14.503906 11.074219 14.480469 11.078125 14.480469 C 11.085938 14.480469 11.109375 14.503906 11.132812 14.535156 C 11.15625 14.566406 11.167969 14.589844 11.160156 14.589844 Z M 10.894531 14.289062 C 10.792969 14.21875 10.523438 13.902344 10.40625 13.726562 C 10.324219 13.601562 10.222656 13.390625 10.246094 13.394531 C 10.253906 13.394531 10.363281 13.535156 10.488281 13.710938 C 10.617188 13.886719 10.777344 14.101562 10.847656 14.1875 C 10.953125 14.328125 10.960938 14.339844 10.894531 14.289062 Z M 14.226562 11.5625 C 14.207031 11.445312 14.226562 11.019531 14.25 11.019531 C 14.257812 11.023438 14.285156 11.089844 14.316406 11.171875 C 14.425781 11.480469 14.492188 11.898438 14.445312 11.996094 C 14.425781 12.03125 14.417969 12.027344 14.378906 11.96875 C 14.3125 11.863281 14.25 11.703125 14.226562 11.5625 Z M 14.828125 11.871094 C 14.835938 11.960938 14.832031 12.042969 14.820312 12.050781 C 14.8125 12.058594 14.777344 12.035156 14.746094 12 C 14.695312 11.945312 14.691406 11.917969 14.703125 11.757812 C 14.714844 11.636719 14.707031 11.546875 14.679688 11.46875 C 14.65625 11.40625 14.640625 11.328125 14.644531 11.300781 C 14.652344 11.203125 14.8125 11.703125 14.828125 11.871094 Z M 18.441406 9.628906 C 18.449219 9.636719 18.460938 9.746094 18.472656 9.871094 C 18.527344 10.53125 18.496094 11.195312 18.390625 11.632812 C 18.355469 11.765625 18.328125 11.878906 18.324219 11.882812 C 18.320312 11.886719 18.335938 11.648438 18.359375 11.355469 C 18.382812 11.066406 18.40625 10.660156 18.410156 10.460938 C 18.417969 9.804688 18.425781 9.613281 18.441406 9.628906 Z M 28.960938 8.675781 C 28.769531 8.785156 28.273438 8.960938 28.023438 9.007812 C 27.703125 9.070312 27.253906 9.117188 26.785156 9.136719 C 25.921875 9.171875 25.371094 9.308594 24.691406 9.648438 C 24.433594 9.777344 24.242188 9.9375 23.996094 10.230469 C 23.90625 10.339844 23.75 10.507812 23.648438 10.601562 C 23.546875 10.695312 23.390625 10.859375 23.300781 10.960938 C 23.210938 11.066406 23.027344 11.261719 22.894531 11.394531 C 22.761719 11.527344 22.554688 11.75 22.429688 11.882812 C 22.304688 12.019531 22.054688 12.269531 21.875 12.441406 C 21.464844 12.835938 21.269531 13.054688 21.089844 13.324219 C 21.015625 13.4375 20.917969 13.578125 20.875 13.628906 C 20.832031 13.679688 20.769531 13.769531 20.730469 13.832031 C 20.695312 13.890625 20.621094 13.976562 20.570312 14.019531 C 20.484375 14.097656 20.46875 14.101562 20.390625 14.078125 C 20.242188 14.027344 19.769531 14.121094 19.097656 14.324219 C 18.5625 14.488281 18.402344 14.507812 17.804688 14.476562 C 17.515625 14.460938 17.238281 14.457031 17.1875 14.46875 C 17.054688 14.5 17.054688 14.496094 17.15625 14.359375 C 17.207031 14.292969 17.335938 14.078125 17.441406 13.886719 C 17.546875 13.695312 17.699219 13.417969 17.78125 13.273438 C 17.863281 13.128906 17.972656 12.929688 18.019531 12.832031 C 18.070312 12.734375 18.167969 12.5625 18.242188 12.441406 C 18.507812 12.023438 18.652344 11.421875 18.664062 10.707031 C 18.675781 10.042969 18.621094 9.4375 18.53125 9.277344 C 18.476562 9.175781 18.398438 9.148438 18.335938 9.199219 C 18.277344 9.25 18.25 9.539062 18.246094 10.128906 C 18.246094 10.363281 18.242188 10.613281 18.234375 10.683594 L 18.226562 10.808594 L 18.132812 10.699219 C 18.085938 10.644531 18.03125 10.558594 18.011719 10.515625 C 17.976562 10.414062 17.886719 10.3125 17.742188 10.210938 C 17.679688 10.167969 17.628906 10.125 17.628906 10.113281 C 17.632812 10.105469 17.652344 10.074219 17.675781 10.042969 C 17.699219 10.015625 17.71875 9.964844 17.71875 9.933594 C 17.710938 9.835938 17.570312 9.835938 17.359375 9.933594 C 17.140625 10.039062 17.136719 10.035156 17.027344 9.734375 C 16.960938 9.550781 16.941406 9.519531 16.890625 9.511719 C 16.804688 9.503906 16.75 9.585938 16.714844 9.777344 C 16.667969 10.015625 16.59375 10.1875 16.484375 10.328125 C 16.34375 10.503906 16.261719 10.550781 15.914062 10.679688 C 15.472656 10.839844 15.480469 10.835938 15.476562 10.902344 C 15.464844 11.019531 15.527344 11.027344 15.890625 10.945312 C 16.074219 10.902344 16.234375 10.871094 16.238281 10.878906 C 16.246094 10.886719 16.1875 11.042969 16.113281 11.230469 C 15.957031 11.625 15.773438 11.941406 15.636719 12.058594 C 15.519531 12.15625 15.332031 12.230469 15.191406 12.238281 C 15.101562 12.242188 15.09375 12.234375 15.058594 12.15625 C 15.039062 12.109375 15.011719 11.878906 15 11.648438 C 14.984375 11.386719 14.960938 11.1875 14.933594 11.121094 C 14.878906 10.984375 14.742188 10.8125 14.679688 10.808594 C 14.652344 10.804688 14.628906 10.78125 14.625 10.746094 C 14.621094 10.714844 14.566406 10.566406 14.503906 10.417969 C 14.382812 10.121094 14.375 10.015625 14.464844 9.808594 C 14.558594 9.597656 14.949219 9.03125 15.285156 8.621094 C 15.550781 8.300781 15.679688 8.167969 15.945312 7.949219 C 16.351562 7.613281 16.550781 7.476562 16.984375 7.234375 C 17.71875 6.832031 18.003906 6.769531 18.9375 6.8125 C 19.953125 6.859375 20.585938 6.796875 22.035156 6.5 C 22.644531 6.371094 23.417969 6.242188 24.382812 6.101562 C 25.160156 5.988281 25.578125 5.941406 26.316406 5.882812 C 27.027344 5.828125 27.320312 5.792969 27.640625 5.722656 C 27.886719 5.667969 27.945312 5.632812 27.925781 5.5625 C 27.910156 5.507812 27.839844 5.507812 27.664062 5.554688 C 27.414062 5.617188 27.027344 5.667969 26.4375 5.707031 C 25.167969 5.792969 23.453125 6.035156 21.921875 6.34375 C 20.472656 6.640625 20.019531 6.683594 18.914062 6.648438 C 18.015625 6.617188 17.742188 6.660156 17.21875 6.917969 C 16.339844 7.351562 15.742188 7.8125 15.183594 8.480469 C 14.785156 8.960938 14.785156 8.960938 14.519531 9.378906 L 14.308594 9.707031 L 14.246094 9.570312 C 14.117188 9.28125 13.761719 8.957031 13.125 8.542969 C 12.894531 8.394531 12.550781 8.164062 12.359375 8.027344 C 12.167969 7.894531 11.894531 7.714844 11.757812 7.632812 L 11.503906 7.480469 L 11.148438 7.429688 C 10.953125 7.402344 10.703125 7.378906 10.59375 7.382812 C 10.363281 7.386719 10.339844 7.378906 10.019531 7.136719 C 9.609375 6.828125 9.503906 6.800781 8.441406 6.691406 L 7.675781 6.617188 L 7.394531 6.511719 C 7.242188 6.457031 6.894531 6.332031 6.625 6.238281 C 4.84375 5.628906 3.828125 5.226562 3.550781 5.019531 C 3.390625 4.902344 3.324219 4.890625 3.316406 4.976562 C 3.304688 5.125 3.800781 5.390625 4.847656 5.789062 C 5.023438 5.855469 5.617188 6.066406 6.167969 6.261719 C 6.722656 6.457031 7.253906 6.644531 7.355469 6.683594 C 7.519531 6.75 7.628906 6.765625 8.425781 6.855469 C 9.484375 6.972656 9.519531 6.984375 9.882812 7.25 C 10.289062 7.550781 10.238281 7.527344 10.671875 7.550781 C 11.375 7.582031 11.480469 7.625 12.273438 8.179688 C 12.5 8.339844 12.851562 8.574219 13.046875 8.699219 C 13.503906 8.996094 13.679688 9.136719 13.894531 9.375 C 14.109375 9.617188 14.160156 9.746094 14.195312 10.144531 C 14.207031 10.3125 14.226562 10.492188 14.234375 10.542969 C 14.246094 10.625 14.242188 10.648438 14.199219 10.683594 C 14.128906 10.742188 14.042969 11.101562 14.042969 11.355469 C 14.039062 11.652344 14.109375 11.886719 14.265625 12.089844 C 14.320312 12.160156 14.320312 12.164062 14.273438 12.164062 C 14.101562 12.160156 13.546875 12.007812 13.394531 11.925781 C 13.246094 11.84375 13.148438 11.710938 13.03125 11.421875 C 12.941406 11.199219 12.847656 11.066406 12.683594 10.921875 C 12.636719 10.882812 12.636719 10.878906 12.671875 10.894531 C 12.699219 10.90625 12.875 10.933594 13.058594 10.957031 C 13.355469 10.996094 13.402344 10.996094 13.4375 10.960938 C 13.464844 10.933594 13.46875 10.910156 13.453125 10.878906 C 13.433594 10.84375 13.375 10.824219 13.132812 10.792969 C 12.84375 10.753906 12.355469 10.613281 12.359375 10.570312 C 12.363281 10.558594 12.40625 10.542969 12.460938 10.53125 C 12.738281 10.46875 12.714844 10.292969 12.433594 10.339844 C 12.355469 10.355469 12.226562 10.359375 12.144531 10.351562 C 12.019531 10.339844 11.992188 10.328125 11.9375 10.261719 C 11.90625 10.21875 11.867188 10.164062 11.855469 10.136719 C 11.824219 10.066406 11.699219 10.0625 11.640625 10.132812 C 11.460938 10.332031 11.476562 10.324219 11.339844 10.292969 C 11.269531 10.28125 11.042969 10.210938 10.832031 10.144531 C 10.625 10.078125 10.414062 10.019531 10.371094 10.015625 C 10.21875 10 10.222656 10.144531 10.375 10.203125 C 10.621094 10.289062 11.054688 10.484375 11.074219 10.515625 C 11.09375 10.542969 11.070312 10.605469 10.992188 10.769531 C 10.828125 11.097656 10.753906 11.203125 10.5 11.46875 C 10.089844 11.898438 9.957031 12.160156 9.914062 12.65625 C 9.886719 12.945312 9.917969 13.238281 9.976562 13.242188 C 9.988281 13.242188 10.023438 13.3125 10.050781 13.394531 C 10.125 13.613281 10.242188 13.8125 10.433594 14.054688 C 10.527344 14.175781 10.613281 14.300781 10.621094 14.335938 C 10.644531 14.445312 10.800781 14.710938 10.972656 14.925781 C 11.058594 15.039062 11.21875 15.246094 11.324219 15.386719 C 11.429688 15.527344 11.710938 15.878906 11.945312 16.167969 C 12.414062 16.738281 12.929688 17.25 13.3125 17.527344 C 13.550781 17.699219 13.738281 17.902344 13.824219 18.085938 C 13.878906 18.203125 13.882812 18.230469 13.859375 18.5 L 13.832031 18.789062 L 13.589844 18.671875 C 13.257812 18.507812 12.945312 18.308594 12.746094 18.136719 C 12.234375 17.6875 11.980469 17.464844 11.785156 17.28125 C 11.664062 17.167969 11.519531 17.042969 11.464844 17.003906 C 11.316406 16.898438 11.046875 16.78125 10.683594 16.667969 C 10.472656 16.601562 10.308594 16.535156 10.199219 16.464844 C 9.984375 16.332031 9.65625 16.023438 9.339844 15.664062 C 8.832031 15.085938 8.542969 14.804688 8.335938 14.703125 C 8.285156 14.675781 8.160156 14.632812 8.0625 14.601562 C 7.964844 14.570312 7.851562 14.527344 7.816406 14.503906 C 7.6875 14.421875 7.546875 14.1875 7.226562 13.519531 C 6.8125 12.652344 6.738281 12.488281 6.558594 12.011719 C 6.335938 11.421875 6.171875 11.074219 5.949219 10.703125 C 5.835938 10.519531 5.691406 10.273438 5.625 10.15625 C 5.5625 10.039062 5.371094 9.777344 5.203125 9.574219 C 4.894531 9.203125 4.894531 9.199219 4.570312 9.003906 C 4.394531 8.894531 4.136719 8.757812 4.003906 8.695312 C 3.699219 8.554688 3.390625 8.351562 3.027344 8.058594 C 2.707031 7.796875 2.675781 7.769531 2.148438 7.242188 C 1.851562 6.945312 1.761719 6.839844 1.757812 6.789062 C 1.753906 6.660156 1.597656 6.6875 1.585938 6.820312 C 1.578125 6.902344 1.652344 6.988281 2.167969 7.503906 C 2.578125 7.917969 3.101562 8.359375 3.445312 8.585938 C 3.558594 8.660156 3.761719 8.773438 3.902344 8.839844 C 4.042969 8.902344 4.292969 9.035156 4.457031 9.132812 C 4.757812 9.3125 4.757812 9.3125 5.078125 9.699219 C 5.25 9.910156 5.433594 10.15625 5.480469 10.246094 C 5.527344 10.332031 5.660156 10.558594 5.773438 10.746094 C 6.015625 11.148438 6.097656 11.316406 6.386719 12.046875 C 6.75 12.964844 7.320312 14.175781 7.523438 14.453125 C 7.644531 14.617188 7.730469 14.675781 7.996094 14.757812 C 8.136719 14.804688 8.28125 14.871094 8.371094 14.929688 C 8.535156 15.046875 8.835938 15.347656 9.15625 15.722656 C 9.5625 16.199219 10.011719 16.59375 10.277344 16.707031 C 10.359375 16.742188 10.539062 16.804688 10.679688 16.847656 C 11.128906 16.980469 11.359375 17.109375 11.636719 17.378906 C 11.714844 17.453125 11.886719 17.609375 12.019531 17.726562 C 12.15625 17.84375 12.367188 18.03125 12.488281 18.140625 C 12.78125 18.40625 13.078125 18.605469 13.414062 18.777344 C 13.785156 18.960938 13.875 19.027344 13.925781 19.144531 C 13.949219 19.199219 13.984375 19.25 14.007812 19.257812 C 14.03125 19.269531 14.046875 19.316406 14.050781 19.390625 C 14.050781 19.527344 14.125 19.636719 14.21875 19.644531 C 14.328125 19.652344 14.503906 19.566406 14.722656 19.402344 C 14.835938 19.3125 15.066406 19.140625 15.238281 19.019531 C 15.542969 18.808594 15.644531 18.714844 16.027344 18.316406 C 16.144531 18.191406 16.332031 18.039062 16.53125 17.902344 C 16.953125 17.617188 17.035156 17.546875 17.441406 17.140625 C 17.664062 16.914062 17.898438 16.707031 18.105469 16.554688 C 18.542969 16.234375 18.855469 15.964844 19.066406 15.730469 C 19.167969 15.625 19.339844 15.453125 19.449219 15.347656 C 19.5625 15.246094 19.726562 15.082031 19.8125 14.988281 C 20.015625 14.761719 20.214844 14.566406 20.527344 14.292969 C 20.667969 14.171875 20.808594 14.023438 20.847656 13.964844 C 20.882812 13.90625 20.945312 13.816406 20.988281 13.765625 C 21.03125 13.714844 21.140625 13.558594 21.234375 13.421875 C 21.433594 13.125 21.605469 12.933594 22.074219 12.488281 C 22.265625 12.304688 22.46875 12.101562 22.527344 12.035156 C 22.582031 11.96875 22.765625 11.777344 22.925781 11.613281 C 23.089844 11.445312 23.320312 11.203125 23.4375 11.070312 C 23.558594 10.9375 23.722656 10.765625 23.804688 10.691406 C 23.886719 10.613281 24.035156 10.453125 24.136719 10.335938 C 24.371094 10.0625 24.511719 9.9375 24.726562 9.824219 C 25.402344 9.472656 25.90625 9.351562 26.890625 9.300781 C 27.71875 9.257812 28.164062 9.183594 28.625 9.007812 C 29.039062 8.847656 29.175781 8.769531 29.171875 8.6875 C 29.167969 8.605469 29.09375 8.601562 28.960938 8.675781 " fill-opacity="1" fill-rule="nonzero"/></g></g></g></g></g><g fill="#fff4f5" fill-opacity="1"><g transform="translate(6.621744, 24.743455)"><g><path d="M 0.671875 -0.0625 L 0.671875 -0.25 C 0.671875 -0.300781 0.671875 -0.359375 0.671875 -0.421875 C 0.671875 -0.460938 0.671875 -0.492188 0.671875 -0.515625 L 0.671875 -0.59375 C 0.671875 -0.632812 0.664062 -0.675781 0.65625 -0.71875 C 0.65625 -0.9375 0.640625 -1.34375 0.609375 -1.9375 C 0.578125 -2.519531 0.5625 -2.914062 0.5625 -3.125 C 0.351562 -3.125 0.210938 -3.128906 0.140625 -3.140625 C 0.078125 -3.148438 0.046875 -3.175781 0.046875 -3.21875 C 0.0664062 -3.25 0.0976562 -3.265625 0.140625 -3.265625 C 0.242188 -3.265625 0.390625 -3.257812 0.578125 -3.25 C 0.742188 -3.226562 0.882812 -3.21875 1 -3.21875 L 1.109375 -3.21875 L 1.203125 -3.234375 C 1.265625 -3.234375 1.296875 -3.210938 1.296875 -3.171875 C 1.296875 -3.148438 1.285156 -3.128906 1.265625 -3.109375 C 1.242188 -3.097656 1.21875 -3.09375 1.1875 -3.09375 C 1.125 -3.09375 1.054688 -3.097656 0.984375 -3.109375 L 0.765625 -3.125 C 0.753906 -3.125 0.75 -3.117188 0.75 -3.109375 C 0.75 -3.097656 0.75 -3.066406 0.75 -3.015625 C 0.75 -2.691406 0.765625 -2.207031 0.796875 -1.5625 C 0.835938 -0.894531 0.859375 -0.414062 0.859375 -0.125 C 0.859375 -0.101562 0.84375 -0.0820312 0.8125 -0.0625 C 0.78125 -0.0390625 0.753906 -0.03125 0.734375 -0.03125 Z M 0.671875 -0.0625 "/></g></g></g><g fill="#fff4f5" fill-opacity="1"><g transform="translate(8.085428, 24.743455)"><g><path d="M 0.859375 0.09375 C 0.484375 0.09375 0.296875 -0.507812 0.296875 -1.71875 L 0.296875 -1.890625 C 0.296875 -2.804688 0.410156 -3.265625 0.640625 -3.265625 C 0.660156 -3.265625 0.6875 -3.257812 0.71875 -3.25 C 0.820312 -3.207031 0.925781 -3.179688 1.03125 -3.171875 C 1.09375 -3.160156 1.148438 -3.097656 1.203125 -2.984375 C 1.273438 -2.867188 1.328125 -2.710938 1.359375 -2.515625 C 1.398438 -2.328125 1.421875 -2.128906 1.421875 -1.921875 L 1.40625 -1.90625 C 1.40625 -1.789062 1.40625 -1.691406 1.40625 -1.609375 L 1.421875 -1.3125 C 1.421875 -1.144531 1.410156 -0.992188 1.390625 -0.859375 C 1.378906 -0.660156 1.347656 -0.484375 1.296875 -0.328125 C 1.265625 -0.242188 1.226562 -0.171875 1.1875 -0.109375 C 1.15625 -0.0546875 1.113281 -0.0078125 1.0625 0.03125 C 1.007812 0.0703125 0.941406 0.09375 0.859375 0.09375 Z M 0.84375 -0.046875 C 0.96875 -0.046875 1.0625 -0.132812 1.125 -0.3125 C 1.1875 -0.5 1.226562 -0.6875 1.25 -0.875 C 1.257812 -1.070312 1.265625 -1.234375 1.265625 -1.359375 C 1.265625 -1.484375 1.253906 -1.675781 1.234375 -1.9375 C 1.210938 -2.21875 1.203125 -2.410156 1.203125 -2.515625 L 1.1875 -2.546875 L 1.203125 -2.578125 C 1.203125 -2.722656 1.160156 -2.847656 1.078125 -2.953125 C 0.992188 -3.054688 0.894531 -3.109375 0.78125 -3.109375 C 0.632812 -3.109375 0.546875 -3.035156 0.515625 -2.890625 C 0.503906 -2.835938 0.5 -2.769531 0.5 -2.6875 C 0.5 -2.4375 0.488281 -2.269531 0.46875 -2.1875 C 0.46875 -2.132812 0.460938 -2.054688 0.453125 -1.953125 L 0.4375 -1.71875 C 0.4375 -1.644531 0.441406 -1.582031 0.453125 -1.53125 L 0.453125 -1.328125 C 0.453125 -1.179688 0.46875 -1.003906 0.5 -0.796875 C 0.507812 -0.648438 0.523438 -0.523438 0.546875 -0.421875 C 0.578125 -0.328125 0.617188 -0.242188 0.671875 -0.171875 C 0.722656 -0.0859375 0.78125 -0.046875 0.84375 -0.046875 Z M 0.84375 -0.046875 "/></g></g></g><g fill="#fff4f5" fill-opacity="1"><g transform="translate(9.790595, 24.743455)"><g/></g></g><g fill="#fff4f5" fill-opacity="1"><g transform="translate(10.633322, 24.743455)"><g><path d="M 0.046875 0.5 L 0.046875 0.484375 L 0.03125 0.46875 C 0.03125 0.457031 0.0625 0.4375 0.125 0.40625 C 0.175781 0.363281 0.234375 0.320312 0.296875 0.28125 C 0.367188 0.238281 0.40625 0.210938 0.40625 0.203125 C 0.457031 0.148438 0.492188 0.0664062 0.515625 -0.046875 C 0.546875 -0.171875 0.5625 -0.289062 0.5625 -0.40625 C 0.5625 -0.757812 0.554688 -1.195312 0.546875 -1.71875 C 0.523438 -2.207031 0.515625 -2.644531 0.515625 -3.03125 L 0.5 -3.078125 C 0.46875 -3.085938 0.425781 -3.097656 0.375 -3.109375 C 0.3125 -3.109375 0.253906 -3.117188 0.203125 -3.140625 C 0.160156 -3.160156 0.140625 -3.179688 0.140625 -3.203125 C 0.140625 -3.222656 0.148438 -3.238281 0.171875 -3.25 C 0.203125 -3.257812 0.222656 -3.265625 0.234375 -3.265625 C 0.296875 -3.265625 0.394531 -3.253906 0.53125 -3.234375 C 0.664062 -3.210938 0.785156 -3.179688 0.890625 -3.140625 C 1.003906 -3.109375 1.0625 -3.082031 1.0625 -3.0625 C 1.0625 -3.039062 1.050781 -3.023438 1.03125 -3.015625 C 1.019531 -3.003906 1.003906 -3 0.984375 -3 C 0.953125 -3 0.90625 -3.003906 0.84375 -3.015625 C 0.789062 -3.035156 0.75 -3.046875 0.71875 -3.046875 C 0.6875 -3.046875 0.671875 -3.015625 0.671875 -2.953125 C 0.671875 -2.765625 0.675781 -2.421875 0.6875 -1.921875 C 0.707031 -1.546875 0.71875 -1.207031 0.71875 -0.90625 L 0.71875 -0.359375 C 0.695312 -0.316406 0.6875 -0.25 0.6875 -0.15625 C 0.6875 -0.0195312 0.648438 0.132812 0.578125 0.3125 C 0.523438 0.394531 0.46875 0.460938 0.40625 0.515625 C 0.34375 0.578125 0.269531 0.609375 0.1875 0.609375 L 0.15625 0.609375 Z M 0.046875 0.5 "/></g></g></g><g fill="#fff4f5" fill-opacity="1"><g transform="translate(11.816097, 24.743455)"><g><path d="M 0.453125 0.0625 C 0.390625 0.0625 0.351562 0.0234375 0.34375 -0.046875 L 0.34375 -0.109375 C 0.351562 -0.117188 0.359375 -0.132812 0.359375 -0.15625 L 0.328125 -0.1875 C 0.359375 -0.25 0.375 -0.316406 0.375 -0.390625 C 0.375 -0.460938 0.367188 -0.566406 0.359375 -0.703125 L 0.34375 -1.03125 C 0.34375 -1.195312 0.347656 -1.441406 0.359375 -1.765625 C 0.378906 -2.054688 0.390625 -2.304688 0.390625 -2.515625 L 0.375 -2.8125 C 0.363281 -2.894531 0.359375 -2.992188 0.359375 -3.109375 C 0.359375 -3.148438 0.367188 -3.179688 0.390625 -3.203125 C 0.421875 -3.234375 0.457031 -3.25 0.5 -3.25 C 0.539062 -3.25 0.566406 -3.238281 0.578125 -3.21875 C 0.585938 -3.207031 0.640625 -3.195312 0.734375 -3.1875 C 0.804688 -3.175781 0.875 -3.164062 0.9375 -3.15625 C 1 -3.132812 1.03125 -3.109375 1.03125 -3.078125 C 1.03125 -3.046875 1 -3.015625 0.9375 -2.984375 C 0.75 -3.046875 0.617188 -3.078125 0.546875 -3.078125 L 0.515625 -3.046875 C 0.515625 -3.015625 0.515625 -2.941406 0.515625 -2.828125 C 0.515625 -2.691406 0.515625 -2.566406 0.515625 -2.453125 C 0.503906 -2.335938 0.5 -2.207031 0.5 -2.0625 C 0.5 -1.96875 0.523438 -1.921875 0.578125 -1.921875 L 0.65625 -1.9375 C 0.675781 -1.9375 0.703125 -1.9375 0.734375 -1.9375 C 0.867188 -1.9375 0.9375 -1.90625 0.9375 -1.84375 C 0.9375 -1.8125 0.925781 -1.78125 0.90625 -1.75 C 0.882812 -1.726562 0.859375 -1.71875 0.828125 -1.71875 C 0.785156 -1.71875 0.75 -1.734375 0.71875 -1.765625 L 0.5625 -1.78125 L 0.53125 -1.78125 L 0.515625 -1.765625 L 0.515625 -1.75 C 0.515625 -1.6875 0.515625 -1.554688 0.515625 -1.359375 C 0.515625 -1.234375 0.515625 -1.117188 0.515625 -1.015625 L 0.515625 -0.65625 C 0.515625 -0.53125 0.519531 -0.398438 0.53125 -0.265625 C 0.53125 -0.191406 0.546875 -0.140625 0.578125 -0.109375 C 0.609375 -0.0859375 0.660156 -0.078125 0.734375 -0.078125 L 0.828125 -0.078125 C 0.859375 -0.0859375 0.890625 -0.09375 0.921875 -0.09375 C 1.015625 -0.09375 1.0625 -0.0703125 1.0625 -0.03125 C 1.0625 0.03125 0.988281 0.0625 0.84375 0.0625 Z M 0.453125 0.0625 "/></g></g></g><g fill="#fff4f5" fill-opacity="1"><g transform="translate(13.077724, 24.743455)"><g><path d="M 0.40625 0.0625 C 0.375 0.0507812 0.335938 0.0351562 0.296875 0.015625 C 0.265625 -0.00390625 0.25 -0.03125 0.25 -0.0625 L 0.28125 -0.09375 C 0.289062 -0.09375 0.316406 -0.0859375 0.359375 -0.078125 C 0.398438 -0.0664062 0.429688 -0.0625 0.453125 -0.0625 C 0.523438 -0.0625 0.585938 -0.0859375 0.640625 -0.140625 C 0.703125 -0.203125 0.742188 -0.28125 0.765625 -0.375 C 0.816406 -0.539062 0.84375 -0.703125 0.84375 -0.859375 C 0.84375 -1.085938 0.773438 -1.328125 0.640625 -1.578125 C 0.546875 -1.734375 0.476562 -1.851562 0.4375 -1.9375 C 0.394531 -2.03125 0.351562 -2.132812 0.3125 -2.25 C 0.269531 -2.382812 0.25 -2.515625 0.25 -2.640625 C 0.25 -2.753906 0.28125 -2.894531 0.34375 -3.0625 C 0.375 -3.132812 0.414062 -3.191406 0.46875 -3.234375 C 0.519531 -3.285156 0.578125 -3.3125 0.640625 -3.3125 C 0.679688 -3.3125 0.722656 -3.296875 0.765625 -3.265625 C 0.804688 -3.234375 0.828125 -3.203125 0.828125 -3.171875 C 0.828125 -3.148438 0.804688 -3.140625 0.765625 -3.140625 C 0.753906 -3.140625 0.738281 -3.144531 0.71875 -3.15625 C 0.695312 -3.164062 0.675781 -3.171875 0.65625 -3.171875 C 0.601562 -3.171875 0.554688 -3.148438 0.515625 -3.109375 C 0.484375 -3.066406 0.457031 -3.015625 0.4375 -2.953125 C 0.394531 -2.828125 0.375 -2.71875 0.375 -2.625 C 0.375 -2.5625 0.382812 -2.492188 0.40625 -2.421875 C 0.40625 -2.398438 0.40625 -2.382812 0.40625 -2.375 C 0.414062 -2.363281 0.421875 -2.351562 0.421875 -2.34375 L 0.453125 -2.25 L 0.46875 -2.15625 L 0.515625 -2.078125 C 0.523438 -2.046875 0.535156 -2.019531 0.546875 -2 C 0.554688 -1.988281 0.566406 -1.972656 0.578125 -1.953125 L 0.640625 -1.859375 C 0.648438 -1.835938 0.675781 -1.789062 0.71875 -1.71875 C 0.757812 -1.644531 0.800781 -1.566406 0.84375 -1.484375 C 0.875 -1.410156 0.894531 -1.34375 0.90625 -1.28125 C 0.925781 -1.226562 0.941406 -1.15625 0.953125 -1.0625 C 0.960938 -0.976562 0.96875 -0.890625 0.96875 -0.796875 C 0.96875 -0.640625 0.945312 -0.492188 0.90625 -0.359375 C 0.84375 -0.191406 0.757812 -0.078125 0.65625 -0.015625 C 0.59375 0.0234375 0.519531 0.046875 0.4375 0.046875 Z M 0.796875 -3.15625 Z M 0.796875 -3.15625 "/></g></g></g><g fill="#fff4f5" fill-opacity="1"><g transform="translate(14.290068, 24.743455)"><g><path d="M 0.671875 -0.0625 L 0.671875 -0.25 C 0.671875 -0.300781 0.671875 -0.359375 0.671875 -0.421875 C 0.671875 -0.460938 0.671875 -0.492188 0.671875 -0.515625 L 0.671875 -0.59375 C 0.671875 -0.632812 0.664062 -0.675781 0.65625 -0.71875 C 0.65625 -0.9375 0.640625 -1.34375 0.609375 -1.9375 C 0.578125 -2.519531 0.5625 -2.914062 0.5625 -3.125 C 0.351562 -3.125 0.210938 -3.128906 0.140625 -3.140625 C 0.078125 -3.148438 0.046875 -3.175781 0.046875 -3.21875 C 0.0664062 -3.25 0.0976562 -3.265625 0.140625 -3.265625 C 0.242188 -3.265625 0.390625 -3.257812 0.578125 -3.25 C 0.742188 -3.226562 0.882812 -3.21875 1 -3.21875 L 1.109375 -3.21875 L 1.203125 -3.234375 C 1.265625 -3.234375 1.296875 -3.210938 1.296875 -3.171875 C 1.296875 -3.148438 1.285156 -3.128906 1.265625 -3.109375 C 1.242188 -3.097656 1.21875 -3.09375 1.1875 -3.09375 C 1.125 -3.09375 1.054688 -3.097656 0.984375 -3.109375 L 0.765625 -3.125 C 0.753906 -3.125 0.75 -3.117188 0.75 -3.109375 C 0.75 -3.097656 0.75 -3.066406 0.75 -3.015625 C 0.75 -2.691406 0.765625 -2.207031 0.796875 -1.5625 C 0.835938 -0.894531 0.859375 -0.414062 0.859375 -0.125 C 0.859375 -0.101562 0.84375 -0.0820312 0.8125 -0.0625 C 0.78125 -0.0390625 0.753906 -0.03125 0.734375 -0.03125 Z M 0.671875 -0.0625 "/></g></g></g><g fill="#fff4f5" fill-opacity="1"><g transform="translate(15.753752, 24.743455)"><g><path d="M 0.453125 0.0625 C 0.390625 0.0625 0.351562 0.0234375 0.34375 -0.046875 L 0.34375 -0.109375 C 0.351562 -0.117188 0.359375 -0.132812 0.359375 -0.15625 L 0.328125 -0.1875 C 0.359375 -0.25 0.375 -0.316406 0.375 -0.390625 C 0.375 -0.460938 0.367188 -0.566406 0.359375 -0.703125 L 0.34375 -1.03125 C 0.34375 -1.195312 0.347656 -1.441406 0.359375 -1.765625 C 0.378906 -2.054688 0.390625 -2.304688 0.390625 -2.515625 L 0.375 -2.8125 C 0.363281 -2.894531 0.359375 -2.992188 0.359375 -3.109375 C 0.359375 -3.148438 0.367188 -3.179688 0.390625 -3.203125 C 0.421875 -3.234375 0.457031 -3.25 0.5 -3.25 C 0.539062 -3.25 0.566406 -3.238281 0.578125 -3.21875 C 0.585938 -3.207031 0.640625 -3.195312 0.734375 -3.1875 C 0.804688 -3.175781 0.875 -3.164062 0.9375 -3.15625 C 1 -3.132812 1.03125 -3.109375 1.03125 -3.078125 C 1.03125 -3.046875 1 -3.015625 0.9375 -2.984375 C 0.75 -3.046875 0.617188 -3.078125 0.546875 -3.078125 L 0.515625 -3.046875 C 0.515625 -3.015625 0.515625 -2.941406 0.515625 -2.828125 C 0.515625 -2.691406 0.515625 -2.566406 0.515625 -2.453125 C 0.503906 -2.335938 0.5 -2.207031 0.5 -2.0625 C 0.5 -1.96875 0.523438 -1.921875 0.578125 -1.921875 L 0.65625 -1.9375 C 0.675781 -1.9375 0.703125 -1.9375 0.734375 -1.9375 C 0.867188 -1.9375 0.9375 -1.90625 0.9375 -1.84375 C 0.9375 -1.8125 0.925781 -1.78125 0.90625 -1.75 C 0.882812 -1.726562 0.859375 -1.71875 0.828125 -1.71875 C 0.785156 -1.71875 0.75 -1.734375 0.71875 -1.765625 L 0.5625 -1.78125 L 0.53125 -1.78125 L 0.515625 -1.765625 L 0.515625 -1.75 C 0.515625 -1.6875 0.515625 -1.554688 0.515625 -1.359375 C 0.515625 -1.234375 0.515625 -1.117188 0.515625 -1.015625 L 0.515625 -0.65625 C 0.515625 -0.53125 0.519531 -0.398438 0.53125 -0.265625 C 0.53125 -0.191406 0.546875 -0.140625 0.578125 -0.109375 C 0.609375 -0.0859375 0.660156 -0.078125 0.734375 -0.078125 L 0.828125 -0.078125 C 0.859375 -0.0859375 0.890625 -0.09375 0.921875 -0.09375 C 1.015625 -0.09375 1.0625 -0.0703125 1.0625 -0.03125 C 1.0625 0.03125 0.988281 0.0625 0.84375 0.0625 Z M 0.453125 0.0625 "/></g></g></g><g fill="#fff4f5" fill-opacity="1"><g transform="translate(17.015378, 24.743455)"><g><path d="M 2.296875 0.25 C 2.234375 0.25 2.203125 0.144531 2.203125 -0.0625 L 2.203125 -0.390625 C 2.203125 -0.859375 2.191406 -1.222656 2.171875 -1.484375 L 2.15625 -1.671875 C 2.144531 -1.753906 2.140625 -1.828125 2.140625 -1.890625 C 2.140625 -2.003906 2.140625 -2.101562 2.140625 -2.1875 L 2.15625 -2.5 C 2.15625 -2.601562 2.148438 -2.679688 2.140625 -2.734375 C 2.066406 -2.679688 1.867188 -1.988281 1.546875 -0.65625 L 1.53125 -0.578125 C 1.519531 -0.503906 1.507812 -0.441406 1.5 -0.390625 C 1.488281 -0.347656 1.472656 -0.316406 1.453125 -0.296875 C 1.429688 -0.285156 1.410156 -0.28125 1.390625 -0.28125 C 1.335938 -0.28125 1.300781 -0.289062 1.28125 -0.3125 C 1.257812 -0.34375 1.25 -0.382812 1.25 -0.4375 C 1.25 -0.53125 1.207031 -0.757812 1.125 -1.125 C 1.039062 -1.5 0.945312 -1.851562 0.84375 -2.1875 C 0.75 -2.53125 0.6875 -2.722656 0.65625 -2.765625 C 0.644531 -2.648438 0.628906 -2.378906 0.609375 -1.953125 C 0.566406 -1.191406 0.546875 -0.597656 0.546875 -0.171875 L 0.546875 0.03125 C 0.535156 0.0703125 0.5 0.09375 0.4375 0.09375 C 0.425781 0.09375 0.410156 0.0820312 0.390625 0.0625 C 0.367188 0.0507812 0.359375 0.0390625 0.359375 0.03125 C 0.359375 -0.269531 0.382812 -0.789062 0.4375 -1.53125 C 0.488281 -2.21875 0.515625 -2.734375 0.515625 -3.078125 C 0.515625 -3.097656 0.507812 -3.113281 0.5 -3.125 C 0.488281 -3.144531 0.484375 -3.160156 0.484375 -3.171875 C 0.484375 -3.222656 0.523438 -3.25 0.609375 -3.25 C 0.671875 -3.25 0.707031 -3.222656 0.71875 -3.171875 C 0.726562 -3.109375 0.734375 -3.0625 0.734375 -3.03125 L 0.734375 -2.96875 C 0.753906 -2.882812 0.800781 -2.753906 0.875 -2.578125 C 0.9375 -2.429688 0.988281 -2.304688 1.03125 -2.203125 C 1.039062 -2.128906 1.054688 -2.066406 1.078125 -2.015625 C 1.128906 -1.828125 1.164062 -1.6875 1.1875 -1.59375 L 1.25 -1.46875 C 1.257812 -1.414062 1.273438 -1.332031 1.296875 -1.21875 C 1.328125 -1.09375 1.347656 -0.988281 1.359375 -0.90625 C 1.378906 -0.832031 1.390625 -0.757812 1.390625 -0.6875 C 1.421875 -0.738281 1.519531 -1.070312 1.6875 -1.6875 C 1.863281 -2.3125 1.96875 -2.707031 2 -2.875 C 2 -2.882812 2 -2.894531 2 -2.90625 C 2 -2.914062 2.003906 -2.929688 2.015625 -2.953125 C 2.015625 -2.992188 2.023438 -3.054688 2.046875 -3.140625 C 2.078125 -3.203125 2.117188 -3.234375 2.171875 -3.234375 C 2.191406 -3.234375 2.21875 -3.222656 2.25 -3.203125 C 2.28125 -3.179688 2.296875 -3.164062 2.296875 -3.15625 C 2.296875 -1.78125 2.316406 -1.054688 2.359375 -0.984375 L 2.359375 -0.71875 C 2.359375 -0.644531 2.359375 -0.5625 2.359375 -0.46875 C 2.359375 -0.25 2.367188 -0.0859375 2.390625 0.015625 C 2.390625 0.0234375 2.394531 0.0351562 2.40625 0.046875 C 2.40625 0.0546875 2.40625 0.0703125 2.40625 0.09375 C 2.40625 0.125 2.394531 0.15625 2.375 0.1875 C 2.351562 0.226562 2.328125 0.25 2.296875 0.25 Z M 2.140625 -2.765625 L 2.125 -2.765625 L 2.125 -2.75 L 2.140625 -2.75 Z M 2.140625 -2.765625 "/></g></g></g><g fill="#fff4f5" fill-opacity="1"><g transform="translate(19.809684, 24.743455)"><g/></g></g><g fill="#fff4f5" fill-opacity="1"><g transform="translate(20.652411, 24.743455)"><g><path d="M 0.046875 0.5 L 0.046875 0.484375 L 0.03125 0.46875 C 0.03125 0.457031 0.0625 0.4375 0.125 0.40625 C 0.175781 0.363281 0.234375 0.320312 0.296875 0.28125 C 0.367188 0.238281 0.40625 0.210938 0.40625 0.203125 C 0.457031 0.148438 0.492188 0.0664062 0.515625 -0.046875 C 0.546875 -0.171875 0.5625 -0.289062 0.5625 -0.40625 C 0.5625 -0.757812 0.554688 -1.195312 0.546875 -1.71875 C 0.523438 -2.207031 0.515625 -2.644531 0.515625 -3.03125 L 0.5 -3.078125 C 0.46875 -3.085938 0.425781 -3.097656 0.375 -3.109375 C 0.3125 -3.109375 0.253906 -3.117188 0.203125 -3.140625 C 0.160156 -3.160156 0.140625 -3.179688 0.140625 -3.203125 C 0.140625 -3.222656 0.148438 -3.238281 0.171875 -3.25 C 0.203125 -3.257812 0.222656 -3.265625 0.234375 -3.265625 C 0.296875 -3.265625 0.394531 -3.253906 0.53125 -3.234375 C 0.664062 -3.210938 0.785156 -3.179688 0.890625 -3.140625 C 1.003906 -3.109375 1.0625 -3.082031 1.0625 -3.0625 C 1.0625 -3.039062 1.050781 -3.023438 1.03125 -3.015625 C 1.019531 -3.003906 1.003906 -3 0.984375 -3 C 0.953125 -3 0.90625 -3.003906 0.84375 -3.015625 C 0.789062 -3.035156 0.75 -3.046875 0.71875 -3.046875 C 0.6875 -3.046875 0.671875 -3.015625 0.671875 -2.953125 C 0.671875 -2.765625 0.675781 -2.421875 0.6875 -1.921875 C 0.707031 -1.546875 0.71875 -1.207031 0.71875 -0.90625 L 0.71875 -0.359375 C 0.695312 -0.316406 0.6875 -0.25 0.6875 -0.15625 C 0.6875 -0.0195312 0.648438 0.132812 0.578125 0.3125 C 0.523438 0.394531 0.46875 0.460938 0.40625 0.515625 C 0.34375 0.578125 0.269531 0.609375 0.1875 0.609375 L 0.15625 0.609375 Z M 0.046875 0.5 "/></g></g></g><g fill="#fff4f5" fill-opacity="1"><g transform="translate(21.835186, 24.743455)"><g><path d="M 1.328125 0.046875 C 1.273438 0.046875 1.238281 0.0390625 1.21875 0.03125 C 1.207031 0.0195312 1.203125 -0.0078125 1.203125 -0.0625 C 1.171875 -0.300781 1.148438 -0.453125 1.140625 -0.515625 L 1.125 -0.703125 C 1.050781 -0.722656 0.96875 -0.734375 0.875 -0.734375 L 0.703125 -0.75 C 0.617188 -0.757812 0.5625 -0.765625 0.53125 -0.765625 C 0.507812 -0.765625 0.5 -0.753906 0.5 -0.734375 C 0.5 -0.722656 0.492188 -0.71875 0.484375 -0.71875 L 0.484375 -0.625 C 0.472656 -0.5625 0.453125 -0.441406 0.421875 -0.265625 C 0.410156 -0.179688 0.390625 -0.113281 0.359375 -0.0625 C 0.335938 0 0.316406 0.03125 0.296875 0.03125 C 0.273438 0.03125 0.25 0.0195312 0.21875 0 C 0.195312 -0.0195312 0.1875 -0.0390625 0.1875 -0.0625 L 0.203125 -0.078125 L 0.203125 -0.09375 C 0.265625 -0.320312 0.3125 -0.550781 0.34375 -0.78125 L 0.40625 -1.09375 L 0.46875 -1.46875 C 0.46875 -1.46875 0.484375 -1.570312 0.515625 -1.78125 C 0.535156 -1.875 0.566406 -2.019531 0.609375 -2.21875 C 0.648438 -2.4375 0.675781 -2.585938 0.6875 -2.671875 C 0.695312 -2.679688 0.707031 -2.742188 0.71875 -2.859375 C 0.726562 -2.984375 0.738281 -3.070312 0.75 -3.125 C 0.757812 -3.21875 0.769531 -3.269531 0.78125 -3.28125 L 0.8125 -3.28125 C 0.820312 -3.269531 0.832031 -3.265625 0.84375 -3.265625 C 0.882812 -3.265625 0.914062 -3.273438 0.9375 -3.296875 C 0.957031 -3.296875 0.976562 -3.289062 1 -3.28125 C 1.019531 -3.269531 1.03125 -3.253906 1.03125 -3.234375 C 1.03125 -3.078125 1.039062 -2.894531 1.0625 -2.6875 C 1.070312 -2.582031 1.082031 -2.492188 1.09375 -2.421875 C 1.125 -2.003906 1.210938 -1.210938 1.359375 -0.046875 L 1.359375 -0.03125 C 1.359375 0 1.347656 0.0234375 1.328125 0.046875 Z M 1.09375 -0.84375 C 1.0625 -1.3125 1 -2.007812 0.90625 -2.9375 L 0.640625 -1.625 C 0.566406 -1.238281 0.53125 -1 0.53125 -0.90625 C 0.53125 -0.882812 0.59375 -0.867188 0.71875 -0.859375 C 0.84375 -0.847656 0.953125 -0.84375 1.046875 -0.84375 Z M 1.09375 -0.84375 "/></g></g></g></svg>