<svg xmlns="http://www.w3.org/2000/svg" xmlns:xlink="http://www.w3.org/1999/xlink" width="400" zoomAndPan="magnify" viewBox="0 0 300 149.999998" height="200" preserveAspectRatio="xMidYMid meet" version="1.0"><defs><g/><clipPath id="d0243d19d1"><path d="M 6 27 L 192 27 L 192 126 L 6 126 Z M 6 27 " clip-rule="nonzero"/></clipPath><clipPath id="d77cd77622"><path d="M 9.117188 16.074219 L 192.875 32.601562 L 183.734375 134.191406 L -0.0234375 117.664062 Z M 9.117188 16.074219 " clip-rule="nonzero"/></clipPath><clipPath id="6315e4e56c"><path d="M 9.117188 16.074219 L 192.875 32.601562 L 183.734375 134.191406 L -0.0234375 117.664062 Z M 9.117188 16.074219 " clip-rule="nonzero"/></clipPath><clipPath id="ceb8969383"><path d="M 9.113281 16.085938 L 192.953125 32.621094 L 183.8125 134.253906 L -0.0273438 117.71875 Z M 9.113281 16.085938 " clip-rule="nonzero"/></clipPath><clipPath id="e78c4909cb"><path d="M 9.113281 16.085938 L 192.875 32.613281 L 183.742188 134.183594 L -0.0195312 117.65625 Z M 9.113281 16.085938 " clip-rule="nonzero"/></clipPath></defs><rect x="-30" width="360" fill="#ffffff" y="-15" height="179.999997" fill-opacity="1"/><rect x="-30" width="360" fill="#ffffff" y="-15" height="179.999997" fill-opacity="1"/><rect x="-30" width="360" fill="#ffffff" y="-15" height="179.999997" fill-opacity="1"/><g clip-path="url(#d0243d19d1)"><g clip-path="url(#d77cd77622)"><g clip-path="url(#6315e4e56c)"><g clip-path="url(#ceb8969383)"><g clip-path="url(#e78c4909cb)"><path fill="#5f021f" d="M 131.390625 89.875 C 131.214844 89.96875 130.605469 90.292969 130.039062 90.589844 C 129.472656 90.886719 128.328125 91.648438 127.496094 92.277344 C 126.664062 92.90625 125.210938 93.945312 124.265625 94.585938 C 122.261719 95.9375 117.71875 100.003906 116.214844 101.789062 C 115.144531 103.054688 113.875 104.097656 111.847656 105.363281 C 111.207031 105.761719 110.238281 106.390625 109.695312 106.761719 C 109.152344 107.136719 107.875 107.894531 106.859375 108.453125 C 104.519531 109.742188 103.949219 110.214844 101.605469 112.789062 C 96.738281 118.144531 96.589844 118.285156 94.464844 119.621094 C 93.675781 120.113281 92.601562 120.84375 92.070312 121.246094 C 91.035156 122.023438 90.648438 122.152344 91.011719 121.597656 C 91.382812 121.03125 91.304688 119.339844 90.839844 117.898438 C 90.363281 116.433594 90.378906 116.347656 91.375 114.613281 C 91.859375 113.773438 92.171875 113.414062 92.492188 113.324219 C 92.839844 113.226562 92.941406 113.09375 92.945312 112.730469 C 92.949219 112.445312 93.328125 111.675781 93.921875 110.746094 C 94.785156 109.394531 95.171875 108.996094 97.535156 107.015625 C 100.441406 104.582031 101.371094 103.527344 103.074219 100.773438 C 104.574219 98.339844 105.707031 96.703125 107.09375 94.949219 C 108.378906 93.332031 108.957031 92.984375 111.058594 92.578125 C 111.996094 92.394531 112.9375 92.386719 115.359375 92.539062 C 118.953125 92.765625 120.65625 92.570312 123.941406 91.5625 C 125.886719 90.96875 131.238281 89.644531 131.546875 89.683594 C 131.640625 89.695312 131.570312 89.78125 131.390625 89.875 Z M 127.914062 93.855469 C 127.304688 94.519531 126.210938 95.617188 125.480469 96.292969 C 124.75 96.96875 123.636719 98.085938 123.007812 98.769531 C 121.449219 100.46875 120.765625 101.074219 118.027344 103.179688 C 116.730469 104.179688 115.257812 105.316406 114.753906 105.710938 C 114.246094 106.105469 112.949219 107.324219 111.871094 108.421875 C 109.785156 110.542969 108.265625 111.835938 106.527344 112.976562 C 104.707031 114.167969 103.246094 115.410156 101.382812 117.351562 C 100.195312 118.589844 98.859375 119.75 97.410156 120.800781 C 96.210938 121.671875 94.671875 122.816406 93.992188 123.347656 C 93.316406 123.878906 92.453125 124.4375 92.074219 124.589844 C 91.398438 124.859375 91.390625 124.859375 91.246094 124.523438 C 91.167969 124.339844 91.121094 123.96875 91.144531 123.707031 C 91.191406 123.191406 91.539062 122.917969 95.195312 120.542969 C 97.109375 119.304688 97.855469 118.613281 100.832031 115.347656 C 104.839844 110.957031 104.839844 110.957031 107.546875 109.371094 C 113.261719 106.023438 115.714844 104.257812 117.097656 102.488281 C 118.105469 101.207031 123.171875 96.695312 124.839844 95.601562 C 125.488281 95.171875 126.671875 94.332031 127.46875 93.730469 C 128.261719 93.128906 128.9375 92.640625 128.964844 92.640625 C 128.996094 92.644531 128.523438 93.191406 127.914062 93.855469 Z M 104.710938 96.035156 C 104.726562 96.03125 103.9375 97.308594 102.953125 98.867188 C 100.363281 102.96875 99.800781 103.636719 97.054688 105.886719 C 95.726562 106.972656 94.394531 108.171875 94.097656 108.550781 C 93.800781 108.929688 93.535156 109.15625 93.511719 109.058594 C 93.460938 108.828125 93.945312 108.058594 94.84375 106.953125 C 95.230469 106.476562 95.996094 105.367188 96.550781 104.488281 C 97.707031 102.660156 99.917969 100.253906 102.753906 97.742188 C 103.8125 96.804688 104.691406 96.035156 104.710938 96.035156 Z M 90.6875 113.601562 L 89.742188 115.082031 L 89.445312 114.574219 C 89.070312 113.929688 89.070312 113.925781 89.605469 113.984375 C 90.203125 114.046875 90.761719 113.265625 90.886719 112.203125 C 91.027344 110.996094 90.894531 110.59375 89.832031 108.992188 C 89.289062 108.175781 88.773438 107.390625 88.683594 107.25 C 88.59375 107.105469 88.742188 107.175781 89.015625 107.40625 C 89.589844 107.890625 89.914062 107.953125 90.222656 107.644531 C 90.511719 107.351562 90.121094 105.054688 89.578125 103.867188 C 89.140625 102.914062 85.8125 98.445312 84.746094 97.378906 C 84.363281 96.996094 82.972656 96.023438 81.65625 95.21875 C 80.269531 94.371094 78.800781 93.316406 78.167969 92.722656 C 75.570312 90.265625 73.109375 88.167969 72.070312 87.523438 C 71.050781 86.894531 70.945312 86.777344 70.882812 86.191406 C 70.792969 85.402344 69.371094 81.34375 68.707031 79.984375 C 68.4375 79.441406 67.886719 78.167969 67.476562 77.15625 C 66.691406 75.210938 66.144531 74.335938 65.683594 74.296875 C 65.289062 74.261719 65.527344 73.9375 67.28125 72.113281 C 68.078125 71.285156 69 70.210938 69.328125 69.730469 C 70.273438 68.347656 71.648438 65.386719 71.570312 64.90625 C 71.511719 64.523438 71.542969 64.5 71.925781 64.632812 C 72.625 64.878906 73.652344 64.597656 74.207031 64.015625 C 74.703125 63.496094 74.71875 63.492188 74.921875 63.851562 C 75.179688 64.300781 76.292969 64.949219 76.910156 65.011719 C 77.246094 65.042969 77.363281 65.140625 77.34375 65.363281 C 77.308594 65.757812 77.722656 66.207031 78.3125 66.414062 C 78.601562 66.511719 78.90625 66.835938 79.128906 67.269531 C 79.324219 67.648438 79.816406 68.234375 80.222656 68.570312 C 81.332031 69.480469 81.695312 70.011719 82.316406 71.625 C 83.46875 74.609375 84.445312 75.394531 88.261719 76.425781 C 91.136719 77.203125 92.25 77.273438 92.945312 76.734375 C 93.203125 76.53125 93.5 76.203125 93.597656 76 L 93.777344 75.632812 L 94.398438 76.128906 C 94.75 76.410156 95.195312 76.617188 95.425781 76.609375 C 95.683594 76.597656 96.023438 76.785156 96.355469 77.117188 C 96.824219 77.59375 96.964844 77.644531 97.726562 77.621094 C 98.871094 77.589844 100.507812 76.929688 101.441406 76.128906 C 102.636719 75.101562 103.648438 73.371094 105.078125 69.921875 C 106.355469 66.832031 106.492188 66.28125 106.027344 66.054688 C 105.855469 65.96875 105.941406 65.816406 106.371094 65.4375 C 107.601562 64.34375 108.390625 62.996094 108.824219 61.246094 L 108.980469 60.609375 L 109.378906 61.378906 C 109.597656 61.800781 109.875 62.246094 109.996094 62.367188 C 110.46875 62.832031 111.019531 62.875 111.875 62.515625 C 112.882812 62.089844 112.871094 62.089844 112.835938 62.5 C 112.804688 62.847656 113.390625 63.441406 114.511719 64.195312 C 114.953125 64.492188 115.300781 64.902344 115.472656 65.328125 C 115.621094 65.699219 116.101562 66.46875 116.542969 67.042969 C 117.585938 68.410156 117.714844 69.175781 117.425781 72.285156 C 117.144531 75.332031 116.359375 78.304688 115.269531 80.445312 C 114.195312 82.554688 111.652344 87.15625 110.648438 88.8125 C 109.566406 90.59375 108.191406 92.109375 106.925781 92.917969 C 105.152344 94.050781 99.785156 98.769531 97.9375 100.820312 C 96.96875 101.890625 95.875 103.296875 95.507812 103.941406 C 95.140625 104.585938 94.417969 105.648438 93.898438 106.296875 C 92.640625 107.878906 92.117188 109.011719 91.847656 110.722656 C 91.652344 111.988281 91.535156 112.273438 90.6875 113.601562 Z M 89.953125 120.09375 C 89.890625 119.902344 89.855469 119.558594 89.878906 119.328125 C 89.914062 118.949219 89.925781 118.941406 90.027344 119.257812 C 90.089844 119.449219 90.125 119.792969 90.105469 120.023438 C 90.070312 120.40625 90.058594 120.410156 89.953125 120.09375 Z M 88.613281 111.824219 C 88.082031 111.339844 86.988281 110.390625 86.179688 109.714844 C 83.535156 107.5 82.34375 106.410156 80.476562 104.476562 C 78.4375 102.363281 78.238281 102.128906 76.148438 99.28125 C 75.347656 98.1875 74.578125 97.179688 74.433594 97.035156 C 73.9375 96.542969 71.738281 93.570312 71.878906 93.582031 C 71.957031 93.589844 72.863281 94.660156 73.890625 95.960938 C 75.929688 98.539062 77.589844 100.011719 81.03125 102.296875 C 85.226562 105.082031 86.582031 106.277344 88.152344 108.5625 C 89.816406 110.988281 90.085938 111.667969 89.699219 112.457031 C 89.601562 112.65625 89.378906 112.527344 88.613281 111.824219 Z M 78.53125 99.003906 C 78.527344 99.050781 78.1875 98.816406 77.777344 98.480469 C 77 97.84375 73.136719 93.390625 73.15625 93.15625 C 73.191406 92.78125 74.722656 94.292969 76.527344 96.480469 C 77.632812 97.820312 78.535156 98.957031 78.53125 99.003906 Z M 70.101562 89.257812 C 69.226562 88.175781 68.25 86.925781 67.929688 86.476562 C 67.605469 86.03125 66.644531 84.78125 65.792969 83.699219 C 64.277344 81.785156 64.238281 81.714844 64.308594 80.953125 C 64.386719 80.054688 65.367188 76.460938 65.53125 76.480469 C 65.589844 76.484375 65.867188 76.894531 66.148438 77.390625 C 67.769531 80.257812 69.808594 85.425781 69.714844 86.441406 C 69.640625 87.296875 69.785156 87.484375 71.25 88.390625 C 72.582031 89.214844 73.992188 90.394531 77.074219 93.253906 C 78.699219 94.761719 79.617188 95.433594 81.308594 96.351562 C 83.355469 97.464844 84.125 98.203125 86.367188 101.191406 C 88.207031 103.640625 89.0625 105.140625 88.867188 105.574219 C 88.832031 105.65625 88.269531 105.332031 87.617188 104.851562 C 86.964844 104.371094 85.421875 103.351562 84.195312 102.585938 L 81.960938 101.1875 L 78.535156 97.105469 C 76.648438 94.859375 74.859375 92.839844 74.554688 92.617188 C 74.25 92.394531 73.742188 91.933594 73.425781 91.589844 C 72.84375 90.964844 72.246094 90.761719 71.882812 91.0625 C 71.746094 91.179688 71.226562 90.652344 70.101562 89.257812 Z M 70.855469 92.140625 C 70.8125 92.136719 70.652344 91.96875 70.5 91.769531 C 70.351562 91.570312 70.265625 91.414062 70.3125 91.417969 C 70.359375 91.421875 70.519531 91.585938 70.667969 91.785156 C 70.816406 91.984375 70.902344 92.144531 70.855469 92.140625 Z M 69.066406 90.152344 C 68.40625 89.675781 66.589844 87.574219 65.804688 86.382812 C 65.265625 85.558594 64.597656 84.152344 64.757812 84.167969 C 64.796875 84.171875 65.519531 85.128906 66.367188 86.292969 C 67.214844 87.460938 68.289062 88.894531 68.753906 89.476562 C 69.480469 90.390625 69.523438 90.484375 69.066406 90.152344 Z M 91.308594 71.960938 C 91.175781 71.183594 91.304688 68.332031 91.476562 68.347656 C 91.515625 68.351562 91.710938 68.804688 91.910156 69.359375 C 92.648438 71.414062 93.082031 74.191406 92.765625 74.839844 C 92.644531 75.082031 92.59375 75.0625 92.335938 74.667969 C 91.875 73.960938 91.46875 72.890625 91.308594 71.960938 Z M 95.328125 74.011719 C 95.375 74.613281 95.359375 75.152344 95.289062 75.210938 C 95.21875 75.269531 94.988281 75.125 94.777344 74.886719 C 94.441406 74.507812 94.40625 74.316406 94.5 73.273438 C 94.570312 72.457031 94.519531 71.851562 94.335938 71.328125 C 94.191406 70.910156 94.085938 70.410156 94.105469 70.210938 C 94.167969 69.5625 95.238281 72.890625 95.328125 74.011719 Z M 119.4375 59.058594 C 119.488281 59.113281 119.585938 59.84375 119.65625 60.683594 C 120.023438 65.070312 119.816406 69.511719 119.105469 72.421875 C 118.886719 73.324219 118.6875 74.078125 118.664062 74.097656 C 118.636719 74.117188 118.746094 72.539062 118.90625 70.589844 C 119.066406 68.640625 119.214844 65.945312 119.234375 64.601562 C 119.296875 60.246094 119.34375 58.957031 119.4375 59.058594 Z M 189.660156 52.714844 C 188.371094 53.445312 185.082031 54.605469 183.394531 54.933594 C 181.273438 55.34375 178.261719 55.65625 175.140625 55.785156 C 169.375 56.027344 165.695312 56.925781 161.175781 59.191406 C 159.453125 60.054688 158.175781 61.125 156.535156 63.082031 C 155.925781 63.808594 154.878906 64.917969 154.203125 65.554688 C 153.53125 66.1875 152.484375 67.273438 151.878906 67.960938 C 151.277344 68.648438 150.0625 69.945312 149.175781 70.839844 C 148.292969 71.734375 146.890625 73.203125 146.0625 74.101562 C 145.230469 75 143.574219 76.675781 142.378906 77.820312 C 139.636719 80.445312 138.320312 81.925781 137.136719 83.703125 C 136.625 84.476562 135.976562 85.394531 135.691406 85.738281 C 135.410156 86.085938 134.980469 86.691406 134.738281 87.085938 C 134.492188 87.484375 134.007812 88.054688 133.660156 88.363281 C 133.082031 88.863281 132.96875 88.898438 132.457031 88.734375 C 131.460938 88.414062 128.320312 89.015625 123.84375 90.386719 C 120.269531 91.480469 119.199219 91.605469 115.210938 91.402344 C 113.269531 91.300781 111.414062 91.28125 111.085938 91.351562 C 110.203125 91.546875 110.199219 91.539062 110.871094 90.625 C 111.207031 90.164062 112.058594 88.738281 112.761719 87.464844 C 113.464844 86.1875 114.492188 84.347656 115.039062 83.375 C 115.589844 82.40625 116.308594 81.082031 116.632812 80.433594 C 116.960938 79.789062 117.632812 78.617188 118.125 77.835938 C 119.886719 75.023438 120.863281 71.019531 120.941406 66.265625 C 121.015625 61.832031 120.636719 57.796875 120.039062 56.707031 C 119.675781 56.042969 119.164062 55.847656 118.734375 56.207031 C 118.351562 56.527344 118.167969 58.464844 118.15625 62.394531 C 118.148438 63.972656 118.109375 65.636719 118.074219 66.09375 L 118 66.921875 L 117.394531 66.214844 C 117.0625 65.824219 116.703125 65.265625 116.59375 64.96875 C 116.34375 64.289062 115.738281 63.617188 114.777344 62.941406 C 114.363281 62.652344 114.027344 62.363281 114.035156 62.300781 C 114.039062 62.238281 114.175781 62.027344 114.339844 61.835938 C 114.503906 61.640625 114.628906 61.3125 114.617188 61.105469 C 114.582031 60.433594 113.636719 60.429688 112.222656 61.101562 C 110.757812 61.792969 110.742188 61.78125 110.019531 59.765625 C 109.578125 58.527344 109.445312 58.324219 109.089844 58.289062 C 108.511719 58.238281 108.15625 58.765625 107.914062 60.039062 C 107.609375 61.628906 107.121094 62.800781 106.371094 63.734375 C 105.449219 64.886719 104.902344 65.222656 102.585938 66.066406 C 99.632812 67.144531 99.691406 67.113281 99.652344 67.554688 C 99.582031 68.339844 99.984375 68.382812 102.410156 67.832031 C 103.65625 67.550781 104.710938 67.355469 104.75 67.402344 C 104.789062 67.449219 104.414062 68.5 103.914062 69.742188 C 102.859375 72.382812 101.636719 74.488281 100.714844 75.261719 C 99.949219 75.910156 98.691406 76.417969 97.769531 76.460938 C 97.15625 76.484375 97.089844 76.445312 96.875 75.914062 C 96.746094 75.597656 96.566406 74.078125 96.476562 72.535156 C 96.375 70.789062 96.207031 69.464844 96.035156 69.023438 C 95.675781 68.105469 94.753906 66.957031 94.347656 66.917969 C 94.160156 66.902344 94.007812 66.734375 93.972656 66.503906 C 93.9375 66.292969 93.578125 65.316406 93.171875 64.328125 C 92.347656 62.335938 92.304688 61.636719 92.910156 60.257812 C 93.523438 58.859375 96.144531 55.074219 98.382812 52.351562 C 100.152344 50.195312 101.003906 49.328125 102.78125 47.851562 C 105.488281 45.613281 106.820312 44.703125 109.730469 43.097656 C 114.617188 40.40625 116.527344 39.992188 122.765625 40.285156 C 129.539062 40.601562 133.757812 40.171875 143.429688 38.179688 C 147.488281 37.34375 152.667969 36.46875 159.09375 35.53125 C 164.28125 34.777344 167.089844 34.460938 172.015625 34.078125 C 176.765625 33.710938 178.71875 33.472656 180.839844 33.003906 C 182.484375 32.640625 182.882812 32.417969 182.75 31.953125 C 182.648438 31.589844 182.183594 31.570312 181 31.878906 C 179.339844 32.3125 176.757812 32.632812 172.824219 32.898438 C 164.328125 33.46875 152.886719 35.085938 142.679688 37.15625 C 133.011719 39.117188 129.96875 39.425781 122.605469 39.171875 C 116.601562 38.96875 114.773438 39.257812 111.277344 40.984375 C 105.425781 43.867188 101.421875 46.941406 97.714844 51.394531 C 95.039062 54.605469 95.042969 54.605469 93.261719 57.402344 L 91.871094 59.582031 L 91.457031 58.660156 C 90.589844 56.742188 88.226562 54.582031 83.957031 51.816406 C 82.421875 50.820312 80.121094 49.277344 78.84375 48.382812 C 77.566406 47.488281 75.757812 46.296875 74.828125 45.738281 L 73.136719 44.714844 L 70.761719 44.382812 C 69.457031 44.199219 67.796875 44.0625 67.074219 44.078125 C 65.527344 44.109375 65.367188 44.039062 63.234375 42.4375 C 60.492188 40.382812 59.792969 40.183594 52.699219 39.476562 L 47.601562 38.964844 L 45.726562 38.269531 C 44.695312 37.886719 42.375 37.070312 40.574219 36.449219 C 28.699219 32.367188 21.914062 29.679688 20.066406 28.324219 C 18.984375 27.53125 18.546875 27.445312 18.492188 28.023438 C 18.402344 29.015625 21.734375 30.777344 28.710938 33.4375 C 29.875 33.882812 33.847656 35.304688 37.53125 36.597656 C 41.214844 37.890625 44.78125 39.160156 45.453125 39.421875 C 46.550781 39.84375 47.277344 39.960938 52.601562 40.558594 C 59.652344 41.347656 59.886719 41.410156 62.3125 43.1875 C 65.039062 45.1875 64.683594 45.050781 67.578125 45.1875 C 72.285156 45.410156 72.980469 45.683594 78.28125 49.390625 C 79.804688 50.457031 82.125 52.019531 83.441406 52.867188 C 86.488281 54.828125 87.675781 55.769531 89.09375 57.359375 C 90.539062 58.972656 90.875 59.835938 91.09375 62.492188 C 91.1875 63.613281 91.3125 64.820312 91.367188 65.171875 C 91.457031 65.707031 91.421875 65.851562 91.128906 66.097656 C 90.660156 66.488281 90.097656 68.890625 90.078125 70.578125 C 90.054688 72.566406 90.527344 74.109375 91.578125 75.488281 C 91.933594 75.945312 91.9375 75.984375 91.636719 75.972656 C 90.472656 75.933594 86.789062 74.933594 85.765625 74.378906 C 84.761719 73.839844 84.117188 72.949219 83.332031 71.019531 C 82.726562 69.539062 82.101562 68.640625 81.011719 67.691406 C 80.710938 67.433594 80.699219 67.386719 80.945312 67.5 C 81.121094 67.578125 82.28125 67.773438 83.523438 67.929688 C 85.507812 68.179688 85.808594 68.183594 86.039062 67.949219 C 86.234375 67.757812 86.261719 67.605469 86.152344 67.390625 C 86.03125 67.152344 85.625 67.046875 84.023438 66.824219 C 82.097656 66.5625 78.835938 65.625 78.863281 65.34375 C 78.867188 65.273438 79.164062 65.152344 79.519531 65.070312 C 81.382812 64.652344 81.21875 63.5 79.339844 63.8125 C 78.828125 63.898438 77.964844 63.925781 77.425781 63.878906 C 76.574219 63.800781 76.394531 63.726562 76.042969 63.285156 C 75.820312 63.003906 75.570312 62.632812 75.492188 62.453125 C 75.28125 61.980469 74.453125 61.957031 74.042969 62.414062 C 72.851562 63.746094 72.953125 63.691406 72.042969 63.5 C 71.582031 63.402344 70.0625 62.953125 68.664062 62.5 C 67.269531 62.050781 65.878906 61.660156 65.578125 61.632812 C 64.550781 61.539062 64.582031 62.503906 65.613281 62.882812 C 67.246094 63.476562 70.136719 64.777344 70.277344 64.980469 C 70.398438 65.15625 70.253906 65.585938 69.71875 66.65625 C 68.621094 68.847656 68.128906 69.550781 66.433594 71.324219 C 63.691406 74.191406 62.828125 75.945312 62.53125 79.242188 C 62.355469 81.191406 62.558594 83.125 62.945312 83.160156 C 63.039062 83.167969 63.265625 83.621094 63.449219 84.164062 C 63.949219 85.636719 64.710938 86.957031 66 88.582031 C 66.636719 89.382812 67.199219 90.230469 67.246094 90.464844 C 67.402344 91.195312 68.457031 92.960938 69.589844 94.386719 C 70.1875 95.136719 71.246094 96.523438 71.949219 97.46875 C 72.652344 98.414062 74.519531 100.761719 76.101562 102.6875 C 79.21875 106.476562 82.65625 109.886719 85.226562 111.738281 C 86.8125 112.882812 88.0625 114.25 88.644531 115.480469 C 89.003906 116.246094 89.019531 116.429688 88.855469 118.230469 L 88.683594 120.164062 L 87.070312 119.367188 C 84.859375 118.28125 82.769531 116.953125 81.445312 115.804688 C 78.011719 112.816406 76.328125 111.324219 75.019531 110.101562 C 74.214844 109.347656 73.257812 108.515625 72.890625 108.257812 C 71.902344 107.550781 70.089844 106.773438 67.679688 106.023438 C 66.253906 105.582031 65.160156 105.125 64.429688 104.667969 C 63.003906 103.78125 60.800781 101.722656 58.695312 99.3125 C 55.316406 95.453125 53.371094 93.585938 52 92.898438 C 51.65625 92.726562 50.839844 92.421875 50.179688 92.226562 C 49.523438 92.023438 48.777344 91.730469 48.527344 91.570312 C 47.683594 91.03125 46.742188 89.457031 44.597656 84.996094 C 41.832031 79.238281 41.335938 78.125 40.140625 74.964844 C 38.648438 71.027344 37.566406 68.710938 36.054688 66.230469 C 35.308594 65.003906 34.34375 63.363281 33.914062 62.585938 C 33.484375 61.804688 32.207031 60.050781 31.078125 58.6875 C 29.027344 56.210938 29.019531 56.203125 26.867188 54.890625 C 25.679688 54.167969 23.980469 53.238281 23.089844 52.828125 C 21.0625 51.890625 18.980469 50.535156 16.570312 48.578125 C 14.433594 46.847656 14.21875 46.644531 10.695312 43.132812 C 8.710938 41.160156 8.109375 40.457031 8.101562 40.117188 C 8.078125 39.261719 7.015625 39.4375 6.933594 40.3125 C 6.886719 40.871094 7.378906 41.453125 10.824219 44.894531 C 13.570312 47.640625 17.0625 50.589844 19.359375 52.113281 C 20.105469 52.605469 21.480469 53.359375 22.414062 53.785156 C 23.347656 54.214844 25.015625 55.101562 26.113281 55.757812 C 28.113281 56.945312 28.117188 56.953125 30.242188 59.527344 C 31.414062 60.945312 32.625 62.582031 32.9375 63.167969 C 33.253906 63.753906 34.128906 65.25 34.882812 66.496094 C 36.515625 69.183594 37.054688 70.324219 38.980469 75.183594 C 41.414062 81.316406 45.226562 89.378906 46.570312 91.230469 C 47.378906 92.335938 47.957031 92.714844 49.71875 93.277344 C 50.660156 93.578125 51.644531 94.027344 52.222656 94.425781 C 53.339844 95.191406 55.34375 97.203125 57.480469 99.699219 C 60.195312 102.875 63.191406 105.511719 64.949219 106.273438 C 65.5 106.515625 66.71875 106.933594 67.652344 107.210938 C 70.652344 108.09375 72.191406 108.949219 74.042969 110.761719 C 74.542969 111.25 75.6875 112.289062 76.59375 113.074219 C 77.496094 113.855469 78.902344 115.09375 79.714844 115.828125 C 81.679688 117.597656 83.644531 118.945312 85.90625 120.074219 C 88.371094 121.308594 88.980469 121.746094 89.3125 122.53125 C 89.464844 122.890625 89.710938 123.234375 89.855469 123.296875 C 90.027344 123.371094 90.125 123.671875 90.136719 124.175781 C 90.15625 125.074219 90.644531 125.808594 91.265625 125.863281 C 91.992188 125.929688 93.183594 125.355469 94.617188 124.242188 C 95.378906 123.652344 96.933594 122.511719 98.070312 121.710938 C 100.09375 120.28125 100.777344 119.671875 103.335938 117 C 104.128906 116.171875 105.378906 115.15625 106.714844 114.253906 C 109.519531 112.355469 110.074219 111.890625 112.769531 109.15625 C 114.253906 107.652344 115.816406 106.277344 117.195312 105.261719 C 120.121094 103.113281 122.214844 101.328125 123.632812 99.773438 C 124.289062 99.050781 125.4375 97.902344 126.1875 97.21875 C 126.9375 96.535156 128.023438 95.445312 128.597656 94.804688 C 129.945312 93.300781 131.292969 91.996094 133.382812 90.164062 C 134.304688 89.355469 135.253906 88.375 135.5 87.988281 C 135.742188 87.597656 136.171875 86.996094 136.453125 86.652344 C 136.734375 86.304688 137.472656 85.273438 138.085938 84.363281 C 139.410156 82.398438 140.566406 81.113281 143.691406 78.136719 C 144.964844 76.921875 146.324219 75.5625 146.710938 75.117188 C 147.09375 74.671875 148.296875 73.398438 149.382812 72.292969 C 150.464844 71.183594 152.003906 69.554688 152.800781 68.671875 C 153.601562 67.789062 154.699219 66.652344 155.242188 66.140625 C 155.785156 65.632812 156.785156 64.566406 157.464844 63.773438 C 159.027344 61.945312 159.96875 61.136719 161.410156 60.378906 C 165.898438 58.027344 169.273438 57.207031 175.851562 56.871094 C 181.375 56.589844 184.339844 56.089844 187.414062 54.914062 C 190.175781 53.863281 191.085938 53.324219 191.058594 52.777344 C 191.03125 52.230469 190.558594 52.210938 189.660156 52.714844 " fill-opacity="1" fill-rule="nonzero"/></g></g></g></g></g><g fill="#5f021f" fill-opacity="1"><g transform="translate(164.176649, 89.624997)"><g><path d="M 5.296875 -0.53125 L 5.25 -1.953125 C 5.226562 -2.359375 5.21875 -2.816406 5.21875 -3.328125 C 5.21875 -3.585938 5.226562 -3.804688 5.25 -3.984375 L 5.296875 -4.671875 C 5.296875 -4.929688 5.242188 -5.238281 5.140625 -5.59375 C 5.140625 -7.300781 5.007812 -10.484375 4.75 -15.140625 C 4.5 -19.640625 4.359375 -22.691406 4.328125 -24.296875 C 2.742188 -24.296875 1.6875 -24.335938 1.15625 -24.421875 C 0.644531 -24.546875 0.390625 -24.75 0.390625 -25.03125 C 0.515625 -25.3125 0.753906 -25.453125 1.109375 -25.453125 C 1.878906 -25.453125 2.992188 -25.398438 4.453125 -25.296875 C 5.773438 -25.171875 6.882812 -25.109375 7.78125 -25.109375 L 8.578125 -25.109375 L 9.390625 -25.140625 C 9.847656 -25.140625 10.078125 -24.972656 10.078125 -24.640625 C 10.078125 -24.492188 9.992188 -24.375 9.828125 -24.28125 C 9.660156 -24.1875 9.460938 -24.140625 9.234375 -24.140625 C 8.722656 -24.140625 8.1875 -24.164062 7.625 -24.21875 L 5.984375 -24.296875 C 5.878906 -24.296875 5.828125 -24.257812 5.828125 -24.1875 C 5.796875 -24.101562 5.78125 -23.859375 5.78125 -23.453125 C 5.78125 -20.972656 5.9375 -17.21875 6.25 -12.1875 C 6.53125 -6.976562 6.671875 -3.234375 6.671875 -0.953125 C 6.671875 -0.773438 6.5625 -0.609375 6.34375 -0.453125 C 6.125 -0.304688 5.910156 -0.234375 5.703125 -0.234375 Z M 5.296875 -0.53125 "/></g></g></g><g fill="#5f021f" fill-opacity="1"><g transform="translate(175.561254, 89.624997)"><g><path d="M 6.75 0.734375 C 3.757812 0.734375 2.265625 -3.96875 2.265625 -13.375 L 2.265625 -14.71875 C 2.265625 -21.84375 3.179688 -25.40625 5.015625 -25.40625 C 5.148438 -25.40625 5.332031 -25.367188 5.5625 -25.296875 C 6.375 -25.015625 7.175781 -24.835938 7.96875 -24.765625 C 8.457031 -24.660156 8.941406 -24.160156 9.421875 -23.265625 C 9.960938 -22.347656 10.363281 -21.132812 10.625 -19.625 C 10.894531 -18.113281 11.03125 -16.566406 11.03125 -14.984375 L 10.96875 -14.796875 C 10.96875 -13.953125 10.976562 -13.195312 11 -12.53125 L 11.03125 -10.234375 C 11.03125 -8.929688 10.984375 -7.753906 10.890625 -6.703125 C 10.734375 -5.117188 10.476562 -3.753906 10.125 -2.609375 C 9.894531 -1.921875 9.628906 -1.34375 9.328125 -0.875 C 9.035156 -0.414062 8.671875 -0.0351562 8.234375 0.265625 C 7.828125 0.578125 7.332031 0.734375 6.75 0.734375 Z M 6.59375 -0.390625 C 7.59375 -0.390625 8.332031 -1.085938 8.8125 -2.484375 C 9.300781 -3.921875 9.597656 -5.378906 9.703125 -6.859375 C 9.796875 -8.390625 9.84375 -9.617188 9.84375 -10.546875 C 9.84375 -11.566406 9.769531 -13.070312 9.625 -15.0625 C 9.488281 -17.28125 9.421875 -18.785156 9.421875 -19.578125 L 9.28125 -19.890625 L 9.359375 -20.078125 C 9.359375 -21.203125 9.039062 -22.171875 8.40625 -22.984375 C 7.78125 -23.804688 7.019531 -24.21875 6.125 -24.21875 C 4.957031 -24.21875 4.257812 -23.65625 4.03125 -22.53125 C 3.976562 -22.15625 3.925781 -21.609375 3.875 -20.890625 C 3.875 -18.992188 3.796875 -17.703125 3.640625 -17.015625 C 3.640625 -16.628906 3.601562 -16.03125 3.53125 -15.21875 L 3.453125 -13.421875 C 3.453125 -12.859375 3.460938 -12.359375 3.484375 -11.921875 L 3.53125 -10.390625 C 3.53125 -9.179688 3.628906 -7.800781 3.828125 -6.25 C 3.984375 -5.09375 4.160156 -4.117188 4.359375 -3.328125 C 4.566406 -2.535156 4.863281 -1.859375 5.25 -1.296875 C 5.632812 -0.691406 6.082031 -0.390625 6.59375 -0.390625 Z M 6.59375 -0.390625 "/></g></g></g><g fill="#5f021f" fill-opacity="1"><g transform="translate(188.82412, 89.624997)"><g/></g></g><g fill="#5f021f" fill-opacity="1"><g transform="translate(195.378895, 89.624997)"><g><path d="M 0.3125 3.828125 L 0.3125 3.75 L 0.265625 3.671875 C 0.265625 3.597656 0.484375 3.421875 0.921875 3.140625 C 1.328125 2.835938 1.785156 2.53125 2.296875 2.21875 C 2.859375 1.832031 3.15625 1.617188 3.1875 1.578125 C 3.5625 1.140625 3.859375 0.457031 4.078125 -0.46875 C 4.296875 -1.40625 4.40625 -2.320312 4.40625 -3.21875 C 4.40625 -5.957031 4.351562 -9.359375 4.25 -13.421875 C 4.125 -17.203125 4.0625 -20.585938 4.0625 -23.578125 L 3.828125 -24 C 3.648438 -24.039062 3.34375 -24.101562 2.90625 -24.1875 C 2.425781 -24.207031 1.992188 -24.304688 1.609375 -24.484375 C 1.222656 -24.617188 1.03125 -24.785156 1.03125 -24.984375 C 1.03125 -25.085938 1.128906 -25.191406 1.328125 -25.296875 C 1.535156 -25.398438 1.707031 -25.453125 1.84375 -25.453125 C 2.320312 -25.453125 3.09375 -25.359375 4.15625 -25.171875 C 5.21875 -24.992188 6.160156 -24.773438 6.984375 -24.515625 C 7.816406 -24.265625 8.234375 -24.039062 8.234375 -23.84375 C 8.234375 -23.6875 8.175781 -23.5625 8.0625 -23.46875 C 7.945312 -23.382812 7.800781 -23.34375 7.625 -23.34375 C 7.445312 -23.34375 7.101562 -23.40625 6.59375 -23.53125 C 6.207031 -23.65625 5.863281 -23.71875 5.5625 -23.71875 C 5.332031 -23.71875 5.21875 -23.460938 5.21875 -22.953125 C 5.21875 -21.546875 5.28125 -18.890625 5.40625 -14.984375 C 5.53125 -12.046875 5.59375 -9.398438 5.59375 -7.046875 L 5.59375 -2.84375 C 5.4375 -2.507812 5.359375 -1.96875 5.359375 -1.21875 C 5.359375 -0.144531 5.054688 1.066406 4.453125 2.421875 C 4.117188 3.109375 3.6875 3.660156 3.15625 4.078125 C 2.632812 4.503906 2.066406 4.71875 1.453125 4.71875 L 1.1875 4.71875 Z M 0.3125 3.828125 "/></g></g></g><g fill="#5f021f" fill-opacity="1"><g transform="translate(204.578571, 89.624997)"><g><path d="M 3.484375 0.5 C 3.023438 0.5 2.769531 0.226562 2.71875 -0.3125 L 2.71875 -0.8125 C 2.75 -0.9375 2.765625 -1.085938 2.765625 -1.265625 L 2.609375 -1.421875 C 2.804688 -1.953125 2.90625 -2.472656 2.90625 -2.984375 C 2.90625 -3.578125 2.867188 -4.421875 2.796875 -5.515625 L 2.71875 -8.046875 C 2.71875 -9.328125 2.757812 -11.242188 2.84375 -13.796875 C 2.9375 -16.066406 2.984375 -17.992188 2.984375 -19.578125 L 2.90625 -21.890625 C 2.863281 -22.578125 2.84375 -23.34375 2.84375 -24.1875 C 2.84375 -24.570312 2.929688 -24.847656 3.109375 -25.015625 C 3.285156 -25.179688 3.566406 -25.265625 3.953125 -25.265625 C 4.203125 -25.265625 4.40625 -25.1875 4.5625 -25.03125 C 4.613281 -25 4.984375 -24.945312 5.671875 -24.875 C 6.304688 -24.800781 6.859375 -24.6875 7.328125 -24.53125 C 7.804688 -24.375 8.046875 -24.179688 8.046875 -23.953125 C 8.046875 -23.703125 7.804688 -23.445312 7.328125 -23.1875 C 5.867188 -23.675781 4.832031 -23.921875 4.21875 -23.921875 L 4.03125 -23.6875 C 4.050781 -23.457031 4.0625 -22.90625 4.0625 -22.03125 C 4.0625 -20.9375 4.035156 -19.957031 3.984375 -19.09375 C 3.960938 -18.195312 3.953125 -17.195312 3.953125 -16.09375 C 3.953125 -15.382812 4.128906 -15.03125 4.484375 -15.03125 L 5.09375 -15.0625 C 5.300781 -15.082031 5.519531 -15.09375 5.75 -15.09375 C 6.75 -15.09375 7.25 -14.863281 7.25 -14.40625 C 7.25 -14.125 7.179688 -13.890625 7.046875 -13.703125 C 6.921875 -13.515625 6.734375 -13.421875 6.484375 -13.421875 C 6.097656 -13.421875 5.800781 -13.519531 5.59375 -13.71875 L 4.375 -13.90625 L 4.171875 -13.90625 L 3.984375 -13.71875 L 3.984375 -13.609375 C 4.035156 -13.171875 4.0625 -12.160156 4.0625 -10.578125 C 4.0625 -9.578125 4.050781 -8.671875 4.03125 -7.859375 L 3.984375 -5.140625 C 3.984375 -4.140625 4.019531 -3.113281 4.09375 -2.0625 C 4.125 -1.476562 4.253906 -1.085938 4.484375 -0.890625 C 4.710938 -0.703125 5.132812 -0.609375 5.75 -0.609375 L 6.4375 -0.65625 C 6.664062 -0.675781 6.921875 -0.6875 7.203125 -0.6875 C 7.941406 -0.6875 8.3125 -0.519531 8.3125 -0.1875 C 8.3125 0.269531 7.75 0.5 6.625 0.5 Z M 3.484375 0.5 "/></g></g></g><g fill="#5f021f" fill-opacity="1"><g transform="translate(214.391559, 89.624997)"><g><path d="M 3.1875 0.453125 C 2.90625 0.410156 2.632812 0.304688 2.375 0.140625 C 2.125 -0.0234375 1.984375 -0.222656 1.953125 -0.453125 L 2.140625 -0.765625 C 2.242188 -0.765625 2.476562 -0.726562 2.84375 -0.65625 C 3.125 -0.550781 3.351562 -0.5 3.53125 -0.5 C 4.09375 -0.5 4.585938 -0.722656 5.015625 -1.171875 C 5.453125 -1.617188 5.785156 -2.195312 6.015625 -2.90625 C 6.367188 -4.238281 6.546875 -5.492188 6.546875 -6.671875 C 6.546875 -8.429688 6.007812 -10.320312 4.9375 -12.34375 C 4.28125 -13.519531 3.769531 -14.453125 3.40625 -15.140625 C 3.050781 -15.828125 2.734375 -16.617188 2.453125 -17.515625 C 2.117188 -18.566406 1.953125 -19.578125 1.953125 -20.546875 C 1.953125 -21.460938 2.179688 -22.546875 2.640625 -23.796875 C 2.867188 -24.390625 3.191406 -24.867188 3.609375 -25.234375 C 4.035156 -25.609375 4.492188 -25.796875 4.984375 -25.796875 C 5.316406 -25.796875 5.640625 -25.679688 5.953125 -25.453125 C 6.273438 -25.222656 6.4375 -24.976562 6.4375 -24.71875 C 6.4375 -24.519531 6.269531 -24.421875 5.9375 -24.421875 C 5.832031 -24.421875 5.707031 -24.457031 5.5625 -24.53125 C 5.40625 -24.601562 5.265625 -24.640625 5.140625 -24.640625 C 4.753906 -24.640625 4.40625 -24.484375 4.09375 -24.171875 C 3.789062 -23.867188 3.5625 -23.476562 3.40625 -23 C 3.101562 -22.050781 2.953125 -21.179688 2.953125 -20.390625 C 2.953125 -19.898438 3.015625 -19.398438 3.140625 -18.890625 C 3.171875 -18.742188 3.195312 -18.617188 3.21875 -18.515625 C 3.25 -18.410156 3.265625 -18.332031 3.265625 -18.28125 L 3.484375 -17.515625 L 3.671875 -16.828125 L 3.984375 -16.140625 C 4.054688 -15.960938 4.140625 -15.800781 4.234375 -15.65625 C 4.328125 -15.519531 4.410156 -15.382812 4.484375 -15.25 L 4.9375 -14.453125 C 5.039062 -14.296875 5.257812 -13.929688 5.59375 -13.359375 C 5.925781 -12.785156 6.234375 -12.175781 6.515625 -11.53125 C 6.773438 -11 6.96875 -10.492188 7.09375 -10.015625 C 7.21875 -9.546875 7.332031 -8.976562 7.4375 -8.3125 C 7.507812 -7.675781 7.546875 -6.972656 7.546875 -6.203125 C 7.546875 -4.984375 7.378906 -3.835938 7.046875 -2.765625 C 6.585938 -1.484375 5.925781 -0.585938 5.0625 -0.078125 C 4.570312 0.234375 4.007812 0.390625 3.375 0.390625 Z M 6.25 -24.53125 C 6.25 -24.550781 6.234375 -24.5625 6.203125 -24.5625 L 6.203125 -24.53125 Z M 6.25 -24.53125 "/></g></g></g><g fill="#5f021f" fill-opacity="1"><g transform="translate(223.821227, 89.624997)"><g><path d="M 5.296875 -0.53125 L 5.25 -1.953125 C 5.226562 -2.359375 5.21875 -2.816406 5.21875 -3.328125 C 5.21875 -3.585938 5.226562 -3.804688 5.25 -3.984375 L 5.296875 -4.671875 C 5.296875 -4.929688 5.242188 -5.238281 5.140625 -5.59375 C 5.140625 -7.300781 5.007812 -10.484375 4.75 -15.140625 C 4.5 -19.640625 4.359375 -22.691406 4.328125 -24.296875 C 2.742188 -24.296875 1.6875 -24.335938 1.15625 -24.421875 C 0.644531 -24.546875 0.390625 -24.75 0.390625 -25.03125 C 0.515625 -25.3125 0.753906 -25.453125 1.109375 -25.453125 C 1.878906 -25.453125 2.992188 -25.398438 4.453125 -25.296875 C 5.773438 -25.171875 6.882812 -25.109375 7.78125 -25.109375 L 8.578125 -25.109375 L 9.390625 -25.140625 C 9.847656 -25.140625 10.078125 -24.972656 10.078125 -24.640625 C 10.078125 -24.492188 9.992188 -24.375 9.828125 -24.28125 C 9.660156 -24.1875 9.460938 -24.140625 9.234375 -24.140625 C 8.722656 -24.140625 8.1875 -24.164062 7.625 -24.21875 L 5.984375 -24.296875 C 5.878906 -24.296875 5.828125 -24.257812 5.828125 -24.1875 C 5.796875 -24.101562 5.78125 -23.859375 5.78125 -23.453125 C 5.78125 -20.972656 5.9375 -17.21875 6.25 -12.1875 C 6.53125 -6.976562 6.671875 -3.234375 6.671875 -0.953125 C 6.671875 -0.773438 6.5625 -0.609375 6.34375 -0.453125 C 6.125 -0.304688 5.910156 -0.234375 5.703125 -0.234375 Z M 5.296875 -0.53125 "/></g></g></g><g fill="#5f021f" fill-opacity="1"><g transform="translate(235.205832, 89.624997)"><g><path d="M 3.484375 0.5 C 3.023438 0.5 2.769531 0.226562 2.71875 -0.3125 L 2.71875 -0.8125 C 2.75 -0.9375 2.765625 -1.085938 2.765625 -1.265625 L 2.609375 -1.421875 C 2.804688 -1.953125 2.90625 -2.472656 2.90625 -2.984375 C 2.90625 -3.578125 2.867188 -4.421875 2.796875 -5.515625 L 2.71875 -8.046875 C 2.71875 -9.328125 2.757812 -11.242188 2.84375 -13.796875 C 2.9375 -16.066406 2.984375 -17.992188 2.984375 -19.578125 L 2.90625 -21.890625 C 2.863281 -22.578125 2.84375 -23.34375 2.84375 -24.1875 C 2.84375 -24.570312 2.929688 -24.847656 3.109375 -25.015625 C 3.285156 -25.179688 3.566406 -25.265625 3.953125 -25.265625 C 4.203125 -25.265625 4.40625 -25.1875 4.5625 -25.03125 C 4.613281 -25 4.984375 -24.945312 5.671875 -24.875 C 6.304688 -24.800781 6.859375 -24.6875 7.328125 -24.53125 C 7.804688 -24.375 8.046875 -24.179688 8.046875 -23.953125 C 8.046875 -23.703125 7.804688 -23.445312 7.328125 -23.1875 C 5.867188 -23.675781 4.832031 -23.921875 4.21875 -23.921875 L 4.03125 -23.6875 C 4.050781 -23.457031 4.0625 -22.90625 4.0625 -22.03125 C 4.0625 -20.9375 4.035156 -19.957031 3.984375 -19.09375 C 3.960938 -18.195312 3.953125 -17.195312 3.953125 -16.09375 C 3.953125 -15.382812 4.128906 -15.03125 4.484375 -15.03125 L 5.09375 -15.0625 C 5.300781 -15.082031 5.519531 -15.09375 5.75 -15.09375 C 6.75 -15.09375 7.25 -14.863281 7.25 -14.40625 C 7.25 -14.125 7.179688 -13.890625 7.046875 -13.703125 C 6.921875 -13.515625 6.734375 -13.421875 6.484375 -13.421875 C 6.097656 -13.421875 5.800781 -13.519531 5.59375 -13.71875 L 4.375 -13.90625 L 4.171875 -13.90625 L 3.984375 -13.71875 L 3.984375 -13.609375 C 4.035156 -13.171875 4.0625 -12.160156 4.0625 -10.578125 C 4.0625 -9.578125 4.050781 -8.671875 4.03125 -7.859375 L 3.984375 -5.140625 C 3.984375 -4.140625 4.019531 -3.113281 4.09375 -2.0625 C 4.125 -1.476562 4.253906 -1.085938 4.484375 -0.890625 C 4.710938 -0.703125 5.132812 -0.609375 5.75 -0.609375 L 6.4375 -0.65625 C 6.664062 -0.675781 6.921875 -0.6875 7.203125 -0.6875 C 7.941406 -0.6875 8.3125 -0.519531 8.3125 -0.1875 C 8.3125 0.269531 7.75 0.5 6.625 0.5 Z M 3.484375 0.5 "/></g></g></g><g fill="#5f021f" fill-opacity="1"><g transform="translate(245.018819, 89.624997)"><g><path d="M 17.90625 2 C 17.382812 2 17.125 1.179688 17.125 -0.453125 L 17.125 -2.984375 C 17.125 -6.671875 17.050781 -9.546875 16.90625 -11.609375 L 16.78125 -13.03125 C 16.6875 -13.664062 16.640625 -14.226562 16.640625 -14.71875 C 16.640625 -15.582031 16.664062 -16.375 16.71875 -17.09375 L 16.78125 -19.46875 C 16.78125 -20.257812 16.734375 -20.859375 16.640625 -21.265625 C 16.128906 -20.910156 14.582031 -15.535156 12 -5.140625 L 11.953125 -4.5625 C 11.878906 -3.925781 11.78125 -3.414062 11.65625 -3.03125 C 11.570312 -2.75 11.457031 -2.53125 11.3125 -2.375 C 11.175781 -2.21875 11.019531 -2.140625 10.84375 -2.140625 C 10.4375 -2.140625 10.144531 -2.242188 9.96875 -2.453125 C 9.789062 -2.660156 9.703125 -2.976562 9.703125 -3.40625 C 9.703125 -4.101562 9.375 -5.894531 8.71875 -8.78125 C 8.070312 -11.664062 7.367188 -14.4375 6.609375 -17.09375 C 5.859375 -19.75 5.34375 -21.21875 5.0625 -21.5 C 5.03125 -20.601562 4.925781 -18.492188 4.75 -15.171875 C 4.394531 -9.296875 4.21875 -4.671875 4.21875 -1.296875 L 4.25 0.234375 C 4.144531 0.566406 3.878906 0.734375 3.453125 0.734375 C 3.367188 0.734375 3.238281 0.660156 3.0625 0.515625 C 2.882812 0.378906 2.796875 0.269531 2.796875 0.1875 C 2.796875 -2.113281 3 -6.148438 3.40625 -11.921875 C 3.789062 -17.285156 3.984375 -21.3125 3.984375 -24 C 3.984375 -24.125 3.957031 -24.25 3.90625 -24.375 C 3.832031 -24.53125 3.796875 -24.644531 3.796875 -24.71875 C 3.796875 -25.101562 4.128906 -25.296875 4.796875 -25.296875 C 5.222656 -25.296875 5.476562 -25.101562 5.5625 -24.71875 C 5.65625 -24.207031 5.703125 -23.828125 5.703125 -23.578125 L 5.75 -23.109375 C 5.875 -22.441406 6.242188 -21.421875 6.859375 -20.046875 C 7.347656 -18.941406 7.71875 -17.984375 7.96875 -17.171875 C 8.125 -16.554688 8.265625 -16.054688 8.390625 -15.671875 C 8.796875 -14.191406 9.066406 -13.09375 9.203125 -12.375 L 9.703125 -11.390625 C 9.773438 -11.003906 9.925781 -10.375 10.15625 -9.5 C 10.382812 -8.53125 10.550781 -7.738281 10.65625 -7.125 C 10.757812 -6.507812 10.8125 -5.921875 10.8125 -5.359375 C 11.09375 -5.796875 11.890625 -8.410156 13.203125 -13.203125 C 14.515625 -17.992188 15.285156 -21.054688 15.515625 -22.390625 C 15.546875 -22.429688 15.566406 -22.5 15.578125 -22.59375 C 15.585938 -22.6875 15.609375 -22.804688 15.640625 -22.953125 C 15.691406 -23.285156 15.804688 -23.785156 15.984375 -24.453125 C 16.191406 -24.960938 16.5 -25.21875 16.90625 -25.21875 C 17.082031 -25.21875 17.285156 -25.140625 17.515625 -24.984375 C 17.742188 -24.835938 17.859375 -24.6875 17.859375 -24.53125 C 17.859375 -13.875 18.023438 -8.238281 18.359375 -7.625 L 18.359375 -5.640625 C 18.335938 -5.046875 18.328125 -4.367188 18.328125 -3.609375 C 18.328125 -1.972656 18.414062 -0.742188 18.59375 0.078125 C 18.613281 0.0976562 18.628906 0.132812 18.640625 0.1875 C 18.660156 0.238281 18.679688 0.304688 18.703125 0.390625 C 18.734375 0.484375 18.75 0.597656 18.75 0.734375 C 18.75 1.015625 18.664062 1.296875 18.5 1.578125 C 18.332031 1.859375 18.132812 2 17.90625 2 Z M 16.640625 -21.5 L 16.59375 -21.5 L 16.515625 -21.46875 L 16.640625 -21.421875 Z M 16.640625 -21.5 "/></g></g></g><g fill="#5f021f" fill-opacity="1"><g transform="translate(266.75306, 89.624997)"><g/></g></g><g fill="#5f021f" fill-opacity="1"><g transform="translate(273.307835, 89.624997)"><g><path d="M 0.3125 3.828125 L 0.3125 3.75 L 0.265625 3.671875 C 0.265625 3.597656 0.484375 3.421875 0.921875 3.140625 C 1.328125 2.835938 1.785156 2.53125 2.296875 2.21875 C 2.859375 1.832031 3.15625 1.617188 3.1875 1.578125 C 3.5625 1.140625 3.859375 0.457031 4.078125 -0.46875 C 4.296875 -1.40625 4.40625 -2.320312 4.40625 -3.21875 C 4.40625 -5.957031 4.351562 -9.359375 4.25 -13.421875 C 4.125 -17.203125 4.0625 -20.585938 4.0625 -23.578125 L 3.828125 -24 C 3.648438 -24.039062 3.34375 -24.101562 2.90625 -24.1875 C 2.425781 -24.207031 1.992188 -24.304688 1.609375 -24.484375 C 1.222656 -24.617188 1.03125 -24.785156 1.03125 -24.984375 C 1.03125 -25.085938 1.128906 -25.191406 1.328125 -25.296875 C 1.535156 -25.398438 1.707031 -25.453125 1.84375 -25.453125 C 2.320312 -25.453125 3.09375 -25.359375 4.15625 -25.171875 C 5.21875 -24.992188 6.160156 -24.773438 6.984375 -24.515625 C 7.816406 -24.265625 8.234375 -24.039062 8.234375 -23.84375 C 8.234375 -23.6875 8.175781 -23.5625 8.0625 -23.46875 C 7.945312 -23.382812 7.800781 -23.34375 7.625 -23.34375 C 7.445312 -23.34375 7.101562 -23.40625 6.59375 -23.53125 C 6.207031 -23.65625 5.863281 -23.71875 5.5625 -23.71875 C 5.332031 -23.71875 5.21875 -23.460938 5.21875 -22.953125 C 5.21875 -21.546875 5.28125 -18.890625 5.40625 -14.984375 C 5.53125 -12.046875 5.59375 -9.398438 5.59375 -7.046875 L 5.59375 -2.84375 C 5.4375 -2.507812 5.359375 -1.96875 5.359375 -1.21875 C 5.359375 -0.144531 5.054688 1.066406 4.453125 2.421875 C 4.117188 3.109375 3.6875 3.660156 3.15625 4.078125 C 2.632812 4.503906 2.066406 4.71875 1.453125 4.71875 L 1.1875 4.71875 Z M 0.3125 3.828125 "/></g></g></g><g fill="#5f021f" fill-opacity="1"><g transform="translate(282.507511, 89.624997)"><g><path d="M 10.3125 0.34375 C 9.925781 0.34375 9.679688 0.296875 9.578125 0.203125 C 9.472656 0.117188 9.398438 -0.113281 9.359375 -0.5 C 9.117188 -2.363281 8.976562 -3.523438 8.9375 -3.984375 L 8.734375 -5.515625 C 8.171875 -5.640625 7.535156 -5.703125 6.828125 -5.703125 L 5.4375 -5.78125 C 4.820312 -5.863281 4.375 -5.90625 4.09375 -5.90625 C 3.945312 -5.90625 3.859375 -5.835938 3.828125 -5.703125 C 3.828125 -5.628906 3.816406 -5.59375 3.796875 -5.59375 L 3.71875 -4.828125 C 3.6875 -4.367188 3.546875 -3.445312 3.296875 -2.0625 C 3.171875 -1.375 3.019531 -0.835938 2.84375 -0.453125 C 2.632812 -0.0234375 2.441406 0.1875 2.265625 0.1875 C 2.109375 0.1875 1.941406 0.117188 1.765625 -0.015625 C 1.585938 -0.160156 1.5 -0.304688 1.5 -0.453125 L 1.53125 -0.578125 L 1.578125 -0.6875 C 2.035156 -2.5 2.414062 -4.300781 2.71875 -6.09375 L 3.1875 -8.46875 L 3.640625 -11.390625 C 3.640625 -11.390625 3.78125 -12.226562 4.0625 -13.90625 C 4.1875 -14.601562 4.414062 -15.71875 4.75 -17.25 C 5.113281 -18.988281 5.332031 -20.175781 5.40625 -20.8125 C 5.425781 -20.882812 5.476562 -21.359375 5.5625 -22.234375 C 5.65625 -23.203125 5.742188 -23.914062 5.828125 -24.375 C 5.898438 -25.039062 5.976562 -25.425781 6.0625 -25.53125 L 6.328125 -25.53125 C 6.398438 -25.5 6.488281 -25.484375 6.59375 -25.484375 C 6.894531 -25.484375 7.125 -25.5625 7.28125 -25.71875 C 7.457031 -25.71875 7.613281 -25.660156 7.75 -25.546875 C 7.894531 -25.429688 7.96875 -25.296875 7.96875 -25.140625 C 7.96875 -23.910156 8.054688 -22.503906 8.234375 -20.921875 C 8.335938 -20.109375 8.414062 -19.429688 8.46875 -18.890625 C 8.75 -15.597656 9.460938 -9.414062 10.609375 -0.34375 L 10.609375 -0.234375 C 10.609375 0.0234375 10.507812 0.21875 10.3125 0.34375 Z M 8.546875 -6.546875 C 8.285156 -10.234375 7.800781 -15.664062 7.09375 -22.84375 L 5.015625 -12.609375 C 4.429688 -9.671875 4.140625 -7.816406 4.140625 -7.046875 C 4.140625 -6.921875 4.625 -6.804688 5.59375 -6.703125 C 6.5625 -6.597656 7.414062 -6.546875 8.15625 -6.546875 Z M 8.546875 -6.546875 "/></g></g></g></svg>