<svg xmlns="http://www.w3.org/2000/svg" xmlns:xlink="http://www.w3.org/1999/xlink" width="500" zoomAndPan="magnify" viewBox="0 0 375 374.999991" height="500" preserveAspectRatio="xMidYMid meet" version="1.0"><defs><clipPath id="2727fd3f3e"><path d="M 0 40.3125 L 375 40.3125 L 375 335.0625 L 0 335.0625 Z M 0 40.3125 " clip-rule="nonzero"/></clipPath></defs><g clip-path="url(#2727fd3f3e)"><path fill="#5f021f" d="M 369.253906 131.164062 L 280.992188 131.164062 L 280.992188 45.628906 C 280.992188 42.730469 278.640625 40.378906 275.746094 40.378906 L 99.253906 40.378906 C 96.359375 40.378906 94.007812 42.730469 94.007812 45.628906 L 94.007812 131.164062 L 5.75 131.164062 C 2.855469 131.164062 0.503906 133.515625 0.503906 136.414062 L 0.503906 329.753906 C 0.503906 332.652344 2.855469 335.003906 5.75 335.003906 L 369.253906 335.003906 C 372.148438 335.003906 374.496094 332.652344 374.496094 329.753906 L 374.496094 136.414062 C 374.496094 133.511719 372.148438 131.164062 369.253906 131.164062 Z M 94.007812 324.5 L 10.992188 324.5 L 10.992188 295.03125 L 94.007812 295.03125 Z M 94.007812 284.53125 L 10.992188 284.53125 L 10.992188 141.664062 L 94.007812 141.664062 Z M 212.050781 323.246094 L 162.949219 323.246094 L 162.949219 259.167969 L 212.050781 259.167969 Z M 270.5 324.5 L 222.539062 324.5 L 222.539062 253.917969 C 222.539062 251.019531 220.1875 248.667969 217.292969 248.667969 L 157.707031 248.667969 C 154.8125 248.667969 152.460938 251.019531 152.460938 253.917969 L 152.460938 324.5 L 104.5 324.5 L 104.5 50.878906 L 270.5 50.878906 Z M 364.007812 324.5 L 280.992188 324.5 L 280.992188 295.03125 L 364.007812 295.03125 Z M 364.007812 284.53125 L 280.992188 284.53125 L 280.992188 141.664062 L 364.007812 141.664062 Z M 364.007812 284.53125 " fill-opacity="1" fill-rule="nonzero"/></g><path fill="#5f021f" d="M 135.347656 165.835938 L 161.570312 165.835938 L 161.570312 192.089844 C 161.570312 194.988281 163.917969 197.34375 166.8125 197.34375 L 208.183594 197.34375 C 211.078125 197.34375 213.425781 194.988281 213.425781 192.089844 L 213.425781 165.835938 L 239.648438 165.835938 C 242.542969 165.835938 244.894531 163.484375 244.894531 160.585938 L 244.894531 119.160156 C 244.894531 116.261719 242.542969 113.910156 239.648438 113.910156 L 213.425781 113.910156 L 213.425781 87.65625 C 213.425781 84.757812 211.078125 82.402344 208.183594 82.402344 L 166.8125 82.402344 C 163.917969 82.402344 161.570312 84.757812 161.570312 87.65625 L 161.570312 113.910156 L 135.347656 113.910156 C 132.453125 113.910156 130.105469 116.261719 130.105469 119.160156 L 130.105469 160.585938 C 130.105469 163.484375 132.453125 165.835938 135.347656 165.835938 Z M 140.59375 124.410156 L 166.8125 124.410156 C 169.707031 124.410156 172.058594 122.058594 172.058594 119.160156 L 172.058594 92.90625 L 202.9375 92.90625 L 202.9375 119.160156 C 202.9375 122.058594 205.289062 124.410156 208.183594 124.410156 L 234.402344 124.410156 L 234.402344 155.335938 L 208.183594 155.335938 C 205.289062 155.335938 202.9375 157.6875 202.9375 160.585938 L 202.9375 186.839844 L 172.058594 186.839844 L 172.058594 160.585938 C 172.058594 157.6875 169.707031 155.335938 166.8125 155.335938 L 140.59375 155.335938 Z M 140.59375 124.410156 " fill-opacity="1" fill-rule="nonzero"/></svg>