<svg xmlns="http://www.w3.org/2000/svg" xmlns:xlink="http://www.w3.org/1999/xlink" width="500" zoomAndPan="magnify" viewBox="0 0 375 374.999991" height="500" preserveAspectRatio="xMidYMid meet" version="1.0"><path fill="#5f021f" d="M 187.5 0 C 184.429688 0 181.363281 0.0742188 178.300781 0.226562 C 175.234375 0.375 172.175781 0.601562 169.121094 0.902344 C 166.066406 1.203125 163.023438 1.578125 159.988281 2.03125 C 156.953125 2.480469 153.929688 3.003906 150.921875 3.601562 C 147.910156 4.203125 144.917969 4.875 141.941406 5.617188 C 138.964844 6.363281 136.007812 7.183594 133.070312 8.074219 C 130.136719 8.964844 127.222656 9.925781 124.332031 10.960938 C 121.445312 11.996094 118.582031 13.097656 115.746094 14.273438 C 112.910156 15.445312 110.105469 16.691406 107.332031 18.003906 C 104.558594 19.3125 101.820312 20.691406 99.113281 22.140625 C 96.40625 23.585938 93.738281 25.097656 91.105469 26.675781 C 88.472656 28.253906 85.882812 29.894531 83.332031 31.597656 C 80.777344 33.304688 78.269531 35.070312 75.804688 36.898438 C 73.339844 38.726562 70.921875 40.613281 68.550781 42.558594 C 66.179688 44.507812 63.855469 46.511719 61.582031 48.570312 C 59.308594 50.632812 57.085938 52.746094 54.917969 54.917969 C 52.746094 57.085938 50.632812 59.308594 48.570312 61.582031 C 46.511719 63.855469 44.507812 66.179688 42.558594 68.550781 C 40.613281 70.921875 38.726562 73.339844 36.898438 75.804688 C 35.070312 78.269531 33.304688 80.777344 31.597656 83.332031 C 29.894531 85.882812 28.253906 88.472656 26.675781 91.105469 C 25.097656 93.738281 23.585938 96.40625 22.140625 99.113281 C 20.691406 101.820312 19.3125 104.558594 18.003906 107.332031 C 16.691406 110.105469 15.445312 112.910156 14.273438 115.746094 C 13.097656 118.582031 11.996094 121.445312 10.960938 124.332031 C 9.925781 127.222656 8.964844 130.136719 8.074219 133.070312 C 7.183594 136.007812 6.363281 138.964844 5.621094 141.941406 C 4.875 144.917969 4.203125 147.910156 3.601562 150.921875 C 3.003906 153.929688 2.480469 156.953125 2.03125 159.988281 C 1.578125 163.023438 1.203125 166.066406 0.902344 169.121094 C 0.601562 172.175781 0.375 175.234375 0.226562 178.300781 C 0.0742188 181.363281 0 184.429688 0 187.5 C 0 190.570312 0.0742188 193.636719 0.226562 196.699219 C 0.375 199.765625 0.601562 202.824219 0.902344 205.878906 C 1.203125 208.933594 1.578125 211.976562 2.03125 215.011719 C 2.480469 218.046875 3.003906 221.070312 3.601562 224.078125 C 4.203125 227.089844 4.875 230.082031 5.617188 233.058594 C 6.363281 236.035156 7.183594 238.992188 8.074219 241.929688 C 8.964844 244.863281 9.925781 247.777344 10.960938 250.667969 C 11.996094 253.554688 13.097656 256.417969 14.273438 259.253906 C 15.445312 262.089844 16.691406 264.890625 18.003906 267.667969 C 19.3125 270.441406 20.691406 273.179688 22.140625 275.886719 C 23.585938 278.59375 25.097656 281.261719 26.675781 283.894531 C 28.253906 286.527344 29.894531 289.117188 31.597656 291.667969 C 33.304688 294.222656 35.070312 296.730469 36.898438 299.195312 C 38.726562 301.660156 40.613281 304.078125 42.558594 306.449219 C 44.507812 308.820312 46.511719 311.144531 48.570312 313.417969 C 50.632812 315.691406 52.746094 317.914062 54.917969 320.082031 C 57.085938 322.253906 59.308594 324.367188 61.582031 326.429688 C 63.855469 328.488281 66.179688 330.492188 68.550781 332.4375 C 70.921875 334.386719 73.339844 336.273438 75.804688 338.101562 C 78.269531 339.929688 80.777344 341.695312 83.332031 343.402344 C 85.882812 345.105469 88.472656 346.746094 91.105469 348.324219 C 93.738281 349.902344 96.40625 351.414062 99.113281 352.859375 C 101.820312 354.308594 104.558594 355.6875 107.332031 356.996094 C 110.105469 358.308594 112.910156 359.554688 115.746094 360.726562 C 118.582031 361.902344 121.445312 363.003906 124.332031 364.039062 C 127.222656 365.074219 130.136719 366.035156 133.070312 366.925781 C 136.007812 367.816406 138.964844 368.636719 141.941406 369.378906 C 144.917969 370.125 147.910156 370.796875 150.921875 371.398438 C 153.929688 371.996094 156.953125 372.519531 159.988281 372.96875 C 163.023438 373.421875 166.066406 373.796875 169.121094 374.097656 C 172.175781 374.398438 175.234375 374.625 178.300781 374.773438 C 181.363281 374.925781 184.429688 375 187.5 375 C 190.570312 375 193.636719 374.925781 196.699219 374.773438 C 199.765625 374.625 202.824219 374.398438 205.878906 374.097656 C 208.933594 373.796875 211.976562 373.421875 215.011719 372.96875 C 218.046875 372.519531 221.070312 371.996094 224.078125 371.398438 C 227.089844 370.796875 230.082031 370.125 233.058594 369.378906 C 236.035156 368.636719 238.992188 367.816406 241.929688 366.925781 C 244.863281 366.035156 247.777344 365.074219 250.667969 364.039062 C 253.554688 363.003906 256.417969 361.902344 259.253906 360.726562 C 262.089844 359.554688 264.890625 358.308594 267.667969 356.996094 C 270.441406 355.6875 273.179688 354.308594 275.886719 352.859375 C 278.59375 351.414062 281.261719 349.902344 283.894531 348.324219 C 286.527344 346.746094 289.117188 345.105469 291.667969 343.402344 C 294.222656 341.695312 296.730469 339.929688 299.195312 338.101562 C 301.660156 336.273438 304.078125 334.386719 306.449219 332.4375 C 308.820312 330.492188 311.144531 328.488281 313.417969 326.429688 C 315.691406 324.367188 317.914062 322.253906 320.082031 320.082031 C 322.253906 317.914062 324.367188 315.691406 326.429688 313.417969 C 328.488281 311.144531 330.492188 308.820312 332.4375 306.449219 C 334.386719 304.078125 336.273438 301.660156 338.101562 299.195312 C 339.929688 296.730469 341.695312 294.222656 343.402344 291.667969 C 345.105469 289.117188 346.746094 286.527344 348.324219 283.894531 C 349.902344 281.261719 351.414062 278.59375 352.859375 275.886719 C 354.308594 273.179688 355.6875 270.441406 356.996094 267.667969 C 358.308594 264.890625 359.554688 262.089844 360.726562 259.253906 C 361.902344 256.417969 363.003906 253.554688 364.039062 250.667969 C 365.074219 247.777344 366.035156 244.863281 366.925781 241.929688 C 367.816406 238.992188 368.636719 236.035156 369.378906 233.058594 C 370.125 230.082031 370.796875 227.089844 371.398438 224.078125 C 371.996094 221.070312 372.519531 218.046875 372.96875 215.011719 C 373.421875 211.976562 373.796875 208.933594 374.097656 205.878906 C 374.398438 202.824219 374.625 199.765625 374.773438 196.699219 C 374.925781 193.636719 375 190.570312 375 187.5 C 374.996094 184.433594 374.917969 181.367188 374.765625 178.304688 C 374.609375 175.238281 374.382812 172.179688 374.078125 169.128906 C 373.773438 166.074219 373.394531 163.03125 372.941406 160 C 372.488281 156.964844 371.964844 153.945312 371.363281 150.933594 C 370.761719 147.925781 370.085938 144.933594 369.339844 141.960938 C 368.589844 138.984375 367.769531 136.03125 366.878906 133.09375 C 365.984375 130.160156 365.023438 127.25 363.988281 124.363281 C 362.953125 121.472656 361.847656 118.613281 360.671875 115.78125 C 359.496094 112.945312 358.25 110.144531 356.9375 107.371094 C 355.625 104.597656 354.246094 101.859375 352.796875 99.15625 C 351.351562 96.449219 349.839844 93.78125 348.261719 91.152344 C 346.683594 88.519531 345.039062 85.929688 343.335938 83.378906 C 341.628906 80.832031 339.863281 78.324219 338.035156 75.859375 C 336.207031 73.398438 334.320312 70.980469 332.375 68.609375 C 330.429688 66.238281 328.425781 63.914062 326.363281 61.640625 C 324.304688 59.371094 322.191406 57.148438 320.019531 54.980469 C 317.851562 52.808594 315.628906 50.695312 313.359375 48.636719 C 311.085938 46.574219 308.761719 44.570312 306.390625 42.625 C 304.019531 40.679688 301.601562 38.792969 299.140625 36.964844 C 296.675781 35.136719 294.167969 33.371094 291.621094 31.664062 C 289.070312 29.960938 286.480469 28.316406 283.847656 26.738281 C 281.21875 25.160156 278.550781 23.648438 275.84375 22.203125 C 273.140625 20.753906 270.402344 19.375 267.628906 18.0625 C 264.855469 16.75 262.054688 15.503906 259.21875 14.328125 C 256.386719 13.152344 253.527344 12.046875 250.636719 11.011719 C 247.75 9.976562 244.839844 9.015625 241.90625 8.121094 C 238.96875 7.230469 236.015625 6.410156 233.039062 5.660156 C 230.066406 4.914062 227.074219 4.238281 224.066406 3.636719 C 221.054688 3.035156 218.035156 2.511719 215 2.058594 C 211.96875 1.605469 208.925781 1.226562 205.871094 0.921875 C 202.820312 0.617188 199.761719 0.390625 196.695312 0.234375 C 193.632812 0.0820312 190.566406 0.00390625 187.5 0 Z M 187.5 358.695312 C 184.699219 358.695312 181.898438 358.625 179.101562 358.488281 C 176.300781 358.351562 173.507812 358.144531 170.71875 357.871094 C 167.933594 357.597656 165.152344 357.253906 162.378906 356.84375 C 159.609375 356.429688 156.847656 355.953125 154.101562 355.40625 C 151.351562 354.859375 148.621094 354.246094 145.902344 353.566406 C 143.183594 352.882812 140.484375 352.136719 137.804688 351.324219 C 135.125 350.511719 132.464844 349.632812 129.824219 348.6875 C 127.1875 347.746094 124.574219 346.734375 121.984375 345.664062 C 119.398438 344.59375 116.835938 343.457031 114.304688 342.257812 C 111.773438 341.0625 109.269531 339.800781 106.800781 338.480469 C 104.328125 337.160156 101.890625 335.78125 99.488281 334.339844 C 97.085938 332.898438 94.71875 331.402344 92.390625 329.84375 C 90.058594 328.289062 87.769531 326.675781 85.519531 325.003906 C 83.269531 323.335938 81.058594 321.613281 78.894531 319.835938 C 76.730469 318.058594 74.609375 316.230469 72.53125 314.347656 C 70.457031 312.464844 68.425781 310.535156 66.445312 308.554688 C 64.464844 306.574219 62.535156 304.542969 60.652344 302.46875 C 58.769531 300.390625 56.941406 298.269531 55.164062 296.105469 C 53.386719 293.941406 51.664062 291.730469 49.996094 289.480469 C 48.324219 287.230469 46.710938 284.941406 45.15625 282.609375 C 43.597656 280.28125 42.101562 277.914062 40.660156 275.511719 C 39.21875 273.109375 37.839844 270.671875 36.519531 268.199219 C 35.199219 265.730469 33.9375 263.226562 32.742188 260.695312 C 31.542969 258.164062 30.40625 255.601562 29.335938 253.015625 C 28.261719 250.425781 27.253906 247.8125 26.3125 245.175781 C 25.367188 242.535156 24.488281 239.875 23.675781 237.195312 C 22.863281 234.515625 22.117188 231.816406 21.433594 229.097656 C 20.753906 226.378906 20.140625 223.644531 19.59375 220.898438 C 19.046875 218.152344 18.570312 215.390625 18.15625 212.621094 C 17.746094 209.847656 17.402344 207.066406 17.128906 204.28125 C 16.855469 201.492188 16.648438 198.699219 16.511719 195.898438 C 16.375 193.101562 16.304688 190.300781 16.304688 187.5 C 16.304688 184.699219 16.375 181.898438 16.511719 179.101562 C 16.648438 176.300781 16.855469 173.507812 17.128906 170.71875 C 17.402344 167.929688 17.746094 165.152344 18.15625 162.378906 C 18.570312 159.609375 19.046875 156.847656 19.59375 154.101562 C 20.140625 151.351562 20.753906 148.621094 21.433594 145.902344 C 22.117188 143.183594 22.863281 140.484375 23.675781 137.804688 C 24.488281 135.125 25.367188 132.464844 26.3125 129.824219 C 27.253906 127.1875 28.261719 124.574219 29.335938 121.984375 C 30.40625 119.398438 31.542969 116.835938 32.742188 114.304688 C 33.9375 111.773438 35.199219 109.269531 36.519531 106.800781 C 37.839844 104.328125 39.21875 101.890625 40.660156 99.488281 C 42.101562 97.085938 43.597656 94.71875 45.15625 92.390625 C 46.710938 90.058594 48.324219 87.769531 49.996094 85.519531 C 51.664062 83.269531 53.386719 81.058594 55.164062 78.894531 C 56.941406 76.730469 58.769531 74.609375 60.652344 72.53125 C 62.535156 70.457031 64.464844 68.425781 66.445312 66.445312 C 68.425781 64.464844 70.457031 62.535156 72.53125 60.652344 C 74.609375 58.769531 76.730469 56.941406 78.894531 55.164062 C 81.058594 53.386719 83.269531 51.664062 85.519531 49.996094 C 87.769531 48.324219 90.058594 46.710938 92.390625 45.15625 C 94.71875 43.597656 97.085938 42.101562 99.488281 40.660156 C 101.890625 39.21875 104.328125 37.839844 106.800781 36.519531 C 109.269531 35.199219 111.773438 33.9375 114.304688 32.742188 C 116.835938 31.542969 119.398438 30.40625 121.984375 29.335938 C 124.574219 28.261719 127.1875 27.253906 129.824219 26.3125 C 132.464844 25.367188 135.125 24.488281 137.804688 23.675781 C 140.484375 22.863281 143.183594 22.117188 145.902344 21.433594 C 148.621094 20.753906 151.351562 20.140625 154.101562 19.59375 C 156.847656 19.046875 159.609375 18.570312 162.378906 18.15625 C 165.152344 17.746094 167.933594 17.402344 170.71875 17.128906 C 173.507812 16.855469 176.300781 16.648438 179.101562 16.511719 C 181.898438 16.375 184.699219 16.304688 187.5 16.304688 C 190.300781 16.304688 193.101562 16.375 195.898438 16.511719 C 198.699219 16.648438 201.492188 16.855469 204.28125 17.128906 C 207.066406 17.402344 209.847656 17.746094 212.621094 18.15625 C 215.390625 18.570312 218.152344 19.046875 220.898438 19.59375 C 223.644531 20.140625 226.378906 20.753906 229.097656 21.433594 C 231.816406 22.117188 234.515625 22.863281 237.195312 23.675781 C 239.875 24.488281 242.535156 25.367188 245.175781 26.3125 C 247.8125 27.253906 250.425781 28.261719 253.015625 29.335938 C 255.601562 30.40625 258.164062 31.542969 260.695312 32.742188 C 263.226562 33.9375 265.730469 35.199219 268.199219 36.519531 C 270.671875 37.839844 273.109375 39.21875 275.511719 40.660156 C 277.914062 42.101562 280.28125 43.597656 282.609375 45.15625 C 284.941406 46.710938 287.230469 48.324219 289.480469 49.996094 C 291.730469 51.664062 293.941406 53.386719 296.105469 55.164062 C 298.269531 56.941406 300.390625 58.769531 302.46875 60.652344 C 304.542969 62.535156 306.574219 64.464844 308.554688 66.445312 C 310.535156 68.425781 312.464844 70.457031 314.347656 72.53125 C 316.230469 74.609375 318.058594 76.730469 319.835938 78.894531 C 321.613281 81.058594 323.335938 83.269531 325.003906 85.519531 C 326.675781 87.769531 328.289062 90.058594 329.84375 92.390625 C 331.402344 94.71875 332.898438 97.085938 334.339844 99.488281 C 335.78125 101.890625 337.160156 104.328125 338.480469 106.800781 C 339.800781 109.269531 341.0625 111.773438 342.257812 114.304688 C 343.457031 116.835938 344.59375 119.398438 345.664062 121.984375 C 346.734375 124.574219 347.746094 127.1875 348.6875 129.824219 C 349.632812 132.464844 350.511719 135.125 351.324219 137.804688 C 352.136719 140.484375 352.882812 143.183594 353.566406 145.902344 C 354.246094 148.621094 354.859375 151.351562 355.40625 154.101562 C 355.953125 156.847656 356.429688 159.609375 356.84375 162.378906 C 357.253906 165.152344 357.597656 167.929688 357.871094 170.71875 C 358.144531 173.507812 358.351562 176.300781 358.488281 179.101562 C 358.625 181.898438 358.695312 184.699219 358.695312 187.5 C 358.691406 190.300781 358.621094 193.101562 358.480469 195.898438 C 358.339844 198.695312 358.132812 201.488281 357.855469 204.273438 C 357.578125 207.0625 357.230469 209.839844 356.820312 212.609375 C 356.40625 215.378906 355.925781 218.140625 355.375 220.886719 C 354.828125 223.632812 354.210938 226.363281 353.527344 229.082031 C 352.84375 231.796875 352.097656 234.496094 351.28125 237.175781 C 350.46875 239.855469 349.585938 242.511719 348.640625 245.148438 C 347.695312 247.785156 346.6875 250.398438 345.613281 252.984375 C 344.539062 255.570312 343.40625 258.132812 342.207031 260.664062 C 341.007812 263.195312 339.746094 265.695312 338.425781 268.164062 C 337.105469 270.632812 335.722656 273.070312 334.28125 275.472656 C 332.84375 277.875 331.34375 280.238281 329.785156 282.566406 C 328.230469 284.894531 326.617188 287.183594 324.949219 289.433594 C 323.277344 291.683594 321.554688 293.890625 319.777344 296.054688 C 318 298.21875 316.171875 300.339844 314.292969 302.414062 C 312.410156 304.492188 310.480469 306.519531 308.5 308.5 C 306.519531 310.480469 304.492188 312.410156 302.414062 314.292969 C 300.339844 316.171875 298.21875 318 296.054688 319.777344 C 293.890625 321.554688 291.683594 323.277344 289.433594 324.949219 C 287.183594 326.617188 284.894531 328.230469 282.566406 329.785156 C 280.238281 331.34375 277.875 332.84375 275.472656 334.28125 C 273.070312 335.722656 270.632812 337.105469 268.164062 338.425781 C 265.695312 339.746094 263.195312 341.007812 260.664062 342.207031 C 258.132812 343.40625 255.570312 344.539062 252.984375 345.613281 C 250.398438 346.6875 247.785156 347.695312 245.148438 348.640625 C 242.511719 349.585938 239.855469 350.46875 237.175781 351.28125 C 234.496094 352.097656 231.796875 352.84375 229.082031 353.527344 C 226.363281 354.210938 223.632812 354.828125 220.886719 355.375 C 218.140625 355.925781 215.378906 356.40625 212.609375 356.820312 C 209.839844 357.230469 207.0625 357.578125 204.273438 357.855469 C 201.488281 358.132812 198.695312 358.339844 195.898438 358.480469 C 193.101562 358.621094 190.300781 358.691406 187.5 358.695312 Z M 187.5 358.695312 " fill-opacity="1" fill-rule="nonzero"/><path fill="#5f021f" d="M 308.96875 219.433594 C 307.554688 218.007812 306.011719 216.734375 304.34375 215.617188 C 302.679688 214.496094 300.917969 213.554688 299.0625 212.785156 C 297.210938 212.015625 295.296875 211.433594 293.328125 211.042969 C 291.359375 210.652344 289.371094 210.460938 287.363281 210.464844 L 231.316406 210.464844 C 230.492188 210.464844 229.683594 210.585938 228.894531 210.832031 C 228.105469 211.078125 227.367188 211.4375 226.6875 211.90625 C 226.007812 212.375 225.410156 212.9375 224.902344 213.585938 C 224.390625 214.238281 223.988281 214.949219 223.695312 215.722656 L 220.636719 223.808594 C 220.179688 225.007812 219.503906 226.0625 218.613281 226.980469 C 217.71875 227.898438 216.679688 228.601562 215.496094 229.09375 C 214.4375 229.546875 213.332031 229.769531 212.179688 229.761719 C 211.027344 229.753906 209.925781 229.515625 208.875 229.042969 C 205.425781 227.480469 202.054688 225.765625 198.761719 223.902344 C 195.464844 222.035156 192.261719 220.023438 189.148438 217.871094 C 186.035156 215.714844 183.027344 213.425781 180.121094 211 C 177.210938 208.574219 174.421875 206.023438 171.742188 203.347656 C 169.066406 200.667969 166.515625 197.875 164.089844 194.96875 C 161.664062 192.0625 159.375 189.054688 157.21875 185.941406 C 155.066406 182.828125 153.054688 179.625 151.1875 176.328125 C 149.324219 173.035156 147.609375 169.664062 146.046875 166.214844 C 145.574219 165.164062 145.332031 164.0625 145.324219 162.910156 C 145.3125 161.757812 145.535156 160.652344 145.988281 159.59375 C 146.480469 158.410156 147.1875 157.371094 148.109375 156.476562 C 149.03125 155.582031 150.089844 154.90625 151.289062 154.449219 L 159.359375 151.386719 C 160.132812 151.09375 160.84375 150.691406 161.496094 150.179688 C 162.148438 149.671875 162.710938 149.078125 163.179688 148.394531 C 163.648438 147.714844 164.007812 146.980469 164.253906 146.191406 C 164.5 145.398438 164.625 144.589844 164.625 143.761719 L 164.625 87.59375 C 164.632812 85.59375 164.441406 83.613281 164.054688 81.652344 C 163.667969 79.691406 163.09375 77.785156 162.328125 75.9375 C 161.5625 74.089844 160.621094 72.335938 159.507812 70.675781 C 158.394531 69.015625 157.125 67.480469 155.707031 66.074219 C 154.25 64.628906 152.667969 63.34375 150.957031 62.210938 C 149.246094 61.082031 147.445312 60.128906 145.542969 59.355469 C 143.644531 58.585938 141.691406 58.003906 139.675781 57.617188 C 137.664062 57.234375 135.632812 57.046875 133.582031 57.066406 L 131.339844 57.066406 C 129.4375 57.070312 127.542969 57.171875 125.652344 57.363281 C 123.761719 57.558594 121.886719 57.839844 120.023438 58.21875 C 118.160156 58.59375 116.320312 59.0625 114.503906 59.621094 C 112.6875 60.175781 110.902344 60.824219 109.148438 61.554688 C 107.398438 62.289062 105.683594 63.105469 104.011719 64.003906 C 102.335938 64.90625 100.710938 65.886719 99.132812 66.945312 C 97.558594 68.007812 96.035156 69.140625 94.570312 70.351562 C 93.105469 71.5625 91.703125 72.839844 90.363281 74.1875 C 89.023438 75.535156 87.75 76.945312 86.550781 78.417969 C 85.347656 79.886719 84.222656 81.414062 83.167969 83 C 82.117188 84.582031 81.144531 86.210938 80.253906 87.890625 C 79.363281 89.566406 78.554688 91.285156 77.832031 93.042969 C 77.105469 94.800781 76.472656 96.585938 75.925781 98.40625 C 75.375 100.226562 74.917969 102.070312 74.550781 103.933594 C 74.183594 105.796875 73.910156 107.675781 73.726562 109.566406 C 73.546875 111.460938 73.457031 113.355469 73.460938 115.253906 C 73.460938 117.105469 73.515625 118.972656 73.574219 120.839844 C 73.6875 123.765625 73.867188 126.683594 74.117188 129.601562 C 74.367188 132.515625 74.683594 135.425781 75.066406 138.328125 C 75.453125 141.226562 75.90625 144.117188 76.425781 147 C 76.945312 149.878906 77.53125 152.746094 78.183594 155.597656 C 78.839844 158.453125 79.558594 161.289062 80.34375 164.105469 C 81.132812 166.925781 81.984375 169.726562 82.898438 172.503906 C 83.816406 175.285156 84.796875 178.039062 85.84375 180.773438 C 86.886719 183.507812 87.996094 186.214844 89.167969 188.898438 C 90.339844 191.578125 91.574219 194.230469 92.871094 196.855469 C 94.167969 199.480469 95.523438 202.074219 96.941406 204.632812 C 98.355469 207.195312 99.832031 209.722656 101.367188 212.210938 C 102.902344 214.703125 104.496094 217.160156 106.144531 219.578125 C 107.792969 221.996094 109.5 224.371094 111.257812 226.710938 C 113.019531 229.050781 114.832031 231.34375 116.703125 233.597656 C 118.570312 235.851562 120.488281 238.058594 122.457031 240.222656 C 124.429688 242.386719 126.449219 244.503906 128.519531 246.574219 C 130.589844 248.644531 132.707031 250.664062 134.871094 252.632812 C 137.035156 254.605469 139.242188 256.523438 141.496094 258.390625 C 143.75 260.257812 146.046875 262.070312 148.382812 263.832031 C 150.722656 265.59375 153.101562 267.296875 155.515625 268.945312 C 157.933594 270.59375 160.390625 272.1875 162.882812 273.722656 C 165.375 275.257812 167.902344 276.730469 170.460938 278.148438 C 173.023438 279.566406 175.617188 280.921875 178.238281 282.21875 C 180.863281 283.511719 183.519531 284.746094 186.199219 285.917969 C 188.882812 287.089844 191.589844 288.199219 194.324219 289.242188 C 197.054688 290.289062 199.8125 291.269531 202.59375 292.1875 C 205.371094 293.101562 208.171875 293.953125 210.992188 294.742188 C 213.808594 295.527344 216.644531 296.246094 219.5 296.898438 C 222.351562 297.554688 225.21875 298.140625 228.097656 298.660156 C 230.980469 299.179688 233.871094 299.632812 236.769531 300.015625 C 239.671875 300.398438 242.582031 300.71875 245.496094 300.964844 C 248.414062 301.214844 251.332031 301.394531 254.257812 301.507812 C 256.101562 301.574219 257.925781 301.613281 259.761719 301.628906 L 260.199219 301.628906 C 262.09375 301.621094 263.980469 301.523438 265.863281 301.328125 C 267.746094 301.136719 269.617188 300.851562 271.472656 300.476562 C 273.324219 300.097656 275.15625 299.632812 276.96875 299.078125 C 278.777344 298.523438 280.554688 297.878906 282.300781 297.148438 C 284.046875 296.421875 285.753906 295.605469 287.421875 294.710938 C 289.085938 293.8125 290.707031 292.835938 292.277344 291.78125 C 293.847656 290.726562 295.363281 289.597656 296.824219 288.394531 C 298.285156 287.191406 299.683594 285.917969 301.019531 284.578125 C 302.355469 283.238281 303.625 281.835938 304.824219 280.371094 C 306.019531 278.90625 307.144531 277.386719 308.195312 275.8125 C 309.246094 274.234375 310.214844 272.613281 311.105469 270.945312 C 311.996094 269.273438 312.804688 267.566406 313.527344 265.816406 C 314.253906 264.066406 314.890625 262.285156 315.4375 260.476562 C 315.988281 258.664062 316.449219 256.832031 316.816406 254.976562 C 317.1875 253.117188 317.464844 251.25 317.652344 249.367188 C 317.839844 247.480469 317.933594 245.59375 317.933594 243.699219 L 317.933594 241.035156 C 317.9375 239.027344 317.746094 237.039062 317.355469 235.070312 C 316.964844 233.101562 316.386719 231.1875 315.617188 229.335938 C 314.847656 227.480469 313.902344 225.71875 312.785156 224.054688 C 311.664062 222.386719 310.390625 220.847656 308.96875 219.433594 Z M 301.628906 241.035156 L 301.628906 243.691406 C 301.632812 246.445312 301.367188 249.175781 300.828125 251.875 C 300.285156 254.574219 299.484375 257.195312 298.421875 259.738281 C 297.359375 262.277344 296.054688 264.6875 294.511719 266.96875 C 292.964844 269.25 291.210938 271.355469 289.246094 273.285156 C 287.34375 275.195312 285.269531 276.902344 283.027344 278.402344 C 280.789062 279.902344 278.421875 281.167969 275.929688 282.203125 C 273.4375 283.234375 270.867188 284.015625 268.222656 284.539062 C 265.578125 285.066406 262.90625 285.328125 260.210938 285.324219 L 259.898438 285.324219 C 258.21875 285.324219 256.53125 285.277344 254.835938 285.210938 C 252.167969 285.109375 249.5 284.945312 246.839844 284.714844 C 244.175781 284.488281 241.519531 284.199219 238.871094 283.847656 C 236.222656 283.496094 233.585938 283.082031 230.953125 282.609375 C 228.324219 282.132812 225.707031 281.597656 223.105469 281.003906 C 220.5 280.40625 217.910156 279.75 215.335938 279.03125 C 212.761719 278.3125 210.207031 277.535156 207.667969 276.699219 C 205.132812 275.863281 202.617188 274.964844 200.121094 274.011719 C 197.625 273.058594 195.152344 272.042969 192.703125 270.976562 C 190.253906 269.90625 187.832031 268.777344 185.4375 267.59375 C 183.042969 266.414062 180.675781 265.175781 178.335938 263.878906 C 176 262.585938 173.691406 261.238281 171.417969 259.839844 C 169.140625 258.4375 166.898438 256.984375 164.691406 255.476562 C 162.484375 253.972656 160.316406 252.417969 158.179688 250.808594 C 156.046875 249.203125 153.949219 247.546875 151.890625 245.839844 C 149.835938 244.136719 147.820312 242.382812 145.84375 240.585938 C 143.867188 238.785156 141.933594 236.941406 140.046875 235.050781 C 138.15625 233.164062 136.3125 231.230469 134.511719 229.253906 C 132.714844 227.277344 130.960938 225.261719 129.257812 223.207031 C 127.550781 221.148438 125.894531 219.050781 124.289062 216.917969 C 122.683594 214.78125 121.125 212.613281 119.621094 210.40625 C 118.113281 208.199219 116.660156 205.957031 115.257812 203.679688 C 113.859375 201.40625 112.511719 199.097656 111.21875 196.761719 C 109.921875 194.421875 108.683594 192.054688 107.503906 189.660156 C 106.320312 187.265625 105.191406 184.84375 104.121094 182.394531 C 103.054688 179.945312 102.039062 177.472656 101.085938 174.976562 C 100.132812 172.484375 99.234375 169.964844 98.398438 167.429688 C 97.5625 164.890625 96.785156 162.335938 96.066406 159.761719 C 95.351562 157.1875 94.691406 154.597656 94.09375 151.992188 C 93.5 149.390625 92.964844 146.773438 92.488281 144.144531 C 92.015625 141.515625 91.601562 138.875 91.25 136.226562 C 90.898438 133.578125 90.609375 130.921875 90.382812 128.257812 C 90.152344 125.597656 89.988281 122.929688 89.886719 120.261719 C 89.828125 118.550781 89.789062 116.84375 89.78125 115.140625 C 89.757812 112.417969 90.003906 109.722656 90.519531 107.046875 C 91.035156 104.375 91.808594 101.777344 92.839844 99.257812 C 93.871094 96.738281 95.144531 94.347656 96.652344 92.078125 C 98.160156 89.8125 99.878906 87.71875 101.804688 85.792969 C 103.734375 83.832031 105.835938 82.074219 108.113281 80.53125 C 110.390625 78.984375 112.800781 77.679688 115.335938 76.613281 C 117.875 75.546875 120.492188 74.742188 123.1875 74.195312 C 125.886719 73.648438 128.613281 73.375 131.363281 73.371094 L 133.597656 73.371094 C 135.578125 73.347656 137.484375 73.703125 139.324219 74.441406 C 141.160156 75.183594 142.785156 76.246094 144.195312 77.632812 C 145.523438 78.953125 146.542969 80.480469 147.257812 82.207031 C 147.972656 83.9375 148.328125 85.738281 148.320312 87.613281 L 148.320312 138.15625 L 145.507812 139.222656 C 143.875 139.84375 142.320312 140.625 140.847656 141.5625 C 139.375 142.503906 138.007812 143.582031 136.753906 144.796875 C 135.5 146.015625 134.382812 147.347656 133.402344 148.792969 C 132.417969 150.238281 131.59375 151.769531 130.925781 153.382812 C 130.269531 154.933594 129.78125 156.535156 129.457031 158.1875 C 129.136719 159.84375 128.984375 161.511719 129.007812 163.195312 C 129.03125 164.878906 129.226562 166.542969 129.59375 168.183594 C 129.964844 169.828125 130.496094 171.414062 131.191406 172.949219 C 132.957031 176.839844 134.890625 180.648438 136.996094 184.367188 C 139.105469 188.085938 141.375 191.699219 143.804688 195.214844 C 146.238281 198.730469 148.824219 202.128906 151.5625 205.410156 C 154.300781 208.691406 157.179688 211.839844 160.203125 214.863281 C 163.222656 217.886719 166.375 220.765625 169.65625 223.503906 C 172.9375 226.242188 176.335938 228.828125 179.851562 231.257812 C 183.363281 233.691406 186.980469 235.960938 190.699219 238.066406 C 194.417969 240.171875 198.222656 242.109375 202.117188 243.871094 C 203.648438 244.570312 205.238281 245.105469 206.878906 245.472656 C 208.523438 245.84375 210.1875 246.039062 211.871094 246.0625 C 213.554688 246.085938 215.222656 245.9375 216.875 245.613281 C 218.527344 245.292969 220.128906 244.804688 221.683594 244.148438 C 223.296875 243.480469 224.824219 242.652344 226.269531 241.671875 C 227.714844 240.6875 229.046875 239.570312 230.265625 238.316406 C 231.484375 237.0625 232.5625 235.699219 233.5 234.226562 C 234.4375 232.75 235.21875 231.199219 235.84375 229.566406 L 236.910156 226.753906 L 287.347656 226.753906 C 288.285156 226.75 289.214844 226.839844 290.136719 227.023438 C 291.054688 227.203125 291.949219 227.472656 292.816406 227.832031 C 293.683594 228.1875 294.507812 228.628906 295.289062 229.148438 C 296.070312 229.667969 296.789062 230.261719 297.453125 230.921875 C 298.117188 231.585938 298.710938 232.308594 299.230469 233.089844 C 299.75 233.867188 300.191406 234.691406 300.550781 235.558594 C 300.90625 236.425781 301.179688 237.320312 301.359375 238.238281 C 301.542969 239.160156 301.632812 240.089844 301.628906 241.027344 Z M 301.628906 241.035156 " fill-opacity="1" fill-rule="nonzero"/></svg>